<svg width="21" height="24" viewBox="0 0 21 24" fill="none" xmlns="http://www.w3.org/2000/svg">
<path d="M15.5729 8.60291H5.42718C5.2015 8.60291 5.01855 8.78585 5.01855 9.01153V17.5196C5.01855 17.7452 5.2015 17.9282 5.42718 17.9282H7.23593V20.7954C7.23593 21.4607 7.77522 22 8.44052 22C9.10577 22 9.64511 21.4607 9.64511 20.7954V17.9282H11.3299V20.7954C11.3299 21.4607 11.8692 22 12.5345 22C13.1998 22 13.7391 21.4607 13.7391 20.7954V17.9282H15.573C15.7987 17.9282 15.9816 17.7452 15.9816 17.5196V9.01153C15.9816 8.78585 15.7986 8.60291 15.5729 8.60291Z" fill="#AAC148"/>
<path d="M3.30127 8.60095C2.63602 8.60095 2.09668 9.14024 2.09668 9.80554V14.6981C2.09668 15.3634 2.63597 15.9027 3.30127 15.9027C3.96652 15.9027 4.50586 15.3634 4.50586 14.6981V9.80554C4.50581 9.14029 3.96652 8.60095 3.30127 8.60095Z" fill="#AAC148"/>
<path d="M17.6987 8.60095C17.0335 8.60095 16.4941 9.14024 16.4941 9.80554V14.6981C16.4941 15.3634 17.0334 15.9027 17.6987 15.9027C18.364 15.9027 18.9033 15.3634 18.9033 14.6981V9.80554C18.9033 9.14029 18.364 8.60095 17.6987 8.60095Z" fill="#AAC148"/>
<path d="M5.50964 8.0062H15.4672C15.727 8.0062 15.9207 7.76691 15.8674 7.51266C15.538 5.94282 14.5385 4.61987 13.1823 3.85562L14.0335 2.31971C14.0912 2.21573 14.0536 2.08468 13.9496 2.02707C13.8454 1.96932 13.7145 2.00703 13.6569 2.11102L12.7992 3.65849C12.0968 3.3325 11.3139 3.15043 10.4884 3.15043C9.66293 3.15043 8.88005 3.3325 8.17757 3.65849L7.31989 2.11097C7.26223 2.00694 7.13118 1.96942 7.02725 2.02703C6.92326 2.08463 6.8857 2.21568 6.9433 2.31966L7.79455 3.85557C6.43834 4.61987 5.43886 5.94277 5.10948 7.51266C5.05609 7.76691 5.24982 8.0062 5.50964 8.0062ZM13.4596 5.71723C13.4596 5.97293 13.2523 6.18027 12.9966 6.18027C12.7409 6.18027 12.5336 5.97298 12.5336 5.71723C12.5336 5.46153 12.7408 5.25419 12.9966 5.25419C13.2523 5.25419 13.4596 5.46153 13.4596 5.71723ZM7.98015 5.25419C8.23585 5.25419 8.44319 5.46148 8.44319 5.71723C8.44319 5.97293 8.2359 6.18027 7.98015 6.18027C7.72445 6.18027 7.51711 5.97298 7.51711 5.71723C7.51711 5.46153 7.7244 5.25419 7.98015 5.25419Z" fill="#AAC148"/>
</svg>
