<svg width="22" height="24" viewBox="0 0 22 24" fill="none" xmlns="http://www.w3.org/2000/svg">
<g clip-path="url(#clip0_626_220658)">
<path d="M14.5518 13.0775C13.7726 13.0775 13.0751 13.4225 12.5968 13.9658L11.3718 13.0983C11.5018 12.74 11.5768 12.3558 11.5768 11.9533C11.5768 11.5575 11.5051 11.18 11.3793 10.8267L12.6018 9.96833C13.0801 10.5092 13.776 10.8517 14.5526 10.8517C15.9901 10.8517 17.1601 9.6825 17.1601 8.24417C17.1601 6.80583 15.9901 5.63667 14.5526 5.63667C13.1151 5.63667 11.9451 6.80583 11.9451 8.24417C11.9451 8.50167 11.9843 8.75 12.0535 8.985L10.8301 9.84333C10.3193 9.21083 9.58346 8.7675 8.74513 8.6325V7.15833C9.92596 6.91 10.816 5.86083 10.816 4.6075C10.816 3.16917 9.64596 2 8.20846 2C6.77096 2 5.6018 3.16917 5.6018 4.6075C5.6018 5.84417 6.46846 6.88083 7.62596 7.14667V8.64C6.0468 8.9175 4.8418 10.2958 4.8418 11.9533C4.8418 13.6192 6.05846 15.0025 7.65013 15.2708V16.8475C6.48096 17.1042 5.60263 18.1475 5.60263 19.3925C5.6018 20.8308 6.77096 22 8.20846 22C9.64596 22 10.816 20.8308 10.816 19.3925C10.816 18.1467 9.93763 17.1042 8.76846 16.8475V15.2708C9.57346 15.135 10.3018 14.7117 10.8185 14.0783L12.0518 14.9517C11.9835 15.1842 11.9451 15.43 11.9451 15.685C11.9451 17.1225 13.1151 18.2925 14.5526 18.2925C15.9901 18.2925 17.1601 17.1233 17.1601 15.685C17.1601 14.2467 15.9893 13.0775 14.5518 13.0775ZM14.5518 6.98083C15.2493 6.98083 15.816 7.54833 15.816 8.245C15.816 8.94167 15.2493 9.50917 14.5518 9.50917C13.8551 9.50917 13.2876 8.94167 13.2876 8.245C13.2876 7.54833 13.8551 6.98083 14.5518 6.98083ZM6.9443 4.6075C6.9443 3.91083 7.51096 3.34333 8.20846 3.34333C8.90596 3.34333 9.47263 3.91083 9.47263 4.6075C9.47263 5.30417 8.90596 5.87167 8.20846 5.87167C7.51096 5.87167 6.9443 5.30417 6.9443 4.6075ZM9.47263 19.3925C9.47263 20.0892 8.90596 20.6567 8.20846 20.6567C7.51096 20.6567 6.9443 20.0892 6.9443 19.3925C6.9443 18.6958 7.51096 18.1283 8.20846 18.1283C8.90596 18.1283 9.47263 18.6958 9.47263 19.3925ZM8.20846 13.7167C7.23596 13.7167 6.44513 12.9258 6.44513 11.9533C6.44513 10.9808 7.23596 10.19 8.20846 10.19C9.18096 10.19 9.9718 10.9808 9.9718 11.9533C9.9718 12.9258 9.18096 13.7167 8.20846 13.7167ZM14.5518 16.9492C13.8543 16.9492 13.2876 16.3817 13.2876 15.685C13.2876 14.9883 13.8543 14.4208 14.5518 14.4208C15.2493 14.4208 15.816 14.9883 15.816 15.685C15.816 16.3817 15.2493 16.9492 14.5518 16.9492Z" fill="black"/>
</g>
<defs>
<clipPath id="clip0_626_220658">
<rect width="20" height="20" fill="white" transform="translate(1 2)"/>
</clipPath>
</defs>
</svg>
