<svg width="22" height="24" viewBox="0 0 22 24" fill="none" xmlns="http://www.w3.org/2000/svg">
<path d="M12.542 14.4819C12.5742 14.6434 12.5904 14.9261 12.5904 15.3299V18.4938H11.7182V15.3638C11.7182 15.0084 11.6843 14.7429 11.6165 14.5667C11.5487 14.3907 11.4284 14.2502 11.2555 14.1452C11.0827 14.0404 10.88 13.9877 10.6475 13.9877C10.276 13.9877 9.95539 14.1056 9.68566 14.3414C9.41594 14.5772 9.28109 15.0246 9.28109 15.6836V18.4938H8.40895V13.3481H9.19387V14.0798C9.5718 13.5145 10.1177 13.2318 10.8316 13.2318C11.1416 13.2318 11.4267 13.2875 11.6868 13.399C11.9468 13.5104 12.1414 13.6566 12.2706 13.8375C12.3998 14.0184 12.4902 14.2332 12.542 14.4819ZM20.9805 18.5255C20.735 18.5772 20.5153 18.603 20.3215 18.603C20.005 18.603 19.7595 18.5529 19.585 18.4528C19.4106 18.3527 19.2879 18.221 19.2168 18.0579C19.1457 17.8949 19.1102 17.5516 19.1102 17.0283V13.9212H17.2166C17.221 13.9259 17.2258 13.9297 17.2302 13.9344C17.6663 14.4028 17.8843 15.0617 17.8843 15.9113C17.8843 15.9629 17.8827 16.0405 17.8795 16.1438H14.042C14.0743 16.7092 14.2342 17.142 14.5217 17.4424C14.8092 17.7428 15.1677 17.893 15.5973 17.893C15.9171 17.893 16.1901 17.809 16.4162 17.641C16.6423 17.4731 16.8216 17.205 16.9541 16.8367L17.8553 16.9482C17.7131 17.4747 17.4499 17.8833 17.0655 18.174C16.6811 18.4648 16.1901 18.6101 15.5925 18.6101C14.8398 18.6101 14.2431 18.3783 13.8022 17.9148C13.3612 17.4515 13.1408 16.8012 13.1408 15.9646C13.1408 15.0989 13.3637 14.427 13.8094 13.9489C14.2552 13.4709 14.8334 13.2318 15.544 13.2318C15.6299 13.2318 15.7141 13.2356 15.7961 13.2428H19.1102V12.1265H19.9775V13.2428H20.8545V13.9211H19.9775V17.0767C19.9775 17.3254 19.9928 17.4853 20.0235 17.5564C20.0542 17.6274 20.1042 17.684 20.1737 17.7259C20.2431 17.7679 20.3425 17.789 20.4717 17.789C20.5686 17.789 20.6962 17.7776 20.8545 17.755L20.9805 18.5255ZM16.9637 15.4268C16.925 14.9939 16.8151 14.6693 16.6343 14.4529C16.3564 14.1169 15.9963 13.949 15.5537 13.949C15.1532 13.949 14.8164 14.083 14.5435 14.3511C14.2706 14.6192 14.1195 14.9778 14.0905 15.4268H16.9637ZM7.16723 17.4461C7.00961 17.4461 6.87586 17.5022 6.7657 17.6162C6.65555 17.7294 6.60098 17.8664 6.60098 18.0282C6.60098 18.1858 6.65555 18.3223 6.7657 18.4373C6.87586 18.5523 7.00961 18.6102 7.16723 18.6102C7.32891 18.6102 7.46652 18.5524 7.57973 18.4373C7.69324 18.3224 7.74965 18.1858 7.74965 18.0282C7.74965 17.8702 7.69328 17.7333 7.57973 17.6185C7.46648 17.5029 7.32891 17.4461 7.16723 17.4461ZM12.7596 12.4374C12.3074 12.636 11.7373 12.7354 11.0493 12.7354C9.84117 12.7354 9.00457 12.5028 8.53941 12.0376C8.53746 12.0357 8.53566 12.0336 8.53371 12.0317L8.75262 12.6142H6.45418L6.09867 11.4416H3.60691L3.26063 12.6142H1.01953L3.6893 5.51106H6.08352L7.86684 10.2569L9.83797 10.1334C9.8832 10.4726 9.97523 10.7311 10.1141 10.9087C10.3403 11.1963 10.6633 11.3399 11.0832 11.3399C11.3965 11.3399 11.638 11.2665 11.8076 11.1195C11.9772 10.9725 12.062 10.8021 12.062 10.6083C12.062 10.4242 11.9812 10.2594 11.8197 10.1141C11.6582 9.96868 11.2835 9.83145 10.6956 9.7022C9.73305 9.48587 9.04664 9.19833 8.63641 8.83978C8.22293 8.48118 8.01621 8.02415 8.01621 7.46853C8.01621 7.10353 8.12199 6.75868 8.33359 6.43407C8.54516 6.10942 8.86336 5.85435 9.28813 5.66853C9.71289 5.48278 10.2951 5.38989 11.0348 5.38989C11.9425 5.38989 12.6346 5.55876 13.1111 5.89622C13.5875 6.2338 13.8709 6.77083 13.9614 7.50728L11.8925 7.62845C11.8376 7.30864 11.7221 7.07606 11.546 6.93071C11.37 6.78536 11.1269 6.71271 10.8168 6.71271C10.5616 6.71271 10.3695 6.76681 10.2402 6.87501C10.111 6.98325 10.0464 7.11485 10.0464 7.26985C10.0464 7.38298 10.0997 7.48478 10.2063 7.57509C10.3097 7.66884 10.5552 7.75606 10.9428 7.83673C11.9022 8.04349 12.5894 8.25271 13.0045 8.46419C13.4195 8.67575 13.7216 8.93829 13.9105 9.25153C14.0073 9.41204 14.0789 9.58247 14.1262 9.76243V5.51106H17.7746C18.5693 5.51106 19.1644 5.70001 19.5601 6.07794C19.9558 6.45591 20.1537 6.99368 20.1537 7.69146C20.1537 8.40853 19.938 8.96899 19.5068 9.37274C19.0755 9.77661 18.4174 9.97841 17.5323 9.97841H16.3307V12.6143H14.1261V10.8616C14.0646 11.1072 13.9614 11.3409 13.816 11.5629C13.564 11.9472 13.2119 12.2387 12.7596 12.4374ZM16.3306 8.53935H16.8685C17.2916 8.53935 17.5888 8.46591 17.76 8.31884C17.9312 8.17188 18.0168 7.9838 18.0168 7.75438C18.0168 7.53149 17.9425 7.34255 17.7939 7.18747C17.6453 7.03243 17.3659 6.95489 16.9557 6.95489H16.3306V8.53935ZM5.6434 9.90571L4.85941 7.35228L4.08352 9.90571H5.6434Z" fill="black"/>
</svg>
