<svg width="22" height="24" viewBox="0 0 22 24" fill="none" xmlns="http://www.w3.org/2000/svg">
<path d="M7.72047 10.77C7.72047 10.955 7.74047 11.105 7.77547 11.215C7.81547 11.325 7.86547 11.445 7.93547 11.575C7.96047 11.615 7.97047 11.655 7.97047 11.69C7.97047 11.74 7.94047 11.79 7.87547 11.84L7.56047 12.05C7.51547 12.08 7.47047 12.095 7.43047 12.095C7.38047 12.095 7.33047 12.07 7.28047 12.025C7.21047 11.95 7.15047 11.87 7.10047 11.79C7.05047 11.705 7.00047 11.61 6.94547 11.495C6.55547 11.955 6.06547 12.185 5.47547 12.185C5.05547 12.185 4.72047 12.065 4.47547 11.825C4.23047 11.585 4.10547 11.265 4.10547 10.865C4.10547 10.44 4.25547 10.095 4.56047 9.835C4.86547 9.575 5.27047 9.445 5.78547 9.445C5.95547 9.445 6.13047 9.46 6.31547 9.485C6.50047 9.51 6.69047 9.55 6.89047 9.595V9.23001C6.89047 8.85001 6.81047 8.58501 6.65547 8.43001C6.49547 8.27501 6.22547 8.2 5.84047 8.2C5.66547 8.2 5.48547 8.22001 5.30047 8.26501C5.11547 8.31001 4.93547 8.365 4.76047 8.435C4.68047 8.47 4.62047 8.49 4.58547 8.5C4.55047 8.51 4.52547 8.51501 4.50547 8.51501C4.43547 8.51501 4.40047 8.465 4.40047 8.36V8.11501C4.40047 8.03501 4.41047 7.97501 4.43547 7.94001C4.46047 7.90501 4.50547 7.87 4.57547 7.835C4.75047 7.745 4.96047 7.67 5.20547 7.61C5.45047 7.545 5.71047 7.51501 5.98547 7.51501C6.58047 7.51501 7.01547 7.65001 7.29547 7.92001C7.57047 8.19001 7.71047 8.60001 7.71047 9.15V10.77H7.72047ZM5.69047 11.53C5.85547 11.53 6.02547 11.5 6.20547 11.44C6.38547 11.38 6.54547 11.27 6.68047 11.12C6.76047 11.025 6.82047 10.92 6.85047 10.8C6.88047 10.68 6.90047 10.535 6.90047 10.365V10.155C6.75547 10.12 6.60047 10.09 6.44047 10.07C6.28047 10.05 6.12547 10.04 5.97047 10.04C5.63547 10.04 5.39047 10.105 5.22547 10.24C5.06047 10.375 4.98047 10.565 4.98047 10.815C4.98047 11.05 5.04047 11.225 5.16547 11.345C5.28547 11.47 5.46047 11.53 5.69047 11.53ZM9.70547 12.07C9.61547 12.07 9.55547 12.055 9.51547 12.02C9.47547 11.99 9.44047 11.92 9.41047 11.825L8.23547 7.96C8.20547 7.86 8.19047 7.795 8.19047 7.76C8.19047 7.68 8.23047 7.635 8.31047 7.635H8.80047C8.89547 7.635 8.96047 7.65 8.99547 7.685C9.03547 7.715 9.06547 7.785 9.09547 7.88L9.93547 11.19L10.7155 7.88C10.7405 7.78 10.7705 7.715 10.8105 7.685C10.8505 7.655 10.9205 7.635 11.0105 7.635H11.4105C11.5055 7.635 11.5705 7.65 11.6105 7.685C11.6505 7.715 11.6855 7.785 11.7055 7.88L12.4955 11.23L13.3605 7.88C13.3905 7.78 13.4255 7.715 13.4605 7.685C13.5005 7.655 13.5655 7.635 13.6555 7.635H14.1205C14.2005 7.635 14.2455 7.675 14.2455 7.76C14.2455 7.785 14.2405 7.81001 14.2355 7.84001C14.2305 7.87001 14.2205 7.91001 14.2005 7.96501L12.9955 11.83C12.9655 11.93 12.9305 11.995 12.8905 12.025C12.8505 12.055 12.7855 12.075 12.7005 12.075H12.2705C12.1755 12.075 12.1105 12.06 12.0705 12.025C12.0305 11.99 11.9955 11.925 11.9755 11.825L11.2005 8.60001L10.4305 11.82C10.4055 11.92 10.3755 11.985 10.3355 12.02C10.2955 12.055 10.2255 12.07 10.1355 12.07H9.70547ZM16.1305 12.205C15.8705 12.205 15.6105 12.175 15.3605 12.115C15.1105 12.055 14.9155 11.99 14.7855 11.915C14.7055 11.87 14.6505 11.82 14.6305 11.775C14.6105 11.73 14.6005 11.68 14.6005 11.635V11.38C14.6005 11.275 14.6405 11.225 14.7155 11.225C14.7455 11.225 14.7755 11.23 14.8055 11.24C14.8355 11.25 14.8805 11.27 14.9305 11.29C15.1005 11.365 15.2855 11.425 15.4805 11.465C15.6805 11.505 15.8755 11.525 16.0755 11.525C16.3905 11.525 16.6355 11.47 16.8055 11.36C16.9755 11.25 17.0655 11.09 17.0655 10.885C17.0655 10.745 17.0205 10.63 16.9305 10.535C16.8405 10.44 16.6705 10.355 16.4255 10.275L15.7005 10.05C15.3355 9.935 15.0655 9.76501 14.9005 9.54001C14.7355 9.32001 14.6505 9.07501 14.6505 8.81501C14.6505 8.60501 14.6955 8.42 14.7855 8.26C14.8755 8.1 14.9955 7.96 15.1455 7.85C15.2955 7.735 15.4655 7.65001 15.6655 7.59001C15.8655 7.53001 16.0755 7.505 16.2955 7.505C16.4055 7.505 16.5205 7.51 16.6305 7.525C16.7455 7.54 16.8505 7.56 16.9555 7.58C17.0555 7.605 17.1505 7.63 17.2405 7.66C17.3305 7.69 17.4005 7.72 17.4505 7.75C17.5205 7.79 17.5705 7.83 17.6005 7.875C17.6305 7.915 17.6455 7.97001 17.6455 8.04001V8.275C17.6455 8.38 17.6055 8.435 17.5305 8.435C17.4905 8.435 17.4255 8.415 17.3405 8.375C17.0555 8.245 16.7355 8.18 16.3805 8.18C16.0955 8.18 15.8705 8.22501 15.7155 8.32001C15.5605 8.41501 15.4805 8.56001 15.4805 8.76501C15.4805 8.90501 15.5305 9.025 15.6305 9.12C15.7305 9.215 15.9155 9.31 16.1805 9.395L16.8905 9.62C17.2505 9.735 17.5105 9.895 17.6655 10.1C17.8205 10.305 17.8955 10.54 17.8955 10.8C17.8955 11.015 17.8505 11.21 17.7655 11.38C17.6755 11.55 17.5555 11.7 17.4005 11.82C17.2455 11.945 17.0605 12.035 16.8455 12.1C16.6205 12.17 16.3855 12.205 16.1305 12.205Z" fill="#252F3E"/>
<path d="M17.075 14.635C15.43 15.85 13.04 16.495 10.985 16.495C8.105 16.495 5.51 15.43 3.55 13.66C3.395 13.52 3.535 13.33 3.72 13.44C5.84 14.67 8.455 15.415 11.16 15.415C12.985 15.415 14.99 15.035 16.835 14.255C17.11 14.13 17.345 14.435 17.075 14.635ZM17.76 13.855C17.55 13.585 16.37 13.725 15.835 13.79C15.675 13.81 15.65 13.67 15.795 13.565C16.735 12.905 18.28 13.095 18.46 13.315C18.64 13.54 18.41 15.085 17.53 15.825C17.395 15.94 17.265 15.88 17.325 15.73C17.525 15.235 17.97 14.12 17.76 13.855Z" fill="#FF9900"/>
</svg>
