<svg width="22" height="24" viewBox="0 0 22 24" fill="none" xmlns="http://www.w3.org/2000/svg">
<path d="M7.94533 3.36337H13.3699L7.73867 20.0482C7.68079 20.2196 7.5706 20.3686 7.42362 20.4741C7.27663 20.5797 7.10025 20.6365 6.91929 20.6365H2.69763C2.56052 20.6365 2.42539 20.6039 2.3034 20.5413C2.18141 20.4787 2.07607 20.388 1.9961 20.2766C1.91613 20.1653 1.86383 20.0365 1.84351 19.9009C1.8232 19.7653 1.83547 19.6268 1.87929 19.4969L7.12575 3.9517C7.1836 3.78018 7.29381 3.63113 7.44084 3.52555C7.58787 3.41997 7.76432 3.36338 7.94533 3.36337Z" fill="url(#paint0_linear_127_5146)"/>
<path d="M15.8278 14.5543H7.22571C7.14574 14.5542 7.06759 14.5782 7.00146 14.6232C6.93532 14.6681 6.88425 14.732 6.85491 14.8064C6.82557 14.8808 6.81931 14.9623 6.83696 15.0403C6.85461 15.1183 6.89533 15.1892 6.95384 15.2437L12.4813 20.4029C12.6423 20.553 12.8542 20.6365 13.0743 20.6364H17.9451L15.8278 14.5543Z" fill="#0078D4"/>
<path d="M7.94521 3.36329C7.76222 3.36259 7.5838 3.42041 7.43601 3.52832C7.28822 3.63623 7.17881 3.78857 7.12375 3.96308L1.88563 19.4827C1.83885 19.613 1.82416 19.7528 1.84281 19.89C1.86146 20.0273 1.91289 20.158 1.99276 20.2712C2.07262 20.3844 2.17857 20.4767 2.30164 20.5402C2.42471 20.6038 2.56128 20.6368 2.69979 20.6364H7.03042C7.19171 20.6076 7.34246 20.5365 7.46727 20.4303C7.59208 20.3242 7.68649 20.1868 7.74083 20.0322L8.78542 16.9537L12.5167 20.4339C12.673 20.5632 12.8692 20.6348 13.0721 20.6364H17.9248L15.7965 14.5543L9.59208 14.5558L13.3894 3.36329H7.94521Z" fill="url(#paint1_linear_127_5146)"/>
<path d="M14.8737 3.95078C14.816 3.77954 14.7059 3.63074 14.5591 3.52534C14.4123 3.41994 14.2361 3.36326 14.0554 3.36328H8.00977C8.19048 3.36329 8.36665 3.41998 8.51345 3.52538C8.66025 3.63077 8.7703 3.77956 8.8281 3.95078L14.0748 19.4966C14.1186 19.6265 14.1309 19.7651 14.1106 19.9007C14.0903 20.0363 14.038 20.1652 13.9581 20.2766C13.8781 20.388 13.7727 20.4787 13.6507 20.5413C13.5287 20.6039 13.3936 20.6366 13.2564 20.6366H19.3023C19.4394 20.6366 19.5745 20.6039 19.6965 20.5413C19.8185 20.4786 19.9238 20.3879 20.0038 20.2765C20.0837 20.1651 20.136 20.0362 20.1563 19.9006C20.1765 19.765 20.1642 19.6265 20.1204 19.4966L14.8737 3.95078Z" fill="url(#paint2_linear_127_5146)"/>
<defs>
<linearGradient id="paint0_linear_127_5146" x1="9.92242" y1="4.64337" x2="4.28888" y2="21.2863" gradientUnits="userSpaceOnUse">
<stop stop-color="#114A8B"/>
<stop offset="1" stop-color="#0669BC"/>
</linearGradient>
<linearGradient id="paint1_linear_127_5146" x1="11.6821" y1="12.3993" x2="10.379" y2="12.84" gradientUnits="userSpaceOnUse">
<stop stop-opacity="0.3"/>
<stop offset="0.071" stop-opacity="0.2"/>
<stop offset="0.321" stop-opacity="0.1"/>
<stop offset="0.623" stop-opacity="0.05"/>
<stop offset="1" stop-opacity="0"/>
</linearGradient>
<linearGradient id="paint2_linear_127_5146" x1="10.9654" y1="4.15786" x2="17.1493" y2="20.6331" gradientUnits="userSpaceOnUse">
<stop stop-color="#3CCBF4"/>
<stop offset="1" stop-color="#2892DF"/>
</linearGradient>
</defs>
</svg>
