<svg width="39" height="24" viewBox="0 0 39 24" fill="none" xmlns="http://www.w3.org/2000/svg">
<path d="M25.3749 6.93652L25.3678 6.86878L25.2581 6.87817L25.2651 6.94585L25.3749 6.93652ZM26.1127 8.71111L26.1151 8.74847L26.1921 8.74149C26.1898 8.71815 26.1991 8.68079 26.2155 8.6341L26.2084 8.56636C26.1758 8.56871 26.143 8.61774 26.1127 8.71111ZM23.2336 10.9457C23.229 10.8827 23.0328 10.6375 22.6452 10.2055C22.6382 10.1262 22.7713 10.0071 23.0445 9.85065L23.8244 9.17115C23.9995 8.94928 24.1022 8.58971 24.1326 8.09002L24.1232 7.9756C24.0929 7.63004 23.8431 7.35216 23.3691 7.13968C23.0888 6.95054 22.5845 6.84544 21.8559 6.82679C21.2535 6.87817 20.4666 7.09294 19.4976 7.47357C19.2314 7.66505 18.9279 7.85654 18.5869 8.04797L18.5916 8.10638C18.6126 8.10404 18.6453 8.09237 18.6826 8.06668C18.7223 8.06199 18.7457 8.0807 18.748 8.11806L18.8064 8.08767L18.8344 8.08533L18.8368 8.11102C18.8391 8.1414 18.6289 8.3072 18.204 8.60372L18.2367 8.66442L18.2086 8.66677L18.1386 8.64108C18.1409 8.66208 18.1106 8.6761 18.0522 8.68079L18.0545 8.70648L18.1223 8.79052C18.1013 8.79287 18.0685 8.78354 18.0242 8.76718C17.9261 8.7765 17.8304 8.82788 17.7346 8.92594L17.7744 8.75316C17.9167 8.13905 18.0148 7.59497 18.0662 7.12332L18.0592 7.09294C17.9611 7.02989 17.8654 6.94115 17.7766 6.82908C17.779 6.7567 17.779 6.71471 17.7766 6.70533L17.7697 6.67964L17.7416 6.68668C17.4334 7.149 16.8403 7.93824 15.96 9.05438C15.2899 9.84831 14.9443 10.2896 14.9233 10.3784C14.6501 10.6609 14.5193 10.8314 14.5333 10.8897C14.4609 10.9364 14.4306 10.9831 14.4422 11.0345C14.4212 11.0392 14.4072 11.0322 14.4025 11.0111C14.2858 11.2003 14.113 11.3217 13.8818 11.3754L13.639 11.4315C13.6063 11.4384 13.59 11.4618 13.5923 11.5015L13.5993 11.5319L13.6904 11.5108L13.6974 11.5365L13.4919 11.6159L13.1276 11.7L12.9361 11.7116C12.9081 11.7397 13.0879 11.7093 13.0179 11.7256L12.7797 11.7817C12.6349 11.8144 12.5556 11.8027 12.5416 11.7444L12.5135 11.7513C12.5182 11.777 12.5205 11.7957 12.5159 11.812L12.5018 11.7537L12.3104 11.798C12.2963 11.7093 12.0372 11.3871 11.5351 10.8314C11.5258 10.7239 11.7032 10.5675 12.0652 10.3644L13.0879 9.46533C13.3168 9.17115 13.4522 8.69944 13.4966 8.05032L13.4826 7.89853C13.4429 7.4409 13.1113 7.07194 12.4878 6.78708C12.1189 6.53724 11.4557 6.40411 10.4984 6.38311C9.70448 6.45085 8.66769 6.73336 7.39279 7.22607C7.04254 7.48054 6.64327 7.73273 6.19496 7.98258L6.20193 8.06199C6.23232 8.05964 6.27196 8.04334 6.32099 8.0153C6.37237 8.01061 6.4004 8.03395 6.40509 8.0807L6.48444 8.0363L6.52415 8.03395L6.52649 8.07131C6.52884 8.10867 6.25096 8.32585 5.68823 8.72278L5.73257 8.79287L5.69292 8.79521L5.60647 8.76483C5.60882 8.78817 5.56911 8.80454 5.48742 8.81151L5.49205 8.85357L5.58548 8.95632C5.55516 8.95867 5.51311 8.94928 5.45938 8.93063C5.27728 8.94699 5.09981 9.07772 4.92469 9.32528L4.96902 9.3953C5.12081 9.25519 5.20954 9.18517 5.23523 9.18282L5.24455 9.29724C5.21887 9.29959 5.17916 9.31589 5.1255 9.34393L5.22121 9.48873C5.40566 9.2902 5.60882 9.11977 5.83069 8.97731C5.94042 9.00535 5.99878 9.04036 6.00112 9.07772L6.08516 9.07074C6.6876 8.62472 7.28306 8.3025 7.87383 8.10404L7.88081 8.18339C7.77108 8.34684 7.69636 8.43095 7.65665 8.43558C7.66135 8.49165 7.67999 8.54068 7.71501 8.58273C7.72439 8.68313 7.45584 9.36029 6.91176 10.6119C5.67656 13.5213 4.63977 15.6742 3.79688 17.0659C3.79916 17.0939 3.81552 17.1312 3.8459 17.178C4.0537 17.1289 4.18448 17.0776 4.24049 17.0285L4.28489 17.0238L4.29187 17.1033L4.36893 17.0962L4.44834 17.0519C4.45069 17.0752 4.47638 17.0869 4.53004 17.0822L4.53708 17.1616C4.54406 17.2387 4.49972 17.3554 4.40629 17.5165C4.32225 17.6123 4.23117 17.8131 4.13545 18.119L4.13774 18.1563L4.2148 18.1493C4.5511 17.7734 4.80557 17.4044 4.98069 17.0448C5.96142 16.7576 6.70866 16.4751 7.22699 16.1972C7.74774 16.1528 8.14467 16.0151 8.41557 15.7886L8.41087 15.7466L8.21475 15.8049L8.17036 15.8096L8.16566 15.7676C8.54864 15.7092 8.8125 15.6251 8.95959 15.5084C9.70449 14.934 10.2672 14.5277 10.6478 14.2872C11.43 13.7128 11.9391 13.1523 12.1702 12.6083C12.2123 12.599 12.2543 12.5896 12.301 12.5779C12.4108 12.5733 12.4715 12.5709 12.4878 12.5663C12.4831 12.5453 12.4925 12.5336 12.5135 12.5289C12.6886 12.5102 12.6046 12.5406 12.7167 12.5149L13.0109 12.4472C12.9922 12.4518 12.9852 12.4612 12.9899 12.4799L13.0342 12.4518C13.0249 12.4518 13.0179 12.4495 13.0109 12.4472L13.0599 12.4355L13.0365 12.4495C13.0693 12.4542 13.1043 12.4518 13.144 12.4425L13.165 12.5289L11.827 14.6561L11.5304 15.0274L11.3857 15.5131L11.4137 15.5061L11.5585 15.4454L11.5118 15.6345L11.5258 15.6905L11.5655 15.7396C11.5468 15.7442 11.5398 15.7559 11.5445 15.7769L11.5515 15.8073L11.6122 15.7933C11.7009 15.7162 11.7383 15.6462 11.7243 15.5831C11.82 15.5994 11.883 15.6065 11.9158 15.5972L11.9228 15.6275C11.8644 15.6415 11.834 15.6882 11.8293 15.7676L11.8364 15.798L11.869 15.7909C12.3548 15.2609 13.5456 13.4466 14.5006 12.216C14.4703 12.0829 14.9676 11.8984 15.995 11.6603L16.0277 11.6533C16.0651 11.8144 15.9857 12.2043 15.7896 12.8231C15.6635 13.1967 15.6028 13.4022 15.6121 13.4349C15.4486 13.9322 15.3716 14.2008 15.3809 14.2428L15.0166 15.436C14.7808 16.0478 14.6011 16.69 14.475 17.3671C14.496 17.3624 14.5286 17.3648 14.5754 17.3764L14.6267 17.332C14.6314 17.3531 14.6454 17.3601 14.6664 17.3554L14.6454 17.269L14.8042 17.2644C14.8508 17.2527 14.8905 17.1943 14.9233 17.0869C14.9162 16.9258 14.949 16.8394 15.0213 16.8207C15.1194 16.4378 15.1801 16.2463 15.2011 16.2392C15.2922 15.8587 15.3599 15.6415 15.4042 15.5878C15.5421 15.0928 15.6424 14.8382 15.7078 14.8219L15.7218 14.8826L15.6214 15.1418C15.4463 15.9194 15.2688 16.5335 15.0891 16.9841L15.1404 17.2083L15.1731 17.2013C15.6074 16.2673 16.2332 14.418 17.0481 11.6533C17.0715 11.4104 17.1882 11.2213 17.3961 11.0882L17.3493 11.0392L17.3423 11.0135C17.4358 10.9925 17.5011 10.9551 17.5385 10.9037C17.5338 10.8827 17.4521 10.8524 17.2933 10.8103L17.6996 9.0684C17.7883 8.98898 17.8397 8.94699 17.856 8.94699L17.8631 9.03573C17.842 9.03801 17.8094 9.04969 17.772 9.07537L17.8491 9.18517C17.9891 9.03338 18.1409 8.9026 18.3067 8.79287C18.3907 8.81621 18.4328 8.84424 18.4375 8.87228L18.4982 8.86758C18.9605 8.52901 19.4135 8.28614 19.8595 8.13905L19.8642 8.19741C19.7825 8.32115 19.7264 8.3842 19.696 8.38655C19.7007 8.4286 19.7124 8.46596 19.7334 8.49862C19.7404 8.57569 19.5396 9.08939 19.1287 10.0421C18.1899 12.2487 17.403 13.8809 16.7632 14.941C16.7656 14.962 16.7796 14.99 16.8053 15.0274C16.9617 14.99 17.0621 14.9503 17.1018 14.913L17.1299 14.9106L17.1346 14.969L17.1999 14.9643L17.2583 14.934C17.2606 14.9503 17.2816 14.9574 17.3214 14.955L17.326 15.0181C17.3307 15.0741 17.298 15.1628 17.2256 15.2842C17.1579 15.3566 17.0878 15.5084 17.0131 15.7396L17.0154 15.7699L17.0761 15.7652C17.3307 15.4804 17.5244 15.2002 17.6576 14.9246C18.4024 14.7052 18.9698 14.4927 19.3621 14.2825C19.7614 14.2475 20.0626 14.1447 20.2681 13.9719L20.2658 13.9416L20.114 13.986L20.0814 13.9883L20.079 13.9579C20.3686 13.9159 20.5717 13.8505 20.6814 13.7642C21.2465 13.3298 21.6738 13.0193 21.9634 12.8372C22.8647 12.181 23.285 11.5505 23.2336 10.9457ZM23.0795 10.9854L23.1005 11.2213C23.0725 11.2797 23.0422 11.31 23.0141 11.3123L22.9791 10.9107C23.0444 10.9341 23.0772 10.9574 23.0795 10.9854ZM5.39868 9.08476L5.35898 9.08704L5.352 9.01467L5.51311 9.00066L5.51545 9.03801C5.48977 9.04036 5.45006 9.05438 5.39868 9.08476ZM4.6118 16.9561C4.51837 16.9141 4.43433 16.8977 4.36195 16.9047L4.35257 16.7903C4.34794 16.746 4.37362 16.7156 4.42963 16.7039C4.48101 16.6993 4.51139 16.7366 4.51602 16.8114C4.6515 16.6456 4.72622 16.5615 4.74024 16.5592L4.82663 16.5942C4.79859 16.8277 4.72622 16.9468 4.6118 16.9561ZM13.0202 8.16005C12.9805 8.16474 12.9011 8.04099 12.7867 7.79578L12.7797 7.72341C12.8544 7.71643 12.9315 7.83783 13.0132 8.08767L13.0202 8.16005ZM12.9081 7.28912L12.8754 7.36618L11.7336 6.88984C12.4948 6.91553 12.8871 7.0486 12.9081 7.28912ZM8.08631 11.4291L7.92521 11.4431L7.91817 11.3707L8.07927 11.3567L8.08631 11.4291ZM7.95552 8.9423L7.99523 8.93995L8.00456 9.05438C7.9672 9.05673 7.91817 9.11273 7.85747 9.22018L7.85043 9.14077C7.92286 9.05438 7.96022 8.98899 7.95552 8.9423ZM7.61695 9.74086L7.63096 9.89264L7.59126 9.89499L7.57724 9.74321L7.61695 9.74086ZM7.43948 10.0258L7.51654 10.0187C7.50956 10.1448 7.47455 10.2126 7.4115 10.2172L7.3718 10.2195C7.42083 10.1355 7.44417 10.0701 7.43948 10.0258ZM7.3064 10.4227L7.35074 10.418L7.35309 10.4554L7.28072 10.5768L7.20365 10.5838L7.2013 10.5465C7.27837 10.5395 7.31338 10.4998 7.3064 10.4227ZM7.17562 10.78L7.15227 10.9714L7.11257 10.9738L7.09627 10.7846L7.17562 10.78ZM5.8657 14.5044C5.81433 14.7659 5.75826 14.8989 5.6999 14.9036L5.69756 14.8663C5.68354 14.7378 5.73961 14.6164 5.8657 14.5044ZM5.62518 15.025L5.62753 15.0624C5.63216 15.1138 5.60882 15.1442 5.55744 15.1464L5.55516 15.1091C5.55047 15.0647 5.57381 15.0367 5.62518 15.025ZM5.55516 16.1062L5.67656 16.0945L5.68119 16.1365C5.65087 16.1388 5.61117 16.1552 5.56214 16.1832L5.48507 16.1902C5.48038 16.1506 5.50607 16.1202 5.5551 16.1062H5.55516ZM9.01097 15.0391C8.32912 15.3753 7.92749 15.6041 7.80844 15.7232C7.07058 15.9801 6.70397 16.1388 6.71094 16.2019C6.05484 16.4611 5.62284 16.6526 5.41505 16.7717C5.36602 16.7763 5.29593 16.7576 5.20256 16.7156C5.19089 16.5825 5.25159 16.4751 5.37997 16.3887C5.4944 16.3793 5.60413 16.3957 5.70923 16.4401C5.83069 16.377 6.04317 16.307 6.34439 16.2323L6.33735 16.1528L6.09455 16.1739C6.12487 16.1319 6.35835 16.0221 6.79733 15.8447L6.9188 15.833L6.92114 15.8703C6.71329 15.889 6.59887 15.9498 6.57318 16.0595C6.57787 16.1085 6.60591 16.1295 6.65728 16.1249C6.8137 16.0268 6.89076 15.9684 6.88841 15.952C7.185 15.896 8.00456 15.4664 9.3472 14.6655L9.35424 14.7378C9.35658 14.7728 9.24216 14.8709 9.01097 15.0391ZM6.95146 15.7162C7.14764 15.6998 7.31573 15.6205 7.45584 15.4827C7.51185 15.478 7.54223 15.499 7.54458 15.5481C7.4488 15.5575 7.26435 15.6368 6.99586 15.7909L6.95616 15.7933L6.95146 15.7162ZM10.2742 13.164L9.24444 13.979C8.47855 14.481 8.0676 14.7331 8.00925 14.7378C6.79035 15.408 6.0315 15.7559 5.73726 15.7816L5.69292 15.7862C5.73028 15.6485 6.27196 14.5394 7.32277 12.4518C7.78509 12.4121 8.51363 12.1974 9.50602 11.8051L9.74882 11.784C10.2509 11.7397 10.6268 11.8377 10.8743 12.0713L10.8883 12.223C10.7015 12.7601 10.4961 13.073 10.2742 13.164ZM8.26144 12.0316L8.42724 12.0175L8.42952 12.0549L8.26378 12.0689L8.26144 12.0316ZM10.5894 11.6369L10.7109 11.6252C10.823 11.679 10.8813 11.7256 10.886 11.7677L10.8883 11.8051C10.7809 11.8144 10.6805 11.7584 10.5894 11.6369ZM10.9187 9.76192C10.8113 9.8903 10.5171 10.1098 10.036 10.418C9.87726 10.432 9.2865 10.6609 8.26378 11.1092C8.21241 11.0858 8.15868 11.0765 8.10033 11.0812L8.09329 11.0088C8.08162 10.8617 8.14701 10.6772 8.29176 10.4531C8.37117 10.0328 8.45756 9.79224 8.55333 9.73388L9.40561 7.81684C9.39623 7.69772 9.57839 7.60664 9.95198 7.54359L10.0734 7.53192L10.0828 7.64171C10.4493 7.58564 10.6782 7.55298 10.7669 7.54594C11.4441 7.48758 11.7967 7.62535 11.8247 7.9546L11.9018 7.94756L11.8854 7.75379L11.9694 7.74675C12.1679 7.85654 12.2753 7.98961 12.2894 8.14603C12.2987 8.25347 12.2403 8.38655 12.1165 8.54537C12.0652 8.55 12.0348 8.51264 12.0301 8.43792L11.9461 8.44496L11.9274 8.67844C11.5842 9.19214 11.3343 9.456 11.1802 9.47002C11.0401 9.66386 10.9537 9.75957 10.9187 9.76192ZM11.4417 11.1046C11.3717 11.0578 11.3156 11.0368 11.2736 11.0392L11.2642 10.9247L11.3413 10.9178L11.5118 11.0182C11.5188 11.0718 11.4954 11.0999 11.4417 11.1046ZM11.9834 11.7466C12.0582 11.777 12.1026 11.8097 12.1119 11.8401L12.0745 11.8494L12.0769 11.8517C12.0698 11.8517 12.0605 11.8541 12.0535 11.8564L11.9975 11.9008L11.9834 11.7466ZM12.0348 12.0689L12.0278 12.0385L12.1259 12.0152L12.1329 12.0456L12.0348 12.0689ZM12.2707 12.3328C12.3711 12.3164 12.4201 12.3094 12.6069 12.2674L12.6139 12.2978L12.259 12.3795C12.2637 12.3631 12.2683 12.3468 12.2707 12.3328ZM12.6163 12.4799C12.4668 12.4939 12.4995 12.4752 12.2613 12.5289L12.2543 12.4986L12.5509 12.4028L12.6933 12.3701L12.7073 12.4261C12.6442 12.4402 12.691 12.4402 12.6163 12.4799ZM12.9315 12.4051C12.8964 12.4145 12.8685 12.3982 12.8521 12.3585L12.9432 12.3374C12.9828 12.3281 13.0085 12.3444 13.0179 12.3842L12.9315 12.4051ZM13.7861 11.4851L13.7791 11.4548L13.9262 11.4198L13.9402 11.4758L13.7861 11.4851ZM14.6991 17.0845C14.7084 17.0425 14.7108 17.0122 14.7061 16.9911L14.7388 16.9841C14.7785 16.9748 14.8018 16.9888 14.8112 17.0262L14.8182 17.0565L14.6991 17.0845ZM15.3389 11.7256L15.2735 11.714C15.1684 11.756 15.0797 11.7863 15.0073 11.8027L14.9466 11.8167C14.9116 11.8261 14.8836 11.812 14.8695 11.7747L15.2969 11.6766L15.437 11.6112L15.4837 11.6649C15.4159 11.679 15.3669 11.7 15.3389 11.7256ZM15.6681 11.6205L15.6611 11.5902C15.6821 11.5855 15.7102 11.5692 15.7405 11.5388L16.044 11.4688L16.0511 11.4991C15.89 11.5388 15.7615 11.5786 15.6681 11.6205ZM15.7148 11.0064C15.6938 11.0111 15.6658 11.0298 15.6307 11.0578C15.6261 11.0368 15.5841 11.0368 15.5047 11.0555C15.4907 10.9971 15.7148 10.9154 16.1795 10.808L16.2449 10.794L16.2589 10.85C15.932 10.9457 15.7499 10.9995 15.7148 11.0064ZM16.5321 10.1238C16.4994 10.4951 16.3687 10.7053 16.1375 10.7589L16.1305 10.7286L15.925 10.808L15.8339 10.829C15.7872 10.8407 15.7452 10.8384 15.7078 10.8267L15.6892 10.7449C15.6821 10.7146 15.9787 10.3036 16.5811 9.51436L16.6512 9.52609C16.6769 9.63348 16.6372 9.83194 16.5321 10.1238ZM17.9775 8.88623L17.9495 8.88858L17.9448 8.83022L18.0662 8.81855L18.0685 8.84887C18.0475 8.85357 18.0172 8.86524 17.9775 8.88623ZM17.3821 14.8663C17.312 14.8335 17.2489 14.8196 17.1953 14.8242L17.1882 14.7355C17.1859 14.7052 17.2046 14.6841 17.2443 14.6724C17.284 14.6678 17.3073 14.6958 17.312 14.7565C17.4124 14.6281 17.4684 14.5627 17.4801 14.5627L17.5432 14.5884C17.5198 14.7659 17.4661 14.8592 17.3821 14.8663ZM23.766 8.18808C23.7356 8.19043 23.6773 8.097 23.5862 7.90786L23.5816 7.8495C23.6399 7.84481 23.7006 7.93589 23.7613 8.12269L23.766 8.18808ZM23.682 7.52025L23.6539 7.58095L22.79 7.21903C23.3667 7.23774 23.6656 7.33815 23.682 7.52025ZM20.0183 10.6656L19.8968 10.6772L19.8922 10.6188L20.0136 10.6095L20.0183 10.6656ZM19.9179 8.7765L19.9506 8.77415L19.9575 8.86289C19.9272 8.86524 19.8899 8.90729 19.8455 8.98899L19.8408 8.93063C19.8946 8.86289 19.9202 8.81151 19.9179 8.7765ZM19.6634 9.38363L19.6727 9.49806L19.64 9.5004L19.6306 9.38598L19.6634 9.38363ZM19.5256 9.60081L19.5863 9.59612C19.5793 9.69418 19.5536 9.74555 19.5092 9.75025L19.4766 9.75253C19.5116 9.6872 19.5279 9.63582 19.5256 9.60081ZM19.4275 9.89968L19.4556 9.89733L19.4579 9.92765L19.4042 10.0211L19.3434 10.0258L19.3411 9.99539C19.4042 9.9907 19.4322 9.95804 19.4275 9.89968ZM19.3295 10.1705L19.3084 10.32L19.2804 10.3223L19.2687 10.1752L19.3295 10.1705ZM18.3324 13.0029C18.2927 13.1991 18.2507 13.2995 18.2063 13.3041L18.204 13.2784C18.197 13.1804 18.239 13.087 18.3324 13.0029ZM18.1479 13.3975L18.1502 13.4232C18.1549 13.4652 18.1363 13.4886 18.0942 13.4909L18.0919 13.4606C18.0895 13.4302 18.1082 13.4092 18.1479 13.3975ZM18.0966 14.2194L18.1899 14.2125L18.1923 14.2428C18.1713 14.2451 18.1386 14.2568 18.1012 14.2779L18.0405 14.2825C18.0382 14.2498 18.0569 14.2288 18.0966 14.2194ZM20.7188 13.4092C20.2051 13.6637 19.8992 13.8365 19.8035 13.9253C19.243 14.1214 18.9652 14.2428 18.9698 14.2919C18.4725 14.4903 18.1456 14.6327 17.9915 14.7238C17.9541 14.7262 17.9004 14.7121 17.8304 14.6795C17.821 14.5791 17.8677 14.4973 17.9658 14.4366C18.0545 14.4296 18.1386 14.4413 18.2156 14.474C18.309 14.4273 18.4702 14.3759 18.699 14.3176L18.6943 14.2591L18.5028 14.2732C18.5262 14.2405 18.706 14.1564 19.0399 14.021L19.1333 14.014L19.1356 14.0397C18.9769 14.0537 18.8881 14.1004 18.8694 14.1844C18.8718 14.2218 18.8951 14.2405 18.9348 14.2358C19.0516 14.1587 19.1076 14.1144 19.1076 14.1004C19.3318 14.0607 19.9529 13.7338 20.9733 13.122L20.978 13.1804C20.9803 13.2061 20.8939 13.2808 20.7188 13.4092ZM19.1544 13.9229C19.3061 13.9089 19.4345 13.8505 19.542 13.7478C19.5816 13.7431 19.605 13.7618 19.6073 13.7992C19.5373 13.8061 19.3995 13.8646 19.1917 13.9766L19.159 13.979L19.1544 13.9229ZM21.6808 11.9825L20.9033 12.6083C20.3218 12.9889 20.0066 13.1804 19.9575 13.1851C19.0329 13.6941 18.4585 13.9579 18.232 13.9766L18.1993 13.979C18.2273 13.8739 18.6407 13.0309 19.4392 11.4478C19.7871 11.4174 20.3382 11.2516 21.0947 10.9528L21.2839 10.9364C21.6645 10.9037 21.9494 10.9785 22.1362 11.1582L22.1455 11.2726C22.003 11.6743 21.849 11.9101 21.6808 11.9825ZM20.1537 11.1232L20.2751 11.1115L20.2775 11.1419L20.1561 11.1536L20.1537 11.1232ZM21.9213 10.822L22.0148 10.815C22.1012 10.857 22.1455 10.8944 22.1478 10.9247L22.1502 10.9504C22.0684 10.9574 21.9914 10.9154 21.9213 10.822ZM22.1665 9.4C22.0848 9.49806 21.863 9.66614 21.5011 9.89968C21.3796 9.91135 20.9313 10.0841 20.1561 10.4204C20.1187 10.4063 20.0767 10.4017 20.0323 10.4041L20.0276 10.3456C20.0183 10.2336 20.0673 10.0935 20.1747 9.92302C20.2354 9.60081 20.3032 9.42099 20.3732 9.37894L21.0247 7.92187C21.0177 7.83549 21.1554 7.76546 21.4357 7.71174L21.529 7.70476L21.5361 7.79349C21.8116 7.7491 21.9844 7.72341 22.0544 7.71643C22.5681 7.67203 22.8367 7.77478 22.8577 8.02697L22.9184 8.02228L22.9067 7.88217L22.9674 7.87754C23.1169 7.95923 23.1962 8.05735 23.2056 8.17406C23.2126 8.25817 23.1705 8.36086 23.0818 8.47998C23.0422 8.48461 23.0188 8.45663 23.0141 8.39593L22.9534 8.40056L22.9347 8.57569C22.6756 8.97034 22.4864 9.1735 22.3673 9.18282C22.2623 9.32528 22.1969 9.39765 22.1665 9.4ZM22.4397 10.3713L22.4327 10.2826L22.4934 10.278L22.6242 10.3573C22.6265 10.3947 22.6078 10.4157 22.5681 10.4204C22.5121 10.3853 22.47 10.369 22.4397 10.3713ZM11.5702 16.0431L11.5095 16.0571L11.4581 16.1015C11.4674 16.1388 11.4907 16.1528 11.5304 16.1435C11.5702 16.1342 11.5865 16.1109 11.5772 16.0735L11.5702 16.0431ZM11.339 15.5831L11.346 15.6135C11.3857 15.6041 11.402 15.5808 11.3927 15.5434L11.3857 15.5131C11.3483 15.5224 11.332 15.5458 11.339 15.5831ZM12.9828 11.6719L13.0529 11.6556L13.0389 11.5949L12.9689 11.6112L12.9828 11.6719ZM34.1709 13.4513C33.461 13.61 33.3723 13.582 33.2229 13.5937L33.2275 13.6521L33.2929 13.6474L33.3279 13.645L33.3186 13.6381L33.3956 13.6077C34.0985 13.5306 34.1802 13.5586 34.1732 13.4792L34.1709 13.4513ZM30.3484 13.9579L30.3531 14.0163H30.3624L30.3578 13.9579H30.3484ZM29.9094 12.4192L29.8464 12.3982C29.795 12.5359 29.7693 12.6176 29.7717 12.641L29.774 12.6667C29.8231 12.6643 29.8675 12.5803 29.9094 12.4192ZM34.3156 13.4396L34.3203 13.4979L34.423 13.5166L34.4184 13.4582L34.3156 13.4396ZM29.4845 14.0303L29.3257 14.0116L29.2977 14.0723L29.3 14.1027L30.2457 14.0233L30.241 13.965L29.4845 14.0303ZM29.0548 11.9592L29.0525 11.9288L29.0198 11.9312L28.9614 11.9685L28.9941 12.0245C29.0385 12.0199 29.0595 11.9988 29.0548 11.9592ZM34.764 13.0099L34.8084 13.0052C34.834 13.0029 34.8457 12.9819 34.8434 12.9445L34.8177 12.8885C34.6566 12.9025 34.5819 12.9095 34.4511 12.9819L34.4487 12.9516L34.2549 12.9702C34.2503 12.9119 34.234 12.8815 34.2083 12.8838L34.1079 12.8932C33.9911 12.9025 33.935 12.8979 33.8767 12.9422C33.8743 12.9212 33.8673 12.9119 33.8557 12.9119L33.7436 12.9212L33.6782 12.9586C33.6759 12.9376 33.6689 12.9282 33.6571 12.9282L33.6175 12.9632L33.6152 12.9329L33.4587 12.9212L33.4213 12.9235L33.426 12.9819L33.5054 13.0029L33.5801 12.9983C33.6058 13.0146 33.6338 13.0193 33.6665 13.0169L33.7319 12.9842L33.7342 13.0099C33.3677 13.101 33.3699 13.0847 33.1178 13.1267C33.0898 13.108 33.0687 13.0987 33.0547 13.101L33.0501 13.1056C33.022 13.1033 33.0057 13.0846 33.0034 13.0543L33.1341 13.038C33.1434 13.038 33.1505 13.0473 33.2229 13.0613C33.3279 13.0099 33.3326 12.9889 33.3887 12.9842L33.384 12.9258C33.0244 12.9959 33.1691 12.9492 32.7185 12.9889L32.6975 12.9912L32.6928 12.9329C33.2719 12.8628 33.0781 12.9025 33.2766 12.8465C33.2789 12.8675 33.2859 12.8768 33.2976 12.8768C33.3209 12.8535 33.3466 12.8418 33.377 12.8372L33.4167 12.8348C33.6198 12.8184 33.6875 12.8581 34.0891 12.7461L34.0915 12.7718L34.1569 12.739L34.2176 12.7344C34.2129 12.676 34.3016 12.6667 34.332 12.6643L34.3273 12.6013C33.6221 12.7437 33.4377 12.704 33.2416 12.7601L33.2392 12.7344C33.0548 12.7671 33.0477 12.753 33.001 12.7554C32.987 12.7577 32.966 12.7694 32.9426 12.7928C32.9403 12.7718 32.9333 12.7624 32.9193 12.7624C32.9123 12.7624 32.91 12.7647 32.9076 12.7647L32.3099 12.8628C32.3075 12.8465 32.3005 12.8372 32.2865 12.8394C31.976 12.9048 32.06 12.9165 31.6444 12.9539C31.6257 12.9562 31.6 12.9655 31.5673 12.9866C31.565 12.9702 31.5556 12.9609 31.5347 12.9632L31.2801 12.9842L31.1097 13.0262C31.1073 13.0099 31.098 13.0006 31.077 13.0029C30.9812 13.0286 30.8972 13.0449 30.8295 13.0496H30.8248C30.7828 13.0543 30.8458 13.038 30.8131 13.0239L30.7617 13.0543C30.687 13.0613 30.7267 13.0496 30.4699 13.0519C30.0192 13.108 30.0683 13.115 30.0192 13.1173L29.8511 13.1056C29.8534 13.122 29.8441 13.1337 29.8254 13.1337C29.6339 13.108 29.5359 13.0776 29.5335 13.0426C29.5592 12.8605 29.6036 12.7671 29.6666 12.7624L29.6993 12.7601L29.6713 12.8208L29.704 12.8184C29.7647 12.7858 29.7927 12.7554 29.7904 12.7274L29.7857 12.6643L29.725 12.669L29.7203 12.6107C29.7157 12.5663 29.7226 12.5265 29.739 12.4939L29.8768 12.2721L29.8815 12.3304L29.9468 12.3257L29.9422 12.2674L29.9048 12.2137C29.9538 12.1717 29.9912 12.1483 30.0215 12.146L30.0192 12.1156L29.9305 12.1226L29.9235 12.0339C30.1009 11.6649 30.185 11.4501 30.1803 11.3894L30.2434 11.4151C30.2831 11.4128 30.3017 11.3894 30.2994 11.3474L30.2387 11.3521L30.2363 11.3264C30.2317 11.282 30.241 11.24 30.2597 11.2026C30.3555 11.1022 30.3998 11.0018 30.3905 10.8967C30.4092 10.8944 30.4185 10.9037 30.4209 10.9247C30.5026 10.8781 30.5656 10.7543 30.6123 10.5488C30.7571 10.2873 30.9625 9.76426 31.2311 8.98201C31.7448 7.59966 31.7238 7.45257 31.7962 7.12566L31.7355 7.13029C31.7401 7.17235 31.7308 7.21205 31.7121 7.24941C31.6701 7.23305 31.6374 7.22372 31.6141 7.22607L31.6117 7.20038C31.6023 7.08126 31.6514 6.93887 31.7635 6.77072L31.7915 6.76837L31.8428 6.96919L31.9036 6.96456C31.9013 6.95054 31.9176 6.87113 31.9503 6.72404C31.9479 6.69366 31.9246 6.67501 31.8779 6.67266L31.8195 6.71002C31.8149 6.66797 31.8172 6.55824 31.8242 6.38311L31.7938 6.38546C31.7424 6.33408 31.7168 6.29203 31.7144 6.25702L31.3805 6.28968C31.3782 6.26634 31.3665 6.23133 31.3432 6.18699C31.3408 6.15661 31.4155 6.12623 31.5697 6.09591L31.6374 6.1216L31.7005 6.08424C31.7027 6.10524 31.7144 6.11456 31.7378 6.11228L31.8008 6.07492C31.8031 6.09591 31.8148 6.10524 31.8382 6.10289L31.8685 6.1006L31.8638 6.03286C31.8172 6.03756 31.6934 6.03756 31.4973 6.03052L31.4342 6.07257L31.4319 6.03521C29.8651 6.16359 28.9755 6.23602 28.763 6.25702C28.7349 6.25936 28.6252 6.25702 28.4314 6.25233C28.4337 6.27801 28.4104 6.29203 28.3637 6.29672L28.296 6.26634L28.0671 6.32476C28.0134 6.32939 27.9224 6.32704 27.7963 6.31309C27.7613 6.34106 27.7192 6.35742 27.6678 6.36212C27.6398 6.3644 28.0017 6.34341 28.338 6.32007C28.3029 6.3481 28.2493 6.3644 28.1746 6.37144C28.1232 6.37614 28.0788 6.3691 28.0414 6.3481C27.99 6.37144 27.8243 6.4088 27.5464 6.46481L27.4787 6.43918L26.3859 6.60727C26.3438 6.58627 26.2948 6.57923 26.2388 6.58393C26.1804 6.58862 26.0823 6.60961 25.9469 6.64697L25.4192 6.86643L25.4589 6.93183C25.4846 6.92948 25.5219 6.91553 25.5663 6.88984L25.7531 6.90614L25.7297 7.08126C25.557 7.15833 25.4565 7.27275 25.4285 7.41756C25.1693 7.53192 25.0409 7.61368 25.0409 7.66271L25.0433 7.69309L25.083 7.69074L25.153 7.65338L25.2347 7.75144L25.2464 7.88686C25.251 7.92891 24.8144 8.84659 23.9411 10.6399C23.1846 12.3678 22.7876 13.3135 22.7503 13.4839C22.4911 13.5563 22.3416 13.6614 22.2973 13.8015C22.302 13.8458 22.379 13.8762 22.5284 13.8879L22.5354 13.9556L22.4677 14.0677L22.4794 14.2031C22.4864 14.2732 22.6756 14.3269 23.0468 14.3642C23.0445 14.3409 23.0562 14.3269 23.0818 14.3245C23.0889 14.4086 23.0655 14.572 23.0118 14.8149L23.0515 14.8126C23.2056 14.6024 23.278 14.4576 23.271 14.3783L23.3037 14.3759C23.341 14.3736 23.3807 14.4156 23.4274 14.5066C23.3807 14.5254 23.2173 14.8966 22.9371 15.6228L22.9768 15.6882L23.0165 15.6859C23.3597 14.8172 23.5745 14.3362 23.6633 14.2451C24.1139 14.2054 24.8938 14.1261 26.0006 14.007L26.0707 13.965C26.073 13.9883 26.087 14 26.1127 13.9976L26.1851 13.9907L26.2552 13.9486C26.2575 13.9719 26.2715 13.9836 26.2972 13.9813L27.1354 13.9089C27.3573 13.8902 27.4623 13.8225 27.453 13.7081C27.4507 13.6778 27.5814 13.6427 27.8453 13.6053C27.871 13.603 27.9084 13.61 27.9597 13.6264C27.9574 13.6053 28.0905 13.5843 28.3567 13.561C28.3637 13.4209 28.408 13.3462 28.4874 13.3392L28.4804 13.2714C28.4057 13.2784 28.3217 13.2971 28.2236 13.3298C28.0485 13.3205 27.9364 13.3065 27.8896 13.2901C27.843 13.3158 27.8079 13.3298 27.7823 13.3321L27.1985 13.3509L27.1284 13.3882C27.1261 13.3672 27.1121 13.3578 27.0864 13.3602L27.0537 13.3625L26.979 13.3999C26.9767 13.3788 26.916 13.3625 26.7945 13.3462L26.7198 13.3905L26.575 13.4022L26.5727 13.3648C27.3246 13.2831 27.6959 13.1804 27.6865 13.059C27.7356 13.0543 27.7613 13.0776 27.7659 13.1267L27.9854 13.0706L27.9784 13.0029L26.1781 13.0519C26.1804 13.0753 26.1687 13.0893 26.1431 13.0916L25.9236 13.073C25.8675 13.0776 25.8208 13.094 25.7835 13.122L25.7018 13.0916C25.4753 13.1103 25.3071 13.1384 25.195 13.1734C25.0409 13.1617 24.8705 13.164 24.6813 13.1804L24.2774 13.2154L24.0906 13.1944C24.0812 13.0753 24.3124 12.4892 24.7887 11.4384C24.9265 11.0835 25.0526 10.8617 25.174 10.7777C25.1997 10.7753 25.2371 10.7846 25.2885 10.8056L25.5757 10.7076L25.7228 10.7309C25.9703 10.7099 26.2575 10.6399 26.5867 10.5184C26.6685 10.5114 26.7292 10.5161 26.7735 10.5348L26.993 10.4834L27.6468 10.4274C27.9247 10.4041 28.2259 10.3433 28.5528 10.2429L28.5458 10.1752C28.4244 10.1869 28.3614 10.1659 28.3567 10.1168C28.3497 10.0258 28.261 9.98842 28.0905 10.0024L28.0835 9.93469L28.2633 9.88332L28.7349 9.84361L28.7279 9.77593C28.7093 9.77822 28.6135 9.77593 28.4361 9.76889L28.429 9.69652L28.6112 9.68016C28.6602 9.67553 28.6812 9.65212 28.6766 9.60544C28.4314 9.61248 28.3076 9.60081 28.3053 9.56808C26.596 9.65212 25.7391 9.66849 25.7344 9.61476C25.7087 9.61711 25.6737 9.63348 25.627 9.66151L25.5826 9.59142C26.0356 8.62941 26.3019 8.14374 26.3789 8.1367C26.3812 8.17406 26.3626 8.23476 26.3205 8.31652L26.3228 8.34684L26.3952 8.33986C26.575 7.9102 26.7268 7.6884 26.8529 7.67907C27.39 7.63233 26.7782 7.59731 27.927 7.41756C27.9737 7.43855 28.0064 7.44788 28.0298 7.44553C28.4804 7.35451 29.1085 7.25874 29.9141 7.16068L29.9094 7.09294L29.4798 7.13264L29.4751 7.06496C29.5265 7.06027 29.5685 7.04391 29.6036 7.01593L29.6059 7.05329C29.6293 7.05094 29.6619 7.03458 29.704 7.00655C29.7787 6.99957 29.8347 7.00655 29.8744 7.0276C30.0239 6.9879 30.1453 6.96456 30.234 6.95517L30.5026 6.92948C30.5679 6.88749 30.5983 6.85013 30.596 6.81512L30.5936 6.78474C30.5259 6.79172 30.4488 6.78708 30.3578 6.77072C30.3555 6.73336 30.3741 6.70767 30.4185 6.696L30.9182 6.64932L31.147 6.5909C31.1493 6.61659 31.1611 6.62598 31.1797 6.62598C31.2031 6.62363 31.2358 6.60727 31.2778 6.57923C31.2894 6.58158 31.3035 6.58158 31.3151 6.58393C31.2848 6.64697 31.2497 6.73805 31.2147 6.85711L31.1493 6.8618C31.1447 6.8174 31.133 6.77776 31.112 6.74269L31.0793 6.74503C30.4722 8.43558 30.2013 9.22253 29.641 10.5208C29.5382 10.8524 29.4518 11.0368 29.3771 11.0765C29.3794 11.1139 29.4028 11.1325 29.4425 11.1279C29.4564 11.2914 29.4191 11.4525 29.3281 11.6112C29.0688 12.3585 28.8961 12.7671 28.8073 12.8418L28.8657 13.1944C28.868 13.2317 28.8494 13.2527 28.8097 13.2574L28.749 13.2621C28.7396 13.164 28.7046 13.1173 28.6415 13.1244L28.6089 13.1267C28.5294 13.2505 28.4687 13.3928 28.429 13.5586L28.4897 13.554C28.5715 13.5003 28.6089 13.4372 28.6018 13.3648L28.7233 13.3531L28.7933 13.3788C28.7373 13.4676 28.7116 13.5377 28.7162 13.5913L28.749 13.6474L28.6696 13.8342L28.6719 13.8646C28.7419 13.8575 28.819 13.8809 28.9007 13.9299C28.9568 13.9253 29.0175 13.8996 29.0852 13.8552C29.1552 13.8482 29.4167 13.8458 29.8675 13.8458L30.0939 13.7688C30.3695 13.7664 30.4138 13.7735 30.652 13.7525L30.7501 13.7431L30.8014 13.7081L30.8038 13.7385C31.0536 13.7174 31.07 13.7338 31.2661 13.7571L31.2684 13.7875L31.1307 13.7992L31.1353 13.8575C31.1774 13.8529 31.2147 13.8412 31.2451 13.8155C31.2801 13.8132 31.3011 13.8318 31.3035 13.8739C31.2474 13.8786 31.1844 13.8925 31.1143 13.9159L31.0536 13.8949C30.9579 13.9206 30.9789 13.9276 30.9135 13.9322L30.8178 13.9136C30.8201 13.9299 30.8108 13.9416 30.7945 13.9416C30.7967 13.979 30.8178 13.9976 30.8528 13.9953L30.9509 13.986L31.4622 13.9416L31.6561 13.8996C31.6584 13.9159 31.6654 13.9253 31.6817 13.9229L31.7751 13.8879L31.9503 13.8739C32.0857 13.8622 32.0834 13.8529 32.3775 13.8061C32.3753 13.7875 32.3822 13.7805 32.3963 13.7782L32.3986 13.8038C32.8773 13.7221 32.9076 13.7174 32.9847 13.6917L32.9917 13.7057C33.1108 13.6778 33.043 13.6847 33.0758 13.6614C33.0781 13.6824 33.0851 13.6917 33.0968 13.6917L33.1808 13.6847L33.1762 13.6217L33.0057 13.6193L33.0034 13.6147C32.9963 13.617 32.9917 13.617 32.9847 13.6193H32.9613V13.624C32.8469 13.6474 32.8446 13.631 32.7698 13.6381L32.3425 13.6614L32.3402 13.631L32.5784 13.5984L32.6647 13.5913L32.7138 13.5563L32.7161 13.5867C33.0524 13.5586 33.1715 13.6427 34.7266 13.3112C34.8106 13.3041 34.8037 13.2341 34.8574 13.0893C34.8294 13.0916 34.8013 13.0846 34.7756 13.0706C34.6472 13.1197 34.5795 13.0963 34.332 13.136C34.311 13.1384 34.2947 13.1197 34.2876 13.0823L34.2853 13.0566L34.5234 13.0636C34.5678 13.059 34.6542 13.0519 34.7827 12.9796C34.7827 13.0006 34.7359 13.0123 34.764 13.0099ZM23.2663 13.1944L23.1565 13.2037C23.1519 13.1594 23.2103 12.9912 23.3317 12.704L23.4041 12.697C23.4064 12.7647 23.362 12.9305 23.2663 13.1944ZM23.3994 12.662L23.397 12.6316C23.3947 12.5943 23.4181 12.5686 23.4695 12.5569L23.4718 12.5872C23.4741 12.6316 23.4508 12.6573 23.3994 12.662ZM24.8588 13.7898L24.8612 13.8202L24.679 13.8365L24.6766 13.8061L24.8588 13.7898ZM24.6393 13.7711C24.6416 13.8085 24.5856 13.8505 24.4642 13.8925L24.24 13.8762L24.1676 13.8832L24.1607 13.8155L24.6393 13.7711ZM26.1151 6.97857L26.0053 6.9879L26.003 6.95054C26.0006 6.91318 26.0216 6.88749 26.0683 6.87582L26.108 6.87347L26.1827 6.90379C26.1851 6.94819 26.1641 6.97388 26.1151 6.97857ZM27.7846 6.65167L27.8196 6.64932L27.8242 6.717L27.7238 6.72638C27.7216 6.68903 27.7402 6.66334 27.7846 6.65167ZM27.3643 6.79876L27.1985 6.78005L27.1961 6.74973C27.4133 6.73102 27.4857 6.70767 27.6188 6.67031C27.6212 6.696 27.6445 6.70533 27.6865 6.7007L27.6912 6.76837L27.6258 6.77541C27.5744 6.78005 27.5301 6.77307 27.4927 6.75207C27.453 6.77776 27.411 6.79406 27.3643 6.79876ZM27.5721 7.40354L27.5698 7.37316L27.8383 7.34747L27.8406 7.37785L27.5721 7.40354ZM27.8593 7.17L27.857 7.13264L27.9877 7.12097L27.99 7.15833L27.8593 7.17ZM27.8896 6.71237L27.8546 6.71471L27.885 6.64228L28.1839 6.61431L28.1862 6.65167C28.1092 6.65864 28.0088 6.67964 27.8896 6.71237ZM28.0414 7.3568L28.0367 7.28912L28.1675 7.27745C28.2119 7.27275 28.2353 7.29375 28.2376 7.34049L28.0414 7.3568ZM28.833 6.27801L28.6649 6.32476L28.6345 6.32704C28.5551 6.33408 28.4524 6.33174 28.331 6.32007C28.5482 6.30605 28.7559 6.28968 28.833 6.27801ZM28.6532 7.02526L28.6555 7.05558L28.4244 7.07663L28.4221 7.04625L28.6532 7.02526ZM29.0315 7.20501C29.0291 7.17704 28.9848 7.15833 28.8937 7.149L28.6626 7.2144L28.4851 7.22138C28.4454 7.19334 28.4244 7.17469 28.4221 7.16068L28.6276 7.17235L29.0899 7.09763L29.3257 7.10695L29.3281 7.14431C29.2113 7.15598 29.1132 7.17704 29.0315 7.20501ZM31.4109 6.5909C31.4389 6.59325 31.4576 6.59325 31.4646 6.59325C31.5463 6.5139 31.6374 6.45085 31.7424 6.40645C31.6584 6.77541 31.5276 7.0486 31.3479 7.22607L31.2171 7.14666C31.3268 6.86878 31.3922 6.68433 31.4109 6.5909ZM31.0093 7.27979L31.0419 7.27745C30.9975 7.36149 30.9579 7.40583 30.9252 7.40817L30.9182 7.31944C30.9392 7.31944 30.9696 7.30542 31.0093 7.27979ZM30.7501 7.89853C30.8131 7.64634 30.8738 7.50395 30.9299 7.46659L30.9322 7.49691C30.8995 7.73045 30.8481 7.8542 30.7804 7.86352L30.7921 8.01061C30.736 8.09002 30.7103 8.15072 30.7127 8.19741L30.68 8.19975L30.6613 7.99659C30.6987 7.99196 30.7291 7.95923 30.7501 7.89853ZM30.6496 8.23476C30.652 8.26984 30.6286 8.35153 30.582 8.47763L30.5492 8.47998L30.5423 8.39124C30.5866 8.28849 30.624 8.23711 30.6496 8.23476ZM28.7653 13.7034L28.763 13.6778L28.8237 13.6731L28.8307 13.7618C28.798 13.7642 28.7747 13.7454 28.7653 13.7034ZM31.4576 13.7735C31.4552 13.7525 31.4459 13.7431 31.4249 13.7454L31.2731 13.7595L31.2708 13.7291H31.2848L31.6444 13.6988L31.6467 13.7291C31.5416 13.7338 31.4786 13.7501 31.4576 13.7735ZM31.2778 13.6988C31.2918 13.7057 31.2848 13.7128 31.2778 13.7174C31.2708 13.7151 31.2615 13.7081 31.2778 13.6988ZM31.2965 13.2784L31.0957 13.2948L31.0933 13.2644L31.2754 13.2481L31.4342 13.2084C31.4366 13.227 31.4459 13.2341 31.4669 13.2317C31.6561 13.1991 31.6374 13.1897 31.7284 13.1827C31.7588 13.1804 31.7775 13.1991 31.7798 13.2364L31.2965 13.2784ZM31.9993 13.2177C31.8872 13.2061 31.8802 13.1967 31.8009 13.2037L31.7985 13.178L31.9783 13.1617L31.9806 13.1874C31.962 13.1897 32.0296 13.1944 31.9993 13.2177ZM32.0133 13.1851L32.011 13.1594L32.1091 13.15L32.1114 13.1757L32.0133 13.1851ZM32.2305 13.1663L32.2282 13.1407C32.2445 13.1384 32.2678 13.1267 32.2982 13.1033C32.3472 13.0987 32.3729 13.1313 32.3776 13.1687L32.2305 13.1663ZM32.5083 13.1313L32.506 13.101L32.6251 13.0916L32.6275 13.122L32.5083 13.1313ZM32.6741 13.1173C32.6718 13.0823 32.6858 13.0613 32.7162 13.0566L32.7558 13.108C32.7535 13.0916 32.7605 13.0823 32.7745 13.08L32.8049 13.136L32.6741 13.1173ZM30.9112 13.8786L30.9065 13.8202L30.8878 13.8225L30.8925 13.8809L30.9112 13.8786ZM35.0139 12.8161C35.0325 12.8044 35.0418 12.7928 34.9975 12.7858C34.9764 12.8091 35.0208 12.8161 34.9742 12.8184L34.9764 12.8394C34.9811 12.8348 34.9928 12.8278 35.0021 12.8208L34.9764 12.8418V12.8441L34.9274 12.9072L35.0255 12.8722H35.0372L35.0325 12.8138L35.0139 12.8161ZM35.1843 12.9492L35.1656 12.9516L35.1703 13.0099L35.308 12.9983C35.3057 12.9609 35.2146 12.9492 35.1843 12.9492ZM34.9718 12.8465L34.9742 12.8441V12.8418C34.9742 12.8418 34.9718 12.8441 34.9718 12.8465Z" fill="black"/>
<path d="M26.0072 8.52434L26.0096 8.5617L26.0867 8.55472C26.0843 8.53138 26.0936 8.49402 26.11 8.44728L26.103 8.3796C26.0703 8.38194 26.0376 8.43097 26.0072 8.52434ZM25.2694 6.74975L25.2624 6.68201L25.1526 6.69134L25.1597 6.75908L25.2694 6.74975ZM23.1282 10.759C23.1235 10.6959 22.9274 10.4508 22.5398 10.0188C22.5327 9.93942 22.6659 9.8203 22.939 9.66388L23.719 8.98438C23.8941 8.76251 23.9968 8.40294 24.0271 7.90325L24.0178 7.78883C23.9874 7.44321 23.7376 7.1654 23.2636 6.95291C22.9834 6.76377 22.479 6.65867 21.7505 6.63996C21.1481 6.69134 20.3611 6.90617 19.3922 7.2868C19.1259 7.47829 18.8224 7.66971 18.4815 7.8612L18.4862 7.91962C18.5071 7.91727 18.5398 7.9056 18.5772 7.87991C18.6169 7.87522 18.6403 7.89393 18.6426 7.93129L18.701 7.90091L18.729 7.89856L18.7313 7.92425C18.7336 7.95463 18.5235 8.12037 18.0985 8.41696L18.1312 8.47766L18.1032 8.48L18.0331 8.45432C18.0355 8.47531 18.0051 8.48933 17.9468 8.49402L17.9491 8.51971L18.0168 8.60375C17.9958 8.6061 17.9631 8.59677 17.9187 8.58041C17.8207 8.58973 17.7249 8.64111 17.6292 8.73917L17.6689 8.56639C17.8113 7.95228 17.9094 7.4082 17.9608 6.93655L17.9537 6.90617C17.8557 6.84312 17.76 6.75439 17.6712 6.64231C17.6736 6.56994 17.6736 6.52788 17.6712 6.51856L17.6642 6.49287L17.6362 6.49991C17.328 6.96224 16.7348 7.75147 15.8546 8.86761C15.1844 9.66154 14.8388 10.1028 14.8178 10.1915C14.5446 10.4741 14.4138 10.6445 14.4278 10.703C14.3555 10.7496 14.3251 10.7963 14.3368 10.8477C14.3158 10.8524 14.3018 10.8454 14.2971 10.8244C14.1804 11.0135 14.0076 11.1349 13.7764 11.1886L13.5335 11.2446C13.5008 11.2517 13.4845 11.275 13.4868 11.3147L13.4939 11.345L13.5849 11.324L13.5919 11.3497L13.3864 11.4291L13.0222 11.5132L12.8307 11.5249C12.8027 11.5529 12.9825 11.5225 12.9124 11.5389L12.6743 11.5949C12.5295 11.6276 12.4501 11.6159 12.4361 11.5576L12.408 11.5646C12.4127 11.5903 12.4151 11.6089 12.4104 11.6253L12.3964 11.5669L12.2049 11.6112C12.1909 11.5225 11.9317 11.2003 11.4297 10.6445C11.4203 10.5372 11.5978 10.3807 11.9597 10.1776L12.9825 9.27856C13.2113 8.98438 13.3467 8.51267 13.3911 7.86355L13.3771 7.71177C13.3374 7.25413 13.0059 6.88517 12.3824 6.60032C12.0135 6.35047 11.3503 6.21734 10.3929 6.19635C9.59902 6.26402 8.56229 6.54659 7.28732 7.0393C6.93708 7.29378 6.5378 7.54596 6.08949 7.79581L6.09647 7.87522C6.12685 7.87287 6.16655 7.85657 6.21558 7.82854C6.26696 7.82384 6.29499 7.84718 6.29962 7.89393L6.37904 7.84953L6.41874 7.84718L6.42103 7.88454C6.42337 7.9219 6.1455 8.13908 5.58276 8.53601L5.62716 8.6061L5.58746 8.60844L5.50107 8.57806C5.50341 8.6014 5.46371 8.61777 5.38195 8.62475L5.38664 8.6668L5.48001 8.76955C5.44969 8.7719 5.40764 8.76251 5.35398 8.74386C5.17181 8.76017 4.99434 8.89095 4.81922 9.13845L4.86362 9.20854C5.0154 9.06842 5.10407 8.9984 5.12976 8.99605L5.13915 9.11048C5.11346 9.11276 5.07375 9.12913 5.02003 9.15716L5.11581 9.3019C5.30025 9.10344 5.50341 8.93301 5.72522 8.79055C5.83495 8.81858 5.89337 8.85359 5.89565 8.89095L5.97976 8.88398C6.5822 8.43795 7.17759 8.11574 7.76836 7.91727L7.7754 7.99662C7.66561 8.16007 7.59089 8.24418 7.55118 8.24881C7.55588 8.30488 7.57459 8.35391 7.6096 8.39596C7.61892 8.49637 7.35037 9.17352 6.80635 10.4251C5.57109 13.3345 4.53436 15.4874 3.69141 16.8791C3.69375 16.9071 3.71012 16.9445 3.74044 16.9911C3.94829 16.9421 4.07901 16.8908 4.13508 16.8417L4.17942 16.8371L4.18646 16.9164L4.26346 16.9094L4.34287 16.8651C4.34522 16.8884 4.37091 16.9001 4.42463 16.8954L4.43161 16.9748C4.43859 17.0519 4.39425 17.1686 4.30082 17.3297C4.21678 17.4255 4.1257 17.6263 4.02998 17.9322L4.03233 17.9695L4.1094 17.9625C4.44563 17.5866 4.70016 17.2176 4.87529 16.8581C5.85601 16.5709 6.60319 16.2883 7.12159 16.0105C7.64227 15.9661 8.0392 15.8283 8.3101 15.6018L8.30541 15.5598L8.10929 15.6182L8.06489 15.6229L8.06026 15.5808C8.44317 15.5225 8.70703 15.4384 8.85418 15.3217C9.59902 14.7472 10.1617 14.3409 10.5424 14.1004C11.3246 13.526 11.8336 12.9656 12.0648 12.4215C12.1068 12.4122 12.1489 12.4028 12.1956 12.3912C12.3053 12.3865 12.3661 12.3842 12.3824 12.3795C12.3777 12.3585 12.3871 12.3468 12.408 12.3421C12.5832 12.3235 12.4991 12.3538 12.6112 12.3281L12.9054 12.2604L12.9545 12.2487L12.9311 12.2627C12.9638 12.2674 12.9988 12.2651 13.0385 12.2557L13.0595 12.3421L11.7216 14.4693L11.425 14.8406L11.2802 15.3263L11.3083 15.3193L11.453 15.2586L11.4063 15.4477L11.4203 15.5038L11.4601 15.5528C11.4413 15.5575 11.4344 15.5691 11.439 15.5901L11.446 15.6205L11.5067 15.6065C11.5955 15.5294 11.6328 15.4594 11.6188 15.3964C11.7145 15.4127 11.7776 15.4197 11.8103 15.4104L11.8173 15.4407C11.7589 15.4547 11.7285 15.5014 11.7239 15.5808L11.7309 15.6111L11.7636 15.6042C12.2493 15.0741 13.4401 13.2598 14.3952 12.0292C14.3648 11.8962 14.8622 11.7117 15.8896 11.4735L15.9223 11.4665C15.9596 11.6276 15.8803 12.0176 15.6841 12.6364C15.558 13.01 15.4973 13.2154 15.5066 13.2481C15.3432 13.7455 15.2661 14.014 15.2755 14.056L14.9112 15.2492C14.6753 15.861 14.4956 16.5031 14.3695 17.1803C14.3905 17.1757 14.4232 17.178 14.4699 17.1897L14.5213 17.1453C14.5259 17.1663 14.5399 17.1733 14.561 17.1686L14.5399 17.0822L14.6987 17.0776C14.7454 17.0659 14.7851 17.0075 14.8178 16.9001C14.8108 16.739 14.8435 16.6526 14.9159 16.6339C15.0139 16.251 15.0747 16.0595 15.0957 16.0525C15.1868 15.6719 15.2544 15.4547 15.2988 15.401C15.4366 14.906 15.537 14.6515 15.6024 14.6351L15.6164 14.6958L15.516 14.955C15.3408 15.7326 15.1634 16.3467 14.9836 16.7974L15.035 17.0215L15.0676 17.0145C15.502 16.0805 16.1278 14.2311 16.9427 11.4665C16.966 11.2236 17.0828 11.0345 17.2906 10.9014L17.2439 10.8524L17.2369 10.8267C17.3303 10.8057 17.3957 10.7684 17.4331 10.717C17.4284 10.6959 17.3467 10.6656 17.1878 10.6235L17.5942 8.88163C17.6829 8.80222 17.7343 8.76023 17.7506 8.76023L17.7576 8.8489C17.7366 8.85125 17.7039 8.86292 17.6665 8.88861L17.7436 8.9984C17.8837 8.84662 18.0355 8.71583 18.2012 8.6061C18.2853 8.62944 18.3273 8.65747 18.332 8.68545L18.3927 8.68082C18.855 8.34224 19.3081 8.09937 19.7541 7.95228L19.7587 8.01064C19.677 8.13439 19.6209 8.19743 19.5906 8.19978C19.5953 8.24183 19.6069 8.27919 19.628 8.31186C19.635 8.38892 19.4341 8.90262 19.0232 9.85531C18.0845 12.0619 17.2976 13.6941 16.6578 14.7542C16.6601 14.7752 16.6741 14.8033 16.6998 14.8406C16.8563 14.8033 16.9567 14.7636 16.9964 14.7262L17.0244 14.7238L17.0291 14.7822L17.0945 14.7776L17.1528 14.7472C17.1552 14.7636 17.1762 14.7705 17.2159 14.7682L17.2206 14.8313C17.2252 14.8873 17.1925 14.976 17.1202 15.0974C17.0524 15.1699 16.9824 15.3217 16.9077 15.5528L16.91 15.5832L16.9707 15.5785C17.2252 15.2936 17.419 15.0134 17.5521 14.7379C18.297 14.5184 18.8644 14.3059 19.2567 14.0957C19.656 14.0607 19.9572 13.958 20.1627 13.7852L20.1603 13.7548L20.0085 13.7992L19.9759 13.8015L19.9735 13.7712C20.2631 13.7291 20.4662 13.6638 20.576 13.5774C21.1411 13.143 21.5684 12.8325 21.8579 12.6503C22.7592 11.9942 23.1796 11.3638 23.1282 10.759ZM22.9741 10.7987L22.9951 11.0345C22.9671 11.0929 22.9367 11.1232 22.9087 11.1256L22.8736 10.724C22.939 10.7473 22.9717 10.7706 22.9741 10.7987ZM5.29321 8.89799L5.25357 8.90028L5.24653 8.82791L5.40764 8.81389L5.40998 8.85125C5.3843 8.85359 5.34459 8.86761 5.29321 8.89799ZM4.50633 16.7693C4.41296 16.7273 4.32886 16.711 4.25649 16.718L4.24716 16.6035C4.24247 16.5592 4.26816 16.5288 4.32423 16.5171C4.37554 16.5125 4.40592 16.5499 4.41061 16.6246C4.54603 16.4588 4.62075 16.3747 4.63477 16.3724L4.72116 16.4074C4.69312 16.6409 4.62075 16.76 4.50633 16.7693ZM12.9148 7.97328C12.8751 7.97797 12.7957 7.85422 12.6813 7.60901L12.6743 7.53664C12.749 7.52966 12.826 7.65106 12.9077 7.90091L12.9148 7.97328ZM12.8027 7.10235L12.77 7.17941L11.6281 6.70301C12.3894 6.7287 12.7817 6.86183 12.8027 7.10235ZM7.98084 11.2424L7.81974 11.2564L7.81276 11.1839L7.97387 11.1699L7.98084 11.2424ZM7.85006 8.75553L7.88976 8.75319L7.89915 8.86761C7.86179 8.86996 7.81276 8.92597 7.752 9.03341L7.74502 8.954C7.81739 8.86761 7.85475 8.80222 7.85006 8.75553ZM7.51148 9.55409L7.5255 9.70587L7.48585 9.70822L7.47183 9.55644L7.51148 9.55409ZM7.33407 9.83901L7.41113 9.83197C7.40409 9.95806 7.36908 10.0258 7.30603 10.0304L7.26633 10.0328C7.31536 9.94874 7.3387 9.88335 7.33407 9.83901ZM7.20094 10.2359L7.24533 10.2312L7.24762 10.2686L7.17525 10.3901L7.09818 10.397L7.0959 10.3597C7.17296 10.3527 7.20797 10.313 7.20094 10.2359ZM7.07021 10.5932L7.04687 10.7847L7.00716 10.787L6.9908 10.5979L7.07021 10.5932ZM5.76023 14.3176C5.70886 14.5791 5.65285 14.7122 5.59443 14.7169L5.59215 14.6795C5.57813 14.5511 5.63414 14.4297 5.76023 14.3176ZM5.51972 14.8383L5.52206 14.8756C5.52676 14.927 5.50341 14.9574 5.45204 14.9597L5.44969 14.9223C5.445 14.878 5.46834 14.8499 5.51972 14.8383ZM5.44969 15.9194L5.57109 15.9077L5.57579 15.9498C5.5454 15.9521 5.5057 15.9684 5.45667 15.9965L5.3796 16.0034C5.37497 15.9637 5.40066 15.9334 5.44969 15.9194ZM8.9055 14.8523C8.22371 15.1885 7.82208 15.4174 7.70297 15.5364C6.96511 15.7933 6.5985 15.9521 6.60554 16.0151C5.94938 16.2743 5.51737 16.4658 5.30958 16.5849C5.26055 16.5895 5.19052 16.5709 5.0971 16.5288C5.08542 16.3957 5.14613 16.2883 5.27457 16.2019C5.38899 16.1926 5.49872 16.2089 5.60382 16.2533C5.72522 16.1902 5.93771 16.1202 6.23892 16.0455L6.23195 15.9661L5.98908 15.9871C6.0194 15.9451 6.25294 15.8354 6.69193 15.6579L6.81333 15.6462L6.81567 15.6836C6.60788 15.7022 6.49346 15.7629 6.46777 15.8727C6.4724 15.9217 6.50044 15.9427 6.55181 15.938C6.70829 15.84 6.78529 15.7816 6.78301 15.7653C7.07953 15.7093 7.89915 15.2796 9.24179 14.4787L9.24877 14.5511C9.25111 14.5861 9.13669 14.6841 8.9055 14.8523ZM6.84606 15.5294C7.04217 15.5131 7.21032 15.4337 7.35037 15.296C7.40644 15.2913 7.43682 15.3123 7.43911 15.3613C7.34339 15.3707 7.15895 15.45 6.89039 15.6042L6.85069 15.6065L6.84606 15.5294ZM10.1688 12.9772L9.13904 13.7945C8.37315 14.2965 7.9622 14.5487 7.90143 14.5534C6.6826 15.2235 5.92369 15.5715 5.62951 15.5972L5.58511 15.6018C5.62247 15.4641 6.16421 14.3549 7.21495 12.2674C7.67728 12.2277 8.40581 12.0129 9.3982 11.6206L9.64107 11.5996C10.1431 11.5552 10.519 11.6533 10.7665 11.8868L10.7806 12.0386C10.5961 12.5733 10.3906 12.8862 10.1688 12.9772ZM8.15597 11.8448L8.32177 11.8308L8.32412 11.8681L8.15832 11.8821L8.15597 11.8448ZM10.484 11.4501L10.6054 11.4385C10.7175 11.4922 10.7759 11.5389 10.7806 11.5809L10.7829 11.6183C10.6755 11.6276 10.575 11.5715 10.484 11.4501ZM10.8132 9.57515C10.7058 9.70353 10.4116 9.92305 9.93062 10.2312C9.77179 10.2453 9.18103 10.4741 8.15832 10.9224C8.10694 10.8991 8.05322 10.8898 7.99486 10.8944L7.98788 10.822C7.97621 10.6749 8.04154 10.4905 8.18635 10.2663C8.2657 9.84599 8.35215 9.60547 8.44786 9.54711L9.30014 7.63007C9.29082 7.51095 9.47292 7.41987 9.84651 7.35682L9.96798 7.34515L9.9773 7.45494C10.3439 7.39888 10.5727 7.36621 10.6614 7.35917C11.3387 7.30082 11.6912 7.43858 11.7192 7.76783L11.7963 7.7608L11.7799 7.56702L11.864 7.55998C12.0625 7.66971 12.1699 7.80285 12.1839 7.95926C12.1932 8.06671 12.1349 8.19978 12.0111 8.3586C11.9597 8.36323 11.9294 8.32587 11.9247 8.25116L11.8406 8.2582L11.822 8.49167C11.4787 9.00538 11.2289 9.26924 11.0748 9.28325C10.9347 9.47703 10.8483 9.5728 10.8132 9.57515ZM11.3363 10.9178C11.2662 10.871 11.2102 10.8501 11.1682 10.8524L11.1588 10.738L11.2359 10.7309L11.4063 10.8314C11.4134 10.8851 11.39 10.9131 11.3363 10.9178ZM11.878 11.5599C11.9528 11.5903 11.9971 11.6229 12.0064 11.6533L11.9691 11.6626L11.9714 11.665C11.9644 11.665 11.955 11.6673 11.9481 11.6697L11.892 11.714L11.878 11.5599ZM11.9294 11.8821L11.9224 11.8518L12.0204 11.8284L12.0275 11.8588L11.9294 11.8821ZM12.1652 12.146C12.2657 12.1296 12.3147 12.1227 12.5015 12.0806L12.5085 12.1109L12.1536 12.1927C12.1582 12.1763 12.1629 12.16 12.1652 12.146ZM12.5108 12.2931C12.3614 12.3071 12.394 12.2884 12.1559 12.3421L12.1489 12.3117L12.4478 12.216L12.5902 12.1834L12.6042 12.2394C12.5388 12.2534 12.5855 12.2534 12.5108 12.2931ZM12.826 12.2184C12.791 12.2277 12.763 12.2114 12.7466 12.1717L12.8377 12.1506C12.8774 12.1413 12.9031 12.1577 12.9124 12.1974L12.826 12.2184ZM13.6807 11.2984L13.6736 11.268L13.8208 11.233L13.8348 11.289L13.6807 11.2984ZM14.5936 16.8978C14.603 16.8557 14.6053 16.8254 14.6006 16.8043L14.6334 16.7974C14.6731 16.788 14.6964 16.8021 14.7057 16.8394L14.7128 16.8697L14.5936 16.8978ZM15.2334 11.5389L15.168 11.5272C15.063 11.5693 14.9743 11.5996 14.9018 11.6159L14.8411 11.63C14.8061 11.6393 14.7781 11.6253 14.7641 11.5879L15.1914 11.4898L15.3315 11.4245L15.3782 11.4782C15.3105 11.4922 15.2615 11.5132 15.2334 11.5389ZM15.5627 11.4338L15.5557 11.4035C15.5767 11.3988 15.6047 11.3825 15.6351 11.3521L15.9386 11.282L15.9456 11.3124C15.7845 11.3521 15.6561 11.3918 15.5627 11.4338ZM15.6094 10.8197C15.5884 10.8244 15.5604 10.843 15.5253 10.871C15.5206 10.8501 15.4787 10.8501 15.3992 10.8687C15.3852 10.8103 15.6094 10.7286 16.0741 10.6212L16.1394 10.6072L16.1535 10.6633C15.8266 10.759 15.6444 10.8127 15.6094 10.8197ZM16.4266 9.93707C16.394 10.3083 16.2632 10.5185 16.032 10.5722L16.025 10.5419L15.8195 10.6212L15.7285 10.6423C15.6818 10.6539 15.6398 10.6516 15.6024 10.6399L15.5837 10.5582C15.5767 10.5278 15.8732 10.1168 16.4757 9.32759L16.5457 9.33926C16.5714 9.44671 16.5317 9.64517 16.4266 9.93707ZM17.872 8.69946L17.844 8.70181L17.8393 8.64346L17.9608 8.63179L17.9631 8.66211C17.9421 8.6668 17.9117 8.67847 17.872 8.69946ZM17.2766 14.6795C17.2066 14.6468 17.1435 14.6328 17.0898 14.6375L17.0828 14.5487C17.0805 14.5184 17.0991 14.4973 17.1388 14.4857C17.1785 14.481 17.2019 14.509 17.2066 14.5697C17.307 14.4413 17.363 14.3759 17.3746 14.3759L17.4377 14.4016C17.4143 14.5791 17.3607 14.6725 17.2766 14.6795ZM23.6605 8.00131C23.6302 8.00366 23.5718 7.91023 23.4808 7.72109L23.4761 7.66274C23.5344 7.65804 23.5952 7.74912 23.6559 7.93592L23.6605 8.00131ZM23.5765 7.33348L23.5485 7.39418L22.6845 7.03226C23.2613 7.05097 23.5601 7.15138 23.5765 7.33348ZM19.9128 10.4788L19.7914 10.4905L19.7867 10.4321L19.9081 10.4204L19.9128 10.4788ZM19.8124 8.58973L19.8451 8.58739L19.8521 8.67612C19.8218 8.67847 19.7844 8.72052 19.7401 8.80222L19.7354 8.74386C19.7891 8.67612 19.8148 8.62475 19.8124 8.58973ZM19.5579 9.19687L19.5673 9.31129L19.5346 9.31364L19.5252 9.19921L19.5579 9.19687ZM19.4201 9.41398L19.4808 9.40935C19.4739 9.50741 19.4482 9.55879 19.4038 9.56342L19.3711 9.56576C19.4061 9.50043 19.4225 9.44905 19.4201 9.41398ZM19.3221 9.71291L19.3501 9.71057L19.3524 9.74089L19.2987 9.83432L19.238 9.83901L19.2357 9.80863C19.2987 9.80393 19.3268 9.77127 19.3221 9.71291ZM19.224 9.98375L19.203 10.1332L19.175 10.1355L19.1633 9.98845L19.224 9.98375ZM18.2269 12.8161C18.1873 13.0123 18.1452 13.1127 18.1008 13.1173L18.0985 13.0917C18.0915 12.9936 18.1336 12.9002 18.2269 12.8161ZM18.0425 13.2108L18.0448 13.2365C18.0495 13.2785 18.0308 13.3018 17.9888 13.3041L17.9865 13.2738C17.9841 13.2434 18.0028 13.2224 18.0425 13.2108ZM17.9911 14.0327L18.0845 14.0257L18.0868 14.056C18.0658 14.0584 18.0331 14.07 17.9958 14.0911L17.9351 14.0957C17.9327 14.0631 17.9514 14.0421 17.9911 14.0327ZM20.6133 13.2224C20.0996 13.477 19.7937 13.6498 19.698 13.7385C19.1376 13.9346 18.8597 14.056 18.8644 14.105C18.367 14.3036 18.0401 14.446 17.8861 14.5371C17.8487 14.5394 17.795 14.5254 17.7249 14.4927C17.7156 14.3923 17.7622 14.3106 17.8604 14.2498C17.9491 14.2429 18.0332 14.2545 18.1102 14.2872C18.2036 14.2405 18.3647 14.1891 18.5935 14.1307L18.5889 14.0724L18.3998 14.0887C18.4231 14.056 18.6029 13.972 18.9368 13.8366L19.0302 13.8295L19.0325 13.8552C18.8738 13.8692 18.785 13.916 18.7663 14C18.7687 14.0374 18.792 14.056 18.8317 14.0514C18.9485 13.9743 19.0045 13.9299 19.0045 13.916C19.2287 13.8763 19.8498 13.5494 20.8702 12.9376L20.8748 12.9959C20.8748 13.0193 20.7885 13.094 20.6133 13.2224ZM19.0489 13.7361C19.2007 13.7221 19.3291 13.6638 19.4365 13.561C19.4762 13.5587 19.4995 13.575 19.5019 13.6124C19.4318 13.6194 19.294 13.6778 19.0862 13.7899L19.0536 13.7922L19.0489 13.7361ZM21.5754 11.7958L20.7978 12.4215C20.2164 12.8021 19.9012 12.9936 19.8521 12.9983C18.9275 13.5073 18.353 13.7712 18.1265 13.7899L18.0939 13.7922C18.1219 13.6871 18.5352 12.8442 19.3337 11.261C19.6816 11.2307 20.2328 11.0649 20.9893 10.766L21.1784 10.7496C21.559 10.717 21.8439 10.7917 22.0307 10.9715L22.0401 11.0859C21.8976 11.4875 21.7435 11.7233 21.5754 11.7958ZM20.0483 10.9364L20.1697 10.9248L20.172 10.9552L20.0506 10.9668L20.0483 10.9364ZM21.8159 10.6352L21.9093 10.6282C21.9957 10.6702 22.0401 10.7076 22.0424 10.738L22.0447 10.7637C21.963 10.7706 21.8859 10.7286 21.8159 10.6352ZM22.0611 9.21317C21.9793 9.31129 21.7575 9.47937 21.3956 9.71291C21.2742 9.72459 20.8258 9.89736 20.0506 10.2336C20.0132 10.2196 19.9712 10.2149 19.9269 10.2172L19.9222 10.1589C19.9128 10.0468 19.9619 9.90669 20.0693 9.73626C20.13 9.41398 20.1977 9.23422 20.2678 9.19217L20.9192 7.73511C20.9122 7.64872 21.05 7.57869 21.3302 7.52497L21.4236 7.51799L21.4306 7.60667C21.7061 7.56233 21.8789 7.53664 21.949 7.52966C22.4627 7.48526 22.7312 7.58802 22.7522 7.84021L22.8129 7.83551L22.8013 7.6954L22.862 7.69077C23.0114 7.77247 23.0908 7.87053 23.1001 7.9873C23.1071 8.07134 23.0651 8.17409 22.9764 8.29321C22.9367 8.29784 22.9134 8.26987 22.9087 8.2091L22.848 8.2138L22.8293 8.38892C22.5701 8.78357 22.3809 8.98667 22.2619 8.99605C22.1568 9.13845 22.0914 9.21088 22.0611 9.21317ZM22.3343 10.1846L22.3273 10.0958L22.388 10.0912L22.5187 10.1705C22.5211 10.2079 22.5024 10.229 22.4627 10.2336C22.4066 10.1986 22.3646 10.1822 22.3343 10.1846ZM11.4647 15.8564L11.404 15.8704L11.3526 15.9147C11.362 15.9521 11.3853 15.9661 11.425 15.9568C11.4647 15.9474 11.481 15.9241 11.4717 15.8867L11.4647 15.8564ZM11.2336 15.3964L11.2405 15.4267C11.2802 15.4174 11.2966 15.394 11.2873 15.3567L11.2802 15.3263C11.2429 15.3356 11.2265 15.359 11.2336 15.3964ZM12.8867 12.2908L12.9311 12.2627C12.9218 12.2627 12.9148 12.2604 12.9077 12.2581C12.8914 12.2627 12.8844 12.2744 12.8867 12.2908ZM12.8774 11.4852L12.9474 11.4689L12.9334 11.4081L12.8634 11.4245L12.8774 11.4852ZM29.3791 13.8435L29.2202 13.8249L29.1922 13.8856L29.1946 13.916L30.1403 13.8366L30.1356 13.7782L29.3791 13.8435ZM30.243 13.7712L30.2477 13.8295H30.257L30.2523 13.7712H30.243ZM34.2102 13.2528L34.2149 13.3112L34.3176 13.3298L34.3129 13.2715L34.2102 13.2528ZM34.0654 13.2644C33.3556 13.4233 33.2669 13.3952 33.1174 13.4069L33.1221 13.4652L33.1875 13.4606L33.2225 13.4583L33.2132 13.4513L33.2902 13.4209C33.9931 13.3438 34.0748 13.3719 34.0678 13.2925L34.0654 13.2644ZM29.804 12.2324L29.741 12.2114C29.6896 12.3491 29.6639 12.4309 29.6663 12.4542L29.6686 12.4799C29.7176 12.4775 29.762 12.3935 29.804 12.2324ZM28.9494 11.7724L28.9471 11.742L28.9144 11.7444L28.856 11.7817L28.8887 11.8378C28.933 11.8331 28.954 11.8121 28.9494 11.7724ZM30.8058 13.6917L30.8011 13.6334L30.7824 13.6357L30.787 13.6941L30.8058 13.6917ZM34.6586 12.8232L34.7029 12.8185C34.7286 12.8161 34.7402 12.7951 34.7379 12.7578L34.7122 12.7017C34.5511 12.7157 34.4764 12.7228 34.3457 12.7951L34.3433 12.7647L34.1495 12.7835C34.1448 12.725 34.1285 12.6947 34.1028 12.6971L34.0024 12.7064C33.8856 12.7157 33.8296 12.7111 33.7712 12.7554C33.7689 12.7344 33.7619 12.725 33.7502 12.725L33.6381 12.7344L33.5727 12.7718C33.5704 12.7507 33.5634 12.7414 33.5517 12.7414L33.512 12.7764L33.5097 12.7461L33.3533 12.7344L33.3159 12.7368L33.3205 12.7951L33.4 12.8161L33.4747 12.8115C33.5004 12.8278 33.5284 12.8325 33.5611 12.8301L33.6265 12.7975L33.6288 12.8232C33.2622 12.9142 33.2645 12.8979 33.0123 12.9399C32.9843 12.9212 32.9633 12.9119 32.9493 12.9142L32.9446 12.9189C32.9166 12.9165 32.9003 12.8979 32.8979 12.8675L33.0287 12.8511C33.038 12.8511 33.045 12.8605 33.1174 12.8745C33.2225 12.8232 33.2272 12.8021 33.2832 12.7975L33.2786 12.7391C32.9189 12.8091 33.0637 12.7624 32.6131 12.8021L32.592 12.8045L32.5874 12.7461C33.1665 12.676 32.9726 12.7157 33.1711 12.6597C33.1735 12.6807 33.1805 12.69 33.1922 12.69C33.2155 12.6667 33.2412 12.655 33.2715 12.6503L33.3112 12.648C33.5144 12.6317 33.5821 12.6714 33.9837 12.5593L33.986 12.585L34.0514 12.5523L34.1121 12.5476C34.1075 12.4892 34.1962 12.4799 34.2265 12.4775L34.2219 12.4145C33.5167 12.557 33.3322 12.5173 33.1361 12.5733L33.1337 12.5476C32.9493 12.5803 32.9423 12.5663 32.8956 12.5686C32.8816 12.571 32.8606 12.5826 32.8372 12.606C32.8349 12.585 32.8279 12.5756 32.8139 12.5756C32.8068 12.5756 32.8046 12.578 32.8022 12.578L32.2044 12.676C32.2021 12.6597 32.1951 12.6503 32.1811 12.6527C31.8705 12.7181 31.9546 12.7297 31.5389 12.7671C31.5203 12.7694 31.4946 12.7788 31.4619 12.7998C31.4596 12.7835 31.4502 12.7741 31.4292 12.7764L31.1746 12.7975L31.0042 12.8395C31.0019 12.8232 30.9925 12.8138 30.9715 12.8161C30.8758 12.8418 30.7917 12.8582 30.724 12.8628H30.7194C30.6773 12.8675 30.7404 12.8511 30.7077 12.8372L30.6563 12.8675C30.5816 12.8745 30.6213 12.8628 30.3644 12.8652C29.9138 12.9212 29.9628 12.9282 29.9138 12.9305L29.7456 12.9189C29.748 12.9352 29.7386 12.9469 29.7199 12.9469C29.5285 12.9212 29.4304 12.8908 29.4281 12.8558C29.4538 12.6737 29.4981 12.5803 29.5612 12.5756L29.5939 12.5733L29.5659 12.634L29.5985 12.6317C29.6592 12.5989 29.6873 12.5686 29.6849 12.5406L29.6803 12.4775L29.6195 12.4822L29.6149 12.4238C29.6102 12.3795 29.6172 12.3398 29.6335 12.3071L29.7713 12.0852L29.776 12.1437L29.8414 12.139L29.8367 12.0806L29.7993 12.0269C29.8484 11.9848 29.8857 11.9615 29.9161 11.9592L29.9138 11.9288L29.825 11.9358L29.8181 11.8471C29.9955 11.4782 30.0796 11.2633 30.0749 11.2026L30.1379 11.2283C30.1776 11.226 30.1963 11.2026 30.194 11.1606L30.1332 11.1653L30.1309 11.1396C30.1262 11.0952 30.1356 11.0532 30.1543 11.0159C30.25 10.9154 30.2944 10.815 30.285 10.7099C30.3037 10.7076 30.313 10.717 30.3154 10.738C30.3971 10.6913 30.4602 10.5675 30.5069 10.362C30.6516 10.1005 30.8571 9.57743 31.1256 8.79524C31.6394 7.41289 31.6183 7.2658 31.6907 6.9389L31.63 6.94353C31.6347 6.98558 31.6254 7.02528 31.6067 7.06264C31.5646 7.04628 31.5319 7.03696 31.5086 7.0393L31.5062 7.01361C31.4969 6.8945 31.546 6.7521 31.658 6.58395L31.6861 6.58161L31.7374 6.78242L31.7981 6.77779C31.7958 6.76377 31.8122 6.68436 31.8448 6.53727C31.8425 6.50689 31.8191 6.48824 31.7725 6.48589L31.7141 6.52325C31.7094 6.4812 31.7118 6.37147 31.7187 6.19635L31.6884 6.19869C31.637 6.14732 31.6113 6.10526 31.609 6.07025L31.2751 6.10292C31.2728 6.07958 31.2611 6.04456 31.2377 6.00016C31.2354 5.96984 31.3101 5.93946 31.4642 5.90914L31.5319 5.93483L31.595 5.89747C31.5973 5.91847 31.609 5.92779 31.6323 5.92545L31.6954 5.88809C31.6977 5.90914 31.7094 5.91847 31.7327 5.91612L31.7631 5.91378L31.7584 5.8461C31.7118 5.85073 31.588 5.85073 31.3918 5.84375L31.3288 5.8858L31.3264 5.84844C29.7596 5.97682 28.87 6.04926 28.6575 6.07025C28.6295 6.0726 28.5197 6.07025 28.326 6.06556C28.3283 6.09125 28.3049 6.10526 28.2582 6.10996L28.1905 6.07958L27.9617 6.13799C27.908 6.14262 27.8169 6.14028 27.6908 6.12626C27.6558 6.15429 27.6137 6.17066 27.5624 6.17535C27.5344 6.17764 27.8963 6.15664 28.2325 6.1333C28.1975 6.16133 28.1438 6.17764 28.0691 6.18467C28.0177 6.18931 27.9734 6.18233 27.936 6.16133C27.8846 6.18467 27.7188 6.22203 27.441 6.27804L27.3733 6.25235L26.2805 6.4205C26.2384 6.3995 26.1894 6.39247 26.1333 6.39716C26.075 6.40179 25.9769 6.42285 25.8415 6.46021L25.3138 6.67967L25.3534 6.74506C25.3791 6.74271 25.4165 6.7287 25.4609 6.70301L25.6477 6.71937L25.6243 6.8945C25.4515 6.97156 25.3511 7.08599 25.3231 7.23073C25.0639 7.34515 24.9355 7.42691 24.9355 7.47594L24.9378 7.50626L24.9775 7.50397L25.0476 7.46662L25.1293 7.56468L25.1409 7.70009C25.1456 7.74215 24.709 8.65976 23.8357 10.4531C23.0792 12.181 22.6822 13.1267 22.6448 13.2972C22.3856 13.3695 22.2362 13.4746 22.1918 13.6147C22.1965 13.6591 22.2736 13.6895 22.423 13.7011L22.43 13.7688L22.3623 13.8809L22.374 14.0164C22.3809 14.0864 22.5701 14.1401 22.9414 14.1775C22.939 14.1541 22.9507 14.1401 22.9764 14.1378C22.9834 14.2218 22.96 14.3853 22.9063 14.6281L22.946 14.6258C23.1001 14.4156 23.1725 14.2708 23.1655 14.1915L23.1982 14.1891C23.2356 14.1868 23.2753 14.2289 23.322 14.3199C23.2753 14.3386 23.1118 14.7098 22.8316 15.436L22.8713 15.5014L22.911 15.4991C23.2543 14.6305 23.4691 14.1494 23.5578 14.0584C24.0085 14.0187 24.7883 13.9393 25.8952 13.8202L25.9653 13.7781C25.9675 13.8015 25.9816 13.8132 26.0072 13.8109L26.0797 13.8038L26.1497 13.7618C26.152 13.7852 26.1661 13.7968 26.1918 13.7945L27.03 13.7221C27.2518 13.7034 27.3569 13.6357 27.3475 13.5213C27.3453 13.4909 27.476 13.4559 27.7398 13.4186C27.7655 13.4162 27.8029 13.4233 27.8543 13.4396C27.8519 13.4186 27.985 13.3976 28.2513 13.3742C28.2582 13.2341 28.3026 13.1594 28.382 13.1524L28.375 13.0847C28.3003 13.0917 28.2162 13.1104 28.1181 13.143C27.943 13.1337 27.8309 13.1197 27.7842 13.1033C27.7375 13.129 27.7025 13.143 27.6768 13.1454L27.0931 13.164L27.023 13.2014C27.0206 13.1804 27.0067 13.1711 26.981 13.1734L26.9483 13.1757L26.8735 13.2131C26.8712 13.1921 26.8105 13.1757 26.6891 13.1594L26.6144 13.2037L26.4696 13.2154L26.4673 13.178C27.2192 13.0963 27.5904 12.9936 27.5811 12.8722C27.6301 12.8675 27.6558 12.8908 27.6604 12.9399L27.8799 12.8839L27.873 12.8161L26.0726 12.8652C26.075 12.8885 26.0633 12.9025 26.0376 12.9049L25.8181 12.8862C25.7621 12.8908 25.7154 12.9072 25.678 12.9352L25.5963 12.9049C25.3698 12.9236 25.2016 12.9515 25.0896 12.9866C24.9355 12.9749 24.765 12.9772 24.5759 12.9936L24.172 13.0286L23.9852 13.0076C23.9758 12.8885 24.207 12.3024 24.6833 11.2517C24.8211 10.8967 24.9472 10.6749 25.0686 10.5909C25.0943 10.5885 25.1316 10.5979 25.183 10.6189L25.4702 10.5208L25.6173 10.5441C25.8648 10.5231 26.152 10.4531 26.4813 10.3317C26.563 10.3247 26.6237 10.3294 26.6681 10.348L26.8876 10.2966L27.5414 10.2406C27.8192 10.2172 28.1205 10.1565 28.4474 10.0561L28.4403 9.98845C28.3189 10.0001 28.2559 9.97906 28.2513 9.93003C28.2442 9.83901 28.1555 9.80159 27.985 9.81561L27.978 9.74793L28.1578 9.69655L28.6295 9.65685L28.6225 9.58917C28.6038 9.59145 28.5081 9.58917 28.3306 9.58213L28.3236 9.50976L28.5057 9.49339C28.5548 9.48876 28.5758 9.46536 28.5711 9.41867C28.326 9.42565 28.2022 9.41398 28.1999 9.38131C26.4906 9.46536 25.6336 9.48172 25.629 9.428C25.6033 9.43034 25.5683 9.44671 25.5216 9.47474L25.4772 9.40466C25.9302 8.44264 26.1964 7.95691 26.2734 7.94994C26.2758 7.9873 26.2571 8.048 26.2174 8.12975L26.2197 8.16007L26.2922 8.1531C26.4719 7.72344 26.6237 7.50163 26.7498 7.4923C27.2868 7.44556 26.6751 7.41055 27.8239 7.23073C27.8706 7.25179 27.9033 7.26111 27.9266 7.25876C28.3773 7.16768 29.0054 7.07197 29.811 6.97391L29.8063 6.90617L29.3767 6.94587L29.372 6.87813C29.4234 6.8735 29.4655 6.85714 29.5005 6.8291L29.5028 6.86646C29.5262 6.86418 29.5588 6.84781 29.6009 6.81978C29.6756 6.8128 29.7316 6.81978 29.7713 6.84077C29.9207 6.80113 30.0422 6.77773 30.1309 6.7684L30.3994 6.74271C30.4648 6.70072 30.4952 6.66336 30.4929 6.62829L30.4905 6.59797C30.4228 6.60495 30.3458 6.60032 30.2547 6.58395C30.2523 6.54659 30.271 6.52091 30.3154 6.50924L30.8151 6.46255L31.0439 6.40414C31.0463 6.42982 31.0579 6.43915 31.0766 6.43915C31.0999 6.43686 31.1327 6.4205 31.1746 6.39247C31.1864 6.39481 31.2003 6.39481 31.212 6.39716C31.1817 6.46021 31.1467 6.55129 31.1116 6.67034L31.0463 6.67504C31.0416 6.63064 31.0299 6.59093 31.0089 6.55592L30.9762 6.55827C30.3691 8.24881 30.0982 9.03576 29.5378 10.334C29.4351 10.6656 29.3487 10.8501 29.274 10.8898C29.2763 10.9271 29.2997 10.9458 29.3394 10.9411C29.3534 11.1046 29.316 11.2657 29.2249 11.4245C28.9657 12.1717 28.7929 12.5803 28.7042 12.655L28.7626 13.0076C28.7649 13.045 28.7462 13.066 28.7065 13.0707L28.6458 13.0754C28.6365 12.9772 28.6014 12.9305 28.5385 12.9376L28.5057 12.9399C28.4263 13.0636 28.3656 13.2061 28.326 13.3719L28.3867 13.3672C28.4684 13.3135 28.5057 13.2505 28.4988 13.178L28.6202 13.1664L28.6902 13.1921C28.6342 13.2808 28.6085 13.3509 28.6132 13.4045L28.6458 13.4606L28.5664 13.6474L28.5688 13.6778C28.6389 13.6708 28.7159 13.6941 28.7976 13.7431C28.8536 13.7385 28.9144 13.7128 28.9821 13.6684C29.0522 13.6614 29.3137 13.6591 29.7643 13.6591L29.9908 13.582C30.2664 13.5797 30.3107 13.5867 30.5489 13.5657L30.6469 13.5563L30.6983 13.5213L30.7007 13.5517C30.9505 13.5306 30.9669 13.547 31.163 13.5703L31.1653 13.6007L31.0276 13.6124L31.0323 13.6708C31.0742 13.6661 31.1116 13.6544 31.142 13.6287C31.177 13.6264 31.198 13.6451 31.2003 13.6871C31.1443 13.6917 31.0813 13.7058 31.0112 13.7291L30.9505 13.7081C30.8548 13.7338 30.8758 13.7408 30.8104 13.7455L30.7147 13.7268C30.717 13.7431 30.7077 13.7548 30.6913 13.7548C30.6937 13.7922 30.7147 13.8109 30.7497 13.8085L30.8477 13.7992L31.3592 13.7548L31.5529 13.7128C31.5553 13.7291 31.5623 13.7385 31.5786 13.7361L31.672 13.7011L31.8472 13.6871C31.9826 13.6754 31.9802 13.6661 32.2745 13.6194C32.2721 13.6007 32.2791 13.5937 32.2931 13.5913L32.2955 13.617C32.7742 13.5353 32.8045 13.5306 32.8816 13.505L32.8886 13.519C33.0077 13.4909 32.94 13.498 32.9726 13.4746C32.975 13.4956 32.982 13.505 32.9936 13.505L33.0777 13.498L33.073 13.4349L32.9026 13.4326L32.9003 13.4279C32.8932 13.4302 32.8886 13.4302 32.8816 13.4326H32.8582V13.4373C32.7438 13.4606 32.7414 13.4443 32.6667 13.4513L32.2394 13.4746L32.2371 13.4443L32.4753 13.4116L32.5617 13.4045L32.6107 13.3695L32.6131 13.3999C32.9493 13.3719 33.0684 13.4559 34.6235 13.1244C34.7076 13.1173 34.7005 13.0473 34.7543 12.9025C34.7262 12.9049 34.6982 12.8979 34.6726 12.8839C34.5441 12.9329 34.4764 12.9096 34.2289 12.9493C34.2079 12.9516 34.1915 12.9329 34.1845 12.8955L34.1821 12.8698L34.4203 12.8768C34.4647 12.8722 34.5511 12.8652 34.6795 12.7928C34.6795 12.8138 34.6305 12.8254 34.6585 12.8232H34.6586ZM23.1609 13.0076L23.0511 13.0169C23.0464 12.9726 23.1048 12.8045 23.2262 12.5173L23.2986 12.5103C23.301 12.578 23.2566 12.7438 23.1609 13.0076ZM23.294 12.4752L23.2916 12.4449C23.2893 12.4075 23.3126 12.3818 23.364 12.3702L23.3664 12.4005C23.3687 12.4449 23.3453 12.4706 23.294 12.4752ZM24.7533 13.603L24.7557 13.6334L24.5736 13.6498L24.5712 13.6194L24.7533 13.603ZM24.5339 13.5844C24.5362 13.6217 24.4802 13.6638 24.3587 13.7058L24.1345 13.6895L24.0622 13.6964L24.0552 13.6287L24.5339 13.5844ZM26.0096 6.79174L25.8999 6.80113L25.8975 6.76377C25.8952 6.72641 25.9162 6.70072 25.9629 6.68905L26.0026 6.68671L26.0773 6.71703C26.0796 6.76142 26.0586 6.78711 26.0096 6.79174ZM27.6791 6.46484L27.7141 6.46255L27.7188 6.53023L27.6184 6.53955C27.6161 6.5022 27.6347 6.47657 27.6791 6.46484ZM27.2588 6.61199L27.0931 6.59328L27.0907 6.56296C27.3079 6.54425 27.3803 6.52091 27.5133 6.48355C27.5157 6.50924 27.539 6.51856 27.5811 6.51393L27.5857 6.58161L27.5204 6.58865C27.469 6.59328 27.4246 6.5863 27.3872 6.56524C27.3475 6.59093 27.3055 6.6073 27.2588 6.61199ZM27.4667 7.21677L27.4643 7.18639L27.7329 7.1607L27.7352 7.19108L27.4667 7.21677ZM27.7539 6.98323L27.7515 6.94587L27.8823 6.9342L27.8846 6.97156L27.7539 6.98323ZM27.7842 6.5256L27.7492 6.52788L27.7795 6.45551L28.0784 6.42748L28.0808 6.46484C28.0037 6.47188 27.9033 6.49287 27.7842 6.5256ZM27.936 7.17003L27.9313 7.10235L28.0621 7.09068C28.1065 7.08599 28.1298 7.10698 28.1321 7.15373L27.936 7.17003ZM28.7275 6.09125L28.5595 6.13799L28.5291 6.14028C28.4497 6.14732 28.347 6.14497 28.2255 6.1333C28.4427 6.11928 28.6505 6.10292 28.7275 6.09125ZM28.5478 6.83849L28.5501 6.86881L28.3189 6.88987L28.3166 6.85948L28.5478 6.83849ZM28.9261 7.01825C28.9237 6.99027 28.8793 6.97156 28.7883 6.96224L28.5571 7.02763L28.3796 7.03461C28.3399 7.00657 28.3189 6.98793 28.3166 6.97391L28.5221 6.98558L28.9844 6.91086L29.2202 6.92019L29.2226 6.95754C29.1058 6.96922 29.0078 6.99027 28.9261 7.01825ZM31.3054 6.40414C31.3335 6.40648 31.3521 6.40648 31.3592 6.40648C31.4409 6.32707 31.5319 6.26402 31.637 6.21969C31.5529 6.58865 31.4222 6.86183 31.2424 7.0393L31.1116 6.95989C31.2214 6.68201 31.2868 6.49756 31.3054 6.40414ZM30.9038 7.09296L30.9365 7.09068C30.8921 7.17472 30.8524 7.21906 30.8198 7.2214L30.8127 7.13267C30.8338 7.13267 30.8641 7.11865 30.9038 7.09296ZM30.6446 7.71177C30.7077 7.45958 30.7684 7.31718 30.8244 7.27982L30.8267 7.31014C30.7941 7.54362 30.7427 7.66743 30.675 7.67675L30.6866 7.82384C30.6306 7.90325 30.6049 7.96395 30.6072 8.01064L30.5746 8.01298L30.5559 7.80983C30.5933 7.80519 30.6236 7.77247 30.6446 7.71177ZM30.5442 8.048C30.5465 8.08301 30.5232 8.16477 30.4765 8.29086L30.4438 8.29321L30.4368 8.20447C30.4812 8.10172 30.5186 8.05034 30.5442 8.048ZM28.6599 13.5166L28.6575 13.4909L28.7182 13.4863L28.7253 13.575C28.6925 13.5774 28.6692 13.5587 28.6599 13.5166ZM31.3521 13.5867C31.3498 13.5657 31.3404 13.5563 31.3195 13.5587L31.1677 13.5727L31.1653 13.5423H31.1793L31.5389 13.512L31.5413 13.5423C31.4362 13.547 31.3732 13.5634 31.3521 13.5867ZM31.1724 13.512C31.1864 13.519 31.1793 13.526 31.1724 13.5306C31.1653 13.5283 31.156 13.5213 31.1724 13.512ZM31.191 13.0917L30.9902 13.108L30.9879 13.0776L31.17 13.0613L31.3288 13.0216C31.3311 13.0403 31.3404 13.0473 31.3615 13.045C31.5506 13.0123 31.5319 13.0029 31.623 12.9959C31.6533 12.9936 31.672 13.0123 31.6744 13.0497L31.191 13.0917ZM31.8939 13.031C31.7818 13.0193 31.7748 13.01 31.6954 13.0169L31.693 12.9913L31.8729 12.9749L31.8752 13.0006C31.8565 13.0029 31.9242 13.0076 31.8939 13.031ZM31.9079 12.9983L31.9055 12.9726L32.0036 12.9632L32.0059 12.9889L31.9079 12.9983ZM32.125 12.9796L32.1227 12.9539C32.1391 12.9516 32.1624 12.9399 32.1927 12.9165C32.2418 12.9119 32.2674 12.9446 32.2721 12.9819L32.125 12.9796ZM32.4029 12.9446L32.4006 12.9142L32.5196 12.9049L32.522 12.9352L32.4029 12.9446ZM32.5687 12.9305C32.5664 12.8955 32.5803 12.8745 32.6107 12.8698L32.6504 12.9212C32.6481 12.9049 32.6551 12.8955 32.6691 12.8932L32.6995 12.9493L32.5687 12.9305ZM34.8663 12.6597L34.8687 12.6574V12.655C34.8687 12.655 34.8663 12.6574 34.8663 12.6597ZM34.9084 12.6293C34.927 12.6177 34.9364 12.606 34.892 12.599C34.871 12.6224 34.9154 12.6293 34.8687 12.6317L34.871 12.6527C34.8757 12.648 34.8874 12.641 34.8967 12.634L34.871 12.655V12.6574L34.822 12.7204L34.9201 12.6854H34.9317L34.927 12.627L34.9084 12.6293ZM35.0788 12.7625L35.0602 12.7647L35.0648 12.8232L35.2026 12.8115C35.2003 12.7741 35.1092 12.7625 35.0788 12.7625Z" fill="#F9DC3E"/>
</svg>
