<svg width="88" height="88" viewBox="0 0 88 88" fill="none" xmlns="http://www.w3.org/2000/svg">
<path d="M6 49.5898H72.5227V55.2919H6V49.5898Z" fill="#BFC2C4"/>
<path d="M67.2642 39.1366H11.2586C8.35907 39.1366 6 41.4955 6 44.3948V47.6894H72.5227V44.3948C72.5227 41.4953 70.1636 39.1366 67.2642 39.1366Z" fill="#BFC2C4"/>
<path d="M24.0566 71.4473H44.9638V73.3479H24.0566V71.4473Z" fill="#BFC2C4"/>
<path d="M12.6519 71.4473H18.3539V73.3479H12.6519V71.4473Z" fill="#BFC2C4"/>
<path d="M81.5905 38.0099L73.1181 18.4744C39.4786 33.2821 41.5419 32.4844 41.1628 32.4844C40.7978 32.4844 40.4497 32.2729 40.2928 31.9173C40.0812 31.4372 40.2986 30.8759 40.7789 30.6643L72.3621 16.7303L69.5159 10.1682C68.3596 7.50216 65.266 6.27948 62.5992 7.43634L11.2176 29.7206C8.55122 30.8769 7.32912 33.9704 8.4854 36.6372L8.91683 37.6311C9.65113 37.3761 10.4387 37.2358 11.2589 37.2358H67.2645C71.2118 37.2358 74.4236 40.4471 74.4236 44.3947V46.8495L78.8585 44.9263C81.5183 43.7727 82.7439 40.6697 81.5905 38.0099Z" fill="#BFC2C4"/>
<path d="M6 74.7416C6 77.6412 8.35888 80.0001 11.2586 80.0001H67.2642C70.1638 80.0001 72.5227 77.6412 72.5227 74.7416V57.1925H6V74.7416ZM46.864 70.497V74.2982C46.864 74.8233 46.4385 75.2485 45.9135 75.2485H23.1059C22.5811 75.2485 22.1556 74.8233 22.1556 74.2982V70.497C22.1556 69.9719 22.5812 69.5467 23.1059 69.5467H45.9135C46.4385 69.5467 46.864 69.9719 46.864 70.497ZM30.7084 62.8944H32.609C33.1338 62.8944 33.5593 63.3198 33.5593 63.8447C33.5593 64.3697 33.1337 64.7952 32.609 64.7952H30.7084C30.1837 64.7952 29.7581 64.3697 29.7581 63.8447C29.7583 63.3198 30.1837 62.8944 30.7084 62.8944ZM25.9568 62.8944H27.8575C28.3821 62.8944 28.8078 63.3198 28.8078 63.8447C28.8078 64.3697 28.3821 64.7952 27.8575 64.7952H25.9568C25.432 64.7952 25.0065 64.3697 25.0065 63.8447C25.0065 63.3198 25.432 62.8944 25.9568 62.8944ZM21.2053 62.8944H23.1059C23.6306 62.8944 24.0562 63.3198 24.0562 63.8447C24.0562 64.3697 23.6306 64.7952 23.1059 64.7952H21.2053C20.6804 64.7952 20.255 64.3697 20.255 63.8447C20.255 63.3198 20.6804 62.8944 21.2053 62.8944ZM16.4536 62.8944H18.3542C18.879 62.8944 19.3045 63.3198 19.3045 63.8447C19.3045 64.3697 18.8789 64.7952 18.3542 64.7952H16.4536C15.9289 64.7952 15.5033 64.3697 15.5033 63.8447C15.5033 63.3198 15.9289 62.8944 16.4536 62.8944ZM11.702 62.8944H13.6027C14.1273 62.8944 14.553 63.3198 14.553 63.8447C14.553 64.3697 14.1273 64.7952 13.6027 64.7952H11.702C11.1772 64.7952 10.7517 64.3697 10.7517 63.8447C10.7517 63.3198 11.1772 62.8944 11.702 62.8944ZM10.7517 70.497C10.7517 69.9719 11.1772 69.5467 11.702 69.5467H19.3047C19.8294 69.5467 20.255 69.9719 20.255 70.497V74.2982C20.255 74.8233 19.8294 75.2485 19.3047 75.2485H11.702C11.1772 75.2485 10.7517 74.8233 10.7517 74.2982V70.497Z" fill="#BFC2C4"/>
</svg>
