<svg width="28" height="24" viewBox="0 0 28 24" fill="none" xmlns="http://www.w3.org/2000/svg">
<g clip-path="url(#clip0_626_220656)">
<path d="M3.76868 4.61373C3.72132 3.25392 4.78078 2 6.21284 2H20.887C22.3191 2 23.3785 3.25392 23.3312 4.61373C23.2857 5.91995 23.3448 7.61201 23.7706 8.99167C24.1978 10.3756 24.9182 11.2503 26.098 11.3627V12.6373C24.9182 12.7497 24.1978 13.6244 23.7706 15.0083C23.3448 16.388 23.2857 18.08 23.3312 19.3863C23.3785 20.7461 22.3191 22 20.887 22H6.21284C4.78078 22 3.72132 20.7461 3.76873 19.3863C3.81417 18.08 3.7551 16.388 3.32922 15.0083C2.90206 13.6244 2.1799 12.7497 1 12.6373V11.3627C2.17985 11.2503 2.90206 10.3756 3.32922 8.99167C3.7551 7.61201 3.81417 5.91995 3.76868 4.61373Z" fill="url(#paint0_linear_626_220656)"/>
<g filter="url(#filter0_d_626_220656)">
<path d="M14.0934 17.3166C16.4118 17.3166 17.8089 16.1814 17.8089 14.309C17.8089 12.8936 16.8121 11.869 15.3319 11.7068V11.6478C16.4194 11.4709 17.2728 10.461 17.2728 9.33314C17.2728 7.72614 16.004 6.67932 14.0707 6.67932H9.7207V17.3166H14.0934ZM11.4124 8.02834H13.6629C14.8863 8.02834 15.5811 8.57383 15.5811 9.56163C15.5811 10.6158 14.7731 11.2055 13.308 11.2055H11.4124V8.02834ZM11.4124 15.9676V12.4661H13.6478C15.2488 12.4661 16.0795 13.0558 16.0795 14.2058C16.0795 15.3557 15.2715 15.9676 13.7459 15.9676H11.4124Z" fill="url(#paint1_linear_626_220656)"/>
<path d="M14.0934 17.3166C16.4118 17.3166 17.8089 16.1814 17.8089 14.309C17.8089 12.8936 16.8121 11.869 15.3319 11.7068V11.6478C16.4194 11.4709 17.2728 10.461 17.2728 9.33314C17.2728 7.72614 16.004 6.67932 14.0707 6.67932H9.7207V17.3166H14.0934ZM11.4124 8.02834H13.6629C14.8863 8.02834 15.5811 8.57383 15.5811 9.56163C15.5811 10.6158 14.7731 11.2055 13.308 11.2055H11.4124V8.02834ZM11.4124 15.9676V12.4661H13.6478C15.2488 12.4661 16.0795 13.0558 16.0795 14.2058C16.0795 15.3557 15.2715 15.9676 13.7459 15.9676H11.4124Z" stroke="white"/>
</g>
</g>
<defs>
<filter id="filter0_d_626_220656" x="-6.7793" y="-5.82068" width="41.0879" height="43.6372" filterUnits="userSpaceOnUse" color-interpolation-filters="sRGB">
<feFlood flood-opacity="0" result="BackgroundImageFix"/>
<feColorMatrix in="SourceAlpha" type="matrix" values="0 0 0 0 0 0 0 0 0 0 0 0 0 0 0 0 0 0 127 0" result="hardAlpha"/>
<feOffset dy="4"/>
<feGaussianBlur stdDeviation="8"/>
<feColorMatrix type="matrix" values="0 0 0 0 0 0 0 0 0 0 0 0 0 0 0 0 0 0 0.15 0"/>
<feBlend mode="normal" in2="BackgroundImageFix" result="effect1_dropShadow_626_220656"/>
<feBlend mode="normal" in="SourceGraphic" in2="effect1_dropShadow_626_220656" result="shape"/>
</filter>
<linearGradient id="paint0_linear_626_220656" x1="4.72936" y1="2.52931" x2="26.6608" y2="19.9385" gradientUnits="userSpaceOnUse">
<stop stop-color="#9013FE"/>
<stop offset="1" stop-color="#6610F2"/>
</linearGradient>
<linearGradient id="paint1_linear_626_220656" x1="10.4858" y1="7.37947" x2="15.388" y2="15.6703" gradientUnits="userSpaceOnUse">
<stop stop-color="white"/>
<stop offset="1" stop-color="#F1E5FC"/>
</linearGradient>
<clipPath id="clip0_626_220656">
<rect width="25.098" height="20" fill="white" transform="translate(1 2)"/>
</clipPath>
</defs>
</svg>
