<svg width="22" height="24" viewBox="0 0 22 24" fill="none" xmlns="http://www.w3.org/2000/svg">
<path d="M19.8966 7.88001C19.8964 7.54372 19.8245 7.24656 19.6791 6.99152C19.5362 6.74073 19.3222 6.53053 19.0352 6.36434C16.6662 4.99836 14.2949 3.63656 11.9267 2.2692C11.2883 1.9006 10.6692 1.91404 10.0355 2.28793C9.09255 2.84402 4.37162 5.54875 2.96485 6.36357C2.3855 6.69896 2.10358 7.21223 2.10344 7.87938C2.10254 10.6264 2.10344 13.3734 2.10254 16.1206C2.10254 16.4495 2.17154 16.7408 2.31058 16.9921C2.45352 17.2504 2.67047 17.4664 2.96408 17.6364C4.37093 18.4512 9.09248 21.1557 10.0352 21.7119C10.6692 22.086 11.2883 22.0994 11.9269 21.7307C14.2952 20.3632 16.6667 19.0015 19.036 17.6355C19.3296 17.4656 19.5466 17.2495 19.6895 16.9914C19.8283 16.7402 19.8975 16.4488 19.8975 16.1198C19.8975 16.1198 19.8975 10.6271 19.8966 7.88001Z" fill="#A179DC"/>
<path d="M11.0272 11.9733L2.31055 16.9921C2.45349 17.2505 2.67044 17.4665 2.96405 17.6364C4.37089 18.4513 9.09245 21.1558 10.0352 21.712C10.6692 22.0861 11.2882 22.0995 11.9269 21.7307C14.2952 20.3633 16.6666 19.0016 19.036 17.6356C19.3296 17.4657 19.5465 17.2496 19.6895 16.9914L11.0272 11.9733Z" fill="#280068"/>
<path d="M19.8967 7.88006C19.8965 7.54377 19.8246 7.24661 19.6792 6.99158L11.0273 11.9733L19.6896 16.9914C19.8284 16.7402 19.8974 16.4488 19.8976 16.1198C19.8976 16.1198 19.8976 10.6272 19.8967 7.88006Z" fill="#390091"/>
<path d="M16.1591 10.0969V11.035H17.0972V10.0969H17.5663V11.035H18.5044V11.5041H17.5663V12.4422H18.5044V12.9112H17.5663V13.8494H17.0972V12.9112H16.1591V13.8494H15.6901V12.9112H14.752V12.4422H15.6901V11.5041H14.752V11.035H15.6901V10.0969H16.1591ZM17.0972 11.5041H16.1591V12.4422H17.0972V11.5041Z" fill="white"/>
<path d="M11.0461 5.38562C13.493 5.38562 15.6293 6.71451 16.7736 8.68975L16.7624 8.67074L13.8835 10.3284C13.3163 9.36802 12.2764 8.71991 11.0836 8.70656L11.0461 8.70635C9.22707 8.70635 7.75237 10.181 7.75237 12C7.75237 12.5948 7.91096 13.1524 8.18676 13.634C8.75449 14.6252 9.82176 15.2937 11.0461 15.2937C12.2779 15.2937 13.3513 14.6167 13.9161 13.6149L13.9024 13.639L16.777 15.3043C15.6453 17.2628 13.5382 18.5876 11.1197 18.614L11.0461 18.6144C8.59146 18.6144 6.44905 17.2773 5.30767 15.2916C4.75046 14.3222 4.43164 13.1984 4.43164 12C4.43164 8.34701 7.39296 5.38562 11.0461 5.38562Z" fill="white"/>
</svg>
