<svg width="22" height="24" viewBox="0 0 22 24" fill="none" xmlns="http://www.w3.org/2000/svg">
<path d="M20.3754 21.6H1.62539V21.15H20.3754V21.6ZM20.6004 17V2.62502C20.6004 2.50065 20.4998 2.40002 20.3754 2.40002H1.62539C1.50102 2.40002 1.40039 2.50065 1.40039 2.62502V17C1.40039 17.1244 1.50102 17.225 1.62539 17.225H20.3754C20.4998 17.225 20.6004 17.1244 20.6004 17ZM1.85039 2.85002H20.1504V16.775H1.85039V2.85002ZM4.30477 11.4375C4.94727 11.4375 5.39352 11.1138 5.64352 10.5775L5.16039 10.285C5.02727 10.6463 4.74602 10.9006 4.30539 10.9006C3.73664 10.9006 3.38602 10.4869 3.38602 9.80127V9.23815C3.38602 8.55315 3.73664 8.13877 4.30539 8.13877C4.73539 8.13877 4.99539 8.3669 5.12352 8.71752L5.62852 8.4419C5.37727 7.8894 4.94727 7.60252 4.30477 7.60252C3.33789 7.60252 2.74852 8.2769 2.74852 9.52002C2.74789 10.7631 3.33789 11.4375 4.30477 11.4375ZM7.64539 11.4375C8.61227 11.4375 9.24477 10.7688 9.24477 9.52065C9.24477 8.2719 8.61227 7.60315 7.64539 7.60315C6.67852 7.60315 6.04664 8.2719 6.04664 9.52065C6.04727 10.7688 6.67852 11.4375 7.64539 11.4375ZM7.64539 10.9013C7.07164 10.9013 6.68976 10.4875 6.68976 9.81252V9.22815C6.68976 8.55377 7.07164 8.1394 7.64539 8.1394C8.21914 8.1394 8.60164 8.55377 8.60164 9.22815V9.81252C8.60227 10.4875 8.21914 10.9013 7.64539 10.9013ZM9.99352 11.3744H11.8004C12.3473 11.3744 12.756 10.9069 12.756 10.3069C12.756 9.68502 12.2835 9.45127 11.9804 9.44065V9.40877C12.2835 9.3819 12.6235 9.18065 12.6235 8.62252C12.6235 8.04315 12.246 7.66627 11.6354 7.66627H9.99352V11.3744ZM10.5941 8.18127H11.5235C11.816 8.18127 11.9916 8.34127 11.9916 8.62252V8.7919C11.9916 9.07377 11.8166 9.23315 11.5235 9.23315H10.5941V8.18127ZM10.5941 9.73315H11.6241C11.9329 9.73315 12.1235 9.90252 12.1235 10.2056V10.3863C12.1235 10.6888 11.9323 10.8594 11.6241 10.8594H10.5941V9.73315ZM14.9291 11.4375C15.896 11.4375 16.5285 10.7688 16.5285 9.52065C16.5285 8.2719 15.896 7.60315 14.9291 7.60315C13.9623 7.60315 13.3304 8.2719 13.3304 9.52065C13.331 10.7688 13.9623 11.4375 14.9291 11.4375ZM14.9291 10.9013C14.3554 10.9013 13.9735 10.4875 13.9735 9.81252V9.22815C13.9735 8.55377 14.3554 8.1394 14.9291 8.1394C15.5029 8.1394 15.8854 8.55377 15.8854 9.22815V9.81252C15.8854 10.4875 15.5029 10.9013 14.9291 10.9013ZM19.3866 11.3744V10.8431H17.8779V7.66627H17.2773V11.3744H19.3866Z" fill="black"/>
</svg>
