<svg width="22" height="24" viewBox="0 0 22 24" fill="none" xmlns="http://www.w3.org/2000/svg">
<path d="M20.5872 10.281C20.1368 9.96854 19.1047 9.85136 18.2978 10.0076C18.204 9.22638 17.7724 8.54282 17.0218 7.93737L16.5902 7.62489L16.29 8.07409C15.9147 8.66 15.727 9.48028 15.7833 10.2615C15.8021 10.5349 15.8959 11.0232 16.1774 11.4529C15.9147 11.6091 15.3705 11.8044 14.6574 11.8044H1.09022L1.05269 11.9606C0.92133 12.7419 0.92133 15.1832 2.46007 17.0581C3.62351 18.4838 5.3499 19.2065 7.62047 19.2065C12.5369 19.2065 16.1774 16.8433 17.885 12.5661C18.5605 12.5856 20.0054 12.5661 20.7373 11.1013C20.7561 11.0622 20.7936 10.9841 20.9249 10.6912L21 10.5349L20.5872 10.281ZM11.9365 4.77344H9.87229V6.72648H11.9365V4.77344ZM11.9365 7.11709H9.87229V9.07014H11.9365V7.11709ZM9.49699 7.11709H7.43282V9.07014H9.49699V7.11709ZM7.05752 7.11709H4.99336V9.07014H7.05752V7.11709ZM4.61806 9.46075H2.5539V11.4138H4.61806V9.46075ZM7.05752 9.46075H4.99336V11.4138H7.05752V9.46075ZM9.49699 9.46075H7.43282V11.4138H9.49699V9.46075ZM11.9365 9.46075H9.87229V11.4138H11.9365V9.46075ZM14.3759 9.46075H12.3118V11.4138H14.3759V9.46075Z" fill="#2396ED"/>
</svg>
