<svg width="89" height="88" viewBox="0 0 89 88" fill="none" xmlns="http://www.w3.org/2000/svg">
<path d="M37.3676 8.15482C40.7354 8.15482 43.4596 10.8883 43.4596 14.2561V36.6182C43.4596 39.986 40.7354 42.7101 37.3676 42.7101H15.0056C11.6377 42.7101 8.9043 39.986 8.9043 36.6182V14.2468C8.9043 10.8789 11.6377 8.14551 15.0056 8.14551H37.3676V8.15482Z" fill="#BFC2C4"/>
<path d="M27.2551 24.1545C24.8762 23.2309 24.4657 22.6152 24.4657 21.6449C24.4657 20.824 25.0908 19.8724 26.8633 19.8724C28.0574 19.8724 29.037 20.2176 29.5594 20.5441L30.2498 20.9732L31.248 18.0159L30.8002 17.7547C29.8486 17.1949 28.4399 16.8777 26.9379 16.8777C26.9939 16.8777 27.0499 16.8777 27.0965 16.8777V13.5752H24.559V17.2509C24.5683 17.2509 24.5683 17.2509 24.5777 17.2416C23.8873 17.4748 23.2622 17.82 22.7305 18.2771C21.6576 19.1914 21.0699 20.4788 21.0699 21.8968C21.0699 24.2478 22.5999 25.9457 25.7438 27.0932C27.9362 27.9141 28.3653 28.6605 28.3653 29.668C28.3653 30.9834 27.3484 31.7764 25.6412 31.7764C24.447 31.7764 23.2249 31.4312 22.2827 30.8248L21.5737 30.3677L20.6221 33.3717L21.0232 33.6422C21.8535 34.1927 23.2156 34.6125 24.5497 34.7524V37.2993H27.0872V34.6685C27.0405 34.6778 26.9939 34.6871 26.9473 34.6871C28.244 34.4819 29.3355 33.9874 30.1565 33.2318C31.1827 32.2895 31.7518 30.9648 31.7518 29.4908C31.7518 26.3188 29.4755 25.0128 27.2551 24.1545ZM26.4621 16.8777C26.5088 16.8777 26.5648 16.8684 26.6114 16.8684C26.5648 16.8777 26.5088 16.8777 26.4621 16.8777ZM25.0161 17.1016C25.0441 17.0923 25.0814 17.083 25.1094 17.0736C25.0814 17.083 25.0534 17.0923 25.0161 17.1016ZM25.3053 17.0363C25.3427 17.027 25.3706 17.0177 25.4079 17.0177C25.3706 17.0177 25.3333 17.027 25.3053 17.0363ZM25.5852 16.9803C25.6225 16.971 25.6598 16.971 25.6972 16.9617C25.6598 16.9617 25.6225 16.971 25.5852 16.9803ZM25.8744 16.9337C25.9117 16.9244 25.949 16.9244 25.9957 16.915C25.9584 16.9244 25.921 16.9337 25.8744 16.9337ZM26.1636 16.9057C26.2103 16.9057 26.2476 16.8964 26.2942 16.8964C26.2569 16.8964 26.2103 16.8964 26.1636 16.9057ZM25.8091 34.7897C25.7158 34.7897 25.6132 34.7991 25.5106 34.7991C25.6039 34.7897 25.7065 34.7897 25.8091 34.7897ZM25.2773 34.7897C25.268 34.7897 25.2587 34.7897 25.24 34.7897C25.2493 34.7897 25.268 34.7897 25.2773 34.7897ZM26.6021 34.7244C26.6767 34.7151 26.742 34.7058 26.8073 34.6964C26.742 34.7151 26.6767 34.7244 26.6021 34.7244ZM25.8744 34.7897C25.9677 34.7897 26.0703 34.7804 26.1636 34.7711C26.0703 34.7804 25.9677 34.7804 25.8744 34.7897ZM26.2476 34.7617C26.3409 34.7524 26.4342 34.7431 26.5181 34.7338C26.4248 34.7524 26.3409 34.7524 26.2476 34.7617Z" fill="#EDEFF2"/>
<path d="M74.5951 8.15466C77.9629 8.15466 80.6964 10.8788 80.6964 14.2466V36.6087C80.6964 39.9765 77.9629 42.71 74.5951 42.71H52.2331C48.8652 42.71 46.1411 39.9765 46.1411 36.6087V14.2466C46.1411 10.8788 48.8746 8.15466 52.2331 8.15466H74.5951Z" fill="#BFC2C4"/>
<path d="M71.4909 21.099L73.4687 17.8524C73.4687 17.8524 72.5078 16.5183 70.0915 15.4921C69.8863 15.3988 68.6268 14.9044 67.7312 14.7738C62.8521 14.0274 59.7641 16.537 59.251 16.9475C58.2154 17.7778 57.3105 18.8973 56.6761 20.0634C56.3683 20.6232 56.1351 21.2296 55.9018 21.8266C55.6966 22.4424 55.6872 22.545 55.6872 22.545L53.3923 22.5636L52.2168 24.3455H55.4447V25.9221H53.3083L52.2261 27.6294H55.7246C55.7619 27.648 55.7992 27.9186 55.8085 27.9559C55.8552 28.1611 55.8925 28.3757 55.9578 28.5716C57.4598 33.003 60.1279 34.2344 60.5664 34.477C61.5366 34.9901 63.645 35.979 66.845 35.7551C68.8321 35.7458 70.6513 34.9061 72.2092 33.712C72.2839 33.656 72.8623 33.3015 72.8623 33.1896V28.7209C72.8623 28.7209 72.5264 29.1221 71.7801 29.7564C71.0337 30.3908 69.8583 31.1838 68.5149 31.6223C67.7032 31.9022 66.7237 32.0048 65.8374 32.0048C64.9418 32.0048 64.0928 31.8555 63.1972 31.4917C62.1057 31.0439 61.0329 30.2322 60.3892 29.2433C60.2399 29.0194 60.0999 28.7955 59.9787 28.553C59.8481 28.3011 59.7268 28.0585 59.5309 27.6387C60.1186 27.6387 60.7064 27.6387 61.2941 27.6387C62.0591 27.6387 62.8241 27.6387 63.5891 27.6387C64.4007 27.6387 65.2123 27.6387 66.024 27.6387C66.6864 27.6387 67.3394 27.6387 68.0018 27.6387C68.3096 27.6387 68.6175 27.6387 68.9254 27.6387C68.9347 27.6387 68.9347 27.6387 68.944 27.6387L69.9329 25.9315L59.2043 25.9128V24.3362H70.3527L71.4256 22.5356H63.8876H59.5682C59.9693 21.7427 60.2679 21.3788 60.3705 21.2389C60.669 20.8284 61.0235 20.4646 61.406 20.1287C62.2363 19.4104 63.1972 18.8506 64.2887 18.6454C64.9884 18.5148 65.8094 18.4401 66.5184 18.5334C67.0315 18.5987 67.582 18.7107 68.0577 18.8973C69.0466 19.2611 70.2221 19.8768 71.4909 21.099Z" fill="#EDEFF2"/>
<path d="M37.3673 45.2992C40.7352 45.2992 43.4686 48.0233 43.4686 51.3911V73.7532C43.4686 77.121 40.7352 79.8545 37.3673 79.8545H15.0053C11.6375 79.8545 8.91333 77.121 8.91333 73.7532V51.3911C8.91333 48.0233 11.6468 45.2992 15.0053 45.2992H37.3673Z" fill="#BFC2C4"/>
<path d="M34.2886 59.9835V58.6308C34.2886 57.6512 34.0927 56.6996 33.7196 55.7947C33.3557 54.9271 32.8333 54.1528 32.1616 53.4811C31.4899 52.8094 30.7156 52.2869 29.8479 51.9231C28.9523 51.5406 28.0008 51.354 27.0119 51.354C26.0323 51.354 25.0807 51.5499 24.1758 51.9231C23.3082 52.2869 22.5339 52.8094 21.8622 53.4811C21.1905 54.1528 20.668 54.9271 20.3042 55.7947C19.9217 56.6903 19.7351 57.6419 19.7351 58.6308C19.7351 59.7783 20.071 60.7858 20.5561 61.6814H18.0652V63.4819H21.7689C21.9461 63.7058 22.1234 63.9297 22.3006 64.1443C22.9257 64.9093 23.5694 65.7116 23.6254 66.2154C23.7 66.9617 23.3735 68.0812 22.7951 69.0701C22.3753 69.7791 21.8808 70.3482 21.3864 70.7027C20.8266 70.9453 20.4815 71.1319 20.4535 71.1412L21.461 73.6227C21.8715 73.5015 22.2726 73.3242 22.6645 73.0816C22.907 72.979 23.1869 72.8671 23.4948 72.7645C24.8195 72.298 25.995 72.0928 26.9093 72.1674C27.7302 72.2327 28.0847 72.4846 28.5698 72.8391C28.9523 73.119 29.4375 73.4642 30.0998 73.6507C30.4543 73.7534 30.8275 73.8093 31.2287 73.8093C31.6391 73.8093 32.0869 73.7533 32.5814 73.6414L33.8968 73.3522L33.3091 70.7214L31.9937 71.0106C30.9581 71.2438 30.7342 71.0759 30.1371 70.6467C29.5214 70.2083 28.6818 69.6019 27.1145 69.4713C26.6387 69.4339 26.1256 69.4433 25.5938 69.4993C26.1536 68.2678 26.4148 66.9804 26.3029 65.9355C26.2096 65.0399 25.7711 64.2469 25.202 63.4819H30.1278V61.6814H23.7746C23.0376 60.7298 22.4219 59.7316 22.4219 58.6308C22.4219 56.1026 24.4743 54.0501 27.0025 54.0501C29.5307 54.0501 31.5832 56.1026 31.5832 58.6308V59.9742H34.2886V59.9835Z" fill="#EDEFF2"/>
<path d="M74.5954 45.2992C77.9632 45.2992 80.6873 48.0233 80.6873 51.3911V73.7532C80.6873 77.121 77.9632 79.8545 74.5954 79.8545H52.2334C48.8655 79.8545 46.1321 77.121 46.1321 73.7532V51.3911C46.1321 48.0233 48.8655 45.2992 52.2334 45.2992H74.5954Z" fill="#BFC2C4"/>
<path d="M67.9811 53.1172L63.1113 59.9368L58.8572 53.1172H55.8718L61.7959 62.5863V63.6032H57.9429V65.2451H61.7772L61.7865 67.4655H57.9522V69.2567L61.7865 69.2473V72.0461H64.4453V69.2753H68.3076V67.4841H64.4547V65.2638H68.2983V63.6032H64.4547V62.577L70.9664 53.1265L67.9811 53.1172Z" fill="#EDEFF2"/>
</svg>
