<svg width="89" height="88" viewBox="0 0 89 88" fill="none" xmlns="http://www.w3.org/2000/svg">
<path d="M81.1001 44C81.1001 64.1745 64.7746 80.5 44.6001 80.5C24.4256 80.5 8.1001 64.1745 8.1001 44C8.1001 23.8255 24.4256 7.5 44.6001 7.5C64.7746 7.5 81.1001 23.8255 81.1001 44ZM47.9183 17.6536C54.986 18.5495 61.4233 22.2659 65.7369 27.94L71.5106 24.6218C68.784 20.7774 65.2697 17.558 61.2018 15.1779C57.1338 12.7978 52.6055 11.3115 47.9183 10.8182V17.6536ZM17.6896 24.6218L23.4633 27.94C25.602 25.1286 28.279 22.7712 31.3383 21.0051C34.3976 19.2391 37.7778 18.0998 41.2819 17.6536V10.8182C36.5947 11.3115 32.0664 12.7978 27.9984 15.1779C23.9304 17.558 20.4162 20.7774 17.6896 24.6218ZM14.3715 57.6045L20.1119 54.2864C18.7485 51.0284 18.0463 47.5318 18.0463 44C18.0463 40.4682 18.7485 36.9716 20.1119 33.7136L14.3715 30.3955C12.4192 34.6652 11.4088 39.3051 11.4088 44C11.4088 48.6949 12.4192 53.3348 14.3715 57.6045ZM41.2819 70.3464C37.7778 69.9002 34.3976 68.7609 31.3383 66.9949C28.279 65.2288 25.602 62.8714 23.4633 60.06L17.6896 63.3782C20.4162 67.2226 23.9304 70.442 27.9984 72.8221C32.0664 75.2022 36.5947 76.6885 41.2819 77.1818V70.3464ZM71.5106 63.3782L65.7369 60.06C63.5982 62.8714 60.9211 65.2288 57.8619 66.9949C54.8026 68.7609 51.4224 69.9002 47.9183 70.3464V76.9827C57.3751 76.0205 65.9692 71.0764 71.5106 63.3782ZM74.8287 57.6045C78.7774 48.9773 78.7774 39.0227 74.8287 30.3955L69.0883 33.7136C70.4517 36.9716 71.1539 40.4682 71.1539 44C71.1539 47.5318 70.4517 51.0284 69.0883 54.2864L74.8287 57.6045ZM54.5546 44L44.6001 27.4091L34.6456 44L44.6001 60.5909L54.5546 44Z" fill="#BFC2C4"/>
</svg>
