<svg width="22" height="24" viewBox="0 0 22 24" fill="none" xmlns="http://www.w3.org/2000/svg">
<path d="M13.8915 8.72005L16.2502 6.84505L15.8352 6.32755C14.8936 5.50658 13.7599 4.93671 12.5392 4.67077C11.3186 4.40483 10.0506 4.45145 8.85275 4.8063C7.65955 5.16673 6.57739 5.8242 5.70768 6.71708C4.83797 7.60997 4.20918 8.70904 3.88025 9.9113C3.84275 10.0525 4.27025 9.7888 4.459 9.8413L7.719 9.3063C7.719 9.3063 7.87775 9.1513 7.97025 9.05005C9.42025 7.46755 11.8777 7.26005 13.5515 8.60755L13.8915 8.72005Z" fill="#EA4335"/>
<path d="M18.0458 9.87502C17.6703 8.50195 16.9012 7.26878 15.8333 6.32751L13.5458 8.60251C14.0215 8.9884 14.403 9.47757 14.6614 10.0329C14.9197 10.5882 15.0482 11.1951 15.0371 11.8075V12.2113C16.1621 12.2113 17.0746 13.1175 17.0746 14.2363C17.0746 15.3525 16.1621 16.26 15.0371 16.26L10.9658 16.2563L10.5596 16.3V19.4338L10.9658 19.5H15.0371C16.1718 19.5111 17.28 19.1573 18.1983 18.4906C19.1165 17.824 19.7962 16.8799 20.1371 15.7975C20.4736 14.7167 20.4516 13.556 20.0745 12.4887C19.6974 11.4214 18.9854 10.5045 18.0446 9.87502H18.0458Z" fill="#4285F4"/>
<path d="M6.88891 19.4988H10.9627V16.2563H6.88766C6.59766 16.2563 6.31141 16.1738 6.04766 16.0551L5.47516 16.2301L3.83391 17.8513L3.69141 18.4101C4.6104 19.1101 5.73239 19.4919 6.88766 19.4976L6.88891 19.4988Z" fill="#34A853"/>
<path d="M6.8885 8.96503C5.78756 8.9696 4.71545 9.3174 3.82148 9.95998C2.92751 10.6026 2.25618 11.5079 1.901 12.55C1.54956 13.5915 1.53335 14.7168 1.85465 15.768C2.17595 16.8191 2.8186 17.7431 3.69225 18.41L6.05475 16.055C5.65333 15.876 5.3212 15.5711 5.10867 15.1864C4.89614 14.8016 4.8148 14.3581 4.87698 13.923C4.93915 13.4879 5.14146 13.085 5.45323 12.7752C5.76501 12.4654 6.16926 12.2657 6.60475 12.2063C7.04032 12.1438 7.48442 12.224 7.87061 12.4349C8.25681 12.6458 8.56436 12.9761 8.74725 13.3763L11.1097 11.0288C10.612 10.3832 9.97211 9.8612 9.23976 9.50327C8.50741 9.14533 7.70363 8.96115 6.8885 8.96503Z" fill="#FBBC05"/>
</svg>
