<svg width="42" height="24" viewBox="0 0 42 24" fill="none" xmlns="http://www.w3.org/2000/svg">
<path d="M23.4547 6.46713L23.5302 6.51755C24.4179 7.10377 25.0544 7.90773 25.4731 8.87917C25.5736 9.02991 25.5066 9.11366 25.3056 9.16391L24.9654 9.25094C24.1963 9.44908 23.586 9.6157 22.827 9.81384L22.3941 9.92663C22.2383 9.96519 22.1952 9.94898 22.0295 9.7602L22.0061 9.73338C21.7696 9.46539 21.5925 9.28642 21.2792 9.12666L21.2189 9.09691C20.1637 8.57769 19.142 8.72843 18.1873 9.34815C17.0483 10.0851 16.4621 11.1738 16.4789 12.5305C16.4956 13.8704 17.4168 14.9758 18.74 15.1601C19.8789 15.3108 20.8336 14.9088 21.5873 14.0546C21.7381 13.8704 21.8721 13.6694 22.0396 13.4349H18.807C18.4553 13.4349 18.3715 13.2172 18.4888 12.9325L18.5468 12.7958C18.7621 12.2949 19.0959 11.575 19.3128 11.1634L19.3601 11.0749C19.418 10.9745 19.5356 10.8388 19.7617 10.8388L25.1518 10.8388C25.3939 10.0718 25.7867 9.34714 26.3106 8.66143C27.5333 7.05352 29.0072 6.21607 31.0003 5.86434C32.7087 5.56285 34.3166 5.73034 35.7738 6.71854C37.097 7.62299 37.9177 8.84567 38.1354 10.4536C38.4202 12.7147 37.767 14.5571 36.2093 16.1315C35.1038 17.2537 33.7472 17.9572 32.1895 18.2754C31.7373 18.3592 31.2851 18.3759 30.8496 18.4262C29.3254 18.3927 27.9352 17.9572 26.7628 16.9522C25.9382 16.2394 25.3702 15.3633 25.0879 14.3435C24.8921 14.739 24.6579 15.1179 24.3844 15.4783C23.1785 17.0695 21.6041 18.0577 19.6109 18.3257C17.9695 18.5434 16.4454 18.2252 15.1054 17.2202C13.866 16.2823 13.1625 15.0428 12.9783 13.5019C12.7606 11.6763 13.2965 10.0349 14.402 8.59444C15.5912 7.03677 17.1656 6.04858 19.0917 5.69685C20.637 5.41738 22.1177 5.58969 23.4547 6.46713ZM31.4224 8.86725L31.3688 8.87917C29.8111 9.2309 28.8062 10.2191 28.4377 11.7935C28.1362 13.0999 28.7727 14.4231 29.9786 14.9591C30.8998 15.3611 31.821 15.3108 32.7087 14.8586C34.0319 14.1719 34.7521 13.0999 34.8359 11.6595C34.8191 11.4418 34.8191 11.2743 34.7856 11.1068C34.4875 9.46727 32.9941 8.53186 31.4224 8.86725ZM11.6216 11.9275C11.6886 11.9275 11.7221 11.9778 11.7221 12.0447L11.6886 12.4467C11.6886 12.5137 11.6216 12.564 11.5714 12.564L7.92008 12.5472C7.85308 12.5472 7.83633 12.497 7.86983 12.4467L8.10432 12.028C8.13782 11.9778 8.20481 11.9275 8.27181 11.9275H11.6216ZM11.9901 10.3866C12.0571 10.3866 12.0906 10.4368 12.0739 10.4871L11.9399 10.8891C11.9231 10.9561 11.8561 10.9896 11.7891 10.9896L3.8668 11.0063C3.7998 11.0063 3.78306 10.9728 3.81655 10.9226L4.16828 10.4703C4.20178 10.4201 4.28553 10.3866 4.35252 10.3866H11.9901ZM12.8611 8.84567C12.9281 8.84567 12.9448 8.89592 12.9113 8.94617L12.6266 9.38164C12.5931 9.43189 12.5093 9.48214 12.4591 9.48214L6.39591 9.46539C6.32892 9.46539 6.31217 9.43189 6.34567 9.38164L6.6974 8.92942C6.73089 8.87917 6.81464 8.84567 6.88164 8.84567H12.8611Z" fill="#00ACD7"/>
</svg>
