<svg width="14" height="24" viewBox="0 0 14 24" fill="none" xmlns="http://www.w3.org/2000/svg">
<path fill-rule="evenodd" clip-rule="evenodd" d="M6.55579 17.7565C5.38918 17.7565 4.48773 17.5813 4.05424 17.4768C3.75781 17.4054 3.51977 17.3315 3.33894 17.2556L3.91708 18.2433L4.14323 21.3296C4.14323 21.6756 5.24235 21.9561 6.59817 21.9561C7.95398 21.9561 9.0531 21.6756 9.0531 21.3296L9.23217 18.2097L9.7792 17.2527C9.5976 17.3296 9.35744 17.4045 9.05729 17.4768C8.6238 17.5813 7.72235 17.7565 6.55579 17.7565ZM9.79796 7.71373C8.94173 7.83331 7.80535 7.89921 6.59817 7.89921C5.39098 7.89921 4.2546 7.83331 3.39837 7.71373C2.97424 7.6545 2.63868 7.58463 2.40101 7.50618C2.34432 7.48742 2.24825 7.45543 2.15579 7.40448L2.68628 12.2868C2.71093 12.2027 2.73837 12.1187 2.76881 12.0351C2.83109 11.8636 2.90313 11.696 2.98489 11.5322C3.06669 11.3685 3.15574 11.2137 3.25202 11.0679C3.34825 10.9222 3.45073 10.7879 3.5593 10.6653C3.66794 10.5427 3.77936 10.4373 3.89377 10.3489C4.00814 10.2607 4.12359 10.1916 4.24013 10.1419C4.35672 10.0922 4.47217 10.0673 4.58654 10.0673C4.71827 10.0673 4.84571 10.1033 4.96881 10.1753C5.09186 10.2473 5.2069 10.364 5.31409 10.5251C5.33868 10.5612 5.35429 10.5976 5.36075 10.6345C5.36732 10.6714 5.37052 10.7061 5.37052 10.7386C5.37052 10.8158 5.35207 10.8767 5.31517 10.9213C5.27827 10.9659 5.23445 10.9881 5.1838 10.9881C5.13739 10.9881 5.09434 10.9637 5.05455 10.9149C5.01471 10.866 4.97021 10.7961 4.92096 10.7052C4.8746 10.6229 4.82359 10.5633 4.76788 10.5264C4.71212 10.4896 4.65171 10.4711 4.58654 10.4711C4.4852 10.4711 4.37698 10.5132 4.26189 10.5972C4.14675 10.6812 4.03274 10.7922 3.91987 10.9303C3.8069 11.0684 3.69868 11.2261 3.59517 11.4036C3.49166 11.5811 3.40003 11.7628 3.32039 11.9489C3.24075 12.135 3.1775 12.3185 3.13042 12.4994C3.08334 12.6803 3.05982 12.8428 3.05982 12.9868C3.05982 13.0349 3.06313 13.0842 3.06959 13.1347C3.07615 13.1854 3.0884 13.2312 3.10654 13.2724C3.12458 13.3136 3.14923 13.3474 3.18034 13.3739C3.2115 13.4005 3.25093 13.4138 3.29868 13.4138C3.35228 13.4138 3.41305 13.3958 3.48117 13.3598C3.54918 13.3239 3.61977 13.2766 3.69284 13.2184C3.76597 13.16 3.83946 13.094 3.91331 13.0202C3.98721 12.9465 4.05595 12.872 4.11961 12.7965C4.18328 12.7211 4.23977 12.6486 4.28897 12.5792C4.33822 12.5097 4.37512 12.4492 4.39977 12.3978L4.60173 11.7933C4.62633 11.7281 4.65853 11.6818 4.69837 11.6544C4.73817 11.627 4.7791 11.6132 4.82111 11.6132C4.84132 11.6132 4.86158 11.6167 4.88189 11.6235C4.9022 11.6304 4.92023 11.6411 4.9362 11.6556C4.95212 11.6703 4.96478 11.6891 4.97419 11.7123C4.98359 11.7354 4.9883 11.7624 4.9883 11.7933C4.9883 11.8756 4.98106 11.9527 4.96659 12.0248C4.95212 12.0969 4.93367 12.1671 4.91119 12.2357C4.88876 12.3043 4.86375 12.3733 4.83626 12.4428C4.80876 12.5122 4.78194 12.5847 4.75595 12.6602C4.75016 12.6688 4.73967 12.6957 4.72442 12.7411C4.70923 12.7866 4.69083 12.8437 4.66907 12.9122C4.64737 12.9809 4.6238 13.0576 4.59848 13.1425C4.5731 13.2274 4.54711 13.3139 4.52034 13.4023C4.49352 13.4906 4.46783 13.5772 4.44323 13.6621C4.41858 13.747 4.39646 13.8237 4.37698 13.8923C4.35744 13.9609 4.34117 14.0183 4.32809 14.0646C4.31507 14.1109 4.30711 14.1383 4.30421 14.147C4.29698 14.1743 4.28535 14.2048 4.26949 14.2382C4.25357 14.2717 4.23476 14.3034 4.213 14.3334C4.19129 14.3634 4.16742 14.3884 4.14132 14.408C4.11527 14.4277 4.0885 14.4376 4.06096 14.4376C4.01465 14.4376 3.98096 14.4222 3.96003 14.3914C3.93899 14.3604 3.92856 14.3039 3.92856 14.2216V14.1856C3.92856 14.1735 3.92923 14.1606 3.93067 14.147C3.93207 14.1195 3.94297 14.068 3.96328 13.9925C3.98354 13.9171 4.00778 13.8319 4.03605 13.7367C4.06427 13.6415 4.09471 13.5429 4.12726 13.4408C4.15977 13.3388 4.18912 13.2475 4.21522 13.1669C4.13837 13.2527 4.05522 13.338 3.96545 13.4229C3.87564 13.5077 3.7837 13.5841 3.68964 13.6518C3.59548 13.7195 3.50065 13.7748 3.40514 13.8177C3.30959 13.8605 3.21765 13.882 3.12933 13.882C3.02799 13.882 2.94075 13.8597 2.86757 13.8151C2.8544 13.807 2.84194 13.798 2.82954 13.789L3.12473 16.884C3.20158 17.0766 4.6483 17.5498 6.55579 17.5498C8.46416 17.5498 9.91145 17.0761 9.98695 16.8837L10.411 13.204C10.3759 13.2362 10.3417 13.2676 10.3091 13.2981C10.1874 13.4112 10.0726 13.5086 9.96478 13.59C9.85698 13.6715 9.7516 13.7346 9.64881 13.7791C9.54597 13.8237 9.43595 13.846 9.31868 13.846C9.20866 13.846 9.12354 13.8219 9.06349 13.7739C9.00344 13.726 8.97336 13.66 8.97336 13.5759V13.5566C8.97336 13.5506 8.97408 13.5433 8.97558 13.5347C8.98132 13.4833 9.00385 13.4241 9.04292 13.3572C9.08199 13.2903 9.12902 13.2209 9.18401 13.1489C9.23905 13.0769 9.29765 13.004 9.35992 12.9302C9.4222 12.8565 9.47977 12.7866 9.53264 12.7205C9.58545 12.6547 9.62923 12.5942 9.66396 12.5393C9.69879 12.4844 9.71615 12.4398 9.71615 12.4055C9.71615 12.3849 9.70887 12.3687 9.69445 12.3566C9.67992 12.3447 9.656 12.3386 9.62277 12.3386C9.56483 12.3386 9.50509 12.3536 9.44365 12.3836C9.38204 12.4136 9.32116 12.454 9.26111 12.5045C9.20106 12.5551 9.14241 12.6131 9.0852 12.6782C9.02809 12.7433 8.9745 12.8111 8.92452 12.8813C8.87455 12.9517 8.82902 13.0225 8.78773 13.0936C8.74644 13.1648 8.71135 13.2304 8.68235 13.2903C8.67367 13.3092 8.66137 13.3358 8.6454 13.3701C8.62949 13.4044 8.61212 13.443 8.59331 13.4859C8.57445 13.5288 8.55455 13.573 8.53357 13.6183C8.51259 13.6638 8.49341 13.7067 8.47605 13.747C8.45868 13.7873 8.44313 13.8232 8.42943 13.855C8.41558 13.8866 8.40582 13.9086 8.40003 13.9206C8.39279 13.936 8.38085 13.9651 8.36421 14.008C8.34757 14.0509 8.32835 14.1011 8.30669 14.1585C8.28499 14.2159 8.26215 14.2764 8.23822 14.3399C8.21445 14.4032 8.19191 14.4633 8.17093 14.5199C8.1499 14.5765 8.13145 14.6262 8.11558 14.6691C8.09967 14.7119 8.08943 14.7411 8.08509 14.7566C8.07067 14.8012 8.05362 14.8431 8.03414 14.8827C8.01455 14.922 7.99217 14.9568 7.9668 14.9869C7.94148 15.0168 7.91253 15.0408 7.87992 15.0588C7.84731 15.0769 7.81078 15.0858 7.77031 15.0858C7.71812 15.0858 7.67512 15.0733 7.64101 15.0485C7.60706 15.0237 7.59 14.976 7.59 14.9058C7.59 14.8715 7.59434 14.8363 7.60303 14.8003C7.61171 14.7643 7.62261 14.7287 7.63564 14.6936C7.64866 14.6583 7.6621 14.6241 7.67584 14.5907C7.68954 14.5572 7.70225 14.5251 7.71377 14.4942C7.79202 14.3227 7.87166 14.1508 7.95269 13.9784C8.03372 13.8061 8.11155 13.6355 8.18618 13.4666C8.20168 13.4314 8.21595 13.3968 8.23109 13.3618C8.22654 13.3662 8.2221 13.3709 8.21765 13.3752C8.12349 13.4662 8.0298 13.5463 7.93641 13.6157C7.84297 13.6852 7.75031 13.7405 7.65848 13.7817C7.56649 13.8228 7.47708 13.8434 7.39016 13.8434C7.33083 13.8434 7.28127 13.834 7.24148 13.8151C7.20163 13.7962 7.16985 13.7705 7.14592 13.738C7.12199 13.7054 7.10494 13.6668 7.09481 13.6222C7.0914 13.607 7.08928 13.591 7.08706 13.5752C7.06163 13.595 7.036 13.6142 7.01016 13.6325C6.92039 13.6959 6.83207 13.747 6.7452 13.7855C6.65837 13.8241 6.58013 13.8434 6.51073 13.8434C6.44116 13.8434 6.38473 13.8202 6.34122 13.7739C6.29781 13.7277 6.27615 13.6488 6.27615 13.5373C6.27615 13.4584 6.28773 13.3666 6.31083 13.2621C6.27321 13.329 6.22618 13.3967 6.16974 13.4653C6.11321 13.5339 6.04881 13.5965 5.97646 13.6531C5.90396 13.7096 5.82292 13.7555 5.73321 13.7907C5.64339 13.8258 5.54566 13.8434 5.44003 13.8434C5.39222 13.8434 5.34628 13.8374 5.3021 13.8254C5.25791 13.8134 5.2192 13.7928 5.18592 13.7636C5.15259 13.7346 5.12587 13.6955 5.10556 13.6466C5.0853 13.5978 5.07517 13.5364 5.07517 13.4627C5.07517 13.461 5.07806 13.4349 5.08385 13.3842C5.08964 13.3336 5.10809 13.2539 5.13925 13.145C5.17036 13.0362 5.21853 12.8951 5.28359 12.7218C5.34881 12.5487 5.44075 12.3386 5.55946 12.0917C5.58985 12.0265 5.62499 11.9798 5.66473 11.9515C5.70463 11.9232 5.74762 11.909 5.79393 11.909C5.81424 11.909 5.83522 11.9121 5.85693 11.918C5.87874 11.9241 5.89894 11.9335 5.91781 11.9463C5.93657 11.9592 5.95181 11.9755 5.96344 11.9952C5.97491 12.0149 5.9808 12.0376 5.9808 12.0633C5.9808 12.0805 5.97858 12.0969 5.97424 12.1122C5.96695 12.1415 5.9514 12.1795 5.92763 12.2266C5.9037 12.2739 5.87579 12.3279 5.8439 12.3888C5.81212 12.4496 5.77843 12.5152 5.74297 12.5856C5.70747 12.6558 5.67455 12.7287 5.64416 12.8042C5.61378 12.8797 5.58768 12.9564 5.56597 13.0345C5.54427 13.1125 5.53191 13.1884 5.52907 13.2621C5.52907 13.293 5.53626 13.3212 5.55078 13.347C5.56525 13.3727 5.58918 13.3855 5.62246 13.3855C5.71651 13.3855 5.80628 13.3546 5.89176 13.293C5.97713 13.2312 6.056 13.1545 6.12845 13.0627C6.20085 12.971 6.26633 12.8723 6.32499 12.7669C6.38365 12.6614 6.43248 12.565 6.47155 12.4775C6.4991 12.4193 6.52334 12.3566 6.54432 12.2897C6.5653 12.2228 6.58814 12.1612 6.61274 12.1045C6.63739 12.0479 6.66556 12.0008 6.69744 11.963C6.72923 11.9254 6.76912 11.9064 6.81682 11.9064C6.86902 11.9064 6.91021 11.9262 6.9407 11.9656C6.97109 12.0051 6.98623 12.0522 6.98623 12.1071C6.98623 12.1379 6.97651 12.1804 6.95693 12.2345C6.93734 12.2885 6.91274 12.3502 6.88308 12.4197C6.85336 12.4891 6.82117 12.5633 6.78649 12.6421C6.75176 12.7211 6.71946 12.8012 6.6899 12.8827C6.66008 12.9641 6.63558 13.0439 6.616 13.1219C6.59641 13.1999 6.58669 13.2724 6.58669 13.3392C6.58669 13.401 6.61853 13.4319 6.6822 13.4319C6.72711 13.4319 6.78282 13.4164 6.84943 13.3855C6.91605 13.3546 6.98592 13.3114 7.05899 13.2556C7.07724 13.2417 7.09563 13.2272 7.11388 13.2119C7.13429 13.1277 7.15822 13.0499 7.18607 12.9792C7.23672 12.8453 7.28814 12.7125 7.34029 12.5804C7.39238 12.4484 7.44013 12.3275 7.48365 12.2177L8.14163 10.5586C8.16768 10.4917 8.20282 10.4445 8.2469 10.4171C8.29114 10.3897 8.33564 10.376 8.38054 10.376C8.42535 10.376 8.46623 10.3905 8.50318 10.4197C8.54013 10.4489 8.55863 10.496 8.55863 10.5612C8.55863 10.592 8.55243 10.6246 8.54013 10.6589C8.52783 10.6932 8.51228 10.7301 8.49341 10.7695C8.45729 10.8502 8.41419 10.9487 8.36421 11.0653C8.31424 11.1819 8.26065 11.3089 8.20349 11.446C8.14628 11.5832 8.08763 11.726 8.02757 11.8743C7.96752 12.0227 7.90886 12.1671 7.85166 12.3077C7.79455 12.4484 7.74091 12.5816 7.69093 12.7077C7.64101 12.8338 7.59801 12.9431 7.56173 13.0357C7.54582 13.0751 7.53026 13.1211 7.51512 13.1734C7.49987 13.2256 7.49233 13.2724 7.49233 13.3136C7.49233 13.3392 7.49667 13.3598 7.50535 13.3752C7.51403 13.3907 7.53067 13.3984 7.55527 13.3984C7.58566 13.3984 7.62365 13.3877 7.66928 13.3662C7.71486 13.3448 7.76406 13.3165 7.81693 13.2813C7.86985 13.2462 7.92483 13.2059 7.98194 13.1604C8.0392 13.115 8.096 13.0679 8.15243 13.019C8.20897 12.9701 8.26287 12.9212 8.31424 12.8723C8.36561 12.8235 8.41166 12.7785 8.45222 12.7373C8.46173 12.7274 8.4731 12.7204 8.48561 12.7152C8.51005 12.6422 8.53238 12.5707 8.55207 12.5007C8.56365 12.4698 8.57961 12.4261 8.59987 12.3695C8.62008 12.3128 8.64328 12.2571 8.66933 12.2023C8.69538 12.1474 8.72478 12.0998 8.75724 12.0595C8.78985 12.0193 8.82499 11.9991 8.86261 11.9991C8.92054 11.9991 8.96256 12.0124 8.98861 12.0389C9.01465 12.0656 9.02768 12.1045 9.02768 12.156C9.02768 12.1663 9.02623 12.1826 9.02334 12.2048C9.02039 12.2272 9.01688 12.2508 9.01253 12.2756C9.00819 12.3004 9.00344 12.3241 8.99837 12.3464C8.99326 12.3687 8.98861 12.3849 8.98427 12.3952C9.03775 12.3369 9.09569 12.2791 9.15796 12.2216C9.22023 12.1642 9.28463 12.1122 9.35124 12.066C9.41791 12.0196 9.48592 11.982 9.55548 11.9527C9.62489 11.9237 9.69445 11.909 9.7639 11.909C9.81166 11.909 9.8591 11.9159 9.90613 11.9296C9.95315 11.9433 9.99522 11.9635 10.0321 11.9901C10.069 12.0167 10.0991 12.0501 10.1222 12.0904C10.1454 12.1307 10.1569 12.1774 10.1569 12.2306C10.1569 12.301 10.1393 12.3759 10.1037 12.4557C10.0683 12.5354 10.0238 12.6156 9.97021 12.6961C9.91662 12.7768 9.85868 12.8552 9.79651 12.9315C9.73424 13.0078 9.676 13.0772 9.62168 13.1398C9.56737 13.2025 9.52173 13.2556 9.48478 13.2993C9.44799 13.3431 9.42866 13.3727 9.42726 13.3881C9.42726 13.4087 9.43383 13.4254 9.44685 13.4383C9.45987 13.4511 9.48158 13.4576 9.51197 13.4576C9.53657 13.4576 9.57284 13.4439 9.62054 13.4164C9.6683 13.389 9.73533 13.3414 9.82142 13.2737C9.90752 13.2059 10.0169 13.115 10.1494 13.001C10.2402 12.9228 10.3466 12.8296 10.4664 12.7236L11.0408 7.40432C10.9483 7.45538 10.8521 7.48742 10.7953 7.50618C10.5577 7.58463 10.2221 7.6545 9.79796 7.71373ZM6.59476 6.45166C4.11163 6.45166 2.09863 6.7293 2.09863 7.07182C2.09863 7.41433 4.11163 7.69197 6.59476 7.69197C9.07788 7.69197 11.0909 7.41433 11.0909 7.07182C11.0909 6.7293 9.07788 6.45166 6.59476 6.45166ZM8.39 7.25306C8.39 7.33342 8.15078 7.39859 7.85564 7.39859C7.56054 7.39859 7.32132 7.33342 7.32132 7.25306C7.32132 7.17264 7.56054 7.10747 7.85564 7.10747C8.15078 7.10747 8.39 7.17264 8.39 7.25306Z" fill="#DA4648"/>
<path fill-rule="evenodd" clip-rule="evenodd" d="M7.4298 7.18866C7.42715 7.19289 7.42578 7.1972 7.42578 7.20158C7.42578 7.25362 7.61839 7.29574 7.85591 7.29574C8.09348 7.29574 8.28604 7.25362 8.28604 7.20158L8.84785 4.92365L11.0821 2.56475C11.0828 2.56403 11.0835 2.56328 11.0842 2.56251C11.1315 2.50902 11.0355 2.34349 10.8763 2.20153C10.7171 2.05957 10.5452 2.0115 10.4917 2.06556C10.4913 2.06597 10.4909 2.06638 10.4906 2.06679L8.10671 4.57523L7.4298 7.18866Z" fill="#DA4648"/>
</svg>
