<svg width="32" height="24" viewBox="0 0 32 24" fill="none" xmlns="http://www.w3.org/2000/svg">
<path d="M4.5692 17.541H6.47753V9.41719H4.5692V17.541ZM5.51954 8.35183C6.11733 8.35183 6.58483 7.89199 6.58483 7.3172C6.58483 6.73473 6.11733 6.2749 5.51954 6.2749C4.92941 6.2749 4.46191 6.73475 4.46191 7.3172C4.46191 7.89201 4.92941 8.35183 5.51954 8.35183ZM12.8312 6.29784C9.60477 6.29784 7.58138 8.49741 7.58138 12.0152C7.58138 15.5331 9.60458 17.725 12.8312 17.725C16.0501 17.725 18.0735 15.5331 18.0735 12.0152C18.0735 8.49741 16.0503 6.29784 12.8312 6.29784ZM12.8312 7.98392C14.8009 7.98392 16.0577 9.54739 16.0577 12.0152C16.0577 14.4753 14.8008 16.0388 12.8312 16.0388C10.854 16.0388 9.60477 14.4754 9.60477 12.0152C9.60477 9.54743 10.854 7.98392 12.8312 7.98392ZM18.8785 14.4294C18.9628 16.4681 20.6335 17.725 23.1779 17.725C25.8527 17.725 27.5388 16.4067 27.5388 14.3068C27.5388 12.659 26.5885 11.7317 24.343 11.2182L23.0707 10.927C21.7142 10.6051 21.1547 10.1759 21.1547 9.4402C21.1547 8.52053 21.9978 7.90741 23.247 7.90741C24.5116 7.90741 25.3775 8.5282 25.4695 9.56283H27.3549C27.3089 7.61617 25.6995 6.2979 23.2624 6.2979C20.8558 6.2979 19.1467 7.62376 19.1467 9.58578C19.1467 11.1646 20.1124 12.1456 22.1509 12.6131L23.5841 12.9503C24.9789 13.2799 25.5461 13.7397 25.5461 14.5368C25.5461 15.4565 24.6187 16.1156 23.2853 16.1156C21.9364 16.1156 20.9172 15.4488 20.7945 14.4295L18.8785 14.4294Z" fill="black"/>
</svg>
