<svg width="22" height="24" viewBox="0 0 22 24" fill="none" xmlns="http://www.w3.org/2000/svg">
<path d="M19.6602 16.9999C19.7997 16.7584 19.8863 16.4862 19.8863 16.2418V7.75807C19.8863 7.51366 19.7998 7.24156 19.6603 7L11 12L19.6602 16.9999Z" fill="#00599C"/>
<path d="M11.7696 21.8166L19.1168 17.5748C19.3284 17.4526 19.5208 17.2416 19.6602 17L11 12L2.33984 17C2.47929 17.2416 2.67172 17.4526 2.8833 17.5748L10.2305 21.8166C10.6537 22.061 11.3464 22.061 11.7696 21.8166Z" fill="#004482"/>
<path d="M19.6598 6.99997C19.5203 6.75836 19.3279 6.54735 19.1163 6.42515L11.7692 2.1833C11.3459 1.9389 10.6533 1.9389 10.23 2.1833L2.88285 6.42515C2.45956 6.66949 2.11328 7.26935 2.11328 7.75809V16.2418C2.11328 16.4862 2.19988 16.7584 2.33939 17L10.9996 12L19.6598 6.99997Z" fill="#659AD2"/>
<path d="M11.0004 17.9242C7.73376 17.9242 5.07617 15.2666 5.07617 12C5.07617 8.73339 7.73376 6.07581 11.0004 6.07581C13.1082 6.07581 15.0741 7.21012 16.1307 9.03605L13.5668 10.5197C13.038 9.6057 12.0545 9.03791 11.0004 9.03791C9.36704 9.03791 8.03827 10.3667 8.03827 12C8.03827 13.6333 9.36704 14.9621 11.0004 14.9621C12.0547 14.9621 13.0381 14.3943 13.567 13.4802L16.1309 14.9637C15.0743 16.7898 13.1083 17.9242 11.0004 17.9242Z" fill="white"/>
<path d="M16.924 11.6709H16.2657V11.0127H15.6075V11.6709H14.9492V12.3291H15.6075V12.9874H16.2657V12.3291H16.924V11.6709Z" fill="white"/>
<path d="M19.3927 11.6709H18.7344V11.0127H18.0763V11.6709H17.418V12.3291H18.0763V12.9874H18.7344V12.3291H19.3927V11.6709Z" fill="white"/>
</svg>
