<svg width="18" height="24" viewBox="0 0 18 24" fill="none" xmlns="http://www.w3.org/2000/svg">
<path d="M12.3605 14.2225C12.7434 13.9608 13.2745 13.7343 13.2745 13.7343C13.2745 13.7343 11.7629 14.0077 10.259 14.1327C8.41921 14.285 6.44269 14.3163 5.45052 14.1835C3.10286 13.871 6.73952 13.0077 6.73952 13.0077C6.73952 13.0077 5.32939 12.914 3.59112 13.7498C1.54043 14.742 8.66917 15.1951 12.3605 14.2225Z" fill="#5382A1"/>
<path d="M9.02465 12.9686C8.28247 11.3007 5.7786 9.83578 9.02465 7.27335C13.0754 4.07813 10.9973 2 10.9973 2C11.8371 5.30074 8.04421 6.30074 6.67308 8.35148C5.73947 9.75378 7.13013 11.2577 9.02465 12.9686Z" fill="#F8981D"/>
<path d="M13.5006 6.08582C13.5045 6.08582 6.65699 7.79673 9.92646 11.5623C10.8913 12.6716 9.67255 13.6716 9.67255 13.6716C9.67255 13.6716 12.1218 12.4061 10.9968 10.824C9.94599 9.34747 9.14129 8.61312 13.5006 6.08582Z" fill="#F8981D"/>
<path d="M13.2627 16.6521C13.2432 16.699 13.1846 16.7498 13.1846 16.7537C18.1961 15.4373 16.3524 12.1092 13.9579 12.953C13.747 13.0272 13.6377 13.1991 13.6377 13.1991C13.6377 13.1991 13.7704 13.1443 14.0674 13.0819C15.2782 12.828 17.0165 14.703 13.2627 16.6521Z" fill="#5382A1"/>
<path d="M15.106 19.0857C15.106 19.0857 15.6724 19.5505 14.4849 19.9138C12.2233 20.5974 5.07887 20.8044 3.09452 19.9412C2.37969 19.6325 3.71947 19.1989 4.14139 19.1092C4.57882 19.0154 4.83274 19.0309 4.83274 19.0309C4.03978 18.4724 -0.296091 20.1286 2.62965 20.6013C10.6061 21.8981 17.1763 20.0192 15.106 19.0857Z" fill="#5382A1"/>
<path d="M6.37207 17.4685C3.2979 18.3279 8.24316 20.1013 12.1571 18.4255C11.5165 18.1756 11.0556 17.8865 11.0556 17.8865C9.30951 18.2185 8.50098 18.2419 6.91503 18.0623C5.60646 17.9139 6.37207 17.4685 6.37207 17.4685Z" fill="#5382A1"/>
<path d="M13.3954 21.2654C10.3212 21.8434 6.52836 21.7771 4.28223 21.4059C4.28223 21.4021 4.74318 21.7849 7.11031 21.9372C10.7118 22.1677 16.243 21.8083 16.3719 20.1052C16.3719 20.1052 16.1219 20.7498 13.3954 21.2654Z" fill="#5382A1"/>
<path d="M11.6919 15.7889C9.37942 16.2342 8.03963 16.2225 6.34828 16.0467C5.03968 15.91 5.89515 15.2772 5.89515 15.2772C2.50463 16.4022 7.77794 17.6757 12.5161 16.2889C12.0122 16.1131 11.6919 15.7889 11.6919 15.7889Z" fill="#5382A1"/>
</svg>
