<svg width="20" height="24" viewBox="0 0 20 24" fill="none" xmlns="http://www.w3.org/2000/svg">
<g clip-path="url(#clip0_626_220667)">
<path d="M2.72991 19.905L1.26758 2.03345L18.7316 2.06936L17.1853 19.905L10.0655 21.9666L2.72991 19.905Z" fill="#E9CA32"/>
<path d="M10.0654 20.2406V3.73547L17.2572 3.75942L15.9747 18.5265L10.0654 20.2406Z" fill="#FFDE25"/>
<path d="M9.29589 5.69519H7.39456V16.6806L5.91576 16.3989V14.9201L4.15527 14.6384V17.9482L9.29589 19.2861V5.69519ZM10.7222 5.69519H15.9857L15.6336 7.80073H12.7315V11.2559H15.6336L15.2815 18.2298L10.7222 19.2861V17.1031L13.8027 16.0468L13.9806 13.1596L10.7222 13.6315V5.69519Z" fill="white"/>
</g>
<defs>
<clipPath id="clip0_626_220667">
<rect width="18" height="20" fill="white" transform="translate(1 2)"/>
</clipPath>
</defs>
</svg>
