<svg width="23" height="24" viewBox="0 0 23 24" fill="none" xmlns="http://www.w3.org/2000/svg">
<path d="M21.203 6.52452C21.2102 6.55119 21.2139 6.57868 21.2139 6.6063V10.8992C21.2139 11.0114 21.1539 11.115 21.0567 11.1708L17.4535 13.2453V17.3571C17.4535 17.469 17.394 17.5722 17.297 17.6286L9.77574 21.9583C9.75852 21.9681 9.73974 21.9744 9.72096 21.981C9.71392 21.9834 9.70727 21.9877 9.69983 21.9896C9.64726 22.0035 9.59199 22.0035 9.53942 21.9896C9.53081 21.9873 9.52298 21.9826 9.51477 21.9794C9.49755 21.9732 9.47955 21.9677 9.46312 21.9583L1.94342 17.6286C1.84619 17.5727 1.78613 17.4692 1.78613 17.3571V4.47821C1.78613 4.45004 1.79005 4.42265 1.79709 4.39605C1.79944 4.38705 1.80491 4.37883 1.80804 4.36983C1.81391 4.3534 1.81939 4.33658 1.828 4.32132C1.83387 4.31114 1.84247 4.30293 1.84952 4.29354C1.85852 4.28102 1.86673 4.26811 1.8773 4.25715C1.8863 4.24815 1.89803 4.2415 1.90821 4.23367C1.91955 4.22428 1.92973 4.21411 1.94264 4.20668H1.94303L5.70307 2.04181C5.79996 1.98606 5.9192 1.98606 6.01609 2.04181L9.77613 4.20668H9.77691C9.78943 4.2145 9.8 4.22428 9.81135 4.23328C9.82152 4.24111 9.83286 4.24815 9.84186 4.25676C9.85282 4.26811 9.86064 4.28102 9.87003 4.29354C9.87669 4.30293 9.88568 4.31114 9.89116 4.32132C9.90016 4.33697 9.90525 4.3534 9.91151 4.36983C9.91464 4.37883 9.92012 4.38705 9.92246 4.39644C9.92967 4.4231 9.93335 4.4506 9.93342 4.47821V12.5222L13.0667 10.7181V6.60591C13.0667 6.57852 13.0706 6.55074 13.0776 6.52452C13.0804 6.51513 13.0854 6.50692 13.0886 6.49792C13.0948 6.48148 13.1003 6.46466 13.1089 6.4494C13.1148 6.43923 13.1234 6.43101 13.13 6.42162C13.1394 6.4091 13.1473 6.39619 13.1582 6.38523C13.1672 6.37624 13.1786 6.36958 13.1887 6.36176C13.2005 6.35237 13.2106 6.3422 13.2232 6.33476H13.2236L16.984 4.1699C17.0809 4.11407 17.2001 4.11407 17.297 4.1699L21.057 6.33476C21.0704 6.34259 21.0805 6.35237 21.0923 6.36137C21.102 6.36919 21.1134 6.37624 21.1224 6.38484C21.1333 6.39619 21.1412 6.4091 21.1506 6.42162C21.1576 6.43101 21.1662 6.43923 21.1717 6.4494C21.1807 6.46466 21.1858 6.48148 21.192 6.49792C21.1956 6.50692 21.2006 6.51513 21.203 6.52452ZM20.5871 10.7181V7.1482L19.2713 7.90569L17.4535 8.95232V12.5222L20.5875 10.7181H20.5871ZM16.8271 17.1759V13.6037L15.039 14.6249L9.93303 17.539V21.1449L16.8271 17.1759ZM2.41294 5.02011V17.1759L9.30622 21.1445V17.5394L5.70503 15.5013L5.70386 15.5005L5.70229 15.4997C5.69016 15.4927 5.67999 15.4825 5.66864 15.4739C5.65886 15.4661 5.64752 15.4598 5.63891 15.4512L5.63812 15.45C5.62795 15.4403 5.62091 15.4281 5.6123 15.4172C5.60448 15.4066 5.59509 15.3976 5.58883 15.3867L5.58843 15.3855C5.58139 15.3737 5.57709 15.3597 5.572 15.3463C5.56691 15.3346 5.56026 15.3237 5.55713 15.3111V15.3107C5.55322 15.2959 5.55244 15.2802 5.55087 15.265C5.54931 15.2532 5.54618 15.2415 5.54618 15.2298V15.229V6.82423L3.72876 5.77721L2.41294 5.02051V5.02011ZM5.85997 2.67488L2.72712 4.47821L5.85919 6.28155L8.99165 4.47782L5.85919 2.67488H5.85997ZM7.48919 13.9292L9.30661 12.883V5.02011L7.99079 5.7776L6.17298 6.82423V14.6871L7.48919 13.9292ZM17.1405 4.80296L14.008 6.6063L17.1405 8.40963L20.2726 6.60591L17.1405 4.80296ZM16.8271 8.95232L15.0093 7.90569L13.6935 7.1482V10.7181L15.5109 11.7643L16.8271 12.5222V8.95232ZM9.61923 16.9971L14.2138 14.3741L16.5106 13.0633L13.3805 11.2612L9.77652 13.336L6.49186 15.227L9.61923 16.9971Z" fill="#FF2D20"/>
</svg>
