<svg width="35" height="24" viewBox="0 0 35 24" fill="none" xmlns="http://www.w3.org/2000/svg">
<path d="M3.56949 13.7112C3.56949 13.2069 3.24526 12.6665 2.30859 12.6305V11.3696C3.24526 11.3335 3.56949 10.7931 3.56949 10.2888C3.56949 9.38814 3.42539 8.81173 3.42539 7.76698C3.42539 6.18185 4.0018 5.67749 5.29873 5.67749H8.7572V6.83031H5.94719C5.33476 6.83031 5.15463 7.04647 5.15463 7.83903C5.15463 8.6316 5.22668 9.35212 5.22668 10.2167C5.22668 11.3335 4.86642 11.7658 4.14591 11.946V12.018C4.86642 12.1981 5.22668 12.6305 5.22668 13.7473C5.22668 14.6479 5.15463 15.3324 5.15463 16.125C5.15463 16.9175 5.33476 17.1697 5.94719 17.1697H6.2354V18.2865H5.29873C4.0018 18.2865 3.42539 17.7821 3.42539 16.197C3.42539 15.1523 3.56949 14.6119 3.56949 13.7112ZM6.63168 5.78557H8.79323V13.8914C8.79323 14.3597 9.00938 14.5038 9.18951 14.5038C9.26156 14.5038 9.33361 14.5038 9.44169 14.4678L9.69387 16.0529C9.44169 16.161 9.08143 16.233 8.6131 16.233C7.13604 16.233 6.63168 15.2603 6.63168 13.7833V5.78557ZM12.72 8.59557C14.7735 8.59557 15.8182 10.1087 15.8182 12.0901C15.8182 12.4864 15.7822 12.8106 15.7462 12.9907H11.315C11.4952 14.1075 12.2517 14.5758 13.2244 14.5758C13.7648 14.5758 14.2691 14.4317 14.8095 14.1075L15.53 15.4044C14.7735 15.9088 13.8008 16.233 12.9362 16.233C10.8467 16.233 9.26156 14.828 9.26156 12.4143C9.22553 10.0726 10.9548 8.59557 12.72 8.59557ZM13.9809 11.6578C13.9809 10.8292 13.6207 10.2167 12.7561 10.2167C12.0716 10.2167 11.4952 10.6851 11.3511 11.6578H13.9809ZM17.0431 13.8914C17.6916 14.3957 18.304 14.6479 18.9165 14.6479C19.5649 14.6479 19.8531 14.3957 19.8531 14.0355C19.8531 13.5671 19.1326 13.3149 18.3761 13.0267C17.5115 12.7025 16.4667 12.0901 16.4667 10.9012C16.4667 9.56827 17.5835 8.6316 19.2407 8.6316C20.3575 8.6316 21.1861 9.09994 21.7985 9.56827L20.8258 10.8652C20.2854 10.4689 19.8171 10.2528 19.2767 10.2528C18.7363 10.2528 18.4481 10.4689 18.4481 10.8292C18.4481 11.2975 19.1326 11.4776 19.8892 11.7658C20.8258 12.0901 21.8706 12.6305 21.8706 13.9634C21.8706 15.2964 20.8258 16.3051 18.8804 16.3051C17.9438 16.3051 16.827 15.9088 16.1064 15.2964L17.0431 13.8914ZM22.9153 13.8914C23.5638 14.3957 24.1762 14.6479 24.7887 14.6479C25.4371 14.6479 25.7253 14.3957 25.7253 14.0355C25.7253 13.5671 25.0048 13.3149 24.2483 13.0267C23.3836 12.7025 22.3389 12.0901 22.3389 10.9012C22.3389 9.56827 23.4557 8.6316 25.1129 8.6316C26.2297 8.6316 27.0583 9.09994 27.6707 9.56827L26.698 10.8652C26.1576 10.4689 25.6893 10.2528 25.1489 10.2528C24.6085 10.2528 24.3203 10.4689 24.3203 10.8292C24.3203 11.2975 25.0048 11.4776 25.7253 11.7658C26.662 12.0901 27.7067 12.6305 27.7067 13.9634C27.7067 15.2964 26.662 16.3051 24.7166 16.3051C23.7799 16.3051 22.6631 15.9088 21.9426 15.2964L22.9153 13.8914ZM28.2471 17.1337C28.8596 17.1337 29.0397 16.9175 29.0397 16.0889C29.0397 15.2964 28.9676 14.5758 28.9676 13.7112C28.9676 12.5944 29.3279 12.1621 30.0484 11.982V11.9099C29.3279 11.7298 28.9676 11.2975 28.9676 10.1807C28.9676 9.31609 29.0397 8.55955 29.0397 7.80301C29.0397 7.01044 28.8956 6.79429 28.2471 6.79429H27.9589V5.67749H28.8956C30.1925 5.67749 30.7689 6.18185 30.7689 7.76698C30.7689 8.7757 30.6248 9.35212 30.6248 10.2888C30.6248 10.7931 30.9491 11.3335 31.8857 11.3696V12.6305C30.9491 12.6665 30.6248 13.2069 30.6248 13.7112C30.6248 14.6479 30.7689 15.1883 30.7689 16.233C30.7689 17.8182 30.1925 18.3225 28.8956 18.3225H27.9589V17.1697L28.2471 17.1337Z" fill="#214674"/>
</svg>
