<svg width="89" height="88" viewBox="0 0 89 88" fill="none" xmlns="http://www.w3.org/2000/svg">
<g clip-path="url(#clip0_3019_6717)">
<path d="M50.1033 51.9844H46.6814C44.7915 51.9844 43.2595 53.5164 43.2595 55.4062V75.9375C43.2595 77.8273 44.7915 79.3594 46.6814 79.3594H50.1033C51.9931 79.3594 53.5251 77.8273 53.5251 75.9375V55.4062C53.5251 53.5164 51.9931 51.9844 50.1033 51.9844Z" fill="#BFC2C4"/>
<path d="M71.7751 51.9844H68.3533C66.4634 51.9844 64.9314 53.5164 64.9314 55.4062V75.9375C64.9314 77.8273 66.4634 79.3594 68.3533 79.3594H71.7751C73.665 79.3594 75.197 77.8273 75.197 75.9375V55.4062C75.197 53.5164 73.665 51.9844 71.7751 51.9844Z" fill="#BFC2C4"/>
<path d="M55.8064 61.1094H62.6501V70.2344H55.8064V61.1094Z" fill="#BFC2C4"/>
<path d="M37.5564 63.3906V67.9531C37.5564 69.2078 38.583 70.2344 39.8376 70.2344H40.9783V61.1094H39.8376C38.583 61.1094 37.5564 62.1359 37.5564 63.3906Z" fill="#BFC2C4"/>
<path d="M78.6189 61.1094H77.4783V70.2344H78.6189C79.8736 70.2344 80.9001 69.2078 80.9001 67.9531V63.3906C80.9001 62.1359 79.8736 61.1094 78.6189 61.1094Z" fill="#BFC2C4"/>
<path d="M73.4062 33.7344H64.9314C64.4524 33.7344 64.0303 33.4378 63.8592 32.9929L61.4639 26.5826L54.5745 43.2928C54.4035 43.7148 53.9928 44 53.5366 44H53.5251C53.0689 44 52.6583 43.7263 52.4758 43.3042L49.3505 36.0156H38.697C38.0697 36.0156 37.5564 35.5023 37.5564 34.875C37.5564 34.2477 38.0697 33.7344 38.697 33.7344H50.1033C50.5595 33.7344 50.9702 34.0081 51.1526 34.4301L53.5023 39.9165L60.4602 23.0353C60.6312 22.6019 61.0647 22.3623 61.5324 22.3281C62 22.3395 62.4106 22.6247 62.5817 23.0695L65.7184 31.4531H79.7595C80.3868 31.4531 80.9001 30.9398 80.9001 30.3125C80.9001 29.6852 80.3868 29.1719 79.7595 29.1719H73.9537C74.0221 28.2137 74.0564 27.2556 74.0564 26.2861C74.0564 16.5566 66.1405 8.64062 56.411 8.64062H55.738C49.7041 8.64062 44.2177 11.6519 40.9783 16.6136C37.7389 11.6519 32.2525 8.64062 26.2186 8.64062H25.5456C15.8161 8.64062 7.90015 16.5566 7.90015 26.2861C7.90015 43.7604 18.4053 59.1703 34.6592 65.5578L35.2751 65.7973V63.3906C35.2751 60.8698 37.3168 58.8281 39.8376 58.8281H40.9783V55.4062C40.9783 52.2581 43.5333 49.7031 46.6814 49.7031H50.1033C53.2514 49.7031 55.8064 52.2581 55.8064 55.4062V58.8281H58.7606C60.1408 57.6875 61.4411 56.4784 62.6616 55.1781C62.7528 52.6345 64.5208 50.5129 66.8932 49.897C70.1326 45.0836 72.3797 39.5972 73.4062 33.7344Z" fill="#BFC2C4"/>
</g>
<defs>
<clipPath id="clip0_3019_6717">
<rect width="73" height="73" fill="white" transform="translate(7.90015 7.5)"/>
</clipPath>
</defs>
</svg>
