<svg width="22" height="24" viewBox="0 0 22 24" fill="none" xmlns="http://www.w3.org/2000/svg">
<g clip-path="url(#clip0_214_19543)">
<path d="M1 2H21V22H1V2Z" fill="#F0DB4F"/>
<path d="M19.3633 17.2301C19.2169 16.3175 18.6219 15.5514 16.8595 14.8366C16.2473 14.5552 15.5648 14.3537 15.3614 13.8898C15.2892 13.6198 15.2796 13.4677 15.3253 13.3042C15.4565 12.7738 16.0895 12.6084 16.5914 12.7605C16.9146 12.8689 17.2207 13.1179 17.4051 13.5153C18.2682 12.9563 18.2663 12.9601 18.869 12.5761C18.6485 12.2339 18.5306 12.0761 18.3861 11.9297C17.8671 11.3499 17.1599 11.0514 16.0287 11.0742C15.8329 11.0989 15.6352 11.1255 15.4393 11.1503C14.8747 11.2928 14.3367 11.5894 14.0211 11.9868C13.0743 13.0609 13.3443 14.9411 14.4964 15.7149C15.6314 16.5666 17.2987 16.7605 17.5116 17.5571C17.7188 18.5324 16.7949 18.848 15.8766 18.7358C15.1998 18.5951 14.8234 18.251 14.4165 17.6255C13.6675 18.059 13.6675 18.059 12.8975 18.502C13.08 18.9012 13.272 19.0818 13.5781 19.4278C15.0268 20.8974 18.6523 20.8252 19.3025 18.6008C19.3291 18.5248 19.504 18.0153 19.3633 17.2301ZM11.8728 11.1921H10.0021C10.0021 12.808 9.9945 14.4126 9.9945 16.0286C9.9945 17.0571 10.0477 18.0001 9.88043 18.289C9.60666 18.8574 8.89754 18.7871 8.57435 18.6768C8.24545 18.5152 8.07815 18.2852 7.88423 17.9601C7.831 17.867 7.79108 17.7947 7.77775 17.789C7.27016 18.0989 6.76444 18.4107 6.25684 18.7206C6.50971 19.2396 6.88231 19.6902 7.3595 19.9829C8.07243 20.4107 9.0306 20.5419 10.0325 20.3118C10.6846 20.1217 11.2473 19.7282 11.542 19.1293C11.9679 18.3442 11.8766 17.3936 11.8728 16.3423C11.8823 14.6274 11.8728 12.9126 11.8728 11.1921Z" fill="#323330"/>
</g>
<defs>
<clipPath id="clip0_214_19543">
<rect width="20" height="20" fill="white" transform="translate(1 2)"/>
</clipPath>
</defs>
</svg>
