<svg width="39" height="24" viewBox="0 0 39 24" fill="none" xmlns="http://www.w3.org/2000/svg">
<g clip-path="url(#clip0_626_220662)">
<path d="M10.7368 3.5105C10.865 3.29253 11.0317 3.08311 11.2711 2.98053C11.3694 2.96344 11.4677 2.97199 11.566 2.97199H16.404C16.263 3.09165 16.1262 3.2156 16.0322 3.37801C15.7843 3.78403 15.6176 4.23706 15.4637 4.69009C15.0278 6.05774 14.7244 7.46385 14.4295 8.86996C14.297 9.50677 14.1688 10.1479 14.0491 10.7847C13.6815 12.8703 13.3012 14.9517 12.8267 17.016C12.6002 17.9691 12.3694 18.9222 12.019 19.841C11.8566 20.2214 11.6984 20.6274 11.3864 20.9095C11.3138 20.9736 11.2411 21.0548 11.1386 21.042H6.86467C6.57405 21.0335 6.28769 21.0591 5.99707 21.0292C6.1894 20.8796 6.36035 20.7001 6.47147 20.4864C6.79201 19.8752 6.99289 19.2128 7.18521 18.5546C7.48438 17.4947 7.72372 16.4219 7.95024 15.3492C8.09128 14.644 8.25796 13.9431 8.36053 13.2336C8.47593 12.4429 8.65116 11.6608 8.7922 10.8744C9.01444 9.71619 9.2495 8.55796 9.51021 7.40829C9.71963 6.51077 9.93332 5.61752 10.2197 4.74138C10.3607 4.31826 10.5146 3.89942 10.7368 3.5105Z" fill="#EB7077" stroke="#EB7077" stroke-width="0.292969"/>
<path d="M16.4047 2.97199C16.5287 2.97199 16.6526 2.96772 16.7765 2.97199C17.0501 3.1173 17.2809 3.34809 17.4091 3.63445C17.58 3.95926 17.7211 4.30117 17.8493 4.65163C18.2767 5.97226 18.5673 7.33136 18.8579 8.68619C19.1058 9.89997 19.3409 11.118 19.5631 12.3404C19.5802 12.4045 19.5589 12.4942 19.6443 12.5113C19.3366 14.1183 19.0332 15.7296 18.6485 17.3237C18.4391 18.1828 18.2168 19.0376 17.9006 19.8667C17.7296 20.2813 17.5544 20.7343 17.1911 21.0292C16.9603 21.0805 16.7936 20.9052 16.6526 20.7471C16.409 20.4351 16.2594 20.0676 16.1141 19.7C15.6311 18.3836 15.3362 17.0117 15.0371 15.6441C14.8106 14.5799 14.6097 13.5071 14.4003 12.4387C14.3062 11.8959 14.178 11.3616 14.1054 10.8189C14.0925 10.8103 14.0626 10.7932 14.0498 10.7847C14.1695 10.1479 14.2977 9.50677 14.4302 8.86996C14.7251 7.46385 15.0285 6.05774 15.4645 4.6901C15.6183 4.23706 15.785 3.78403 16.0329 3.37801C16.1269 3.2156 16.2637 3.09166 16.4047 2.97199Z" fill="#F6A2AD" stroke="#F6A2AD" stroke-width="0.292969"/>
<path d="M21.7507 3.7114C21.9045 3.4165 22.0926 3.08741 22.4259 2.97629C24.1227 2.96774 25.8194 2.97202 27.5162 2.97202C27.358 3.13015 27.1913 3.28828 27.0845 3.48916C26.7554 4.07895 26.5631 4.73286 26.3665 5.37822C25.8622 7.15616 25.5074 8.97256 25.1698 10.789C24.8578 12.5797 24.5244 14.3705 24.1441 16.1527C23.9475 17.0502 23.7423 17.9435 23.4816 18.8282C23.3149 19.3752 23.1397 19.9265 22.8662 20.4351C22.7337 20.6659 22.5798 20.9181 22.3276 21.0378C20.7078 21.0506 19.0838 21.0378 17.464 21.042C17.3742 21.042 17.2802 21.042 17.1904 21.0292C17.5537 20.7343 17.7289 20.2813 17.8999 19.8667C18.2162 19.0376 18.4384 18.1828 18.6478 17.3237C19.0325 15.7296 19.3359 14.1183 19.6436 12.5113C20.0155 10.4385 20.4044 8.36567 20.9002 6.31847C21.131 5.43378 21.3532 4.53626 21.7507 3.7114Z" fill="#EB7077" stroke="#EB7077" stroke-width="0.292969"/>
<path d="M27.5163 2.97199C27.6531 2.97199 27.7941 2.96772 27.9309 2.97199C28.1531 3.08739 28.3112 3.28399 28.4523 3.48486C28.6831 3.85241 28.8284 4.26698 28.978 4.673C29.3327 5.76284 29.5977 6.8826 29.8413 8.00236C30.1661 9.51105 30.4482 11.0283 30.726 12.5455C30.7944 12.9088 30.8627 13.2763 30.9055 13.6439C30.9226 13.661 30.9568 13.6952 30.9696 13.708C30.8157 13.9217 30.7559 14.1781 30.6704 14.4218C30.4012 15.2894 30.2259 16.1869 30.0764 17.0801C29.961 17.781 29.8028 18.4777 29.5849 19.1529C29.4224 19.653 29.2258 20.1488 28.901 20.5676C28.7472 20.7685 28.5377 20.9223 28.307 21.0249C27.9522 21.0634 27.7428 20.7215 27.5718 20.4693C27.2171 19.8496 27.0248 19.1572 26.8196 18.4819C26.1444 15.9817 25.7042 13.4217 25.2298 10.8787C25.2255 10.8402 25.2041 10.806 25.1699 10.7889C25.5076 8.97254 25.8623 7.15613 26.3666 5.37819C26.5632 4.73284 26.7555 4.07893 27.0846 3.48913C27.1915 3.28826 27.3582 3.13013 27.5163 2.97199Z" fill="#F6A2AD" stroke="#F6A2AD" stroke-width="0.292969"/>
<path d="M1.99707 12.6951C2.10819 12.6865 2.21931 12.6694 2.33471 12.6694H6.99325C7.18985 12.6951 7.395 12.678 7.58305 12.7635C7.85658 12.8746 8.10019 13.0626 8.27969 13.2977C8.30106 13.2849 8.33953 13.2507 8.3609 13.2336C8.25832 13.9431 8.09164 14.644 7.9506 15.3492C7.72409 16.4219 7.48475 17.4947 7.18558 18.5546C6.99325 19.2128 6.79238 19.8752 6.47184 20.4864C6.36071 20.7001 6.18976 20.8796 5.99743 21.0292C5.92478 21.042 5.86922 20.9907 5.80938 20.9522C5.60851 20.824 5.49311 20.6018 5.36917 20.4009C4.78365 19.0675 4.71954 17.593 4.35626 16.1997C4.17248 15.503 3.94597 14.8107 3.6126 14.1696C3.40745 13.7849 3.1553 13.4174 2.82621 13.1225C2.58259 12.9259 2.30052 12.7677 1.99707 12.6951Z" fill="#F6A2AD" stroke="#F6A2AD" stroke-width="0.292969"/>
<path d="M31.3454 13.1395C31.6146 12.8361 32.0164 12.6438 32.4224 12.6608H35.927C36.4142 12.6694 36.9057 12.6438 37.3929 12.6737C37.2476 12.772 37.0724 12.8104 36.9185 12.8916C36.3843 13.1352 35.927 13.5413 35.6364 14.0499C35.1705 14.8619 35.0081 15.7936 34.8713 16.7082C34.7346 17.6057 34.7388 18.5332 34.4482 19.405C34.2516 20.0162 33.9525 20.6317 33.4353 21.0334C31.8283 21.0505 30.2213 21.0377 28.6186 21.0419C28.5118 21.0419 28.4092 21.0462 28.3066 21.0249C28.5374 20.9223 28.7469 20.7684 28.9007 20.5675C29.2255 20.1487 29.4221 19.6529 29.5845 19.1529C29.8025 18.4776 29.9606 17.781 30.076 17.0801C30.2256 16.1868 30.4008 15.2893 30.6701 14.4217C30.7556 14.1781 30.8154 13.9216 30.9693 13.7079C31.0975 13.5199 31.183 13.3019 31.3454 13.1395Z" fill="#EB7077" stroke="#EB7077" stroke-width="0.292969"/>
</g>
<defs>
<clipPath id="clip0_626_220662">
<rect width="37" height="20" fill="white" transform="translate(1 2)"/>
</clipPath>
</defs>
</svg>
