<svg width="22" height="24" viewBox="0 0 22 24" fill="none" xmlns="http://www.w3.org/2000/svg">
<path d="M21 2H1V22H21V2Z" fill="#A213EC"/>
<path d="M18.0578 11.1299L14.9848 5.80766C14.8501 5.47116 14.491 5.26404 14.1023 5.26404H7.9569C7.56818 5.26404 7.20972 5.47116 6.95571 5.80766L3.88272 11.1299C3.748 11.4664 3.748 11.8807 3.94206 12.2172L7.01506 17.5394C7.20913 17.8759 7.56818 18.083 7.9569 18.083H14.1023C14.491 18.083 14.8495 17.8759 15.0441 17.5394L18.1171 12.2172C18.3112 11.8807 18.3112 11.4664 18.0578 11.1299ZM15.6424 14.1661H14.5795C14.5106 14.1661 14.4471 14.1293 14.4127 14.07L12.4275 10.6314L11.8364 11.6937L12.9254 13.5804C12.9996 13.7085 12.907 13.8694 12.7587 13.8694H11.6958C11.6269 13.8694 11.5634 13.8326 11.529 13.7732L11.0964 13.0231L10.6803 13.7703C10.6465 13.8314 10.5818 13.8694 10.5118 13.8694H9.45838C9.3112 13.8694 9.21862 13.7115 9.28984 13.5833L10.3349 11.7056L9.73613 10.6682L7.84414 14.067C7.81031 14.1281 7.74562 14.1661 7.67559 14.1661H6.62218C6.475 14.1661 6.38242 14.0083 6.45364 13.8801L8.9747 9.35069L9.39607 8.59282L9.53672 8.3406C9.60853 8.21122 9.7937 8.20825 9.87025 8.33466L10.5065 9.39104L11.075 10.3762L11.6661 9.31389L12.2412 8.28125C12.3142 8.15068 12.5017 8.1489 12.5765 8.27888L13.1676 9.30202L15.8091 13.8771C15.8833 14.0053 15.7907 14.1661 15.6424 14.1661Z" fill="white"/>
</svg>
