<svg width="23" height="24" viewBox="0 0 23 24" fill="none" xmlns="http://www.w3.org/2000/svg">
<g clip-path="url(#clip0_214_19547)">
<path d="M18.2268 8.01336C16.8401 8.18669 16.1734 8.96003 15.8268 10.08C15.1601 12.1734 14.3734 14.4 14.3868 14.3867C13.6534 12.1734 13.3868 8.16003 11.2401 8.16003H6.96009C5.12009 8.16003 2.57342 11.5867 1.42676 16.0267L3.56009 16C5.06676 15.8534 5.77342 15.0267 6.13342 13.8667C6.42676 12.9334 6.66676 12.1334 6.88009 11.48C7.40009 10.76 8.41342 9.62669 8.41342 9.62669C9.14676 11.8534 9.41342 15.8134 11.5468 15.8134C13.6801 15.8134 15.6668 15.8 15.7201 15.8C17.3068 15.6 18.9334 12.6934 21.5734 7.98669L18.2268 8.01336Z" fill="url(#paint0_linear_214_19547)"/>
<path d="M8.42676 9.61335C9.16009 11.84 9.42676 15.8 11.5601 15.8C11.7201 15.8 11.8934 15.7867 12.0534 15.7467C10.1201 15.2933 9.89342 11.3733 8.72009 9.34668C8.61342 9.44001 8.52009 9.53335 8.42676 9.61335Z" fill="url(#paint1_linear_214_19547)"/>
<path d="M8.70703 9.35994C9.88036 11.3866 10.107 15.3066 12.0404 15.7599C12.2004 15.7333 12.347 15.6933 12.4937 15.6399C10.7604 14.7866 10.2804 10.9866 8.94703 9.14661C8.86703 9.21327 8.78703 9.27994 8.70703 9.35994Z" fill="url(#paint2_linear_214_19547)"/>
<path d="M10.3996 8.14661C10.2396 8.14661 10.0663 8.15994 9.90628 8.18661C9.43961 8.27994 8.99961 8.46661 8.59961 8.73327C8.71961 8.85327 8.83961 8.98661 8.94628 9.13327C9.34628 8.78661 9.78628 8.51994 10.2796 8.31994C10.4396 8.26661 10.6129 8.21327 10.7729 8.18661C10.6529 8.15994 10.5329 8.14661 10.3996 8.14661Z" fill="#13569B"/>
<path d="M13.8534 14.8534C14.0268 14.7067 14.2134 14.56 14.3868 14.3867C13.6534 12.1734 13.3868 8.16003 11.2401 8.16003C11.0801 8.16003 10.9334 8.17337 10.7734 8.20003C12.7334 8.68003 12.9868 12.92 13.8534 14.8534Z" fill="url(#paint3_linear_214_19547)"/>
<path d="M13.8132 15.32C13.7332 15.24 13.6532 15.1467 13.5732 15.0667C13.2398 15.3067 12.8798 15.4933 12.4932 15.64C12.6265 15.7067 12.7598 15.7467 12.8932 15.7733C12.9998 15.8 13.1198 15.8133 13.2398 15.8133C13.5732 15.8267 13.9198 15.7733 14.2265 15.64C14.0798 15.5333 13.9332 15.44 13.8132 15.32Z" fill="#266AB4"/>
<path d="M10.2803 8.33328C12.0269 9.23995 12.1736 13.3866 13.5736 15.0666C13.6669 15 13.7603 14.9333 13.8536 14.8533C12.9869 12.92 12.7336 8.67995 10.7869 8.19995C10.6136 8.22662 10.4536 8.26662 10.2803 8.33328Z" fill="url(#paint4_linear_214_19547)"/>
<path d="M8.94629 9.14671C10.2796 10.9734 10.7596 14.7867 12.493 15.64C12.8796 15.4934 13.2396 15.3067 13.573 15.0667C12.1863 13.3734 12.0263 9.24004 10.2796 8.33337C9.79962 8.52004 9.34629 8.80004 8.94629 9.14671Z" fill="url(#paint5_linear_214_19547)"/>
<path d="M7.57355 9.55997C7.32022 10.1866 7.08022 10.8266 6.89355 11.4666C7.34689 10.8 7.86689 10.1866 8.42689 9.61331C8.36022 9.41331 8.28022 9.21331 8.20022 9.01331C7.98689 9.18664 7.77355 9.37331 7.57355 9.55997Z" fill="url(#paint6_linear_214_19547)"/>
<path d="M8.38686 8.88C8.3202 8.92 8.26686 8.97334 8.2002 9.01334C8.2802 9.21334 8.3602 9.4 8.42686 9.61334C8.5202 9.52 8.61353 9.44 8.70686 9.34667C8.61353 9.18667 8.50686 9.02667 8.38686 8.88Z" fill="#2C75B2"/>
<path d="M8.59971 8.73328C8.53305 8.77328 8.45305 8.82661 8.37305 8.87994C8.49305 9.02661 8.59971 9.18661 8.69305 9.34661C8.77305 9.27994 8.85305 9.19994 8.93305 9.13328C8.83971 8.99994 8.73305 8.86661 8.59971 8.73328Z" fill="#145B9E"/>
<path d="M20.5066 7.97335C19.52 11.7867 17.4533 14.84 15.7333 15.6133C15.7066 15.6267 15.6666 15.64 15.64 15.6534H15.6266L15.6 15.6667H15.5866L15.5466 15.68H15.5066L15.48 15.6933H15.4666C15.4533 15.6933 15.44 15.7067 15.4266 15.7067H15.3866H15.3733L15.3466 15.72H15.3066C15.3866 15.7467 15.4666 15.76 15.5466 15.76C17.1866 15.76 18.84 12.8267 21.5733 7.93335H20.4933L20.5066 7.97335Z" fill="url(#paint7_linear_214_19547)"/>
<path d="M7.57324 9.55995C7.77324 9.37328 7.98658 9.18661 8.19991 9.02661C8.15991 8.93328 8.10658 8.82661 8.05324 8.73328C7.85324 8.99995 7.69324 9.26661 7.57324 9.55995ZM7.71991 8.33328C7.85324 8.45328 7.95991 8.58661 8.05324 8.73328C8.07991 8.69328 8.11991 8.66661 8.14658 8.62661C8.01324 8.50661 7.86658 8.39995 7.70658 8.31995L7.71991 8.33328Z" fill="#1982C5"/>
<path d="M2.63965 14.1467C4.31965 10.9067 5.11965 8.85333 6.53298 8.29333C5.07965 8.86667 3.43965 11.0133 2.63965 14.1467Z" fill="url(#paint8_linear_214_19547)"/>
<path d="M8.14704 8.62671C8.10704 8.66671 8.08038 8.69338 8.05371 8.73338C8.10704 8.82671 8.16038 8.92004 8.20038 9.02671C8.26704 8.97338 8.32038 8.93338 8.38704 8.89338C8.30704 8.80004 8.22704 8.70671 8.14704 8.62671Z" fill="#277BBF"/>
<path d="M3.41361 15.9867H3.28027C4.98694 15.9333 5.76027 15.08 6.14694 13.8533C6.44027 12.92 6.68027 12.12 6.89361 11.4667C6.10694 12.6 5.38694 13.7867 4.73361 15.0133C4.48027 15.5467 3.98694 15.9067 3.41361 15.9867Z" fill="url(#paint9_linear_214_19547)"/>
<path d="M3.41309 15.9867C3.98642 15.9067 4.49309 15.5334 4.74642 15.0134C5.38642 13.7867 6.10642 12.6134 6.89309 11.4667C7.09309 10.8134 7.31975 10.1734 7.57309 9.56006C6.14642 10.9201 4.71975 13.1601 3.41309 15.9867Z" fill="url(#paint10_linear_214_19547)"/>
<path d="M2.63965 14.1466C2.33298 14.7333 2.01298 15.3466 1.63965 15.9999H2.27965C2.37298 15.3866 2.49298 14.7599 2.63965 14.1466Z" fill="#269FDA"/>
<path d="M16.6532 10.0799C16.3332 11.1199 16.0665 11.9733 15.8398 12.6799C16.7332 11.4533 17.5998 9.91994 18.4398 8.14661C17.4665 8.45327 16.9465 9.14661 16.6532 10.0799Z" fill="url(#paint11_linear_214_19547)"/>
<path d="M15.8667 15.5467C15.8267 15.5734 15.7734 15.5867 15.7334 15.6134C17.4667 14.8401 19.5201 11.7867 20.5067 7.97339H20.3067C18.0534 12.0267 17.3201 14.7467 15.8667 15.5467Z" fill="url(#paint12_linear_214_19547)"/>
<path d="M14.7471 15.2134C15.1204 14.76 15.4271 13.9734 15.8537 12.6934C15.4271 13.3067 14.9337 13.8667 14.4004 14.3867C14.4804 14.6667 14.6004 14.9467 14.7471 15.2134Z" fill="#2898D5"/>
<path d="M14.7466 15.2134C14.6266 15.36 14.4932 15.48 14.3332 15.5734C14.2932 15.5867 14.2666 15.6134 14.2266 15.6267C14.3866 15.72 14.5732 15.7734 14.7599 15.8L14.8532 15.8134H15.2266L15.3066 15.8C15.0532 15.6934 14.8532 15.4934 14.7332 15.2534L14.7466 15.2134Z" fill="#266AB4"/>
<path d="M11.5596 15.8C11.7196 15.8 11.8929 15.7867 12.0529 15.7467C12.2129 15.72 12.3596 15.68 12.5062 15.6267C12.7329 15.7334 12.9862 15.8 13.2529 15.8H11.5596ZM13.2396 15.8C13.5729 15.8134 13.9196 15.76 14.2262 15.6267C14.3862 15.72 14.5729 15.7734 14.7596 15.8L14.8529 15.8134H14.8929L13.2396 15.8Z" fill="#295EAC"/>
<path d="M14.9333 15.8H15.2133C15.2399 15.8 15.2666 15.7866 15.2933 15.7866C15.3733 15.8133 15.4533 15.8266 15.5466 15.8266H14.9199L14.9333 15.8Z" fill="#2862AE"/>
<path d="M14.3866 14.3867C14.2132 14.5601 14.0266 14.7201 13.8532 14.8534C13.7599 14.9334 13.6666 15.0001 13.5732 15.0667C13.6532 15.1601 13.7332 15.2534 13.8132 15.3334C13.9332 15.4534 14.0799 15.5601 14.2266 15.6401C14.2666 15.6267 14.2932 15.6001 14.3332 15.5867C14.4932 15.4934 14.6266 15.3734 14.7466 15.2267C14.5999 14.9467 14.4799 14.6801 14.3866 14.3867Z" fill="#1D60AB"/>
<path d="M19.6797 7.97339H18.6664C18.6131 7.97339 18.5597 7.97339 18.5064 7.98672L18.4264 8.14672C17.5864 9.92006 16.7197 11.4534 15.8264 12.6801C15.4131 13.9601 15.1064 14.7467 14.7197 15.2001C14.8397 15.4401 15.0397 15.6401 15.2931 15.7467H15.3997L15.4397 15.7334H15.4531L15.4797 15.7201H15.5197L15.5597 15.7067H15.5731L15.5997 15.6934H15.6131L15.7064 15.6534C15.7464 15.6267 15.7997 15.6134 15.8397 15.5867C17.2797 14.7867 18.0131 12.0667 20.2797 8.01339H19.6531L19.6797 7.97339Z" fill="url(#paint13_linear_214_19547)"/>
<path d="M8.14648 8.62662C8.22648 8.70662 8.30648 8.79995 8.38648 8.89329C8.45315 8.83995 8.53315 8.78662 8.61315 8.74662C8.51982 8.65329 8.41315 8.55995 8.30648 8.49329C8.25315 8.53329 8.19982 8.57329 8.14648 8.62662Z" fill="#61C5EC"/>
<path d="M7.13367 8.16002H7.267C7.64034 8.16002 8.00034 8.28002 8.29367 8.49336C8.61367 8.24002 8.987 8.16002 9.52034 8.16002C9.53367 8.14669 7.08034 8.14669 7.13367 8.16002Z" fill="url(#paint14_linear_214_19547)"/>
<path d="M9.53331 8.14663C8.99997 8.14663 8.62664 8.23997 8.30664 8.47997C8.41331 8.55997 8.51997 8.63997 8.61331 8.7333C9.01331 8.46663 9.45331 8.27997 9.91997 8.18663C10.08 8.15997 10.24 8.14663 10.4133 8.1333H9.53331V8.14663Z" fill="url(#paint15_linear_214_19547)"/>
<path d="M15.8404 12.68C16.0671 11.9734 16.3337 11.12 16.6537 10.08C16.9471 9.14669 17.4671 8.44003 18.4404 8.14669L18.5204 7.98669C16.9337 8.08003 16.2004 8.89336 15.8271 10.08C15.1737 12.16 14.7871 13.52 14.4004 14.3734C14.9204 13.8534 15.4137 13.2934 15.8404 12.68Z" fill="url(#paint16_linear_214_19547)"/>
<path d="M2.29297 16.0134L3.41297 16C3.99964 14.72 4.67964 13.4667 5.43964 12.2667C6.05297 11.28 6.75964 10.3734 7.5863 9.56004C7.7063 9.26671 7.8663 8.98671 8.0663 8.73337C7.97297 8.53337 7.79963 8.36004 7.59964 8.26671C7.27963 8.12004 6.9063 8.13337 6.5863 8.29337C6.09297 8.46671 5.6263 8.86671 5.1863 9.49337C4.41297 10.6667 3.55964 12.2534 2.65297 14.16C2.49297 14.76 2.37297 15.3867 2.29297 16.0134Z" fill="url(#paint17_linear_214_19547)"/>
<path d="M1.42676 16H1.65342C2.01342 15.36 2.34676 14.7334 2.65342 14.1467C2.97342 12.8267 3.52009 11.56 4.25342 10.4134C5.09342 9.12002 6.05342 8.33336 7.14676 8.14669C6.53342 8.06669 5.77342 8.33336 4.61342 9.56003C3.88009 10.36 3.21342 11.4667 2.58676 12.7734C2.09342 13.8134 1.70676 14.8934 1.42676 16Z" fill="url(#paint18_linear_214_19547)"/>
<path d="M8.14712 8.62666C7.86712 8.35999 7.52046 8.19999 7.13379 8.14666C7.40046 8.11999 7.65379 8.15999 7.89379 8.25333C8.04046 8.30666 8.17379 8.37333 8.29379 8.47999L8.14712 8.62666Z" fill="#7ECBEB"/>
</g>
<defs>
<linearGradient id="paint0_linear_214_19547" x1="2.70942" y1="11.9987" x2="27.2214" y2="11.9987" gradientUnits="userSpaceOnUse">
<stop stop-color="#206BB5"/>
<stop offset="0.4" stop-color="#3DADE2"/>
<stop offset="0.85" stop-color="#2397D4"/>
<stop offset="1" stop-color="#2397D4"/>
</linearGradient>
<linearGradient id="paint1_linear_214_19547" x1="10.2416" y1="8.02982" x2="10.2416" y2="17.6125" gradientUnits="userSpaceOnUse">
<stop stop-color="#2693D1"/>
<stop offset="0.35" stop-color="#67CEF4"/>
<stop offset="0.85" stop-color="#277BBF"/>
<stop offset="1" stop-color="#277BBF"/>
</linearGradient>
<linearGradient id="paint2_linear_214_19547" x1="10.5898" y1="7.89377" x2="10.5898" y2="17.721" gradientUnits="userSpaceOnUse">
<stop stop-color="#1377BC"/>
<stop offset="0.36" stop-color="#3DADE2"/>
<stop offset="0.85" stop-color="#2DABE2"/>
<stop offset="1" stop-color="#2DABE2"/>
</linearGradient>
<linearGradient id="paint3_linear_214_19547" x1="12.5764" y1="15.5891" x2="12.5764" y2="7.76962" gradientUnits="userSpaceOnUse">
<stop stop-color="#2865B0"/>
<stop offset="0.5" stop-color="#3FBCED"/>
<stop offset="1" stop-color="#3FBCED" stop-opacity="0.42"/>
</linearGradient>
<linearGradient id="paint4_linear_214_19547" x1="12.0748" y1="6.92249" x2="12.0748" y2="17.126" gradientUnits="userSpaceOnUse">
<stop stop-color="#206BB5"/>
<stop offset="0.4" stop-color="#3DADE2"/>
<stop offset="0.85" stop-color="#2397D4"/>
<stop offset="1" stop-color="#2397D4"/>
</linearGradient>
<linearGradient id="paint5_linear_214_19547" x1="11.27" y1="6.8302" x2="11.27" y2="17.6801" gradientUnits="userSpaceOnUse">
<stop stop-color="#174479"/>
<stop offset="0.39" stop-color="#1D87C9"/>
<stop offset="0.78" stop-color="#165297"/>
<stop offset="1" stop-color="#165297"/>
</linearGradient>
<linearGradient id="paint6_linear_214_19547" x1="7.07608" y1="10.2478" x2="8.61666" y2="10.2478" gradientUnits="userSpaceOnUse">
<stop stop-color="#3FBCED" stop-opacity="0.7"/>
<stop offset="1" stop-color="#20ACD8"/>
</linearGradient>
<linearGradient id="paint7_linear_214_19547" x1="18.4443" y1="15.3842" x2="18.4443" y2="7.76691" gradientUnits="userSpaceOnUse">
<stop stop-color="#166BB5"/>
<stop offset="0.6" stop-color="#5EC9F4" stop-opacity="0.55"/>
<stop offset="1" stop-color="#5EC9F4" stop-opacity="0.24"/>
</linearGradient>
<linearGradient id="paint8_linear_214_19547" x1="4.59313" y1="15.587" x2="4.59313" y2="7.78733" gradientUnits="userSpaceOnUse">
<stop stop-color="#388DCC"/>
<stop offset="1" stop-color="#40A6DE"/>
</linearGradient>
<linearGradient id="paint9_linear_214_19547" x1="5.08105" y1="15.5356" x2="5.08105" y2="7.95419" gradientUnits="userSpaceOnUse">
<stop stop-color="#269FDA"/>
<stop offset="1" stop-color="#269FDA" stop-opacity="0.55"/>
</linearGradient>
<linearGradient id="paint10_linear_214_19547" x1="5.49638" y1="15.9706" x2="5.49638" y2="9.56419" gradientUnits="userSpaceOnUse">
<stop stop-color="#1E5BA6"/>
<stop offset="0.5" stop-color="#269FDA"/>
<stop offset="0.92" stop-color="#7FC5E9"/>
<stop offset="1" stop-color="#7FC5E9"/>
</linearGradient>
<linearGradient id="paint11_linear_214_19547" x1="17.1383" y1="11.6279" x2="17.1383" y2="7.9903" gradientUnits="userSpaceOnUse">
<stop stop-color="#269FDA"/>
<stop offset="0.87" stop-color="#1795D3"/>
<stop offset="1" stop-color="#1795D3"/>
</linearGradient>
<linearGradient id="paint12_linear_214_19547" x1="18.8649" y1="7.63303" x2="17.3892" y2="16.0031" gradientUnits="userSpaceOnUse">
<stop stop-color="#40A6DE" stop-opacity="0.33"/>
<stop offset="0.96" stop-color="#2687C8"/>
<stop offset="1" stop-color="#2687C8"/>
</linearGradient>
<linearGradient id="paint13_linear_214_19547" x1="17.5232" y1="7.99324" x2="17.5232" y2="15.9126" gradientUnits="userSpaceOnUse">
<stop stop-color="#258BCC"/>
<stop offset="0.5" stop-color="#2287C9"/>
<stop offset="1" stop-color="#164C8D"/>
</linearGradient>
<linearGradient id="paint14_linear_214_19547" x1="7.51356" y1="7.81904" x2="9.22356" y2="8.52824" gradientUnits="userSpaceOnUse">
<stop stop-color="#98D5ED"/>
<stop offset="0.7" stop-color="#57C1EA"/>
<stop offset="1" stop-color="#57C1EA"/>
</linearGradient>
<linearGradient id="paint15_linear_214_19547" x1="8.33931" y1="8.75134" x2="9.8101" y2="8.08416" gradientUnits="userSpaceOnUse">
<stop stop-color="#7BCCEB"/>
<stop offset="1" stop-color="#45B7E9"/>
</linearGradient>
<linearGradient id="paint16_linear_214_19547" x1="16.4496" y1="8.43831" x2="16.4496" y2="16.1842" gradientUnits="userSpaceOnUse">
<stop stop-color="#2DA6DE"/>
<stop offset="1" stop-color="#3EAAE0" stop-opacity="0"/>
</linearGradient>
<linearGradient id="paint17_linear_214_19547" x1="2.29164" y1="12.0858" x2="8.05164" y2="12.0858" gradientUnits="userSpaceOnUse">
<stop stop-color="#165196"/>
<stop offset="1" stop-color="#1982C5"/>
</linearGradient>
<linearGradient id="paint18_linear_214_19547" x1="1.42676" y1="12.0707" x2="7.13876" y2="12.0707" gradientUnits="userSpaceOnUse">
<stop stop-color="#269FDA" stop-opacity="0.25"/>
<stop offset="1" stop-color="#269FDA"/>
</linearGradient>
<clipPath id="clip0_214_19547">
<rect width="21" height="20" fill="white" transform="translate(1 2)"/>
</clipPath>
</defs>
</svg>
