<svg width="22" height="24" viewBox="0 0 22 24" fill="none" xmlns="http://www.w3.org/2000/svg">
<path d="M20.9997 20.4683V3.53181C20.9997 2.83703 20.537 2.25065 19.903 2.06311L19.1831 2.49388L11.1937 11.0124L10.9432 11.7953L10.7969 12.5468L13.2883 21.8577L13.6737 22H19.468C20.3139 22 20.9997 21.3143 20.9997 20.4683Z" fill="#EA6618"/>
<path d="M1 3.53175V20.4682C1 20.992 1.26302 21.4541 1.66399 21.7303L2.15526 21.4951L10.612 12.4409L10.9435 11.7952L10.9559 11.1711L8.65431 2.41444L8.30579 2H2.53175C1.68579 2 1 2.68579 1 3.53175Z" fill="#D65813"/>
<path d="M10.9434 11.7952L19.9032 2.06307C19.7652 2.02225 19.6193 2 19.4681 2H8.30566L10.9434 11.7952Z" fill="#E05E11"/>
<path d="M2.53181 22H13.6741L10.9436 11.7953L1.66406 21.7304C1.91076 21.9003 2.20959 22 2.53181 22Z" fill="#DE5C16"/>
<path d="M8.41577 9.58045H9.52712C9.9699 11.2513 10.4739 12.7174 11.0361 14.0403C11.673 12.5519 12.1398 11.0848 12.535 9.58045H13.5851C13.1148 11.4497 12.3455 13.3336 11.4655 15.2781H10.5366C9.69128 13.4354 8.97165 11.5408 8.41577 9.58045ZM4.75016 6.68555H7.22129V17.2822H4.73926V16.4654H6.26042V7.48063H4.75016V6.68555ZM17.2633 7.48063H15.753V16.4654H17.2742V17.2822H14.7922V6.68555H17.2633V7.48063Z" fill="white"/>
</svg>
