<svg width="22" height="24" viewBox="0 0 22 24" fill="none" xmlns="http://www.w3.org/2000/svg">
<g opacity="0.8">
<mask id="mask0_127_5150" style="mask-type:luminance" maskUnits="userSpaceOnUse" x="1" y="2" width="9" height="9">
<g style="mix-blend-mode:luminosity" opacity="0.8">
<path d="M8.94656 2H1.62501C1.27983 2 1 2.27983 1 2.62501V9.94656C1 10.2917 1.27983 10.5716 1.62501 10.5716H8.94656C9.29175 10.5716 9.57157 10.2917 9.57157 9.94656V2.62501C9.57157 2.27983 9.29175 2 8.94656 2Z" fill="white"/>
</g>
</mask>
<g mask="url(#mask0_127_5150)">
<path d="M8.94656 2H1.62501C1.27983 2 1 2.27983 1 2.62501V9.94656C1 10.2917 1.27983 10.5716 1.62501 10.5716H8.94656C9.29175 10.5716 9.57157 10.2917 9.57157 9.94656V2.62501C9.57157 2.27983 9.29175 2 8.94656 2Z" fill="#B2A0ED" stroke="#522DBA" stroke-width="4"/>
</g>
<mask id="mask1_127_5150" style="mask-type:luminance" maskUnits="userSpaceOnUse" x="12" y="2" width="9" height="9">
<g style="mix-blend-mode:luminosity" opacity="0.8">
<path d="M20.3753 2H13.0537C12.7085 2 12.4287 2.27983 12.4287 2.62501V9.94656C12.4287 10.2917 12.7085 10.5716 13.0537 10.5716H20.3753C20.7205 10.5716 21.0003 10.2917 21.0003 9.94656V2.62501C21.0003 2.27983 20.7205 2 20.3753 2Z" fill="white"/>
</g>
</mask>
<g mask="url(#mask1_127_5150)">
<path d="M20.3753 2H13.0537C12.7085 2 12.4287 2.27983 12.4287 2.62501V9.94656C12.4287 10.2917 12.7085 10.5716 13.0537 10.5716H20.3753C20.7205 10.5716 21.0003 10.2917 21.0003 9.94656V2.62501C21.0003 2.27983 20.7205 2 20.3753 2Z" fill="#B2A0ED" stroke="#522DBA" stroke-width="4"/>
</g>
<mask id="mask2_127_5150" style="mask-type:luminance" maskUnits="userSpaceOnUse" x="12" y="13" width="9" height="9">
<g style="mix-blend-mode:luminosity" opacity="0.8">
<path d="M20.3753 13.4285H13.0537C12.7085 13.4285 12.4287 13.7083 12.4287 14.0535V21.375C12.4287 21.7202 12.7085 22 13.0537 22H20.3753C20.7205 22 21.0003 21.7202 21.0003 21.375V14.0535C21.0003 13.7083 20.7205 13.4285 20.3753 13.4285Z" fill="white"/>
</g>
</mask>
<g mask="url(#mask2_127_5150)">
<path d="M20.3753 13.4285H13.0537C12.7085 13.4285 12.4287 13.7083 12.4287 14.0535V21.375C12.4287 21.7202 12.7085 22 13.0537 22H20.3753C20.7205 22 21.0003 21.7202 21.0003 21.375V14.0535C21.0003 13.7083 20.7205 13.4285 20.3753 13.4285Z" fill="#B2A0ED" stroke="#522DBA" stroke-width="4"/>
</g>
<mask id="mask3_127_5150" style="mask-type:luminance" maskUnits="userSpaceOnUse" x="1" y="13" width="9" height="9">
<g style="mix-blend-mode:luminosity" opacity="0.8">
<path d="M8.94656 13.4285H1.62501C1.27983 13.4285 1 13.7083 1 14.0535V21.375C1 21.7202 1.27983 22 1.62501 22H8.94656C9.29175 22 9.57157 21.7202 9.57157 21.375V14.0535C9.57157 13.7083 9.29175 13.4285 8.94656 13.4285Z" fill="white"/>
</g>
</mask>
<g mask="url(#mask3_127_5150)">
<path d="M8.94656 13.4285H1.62501C1.27983 13.4285 1 13.7083 1 14.0535V21.375C1 21.7202 1.27983 22 1.62501 22H8.94656C9.29175 22 9.57157 21.7202 9.57157 21.375V14.0535C9.57157 13.7083 9.29175 13.4285 8.94656 13.4285Z" fill="#B2A0ED" stroke="#522DBA" stroke-width="4"/>
</g>
<mask id="mask4_127_5150" style="mask-type:luminance" maskUnits="userSpaceOnUse" x="5" y="6" width="12" height="12">
<g style="mix-blend-mode:luminosity" opacity="0.8">
<path d="M16.0899 6.28601H5.91114C5.56596 6.28601 5.28613 6.56584 5.28613 6.91102V17.0897C5.28613 17.4349 5.56596 17.7148 5.91114 17.7148H16.0899C16.435 17.7148 16.7149 17.4349 16.7149 17.0897V6.91102C16.7149 6.56584 16.435 6.28601 16.0899 6.28601Z" fill="white"/>
</g>
</mask>
<g mask="url(#mask4_127_5150)">
<path d="M16.0899 6.28601H5.91114C5.56596 6.28601 5.28613 6.56584 5.28613 6.91102V17.0897C5.28613 17.4349 5.56596 17.7148 5.91114 17.7148H16.0899C16.435 17.7148 16.7149 17.4349 16.7149 17.0897V6.91102C16.7149 6.56584 16.435 6.28601 16.0899 6.28601Z" fill="#B2A0ED" stroke="#522DBA" stroke-width="4"/>
</g>
<path d="M9.25941 6.28601H5.59864C5.42605 6.28601 5.28613 6.42592 5.28613 6.59852V10.2593C5.28613 10.4319 5.42605 10.5718 5.59864 10.5718H9.25941C9.432 10.5718 9.57191 10.4319 9.57191 10.2593V6.59852C9.57191 6.42592 9.432 6.28601 9.25941 6.28601Z" fill="#522DBA"/>
<path d="M16.402 6.28601H12.7412C12.5686 6.28601 12.4287 6.42592 12.4287 6.59852V10.2593C12.4287 10.4319 12.5686 10.5718 12.7412 10.5718H16.402C16.5746 10.5718 16.7145 10.4319 16.7145 10.2593V6.59852C16.7145 6.42592 16.5746 6.28601 16.402 6.28601Z" fill="#522DBA"/>
<path d="M16.402 13.4285H12.7412C12.5686 13.4285 12.4287 13.5684 12.4287 13.741V17.4017C12.4287 17.5743 12.5686 17.7142 12.7412 17.7142H16.402C16.5746 17.7142 16.7145 17.5743 16.7145 17.4017V13.741C16.7145 13.5684 16.5746 13.4285 16.402 13.4285Z" fill="#522DBA"/>
<path d="M9.25941 13.4285H5.59864C5.42605 13.4285 5.28613 13.5684 5.28613 13.741V17.4017C5.28613 17.5743 5.42605 17.7142 5.59864 17.7142H9.25941C9.432 17.7142 9.57191 17.5743 9.57191 17.4017V13.741C9.57191 13.5684 9.432 13.4285 9.25941 13.4285Z" fill="#522DBA"/>
</g>
</svg>
