<svg width="37" height="24" viewBox="0 0 37 24" fill="none" xmlns="http://www.w3.org/2000/svg">
<g clip-path="url(#clip0_626_220668)">
<path d="M17.9098 22C17.8021 22 17.695 21.9718 17.6005 21.9173L16.616 21.3345C16.4689 21.2522 16.5407 21.2231 16.5892 21.2064C16.7853 21.1377 16.8251 21.1222 17.0343 21.0034C17.0563 20.9908 17.0851 20.9953 17.1076 21.0085L17.864 21.4574C17.8913 21.4721 17.9301 21.4721 17.9554 21.4574L20.9045 19.7551C20.9318 19.7396 20.9495 19.7078 20.9495 19.6754V16.2723C20.9495 16.2383 20.9318 16.208 20.9039 16.1911L17.956 14.4902C17.9287 14.474 17.8925 14.474 17.8652 14.4902L14.9178 16.1911C14.8893 16.2073 14.8711 16.239 14.8711 16.2715V19.6746C14.8711 19.7071 14.8888 19.7381 14.9169 19.7536L15.7245 20.2202C16.163 20.4394 16.4309 20.181 16.4309 19.9212V16.5624C16.4309 16.5144 16.4686 16.4775 16.5166 16.4775H16.8901C16.9366 16.4775 16.975 16.5144 16.975 16.5624V19.9227C16.975 20.5073 16.6561 20.8432 16.1017 20.8432C15.9312 20.8432 15.7968 20.8432 15.4218 20.6586L14.6482 20.2128C14.457 20.102 14.3389 19.8953 14.3389 19.6746V16.2715C14.3389 16.0501 14.457 15.8434 14.6482 15.7341L17.6002 14.0311C17.787 13.9255 18.035 13.9255 18.2203 14.0311L21.1687 15.7348C21.3592 15.8448 21.478 16.0508 21.478 16.2723V19.6754C21.478 19.8961 21.3592 20.102 21.1687 20.2128L18.2203 21.9158C18.1258 21.9704 18.0188 21.9985 17.9095 21.9985" fill="#689F63"/>
<path d="M18.8217 19.6551C17.5313 19.6551 17.2607 19.0628 17.2607 18.566C17.2607 18.5188 17.2988 18.4811 17.3462 18.4811H17.7271C17.7691 18.4811 17.8046 18.5117 17.8112 18.5533C17.8688 18.9415 18.0401 19.1372 18.8203 19.1372C19.4419 19.1372 19.7062 18.9968 19.7062 18.6672C19.7062 18.4775 19.6309 18.3365 18.6653 18.242C17.8577 18.1623 17.3587 17.9844 17.3587 17.3384C17.3587 16.7435 17.8607 16.3891 18.7015 16.3891C19.6456 16.3891 20.1137 16.7169 20.1727 17.4211C20.1749 17.4455 20.1661 17.4691 20.1498 17.4868C20.1336 17.5038 20.1107 17.5141 20.0871 17.5141H19.704C19.6641 17.5141 19.6294 17.4861 19.6213 17.4477C19.529 17.0395 19.3061 16.9088 18.7 16.9088C18.0216 16.9088 17.9426 17.145 17.9426 17.3222C17.9426 17.537 18.0356 17.5998 18.951 17.7208C19.8575 17.8412 20.2879 18.0109 20.2879 18.648C20.2879 19.2902 19.7519 19.6586 18.8174 19.6586M22.4095 16.0495H22.5084C22.5896 16.0495 22.6051 15.9927 22.6051 15.9595C22.6051 15.8724 22.5453 15.8724 22.5121 15.8724H22.4102L22.4095 16.0495ZM22.2891 15.7705H22.5084C22.5837 15.7705 22.7313 15.7705 22.7313 15.9388C22.7313 16.0562 22.656 16.0806 22.611 16.0953C22.6988 16.1012 22.7048 16.1588 22.7166 16.24C22.7225 16.2909 22.7321 16.3788 22.7498 16.4083H22.6147C22.611 16.3788 22.5903 16.2164 22.5903 16.2075C22.5815 16.1714 22.5689 16.1536 22.5239 16.1536H22.4124V16.4091H22.2891V15.7705ZM22.0256 16.0879C22.0256 16.3522 22.2389 16.5663 22.501 16.5663C22.7653 16.5663 22.9786 16.3478 22.9786 16.0879C22.9786 15.8229 22.7623 15.6125 22.5003 15.6125C22.2419 15.6125 22.0249 15.82 22.0249 16.0872M23.0702 16.0894C23.0702 16.4024 22.814 16.6578 22.5017 16.6578C22.1917 16.6578 21.9333 16.4054 21.9333 16.0894C21.9333 15.7676 22.1976 15.521 22.5017 15.521C22.8081 15.521 23.0694 15.7683 23.0694 16.0894" fill="#689F63"/>
<path fill-rule="evenodd" clip-rule="evenodd" d="M8.77771 8.68439C8.77771 8.54856 8.70611 8.42381 8.58888 8.35626L5.46216 6.55727C5.40938 6.52626 5.35025 6.51002 5.29031 6.50781H5.25797C5.19803 6.51002 5.1389 6.52626 5.08523 6.55727L1.95866 8.35626C1.84217 8.42418 1.76953 8.54893 1.76953 8.68476L1.7764 13.5303C1.7764 13.5975 1.81109 13.6602 1.87015 13.6935C1.92773 13.7289 2.00007 13.7289 2.05765 13.6935L3.91644 12.629C4.03381 12.5591 4.10542 12.4357 4.10542 12.3012V10.0375C4.10542 9.90242 4.17703 9.77767 4.29403 9.71049L5.08538 9.25473C5.14414 9.22077 5.20866 9.20394 5.27436 9.20394C5.33903 9.20394 5.40502 9.22062 5.46216 9.25465L6.25314 9.71027C6.37022 9.77745 6.44212 9.9022 6.44212 10.0373V12.3008C6.44212 12.4352 6.51469 12.5592 6.63147 12.6286L8.48908 13.6923C8.5474 13.727 8.61996 13.727 8.67806 13.6923C8.73534 13.6591 8.77166 13.5964 8.77166 13.5292L8.77771 8.68439ZM23.532 11.2073C23.532 11.241 23.514 11.2722 23.4847 11.2889L22.4108 11.908C22.3816 11.9247 22.3456 11.9247 22.3165 11.908L21.2425 11.2889C21.2129 11.2722 21.1952 11.2409 21.1952 11.2073V9.96739C21.1952 9.93358 21.2129 9.90242 21.2417 9.88544L22.3151 9.26536C22.3446 9.24838 22.3808 9.24838 22.4103 9.26536L23.4844 9.88544C23.5139 9.90242 23.5316 9.93358 23.5316 9.96739L23.532 11.2073ZM23.8221 2.0239C23.7635 1.99127 23.6922 1.99216 23.6343 2.02589C23.5767 2.05985 23.5411 2.12186 23.5411 2.18904V6.98734C23.5411 7.03459 23.516 7.07814 23.4751 7.10176C23.4345 7.12539 23.384 7.12539 23.343 7.10176L22.5598 6.65065C22.4431 6.58318 22.2995 6.58318 22.1824 6.65065L19.0546 8.45577C18.9378 8.52295 18.8657 8.6477 18.8657 8.78206V12.3933C18.8657 12.5284 18.9378 12.6524 19.0546 12.7204L22.1824 14.5267C22.2992 14.5939 22.443 14.5939 22.5601 14.5267L25.6879 12.7196C25.8045 12.6517 25.8769 12.5277 25.8769 12.3926V3.39245C25.8769 3.25544 25.8023 3.12943 25.6827 3.06248L23.8221 2.0239ZM34.2376 9.93476C34.3538 9.86729 34.4253 9.74268 34.4253 9.60832V8.73311C34.4253 8.59847 34.3537 8.47423 34.2373 8.40646L31.1295 6.6023C31.0121 6.53438 30.8681 6.53438 30.7508 6.6023L27.6238 8.4072C27.5064 8.47511 27.4348 8.59913 27.4348 8.73422V12.344C27.4348 12.4799 27.5079 12.6053 27.6252 12.6725L30.7323 14.4435C30.8467 14.5092 30.987 14.5099 31.1029 14.4457L32.9824 13.4011C33.0414 13.3679 33.0791 13.3052 33.0791 13.2372C33.0791 13.1693 33.0429 13.1058 32.9838 13.0726L29.8376 11.267C29.7786 11.2338 29.7424 11.171 29.7424 11.1038V9.97145C29.7424 9.90383 29.7778 9.84152 29.8369 9.80786L30.8157 9.24314C30.8741 9.20918 30.9457 9.20918 31.004 9.24314L31.9836 9.80786C32.0419 9.84108 32.0781 9.90383 32.0781 9.971V10.8613C32.0781 10.9284 32.1142 10.9912 32.1726 11.0252C32.2309 11.0584 32.3032 11.0584 32.3615 11.0244L34.2376 9.93476Z" fill="#333333"/>
<path fill-rule="evenodd" clip-rule="evenodd" d="M30.8945 9.7659C30.9167 9.75284 30.9444 9.75284 30.9669 9.7659L31.567 10.1121C31.5895 10.1251 31.6032 10.149 31.6032 10.1749V10.868C31.6032 10.8939 31.5895 10.9178 31.567 10.9308L30.9669 11.277C30.9444 11.2901 30.9167 11.2901 30.8945 11.277L30.2947 10.9308C30.2718 10.9178 30.2578 10.8939 30.2578 10.868V10.1749C30.2578 10.149 30.2711 10.1251 30.294 10.1121L30.8945 9.7659Z" fill="#689F63"/>
<mask id="mask0_626_220668" style="mask-type:luminance" maskUnits="userSpaceOnUse" x="10" y="6" width="8" height="9">
<path d="M13.6339 6.62027L10.5239 8.41535C10.4074 8.48252 10.3359 8.60654 10.3359 8.7406V12.3333C10.3359 12.4674 10.4074 12.5914 10.5239 12.6585L13.6341 14.455C13.7504 14.522 13.8938 14.522 14.0099 14.455L17.1196 12.6585C17.2355 12.5914 17.3071 12.4673 17.3071 12.3333V8.7406C17.3071 8.60654 17.2355 8.48252 17.1189 8.41535L14.0096 6.62027C13.9513 6.58682 13.8863 6.57007 13.8214 6.57007C13.7564 6.57007 13.6914 6.58682 13.6331 6.62027" fill="white"/>
</mask>
<g mask="url(#mask0_626_220668)">
<path d="M20.4503 8.11053L11.6868 3.81494L7.19336 12.9815L15.9567 17.2773L20.4503 8.11053Z" fill="url(#paint0_linear_626_220668)"/>
</g>
<mask id="mask1_626_220668" style="mask-type:luminance" maskUnits="userSpaceOnUse" x="10" y="6" width="8" height="9">
<path d="M10.4131 12.5615C10.4428 12.6001 10.48 12.6335 10.5238 12.6586L13.1917 14.1996L13.6361 14.4551C13.7025 14.4934 13.7782 14.5097 13.8527 14.5041C13.8775 14.5021 13.9023 14.4975 13.9265 14.4906L17.2066 8.48463C17.1815 8.45732 17.1521 8.43443 17.1192 8.41524L15.0828 7.23929L14.0064 6.61994C13.9758 6.60222 13.9426 6.58967 13.9089 6.58081L10.4131 12.5615Z" fill="white"/>
</mask>
<g mask="url(#mask1_626_220668)">
<path d="M6.62402 9.38117L12.812 17.7563L20.9957 11.71L14.8073 3.33508L6.62402 9.38117Z" fill="url(#paint1_linear_626_220668)"/>
</g>
<mask id="mask2_626_220668" style="mask-type:luminance" maskUnits="userSpaceOnUse" x="10" y="6" width="8" height="9">
<path d="M13.7846 6.5722C13.7324 6.57737 13.6814 6.59361 13.6344 6.62033L10.5332 8.41025L13.8773 14.5011C13.9238 14.4945 13.9695 14.479 14.0109 14.4551L17.1209 12.6586C17.2169 12.6029 17.2826 12.5087 17.3025 12.402L13.8935 6.57833C13.8684 6.57338 13.8433 6.5708 13.8175 6.5708C13.8071 6.5708 13.7968 6.57132 13.7865 6.57228" fill="white"/>
</mask>
<g mask="url(#mask2_626_220668)">
<path d="M10.5332 6.5708V14.5013H17.3012V6.5708H10.5332Z" fill="url(#paint2_linear_626_220668)"/>
</g>
</g>
<defs>
<linearGradient id="paint0_linear_626_220668" x1="16.0659" y1="5.95598" x2="11.5728" y2="15.1219" gradientUnits="userSpaceOnUse">
<stop offset="0.3" stop-color="#3E863D"/>
<stop offset="0.5" stop-color="#55934F"/>
<stop offset="0.8" stop-color="#5AAD45"/>
</linearGradient>
<linearGradient id="paint1_linear_626_220668" x1="9.75509" y1="13.6167" x2="17.9391" y2="7.56972" gradientUnits="userSpaceOnUse">
<stop offset="0.57" stop-color="#3E863D"/>
<stop offset="0.72" stop-color="#619857"/>
<stop offset="1" stop-color="#76AC64"/>
</linearGradient>
<linearGradient id="paint2_linear_626_220668" x1="10.5355" y1="10.5363" x2="17.3025" y2="10.5363" gradientUnits="userSpaceOnUse">
<stop offset="0.16" stop-color="#6BBF47"/>
<stop offset="0.38" stop-color="#79B461"/>
<stop offset="0.47" stop-color="#75AC64"/>
<stop offset="0.7" stop-color="#659E5A"/>
<stop offset="0.9" stop-color="#3E863D"/>
</linearGradient>
<clipPath id="clip0_626_220668">
<rect width="34" height="20" fill="white" transform="translate(1.09766 2)"/>
</clipPath>
</defs>
</svg>
