<svg width="66" height="24" viewBox="0 0 66 24" fill="none" xmlns="http://www.w3.org/2000/svg">
<g clip-path="url(#clip0_127_5158)">
<path fill-rule="evenodd" clip-rule="evenodd" d="M64.4084 14.4084C64.4084 18.5954 61.0142 21.9896 56.8272 21.9896C52.6403 21.9896 49.2461 18.5954 49.2461 14.4084C49.2461 10.2215 52.6403 6.82727 56.8272 6.82727C61.0142 6.82727 64.4084 10.2215 64.4084 14.4084ZM61.2984 14.4084C61.2984 16.8796 59.2984 18.8796 56.8272 18.8796C54.356 18.8796 52.356 16.8796 52.356 14.4084C52.356 11.9372 54.356 9.93719 56.8272 9.93719C59.2984 9.93719 61.2984 11.9372 61.2984 14.4084Z" fill="#888888"/>
<path fill-rule="evenodd" clip-rule="evenodd" d="M48.3352 14.4084C48.3352 18.5954 44.941 21.9896 40.754 21.9896C36.567 21.9896 33.1729 18.5954 33.1729 14.4084C33.1729 10.2215 36.567 6.82727 40.754 6.82727C44.941 6.82727 48.3352 10.2215 48.3352 14.4084ZM45.2252 14.4084C45.2252 16.8796 43.2252 18.8796 40.754 18.8796C38.2828 18.8796 36.2828 16.8796 36.2828 14.4084C36.2828 11.9372 38.2828 9.93719 40.754 9.93719C43.2252 9.93719 45.2252 11.9372 45.2252 14.4084Z" fill="#888888"/>
<path fill-rule="evenodd" clip-rule="evenodd" d="M32.4709 14.4084V14.3456C32.4814 14.3246 32.4814 14.2932 32.4814 14.2723V3.51836C32.4814 2.69114 31.8007 2.01051 30.9735 2.01051C30.7753 2.00968 30.5788 2.04811 30.3955 2.1236C30.2122 2.19908 30.0456 2.31011 29.9054 2.4503C29.7653 2.59048 29.6542 2.75704 29.5787 2.94035C29.5033 3.12367 29.4648 3.32012 29.4657 3.51836V8.35606C28.1882 7.40318 26.607 6.82727 24.8897 6.82727C20.7013 6.82727 17.3086 10.2199 17.3086 14.4084C17.3086 18.5969 20.7013 21.9896 24.8897 21.9896C29.0782 21.9896 32.4709 18.5969 32.4709 14.4084ZM29.3609 14.4084C29.3609 16.8778 27.3591 18.8796 24.8897 18.8796C22.4203 18.8796 20.4185 16.8778 20.4185 14.4084C20.4185 11.939 22.4203 9.93719 24.8897 9.93719C27.3591 9.93719 29.3609 11.939 29.3609 14.4084Z" fill="#888888"/>
<path fill-rule="evenodd" clip-rule="evenodd" d="M16.7541 14.3874C16.7541 18.5744 13.3599 21.9686 9.17295 21.9686C4.98599 21.9686 1.5918 18.5744 1.5918 14.3874C1.5918 10.2005 4.98599 6.80627 9.17295 6.80627C13.3599 6.80627 16.7541 10.2005 16.7541 14.3874ZM13.5708 14.4188C13.5708 16.8882 11.569 18.89 9.09962 18.89C6.63024 18.89 4.62842 16.8882 4.62842 14.4188C4.62842 11.9495 6.63024 9.94763 9.09962 9.94763C11.569 9.94763 13.5708 11.9495 13.5708 14.4188Z" fill="#9C5789"/>
</g>
<defs>
<clipPath id="clip0_127_5158">
<rect width="64" height="20" fill="white" transform="translate(1 2)"/>
</clipPath>
</defs>
</svg>
