<svg width="20" height="24" viewBox="0 0 20 24" fill="none" xmlns="http://www.w3.org/2000/svg">
<path d="M15.2137 11.5918L13.9964 9.13964L14.3845 10.7803L15.2137 11.5918Z" fill="#73B08F"/>
<path d="M13.7852 8.28029L14.7248 12.2495L11.7032 9.05652L7.29982 4.94606L6.17595 2L13.7852 8.28029Z" fill="#C5E4D3"/>
<path d="M11.9452 9.15486L7.98839 7.25785L5.8283 4.93728L5.54574 3.40856L11.9452 9.15486Z" fill="#76C39B"/>
<path d="M14.972 12.4236L11.2368 11.4713L4.05344 7.33919L1.25195 3.49443L12.0269 9.20767L14.9721 12.4235L14.972 12.4236Z" fill="black"/>
<path d="M11.0655 11.3617V11.472L10.5831 12.3731L8.06363 11.5455L3.38194 8.03332L1.55934 5.42209L3.64996 6.67257L3.97162 7.16904L11.0656 11.3617H11.0655Z" fill="#73B08F"/>
<path d="M4.27791 8.72183L3.92944 8.6813L2.70962 8.23578L5.20728 10.5241L5.86561 11.0304L8.47945 11.9012L4.27784 8.72176L4.27791 8.72183Z" fill="black"/>
<path d="M14.5182 12.253L14.4652 14.281L14.2712 13.9495L13.1421 13.8715L10.5312 12.37L11.1311 11.3169L14.5182 12.253Z" fill="#76C39B"/>
<path d="M3.89227 10.019L7.14221 12.5026L10.5178 13.6262L13.1214 13.8627L10.5358 12.3647L3.89227 10.019Z" fill="#C5E4D3"/>
<path d="M5.46824 11.9975L7.7262 13.25L10.3548 13.5146L7.17939 12.5268L6.66776 12.2092L5.46824 11.9975Z" fill="#76C39B"/>
<path d="M10.4861 13.4638L6.79127 13.1415L8.69466 13.872L9.94493 14.0439L10.4861 13.4638Z" fill="#73B08F"/>
<path d="M9.6492 14.0334L9.33166 14.0802L7.84979 14.2908L8.57306 13.7993L9.6492 14.0334ZM12.0158 14.3535L11.9434 14.4818L6.53539 17.6154L5.46824 19.0265L5.84805 17.5055L7.0237 15.8929L10.388 13.6205L12.0158 14.3535Z" fill="#76C39B"/>
<path d="M6.10332 15.8962L5.1507 17.1488V16.6019L6.10332 15.8962V15.8962Z" fill="black"/>
<path d="M13.9537 14.5731L10.3372 17.0252L10.0372 16.5136L8.78471 19.1598L9.06693 19.5479L9.27865 22L7.76152 19.1951L8.99643 16.1608L12.0131 14.2908L13.9536 14.5731L13.9537 14.5731Z" fill="#C5E4D3"/>
<path d="M8.99649 16.1079L6.57963 17.4134L6.50899 19.2128L7.24996 21.6297V20.3947L8.99649 16.1078V16.1079Z" fill="black"/>
<path d="M5.99742 19.5656L6.03274 19.6891L6.35028 21.0298L5.92685 20.7652L5.99742 19.5656ZM10.3998 16.853L10.0757 16.453L8.72168 19.0173L10.8766 21.8362L10.3426 20.5814L10.3998 16.853Z" fill="#73B08F"/>
<path d="M10.6547 16.7L10.3725 16.848L10.3549 19.9196L10.8841 21.0298L11.872 20.6597L11.8367 19.9196L10.7606 18.8649L10.6547 16.7Z" fill="#76C39B"/>
<path d="M15.5262 14.5355L13.8854 14.9942L12.1037 16.5113L11.1334 16.476L13.9384 14.5884L15.5261 14.5355H15.5262Z" fill="black"/>
<path d="M14.8518 14.7381L14.3376 13.7922L9.71038 13.4299L11.7853 14.2953L14.8518 14.7381V14.7381ZM12.1543 16.4525L12.3836 16.9934L12.8775 17.3478H12.9657L12.9305 17.926L11.4133 18.5601L10.9017 17.3851L10.7606 16.695L11.2193 16.322L12.1543 16.4526V16.4525Z" fill="#73B08F"/>
<path d="M12.9657 19.495L12.0484 19.0893L11.6956 19.8126L11.819 19.989L11.8014 20.7652L12.4718 21.5238L12.3659 20.0948L12.5247 20.0243L13.0539 20.5359L12.807 19.9537L12.2425 19.6538L12.3659 19.4421L12.9657 19.7067V19.495ZM13.195 16.4784L12.8422 17.3252L12.9129 18.0484L13.6361 18.9482L13.5479 17.5016L13.6538 17.431L14.2182 17.925L13.9889 17.3781L13.3539 17.0429L13.4597 16.8665L14.1125 17.1488L14.0948 16.9018L13.1951 16.4784H13.195Z" fill="black"/>
<path d="M16.4587 12.7385L14.5006 12.2798V14.1145L14.7298 14.5202L16.4587 14.5378L18.0993 15.1024L18.0464 14.873L17.0409 14.2908L15.0298 13.497L16.1765 13.4794L15.0651 12.9677L16.4587 12.7385Z" fill="#C5E4D3"/>
<path d="M18.7427 14.4156L18.0018 13.2159L16.3082 12.7043L14.9675 12.9513L16.026 13.4805L15.038 13.5159L16.8904 14.3097L17.9489 14.8213L18.7427 14.4156Z" fill="#73B08F"/>
<path d="M17.7772 15.8433L18.0595 15.4199L17.8478 14.873L18.7298 14.379L18.7474 15.3846L18.2182 15.8609L17.7772 15.8433Z" fill="black"/>
<path d="M18.4845 14.2651L17.879 13.9826L17.5561 14.2651" fill="black"/>
</svg>
