<svg width="38" height="24" viewBox="0 0 38 24" fill="none" xmlns="http://www.w3.org/2000/svg">
<mask id="mask0_81_1500" style="mask-type:luminance" maskUnits="userSpaceOnUse" x="1" y="2" width="36" height="19">
<path d="M1.72266 11.8296C1.72266 16.8721 9.49373 20.96 19.0795 20.96C28.6652 20.96 36.4363 16.8721 36.4363 11.8296C36.4363 6.78719 28.6652 2.69929 19.0795 2.69929C9.49373 2.69929 1.72266 6.78719 1.72266 11.8296Z" fill="white"/>
</mask>
<g mask="url(#mask0_81_1500)">
<path d="M1.72266 11.8296C1.72266 16.8721 9.49373 20.96 19.0795 20.96C28.6652 20.96 36.4363 16.8721 36.4363 11.8296C36.4363 6.78719 28.6652 2.69929 19.0795 2.69929C9.49373 2.69929 1.72266 6.78719 1.72266 11.8296Z" fill="url(#paint0_radial_81_1500)"/>
</g>
<mask id="mask1_81_1500" style="mask-type:luminance" maskUnits="userSpaceOnUse" x="1" y="1" width="37" height="21">
<path d="M1 1.66H37.16V22H1V1.66Z" fill="white"/>
</mask>
<g mask="url(#mask1_81_1500)">
<path d="M19.0802 20.2827C28.2915 20.2827 35.759 16.4984 35.759 11.8303C35.759 7.16216 28.2915 3.37779 19.0802 3.37779C9.86885 3.37779 2.40137 7.16216 2.40137 11.8303C2.40137 16.4984 9.86885 20.2827 19.0802 20.2827Z" fill="#777BB3"/>
</g>
<mask id="mask2_81_1500" style="mask-type:luminance" maskUnits="userSpaceOnUse" x="1" y="1" width="37" height="21">
<path d="M1 1.66H37.16V22H1V1.66Z" fill="white"/>
</mask>
<g mask="url(#mask2_81_1500)">
<path d="M11.1531 12.8777C11.9105 12.8777 12.4759 12.738 12.8337 12.4626C13.1877 12.1901 13.4321 11.718 13.5602 11.0594C13.6797 10.4438 13.6342 10.0139 13.425 9.78197C13.2111 9.54504 12.7487 9.42489 12.0506 9.42489H10.8402L10.1692 12.8777H11.1531ZM7.19414 17.1309C7.13796 17.1309 7.08459 17.1057 7.04887 17.0623C7.01309 17.0189 6.99859 16.9618 7.00932 16.9066L8.78769 7.75669C8.80489 7.66824 8.88242 7.60433 8.97257 7.60433H12.8054C14.01 7.60433 14.9066 7.9314 15.4701 8.57657C16.0367 9.22513 16.2117 10.1317 15.9901 11.2711C15.9 11.7352 15.7449 12.1663 15.5293 12.5523C15.3134 12.9387 15.0281 13.2962 14.6811 13.6151C14.2657 14.0038 13.7957 14.2857 13.2852 14.4516C12.7827 14.6152 12.1375 14.6982 11.3674 14.6982H9.81543L9.37222 16.9784C9.35501 17.067 9.27755 17.1309 9.1874 17.1309H7.19414Z" fill="black"/>
<path d="M10.9953 9.61373H12.0505C12.893 9.61373 13.1857 9.79861 13.2851 9.90879C13.4501 10.0917 13.4813 10.4774 13.3752 11.0242C13.2561 11.6362 13.0352 12.0702 12.7187 12.3139C12.3946 12.5634 11.8678 12.6898 11.153 12.6898H10.3975L10.9953 9.61373ZM12.8053 7.41651H8.97238C8.79208 7.41651 8.63708 7.54432 8.60268 7.72129L6.82431 16.8712C6.80284 16.9816 6.83184 17.0958 6.90335 17.1827C6.97492 17.2695 7.08151 17.3197 7.19401 17.3197H9.1872C9.36756 17.3197 9.52256 17.1919 9.55696 17.0149L9.97054 14.8871H11.3673C12.1572 14.8871 12.8221 14.8009 13.3435 14.6311C13.8797 14.4569 14.373 14.1615 14.8096 13.7532C15.1707 13.421 15.4681 13.0481 15.6935 12.6448C15.9189 12.2413 16.0809 11.7914 16.1749 11.3075C16.4081 10.1082 16.2186 9.14779 15.6118 8.45322C15.0109 7.7653 14.0666 7.41651 12.8053 7.41651ZM9.94054 13.0665H11.153C11.9566 13.0665 12.5552 12.9152 12.9485 12.6124C13.3418 12.3095 13.6071 11.8041 13.745 11.0959C13.8769 10.4158 13.8168 9.93597 13.5648 9.65642C13.3124 9.37687 12.8077 9.23706 12.0505 9.23706H10.6848L9.94054 13.0665ZM12.8053 7.79317C13.9583 7.79317 14.7995 8.09576 15.3282 8.701C15.8568 9.30624 16.016 10.151 15.8051 11.2357C15.7183 11.6824 15.5715 12.0909 15.3647 12.461C15.1577 12.8313 14.8875 13.17 14.5535 13.477C14.1555 13.8495 13.7134 14.1149 13.2268 14.273C12.7403 14.4315 12.1206 14.5104 11.3673 14.5104H9.65998L9.1872 16.943H7.19401L8.97238 7.79317H12.8053Z" fill="white"/>
<path d="M20.5605 14.6982C20.5043 14.6982 20.451 14.6731 20.4153 14.6297C20.3794 14.5863 20.3649 14.5292 20.3756 14.474L21.1623 10.4255C21.2371 10.0405 21.2187 9.76416 21.1104 9.64739C21.0441 9.57601 20.845 9.4563 20.2562 9.4563H18.831L17.8419 14.5458C17.8247 14.6343 17.7472 14.6982 17.6571 14.6982H15.6796C15.6233 14.6982 15.57 14.6731 15.5342 14.6297C15.4984 14.5863 15.4839 14.5292 15.4947 14.474L17.273 5.32408C17.2902 5.23562 17.3678 5.17171 17.4579 5.17171H19.4354C19.4917 5.17171 19.545 5.19683 19.5808 5.2402C19.6165 5.28365 19.631 5.34071 19.6203 5.39596L19.1912 7.60435H20.7243C21.8923 7.60435 22.6843 7.81026 23.1456 8.23389C23.6158 8.66605 23.7625 9.35705 23.5817 10.2879L22.7543 14.5458C22.7371 14.6343 22.6596 14.6982 22.5694 14.6982H20.5605Z" fill="black"/>
<path d="M19.4353 4.98328H17.4578C17.2774 4.98328 17.1224 5.1111 17.088 5.28807L15.3097 14.438C15.2882 14.5484 15.3172 14.6626 15.3888 14.7494C15.4603 14.8363 15.5669 14.8865 15.6794 14.8865H17.6569C17.8372 14.8865 17.9923 14.7587 18.0267 14.5817L18.9861 9.64453H20.256C20.8438 9.64453 20.9672 9.77009 20.9722 9.77549C21.0078 9.81384 21.0547 9.9915 20.9773 10.3895L20.1906 14.438C20.1692 14.5484 20.1982 14.6626 20.2697 14.7494C20.3413 14.8363 20.4479 14.8865 20.5604 14.8865H22.5693C22.7496 14.8865 22.9046 14.7587 22.939 14.5817L23.7664 10.3238C23.9606 9.3243 23.7945 8.57455 23.2729 8.09518C22.7752 7.63809 21.9415 7.41592 20.7242 7.41592H19.4194L19.8051 5.43183C19.8265 5.3214 19.7975 5.20715 19.726 5.12039C19.6544 5.03357 19.5478 4.98328 19.4353 4.98328ZM19.4353 5.35995L18.9625 7.79259H20.7242C21.8326 7.79259 22.5972 7.98607 23.018 8.37253C23.4388 8.75924 23.5649 9.38582 23.3967 10.252L22.5693 14.5098H20.5604L21.3471 10.4614C21.4366 10.0009 21.4037 9.68672 21.2483 9.51923C21.0928 9.35174 20.762 9.26786 20.256 9.26786H18.6756L17.6569 14.5098H15.6794L17.4578 5.35995H19.4353Z" fill="white"/>
<path d="M26.7107 12.8777C27.4681 12.8777 28.0336 12.738 28.3913 12.4626C28.7453 12.1902 28.9897 11.718 29.1179 11.0594C29.2374 10.4438 29.1919 10.0139 28.9826 9.78197C28.7687 9.54504 28.3063 9.42489 27.6082 9.42489H26.3978L25.7268 12.8777H26.7107ZM22.7518 17.1309C22.6956 17.1309 22.6423 17.1057 22.6065 17.0623C22.5708 17.0189 22.5562 16.9618 22.5669 16.9066L24.3453 7.75669C24.3626 7.66824 24.44 7.60433 24.5302 7.60433H28.363C29.5677 7.60433 30.4642 7.9314 31.0278 8.57657C31.5944 9.22507 31.7693 10.1316 31.5478 11.2711C31.4575 11.7352 31.3025 12.1663 31.0869 12.5523C30.871 12.9387 30.5857 13.2962 30.2387 13.6151C29.8234 14.0038 29.3533 14.2857 28.8428 14.4516C28.3404 14.6152 27.6951 14.6982 26.925 14.6982H25.373L24.93 16.9784C24.9127 17.067 24.8352 17.1309 24.745 17.1309H22.7518Z" fill="black"/>
<path d="M26.5529 9.61361H27.6081C28.4506 9.61361 28.7433 9.79849 28.8427 9.90866C29.0077 10.0916 29.0389 10.4773 28.9328 11.024C28.8136 11.6361 28.5927 12.0701 28.2763 12.3138C27.9522 12.5633 27.4254 12.6897 26.7105 12.6897H25.9551L26.5529 9.61361ZM28.3628 7.41639H24.53C24.3497 7.41639 24.1947 7.5442 24.1603 7.72117L22.3819 16.8711C22.3605 16.9815 22.3895 17.0957 22.461 17.1825C22.5325 17.2694 22.6391 17.3196 22.7516 17.3196H24.7448C24.9251 17.3196 25.0802 17.1918 25.1146 17.0148L25.5281 14.8869H26.9248C27.7147 14.8869 28.3797 14.8008 28.901 14.631C29.4372 14.4568 29.9306 14.1614 30.3673 13.753C30.7284 13.4208 31.0257 13.048 31.251 12.6446C31.4765 12.2412 31.6384 11.7912 31.7324 11.3074C31.9656 10.108 31.7762 9.14761 31.1694 8.45304C30.5685 7.76518 29.6242 7.41639 28.3628 7.41639ZM25.4982 13.0664H26.7105C27.5141 13.0664 28.1127 12.915 28.506 12.6123C28.8995 12.3094 29.1647 11.804 29.3026 11.0957C29.4345 10.4157 29.3744 9.93585 29.1223 9.6563C28.8699 9.37675 28.3653 9.23694 27.6081 9.23694H26.2424L25.4982 13.0664ZM28.3628 7.79305C29.5159 7.79305 30.357 8.09564 30.8857 8.70088C31.4145 9.30612 31.5736 10.1509 31.3627 11.2355C31.2758 11.6823 31.129 12.0908 30.9223 12.4609C30.7153 12.8312 30.445 13.1698 30.1111 13.4769C29.7131 13.8494 29.2709 14.1148 28.7844 14.2728C28.2979 14.4314 27.6782 14.5103 26.9248 14.5103H25.2175L24.7448 16.9429H22.7516L24.53 7.79305H28.3628Z" fill="white"/>
</g>
<defs>
<radialGradient id="paint0_radial_81_1500" cx="0" cy="0" r="1" gradientUnits="userSpaceOnUse" gradientTransform="translate(12.1438 5.90923) scale(22.792 22.792)">
<stop stop-color="#AEB2D5"/>
<stop offset="0.3" stop-color="#AEB2D5"/>
<stop offset="0.75" stop-color="#484C89"/>
<stop offset="1" stop-color="#484C89"/>
</radialGradient>
</defs>
</svg>
