<svg width="24" height="24" viewBox="0 0 24 24" fill="none" xmlns="http://www.w3.org/2000/svg">
<path d="M11.9275 2C6.82334 2 7.14188 4.21343 7.14188 4.21343L7.14816 6.50665H12.0186V7.19462H5.21243C5.21243 7.19462 1.94727 6.82393 1.94727 11.9746C1.94727 17.1239 4.79777 16.9417 4.79777 16.9417H6.49915V14.5518C6.49915 14.5518 6.40742 11.7013 9.30442 11.7013H14.1346C14.1346 11.7013 16.8488 11.7452 16.8488 9.0782V4.6683C16.8488 4.6683 17.261 2 11.9275 2ZM9.24159 3.5418C9.72599 3.5418 10.118 3.93385 10.118 4.41825C10.118 4.90265 9.72599 5.2947 9.24159 5.2947C9.12645 5.29486 9.0124 5.27231 8.90599 5.22832C8.79958 5.18433 8.7029 5.11978 8.62148 5.03836C8.54006 4.95694 8.47551 4.86026 8.43152 4.75385C8.38753 4.64744 8.36498 4.53339 8.36514 4.41825C8.36514 3.93385 8.75719 3.5418 9.24159 3.5418Z" fill="url(#paint0_linear_214_19548)"/>
<path d="M12.0723 22C17.1764 22 16.8579 19.7866 16.8579 19.7866L16.8516 17.4934H11.9812V16.8054H18.7867C18.7867 16.8054 22.0525 17.1761 22.0525 12.0261C22.0525 6.87608 19.202 7.05891 19.202 7.05891H17.5006V9.44826C17.5006 9.44826 17.5923 12.2988 14.6953 12.2988H9.86511C9.86511 12.2988 7.15094 12.2548 7.15094 14.9218V19.3317C7.15094 19.3317 6.73879 22 12.0723 22ZM14.7581 20.4582C14.643 20.4584 14.529 20.4358 14.4226 20.3918C14.3161 20.3479 14.2195 20.2833 14.138 20.2019C14.0566 20.1205 13.9921 20.0238 13.9481 19.9174C13.9041 19.811 13.8815 19.6969 13.8817 19.5818C13.8817 19.098 14.2737 18.706 14.7581 18.706C15.2426 18.706 15.6346 19.0974 15.6346 19.5818C15.6346 20.0668 15.2426 20.4582 14.7581 20.4582Z" fill="url(#paint1_linear_214_19548)"/>
<defs>
<linearGradient id="paint0_linear_214_19548" x1="3.87923" y1="3.74787" x2="13.8205" y2="13.7224" gradientUnits="userSpaceOnUse">
<stop stop-color="#387EB8"/>
<stop offset="1" stop-color="#366994"/>
</linearGradient>
<linearGradient id="paint1_linear_214_19548" x1="9.99516" y1="10.0935" x2="20.6721" y2="20.3225" gradientUnits="userSpaceOnUse">
<stop stop-color="#FFE052"/>
<stop offset="1" stop-color="#FFC331"/>
</linearGradient>
</defs>
</svg>
