<svg width="26" height="24" viewBox="0 0 26 24" fill="none" xmlns="http://www.w3.org/2000/svg">
<path d="M13 13.8555C14.0355 13.8555 14.875 13.016 14.875 11.9805C14.875 10.9449 14.0355 10.1055 13 10.1055C11.9645 10.1055 11.125 10.9449 11.125 11.9805C11.125 13.016 11.9645 13.8555 13 13.8555Z" fill="#00D8FF"/>
<path d="M13 16.2795C10.7464 16.334 8.49835 16.0302 6.34 15.3795C5.34297 15.0634 4.41305 14.5655 3.59725 13.911C3.28595 13.6873 3.0267 13.399 2.83731 13.0658C2.64791 12.7326 2.53284 12.3623 2.5 11.9805C2.5 10.7407 3.862 9.52571 6.1435 8.73071C8.35955 8.02627 10.6749 7.68486 13 7.71971C15.294 7.68766 17.5784 8.02289 19.7665 8.71271C20.7267 9.01882 21.6251 9.49265 22.42 10.1122C22.726 10.3254 22.9813 10.6032 23.168 10.9261C23.3546 11.249 23.468 11.6089 23.5 11.9805C23.5 13.269 21.9775 14.5747 19.525 15.3862C17.4084 16.0157 15.2079 16.317 13 16.2795ZM13 8.61671C10.7756 8.58697 8.56062 8.91153 6.43825 9.57821C4.33825 10.311 3.397 11.313 3.397 11.9782C3.397 12.6742 4.40875 13.7685 6.63025 14.5282C8.69505 15.1476 10.845 15.4359 13 15.3825C15.1123 15.4202 17.2179 15.1344 19.2438 14.535C21.55 13.7707 22.6 12.675 22.6 11.9805C22.5622 11.7421 22.4753 11.5142 22.3449 11.3112C22.2145 11.1081 22.0435 10.9343 21.8425 10.8007C21.1313 10.2511 20.3288 9.83114 19.4718 9.56021C17.3785 8.90302 15.1937 8.58451 13 8.61671Z" fill="#00D8FF"/>
<path d="M8.73971 21.3322C8.38983 21.3403 8.04409 21.2554 7.73771 21.0862C6.66371 20.4667 6.29171 18.6802 6.74246 16.3065C7.23944 14.0348 8.10056 11.8585 9.29246 9.86173C10.4105 7.85856 11.8418 6.04717 13.5322 4.49623C14.2771 3.81726 15.1364 3.27564 16.0702 2.89648C16.408 2.73818 16.7764 2.65613 17.1495 2.65613C17.5225 2.65613 17.8909 2.73818 18.2287 2.89648C19.3455 3.53998 19.7152 5.51098 19.194 8.04073C18.6816 10.1892 17.8429 12.2463 16.707 14.1405C15.6283 16.12 14.242 17.9156 12.6 19.4602C11.828 20.1658 10.9322 20.7224 9.95771 21.102C9.56757 21.2468 9.15578 21.3246 8.73971 21.3322ZM10.0695 10.3072C8.93253 12.2192 8.1072 14.3 7.62446 16.4715C7.20971 18.6577 7.60796 19.9725 8.18696 20.307C8.78696 20.6542 10.2435 20.325 12.012 18.78C13.5795 17.3002 14.9026 15.5814 15.9322 13.6875C17.0204 11.8766 17.825 9.90984 18.318 7.85548C18.8085 5.47423 18.3847 4.01623 17.7832 3.66973C17.5578 3.58335 17.3169 3.54468 17.0757 3.55617C16.8346 3.56766 16.5984 3.62906 16.3822 3.73648C15.551 4.07949 14.7868 4.56645 14.1247 5.17498C12.5097 6.66057 11.1425 8.39468 10.0747 10.3117L10.0695 10.3072Z" fill="#00D8FF"/>
<path d="M17.258 21.342C16.2418 21.342 14.951 20.727 13.607 19.5712C11.8871 18.0062 10.4315 16.1733 9.29678 14.1435C8.11983 12.1743 7.26553 10.0294 6.76628 7.79023C6.54976 6.8051 6.50964 5.78938 6.64778 4.79023C6.67971 4.41959 6.79258 4.06046 6.9784 3.73818C7.16423 3.4159 7.4185 3.13831 7.72328 2.92498C8.83853 2.27923 10.7308 2.94298 12.662 4.65748C14.2675 6.17412 15.6308 7.92801 16.7045 9.85798C17.8808 11.7812 18.744 13.8791 19.262 16.0732C19.4879 17.0945 19.5227 18.1488 19.3648 19.1827C19.3272 19.564 19.2076 19.9327 19.0142 20.2635C18.8208 20.5942 18.5582 20.8792 18.2443 21.099C17.9429 21.266 17.6025 21.3499 17.258 21.342ZM10.073 13.692C11.1616 15.6318 12.552 17.386 14.192 18.8887C15.8788 20.34 17.2168 20.652 17.792 20.3137C18.392 19.965 18.8345 18.5415 18.3785 16.2382C17.8789 14.1434 17.0509 12.1409 15.9253 10.305C14.9007 8.45783 13.5993 6.77838 12.0665 5.32498C10.2485 3.71098 8.77403 3.35023 8.17328 3.69823C7.98604 3.8504 7.83238 4.03973 7.72201 4.25427C7.61163 4.46882 7.54695 4.70392 7.53203 4.94473C7.41278 5.8358 7.45163 6.74091 7.64678 7.61848C8.127 9.75984 8.94633 11.8107 10.0738 13.6935L10.073 13.692Z" fill="#00D8FF"/>
</svg>
