<svg width="22" height="24" viewBox="0 0 22 24" fill="none" xmlns="http://www.w3.org/2000/svg">
<path d="M20.2164 16.6049C19.1491 17.1613 13.62 19.4346 12.4429 20.0483C11.2658 20.662 10.6119 20.6561 9.68195 20.2116C8.75211 19.767 2.8682 17.3903 1.80828 16.8837C1.27859 16.6305 1 16.4168 1 16.2149V14.1934C1 14.1934 8.66016 12.5258 9.8968 12.0821C11.1334 11.6384 11.5624 11.6224 12.6148 12.0079C13.6673 12.3935 19.9599 13.5288 21 13.9098L20.9995 15.9027C20.9997 16.1026 20.7597 16.3218 20.2164 16.6049Z" fill="#912626"/>
<path d="M20.216 14.5953C19.1487 15.1514 13.6198 17.4248 12.4427 18.0384C11.2657 18.6522 10.6118 18.6462 9.68194 18.2017C8.75201 17.7575 2.86834 15.3804 1.8085 14.874C0.748654 14.3674 0.726467 14.0187 1.76756 13.6111C2.80865 13.2032 8.66006 10.9075 9.89686 10.4639C11.1334 10.0204 11.5624 10.0042 12.6147 10.3898C13.6672 10.7753 19.1631 12.9629 20.203 13.3437C21.2433 13.725 21.2833 14.039 20.216 14.5953Z" fill="#C6302B"/>
<path d="M20.2164 13.3339C19.1491 13.8903 13.62 16.1636 12.4429 16.7775C11.2658 17.391 10.6119 17.3851 9.68195 16.9405C8.75203 16.4962 2.8682 14.1193 1.80828 13.6126C1.27859 13.3595 1 13.1461 1 12.9441V10.9223C1 10.9223 8.66016 9.25482 9.8968 8.81115C11.1334 8.36748 11.5624 8.35138 12.6148 8.73693C13.6673 9.12248 19.96 10.2576 21 10.6386L20.9995 12.6318C20.9997 12.8315 20.7597 13.0508 20.2164 13.3339Z" fill="#912626"/>
<path d="M20.216 11.3242C19.1487 11.8805 13.6198 14.1538 12.4427 14.7676C11.2657 15.3812 10.6118 15.3752 9.68194 14.9306C8.75201 14.4864 2.86834 12.1094 1.8085 11.603C0.748654 11.0965 0.726467 10.7478 1.76756 10.3399C2.80865 9.93237 8.66014 7.63651 9.89686 7.19291C11.1334 6.74932 11.5624 6.73323 12.6147 7.11877C13.6672 7.50424 19.1631 9.69166 20.203 10.0727C21.2433 10.4539 21.2833 10.768 20.216 11.3242Z" fill="#C6302B"/>
<path d="M20.2164 9.94163C19.1491 10.4979 13.62 12.7713 12.4429 13.3852C11.2658 13.9988 10.6119 13.9928 9.68195 13.5483C8.75203 13.104 2.8682 10.7269 1.80828 10.2205C1.27859 9.96718 1 9.75366 1 9.55194V7.53007C1 7.53007 8.66016 5.86265 9.8968 5.41905C11.1334 4.9753 11.5624 4.95937 12.6148 5.34484C13.6673 5.73038 19.96 6.86546 21 7.24648L20.9995 9.2396C20.9997 9.43921 20.7597 9.65843 20.2164 9.94163Z" fill="#912626"/>
<path d="M20.216 7.93206C19.1487 8.48831 13.6198 10.7617 12.4427 11.3753C11.2656 11.9889 10.6117 11.9829 9.6819 11.5386C8.75205 11.0941 2.8683 8.71721 1.80854 8.21073C0.748615 7.70432 0.726506 7.3555 1.76752 6.94776C2.80862 6.54011 8.6601 4.24456 9.89682 3.80081C11.1334 3.35714 11.5624 3.3412 12.6147 3.72675C13.6671 4.11229 19.1631 6.29971 20.203 6.68073C21.2433 7.06167 21.2832 7.37581 20.216 7.93206Z" fill="#C6302B"/>
<path d="M13.4442 5.96538L11.7247 6.1439L11.3398 7.07015L10.718 6.03655L8.7325 5.85812L10.2141 5.32382L9.76953 4.50366L11.1566 5.04616L12.4643 4.61804L12.1109 5.46608L13.4442 5.96538ZM11.2371 10.459L8.02797 9.12796L12.6264 8.4221L11.2371 10.459ZM6.78789 6.48022C8.14531 6.48022 9.2457 6.90679 9.2457 7.43288C9.2457 7.95913 8.14531 8.38562 6.78789 8.38562C5.43047 8.38562 4.33008 7.95905 4.33008 7.43288C4.33008 6.90679 5.43047 6.48022 6.78789 6.48022Z" fill="white"/>
<path d="M15.4766 6.21858L18.1981 7.29405L15.4789 8.36851L15.4766 6.21858Z" fill="#621B1C"/>
<path d="M12.4648 7.40964L15.4758 6.21863L15.4781 8.36855L15.1829 8.48402L12.4648 7.40964Z" fill="#9A2928"/>
</svg>
