<svg width="23" height="24" viewBox="0 0 23 24" fill="none" xmlns="http://www.w3.org/2000/svg">
<g clip-path="url(#clip0_626_220666)">
<path d="M14.7144 15.4725C15.4063 15.4021 15.9313 14.8156 15.9074 14.1118C15.8836 13.4081 15.287 12.8451 14.5712 12.8451H14.5235C13.7838 12.8686 13.2112 13.4785 13.2351 14.2057C13.259 14.5576 13.4021 14.8625 13.6168 15.0736C12.8056 16.6454 11.5648 17.7948 9.70378 18.7566C8.43916 19.4134 7.12691 19.6481 5.81462 19.4839C4.74089 19.3431 3.90579 18.874 3.38079 18.0997C2.61731 16.9503 2.54575 15.707 3.18999 14.4637C3.64336 13.5723 4.35908 12.9154 4.81245 12.587C4.71702 12.2821 4.57382 11.766 4.50227 11.3907C1.04253 13.8538 1.40046 17.1849 2.45032 18.7566C3.23767 19.9296 4.83632 20.6568 6.60197 20.6568C7.07915 20.6568 7.55634 20.6098 8.03359 20.4926C11.0877 19.9061 13.4022 18.1232 14.7144 15.4725ZM18.9138 12.5636C17.1005 10.4758 14.4281 9.32637 11.374 9.32637H10.9923C10.7775 8.90412 10.3242 8.62256 9.82309 8.62256H9.77534C9.03572 8.64606 8.46316 9.25594 8.48697 9.98318C8.51084 10.6869 9.10728 11.2499 9.82309 11.2499H9.87078C10.3957 11.2265 10.8491 10.8981 11.04 10.4523H11.4694C13.2828 10.4523 15.0007 10.9684 16.5517 11.9771C17.7447 12.7512 18.6037 13.76 19.0808 14.9798C19.4865 15.9651 19.4626 16.9269 19.0331 17.7479C18.365 18.9912 17.2437 19.6715 15.7643 19.6715C14.8098 19.6715 13.9032 19.39 13.426 19.1789C13.1635 19.4134 12.6863 19.7887 12.3522 20.0234C13.3783 20.4926 14.4281 20.7506 15.4302 20.7506C17.7208 20.7506 19.4149 19.5072 20.0592 18.264C20.751 16.9034 20.7033 14.5576 18.9138 12.5636ZM6.79284 15.8712C6.81672 16.5749 7.41322 17.1379 8.12903 17.1379H8.17678C8.91641 17.1145 9.48903 16.5046 9.46516 15.7774C9.44134 15.0736 8.84478 14.5106 8.12903 14.5106H8.08134C8.03359 14.5106 7.96197 14.5106 7.91434 14.534C6.93603 12.9389 6.53042 11.203 6.67361 9.32631C6.76897 7.91879 7.24621 6.69892 8.08134 5.69019C8.77322 4.82222 10.1094 4.39997 11.0162 4.37657C13.5453 4.32962 14.6189 7.42612 14.6905 8.66944C15.0007 8.73981 15.5257 8.90406 15.8836 9.02137C15.5972 5.22113 13.2112 3.25061 10.9207 3.25061C8.77322 3.25061 6.79284 4.77542 6.00542 7.02742C4.90789 10.0301 5.62368 12.9154 6.95984 15.1909C6.8406 15.3551 6.76897 15.6131 6.79284 15.8712Z" fill="#764ABC"/>
</g>
<defs>
<clipPath id="clip0_626_220666">
<rect width="20" height="20" fill="white" transform="translate(1.09766 2)"/>
</clipPath>
</defs>
</svg>
