<svg width="24" height="24" viewBox="0 0 24 24" fill="none" xmlns="http://www.w3.org/2000/svg">
<path d="M20.8137 20.9799L22.0161 6.12683L17.374 15.1989L6.07715 22C10.7377 21.6729 15.9446 21.3159 20.8149 20.9822L20.8137 20.9799Z" fill="#A00403"/>
<path d="M21.7187 8.39637L15.7596 3.72911L14.2034 9.08934C20.5318 9.62634 19.4923 8.53337 21.7187 8.39637ZM8.38207 14.3343L16.2207 16.8127L14.2034 9.08934L8.38207 14.3343ZM3.25239 15.4294C5.78841 23.4409 6.42241 25.17 8.38207 14.3343L3.19475 15.5447L3.25239 15.4294ZM13.2236 2L18.8143 2.05764L15.7596 3.72911C15.1256 3.32565 13.6847 2.34582 13.2236 2ZM2.21492 12.2594L1.98438 17.9654L3.31002 15.487L2.21492 12.2594ZM14.4916 2.97983C15.9901 4.47839 14.4339 8.10951 11.4368 11.049C8.43971 13.9885 4.63567 15.8329 3.13711 14.3343C1.69619 12.8421 3.17746 9.14697 6.18322 6.20749C9.18899 3.26801 13.0535 1.48127 14.4945 2.97983H14.4916Z" fill="#B11205"/>
<path d="M8.38165 14.3344L16.0474 16.8127C13.2808 19.4064 8.12228 21.7983 6.07617 22.0001L8.38165 14.3344Z" fill="#9F0D02"/>
<path d="M14.2031 9.08933L16.1051 16.755C18.4106 14.3343 20.4855 11.683 21.523 8.45532L14.2031 9.08933ZM20.8141 20.9798L19.6221 12.2017L16.1051 16.755L20.8141 20.9798Z" fill="#891102"/>
<path d="M21.5801 8.51295C22.3294 6.14984 22.5023 2.69162 18.8135 2.05762L15.7588 3.72909L21.5801 8.51295Z" fill="#AA1401"/>
<path d="M1.98438 17.9654C2.09965 21.8848 4.86622 21.9424 6.07659 22L3.25239 15.4871L1.98438 17.9654Z" fill="#9E1209"/>
<path d="M8.38184 14.3344L11.4942 20.2709C13.3386 19.2911 14.7795 18.0807 16.0475 16.7551L8.38184 14.3344Z" fill="#900E04"/>
<path d="M3.25211 15.487L2.79102 20.732C3.59793 21.8847 4.75067 21.9424 5.96104 21.8847C5.09649 19.7522 3.36738 15.4294 3.25211 15.487Z" fill="#8B1104"/>
</svg>
