<svg width="22" height="24" viewBox="0 0 22 24" fill="none" xmlns="http://www.w3.org/2000/svg">
<path d="M9.38095 9.2381H11.8571C13.381 9.2381 13.381 10.7619 11.8571 10.7619H9.38095V9.2381ZM3.47619 16.2857H11.0952V14.1905H9.38095V12.6667H11.2857C13.381 12.6667 12.2381 16.2857 13.9524 16.2857H18.7143V12.6667H17.5714V13.0476C17.5714 14.5714 15.8571 14.381 15.6667 13.4286C15.4762 12.4762 14.7143 11.7143 14.5238 11.7143C17.381 10.1905 15.6667 7.14286 13.381 7.14286H4.42857V9.2381H6.33333V14.1905H3.47619V16.2857Z" fill="black"/>
<path fill-rule="evenodd" clip-rule="evenodd" d="M4.33333 7.14286C4.33333 7.09026 4.37597 7.04762 4.42857 7.04762H13.381C14.565 7.04762 15.5996 7.83557 15.9701 8.8237C16.1562 9.3198 16.1756 9.86864 15.9601 10.3933C15.7611 10.8779 15.365 11.334 14.7308 11.7074C14.7587 11.7273 14.7879 11.7503 14.8178 11.7758C14.9249 11.8671 15.0484 11.9972 15.1707 12.1562C15.4151 12.4739 15.6612 12.9156 15.7601 13.4099C15.8441 13.83 16.2696 14.0934 16.6855 14.0716C16.8898 14.0608 17.0852 13.9806 17.2299 13.8202C17.3744 13.6598 17.4762 13.4105 17.4762 13.0476V12.6667C17.4762 12.6141 17.5188 12.5714 17.5714 12.5714H18.7143C18.7669 12.5714 18.8095 12.6141 18.8095 12.6667V16.2857C18.8095 16.3383 18.7669 16.381 18.7143 16.381H13.9524C13.7201 16.381 13.5305 16.3192 13.3758 16.2074C13.2223 16.0965 13.1094 15.9408 13.0217 15.7622C12.866 15.4454 12.781 15.0359 12.6973 14.6326C12.6878 14.5869 12.6783 14.5412 12.6687 14.4958C12.573 14.0411 12.4685 13.6056 12.2647 13.283C12.1641 13.1236 12.0407 12.9945 11.8842 12.9048C11.7279 12.8152 11.5334 12.7619 11.2857 12.7619H9.47619V14.0952H11.0952C11.1478 14.0952 11.1905 14.1379 11.1905 14.1905V16.2857C11.1905 16.3383 11.1478 16.381 11.0952 16.381H3.47619C3.42359 16.381 3.38095 16.3383 3.38095 16.2857V14.1905C3.38095 14.1379 3.42359 14.0952 3.47619 14.0952H6.2381V9.33333H4.42857C4.37597 9.33333 4.33333 9.29069 4.33333 9.2381V7.14286ZM4.52381 7.2381V9.14286H6.33333C6.38593 9.14286 6.42857 9.1855 6.42857 9.2381V14.1905C6.42857 14.2431 6.38593 14.2857 6.33333 14.2857H3.57143V16.1905H11V14.2857H9.38095C9.32835 14.2857 9.28571 14.2431 9.28571 14.1905V12.6667C9.28571 12.6141 9.32835 12.5714 9.38095 12.5714H11.2857C11.5618 12.5714 11.7899 12.6312 11.9789 12.7395C12.1677 12.8478 12.3121 13.0014 12.4258 13.1813C12.6506 13.5373 12.7604 14.0065 12.8551 14.4566C12.8646 14.5017 12.874 14.5467 12.8832 14.5913C12.9684 15.0003 13.0484 15.3845 13.1926 15.6782C13.2716 15.839 13.367 15.966 13.4873 16.053C13.6064 16.1391 13.7561 16.1905 13.9524 16.1905H18.619V12.7619H17.6667V13.0476C17.6667 13.4466 17.5541 13.7449 17.3713 13.9477C17.1886 14.1503 16.9435 14.2487 16.6955 14.2618C16.2065 14.2875 15.6797 13.9796 15.5733 13.4472C15.4817 12.9891 15.2516 12.5737 15.0197 12.2724C14.904 12.1219 14.7894 12.0019 14.6941 11.9207C14.6464 11.8799 14.6051 11.8503 14.5723 11.8314C14.5426 11.8143 14.5275 11.8105 14.5242 11.8097C14.5235 11.8096 14.5234 11.8095 14.5238 11.8095C14.4801 11.8095 14.442 11.7798 14.4314 11.7374C14.4208 11.695 14.4404 11.6508 14.479 11.6303C15.178 11.2574 15.5887 10.7964 15.7839 10.321C15.9791 9.84565 15.9629 9.34687 15.7918 8.89058C15.448 7.97396 14.4826 7.2381 13.381 7.2381H4.52381ZM9.28571 9.2381C9.28571 9.1855 9.32835 9.14286 9.38095 9.14286H11.8571C12.6444 9.14286 13.0952 9.54286 13.0952 10C13.0952 10.4571 12.6444 10.8571 11.8571 10.8571H9.38095C9.32835 10.8571 9.28571 10.8145 9.28571 10.7619V9.2381ZM9.47619 9.33333V10.6667H11.8571C12.5937 10.6667 12.9048 10.3048 12.9048 10C12.9048 9.69524 12.5937 9.33333 11.8571 9.33333H9.47619Z" fill="black"/>
<path fill-rule="evenodd" clip-rule="evenodd" d="M11 4.66667C6.94991 4.66667 3.66667 7.94991 3.66667 12C3.66667 16.0501 6.94991 19.3333 11 19.3333C15.0501 19.3333 18.3333 16.0501 18.3333 12C18.3333 7.94991 15.0501 4.66667 11 4.66667ZM1.95238 12C1.95238 7.00314 6.00314 2.95238 11 2.95238C15.9969 2.95238 20.0476 7.00314 20.0476 12C20.0476 16.9969 15.9969 21.0476 11 21.0476C6.00314 21.0476 1.95238 16.9969 1.95238 12Z" fill="black"/>
<path d="M19.7619 12.5714L20.7143 12L19.7619 11.4286V12.5714Z" fill="black"/>
<path fill-rule="evenodd" clip-rule="evenodd" d="M19.6211 11.1799C19.7107 11.1292 19.8206 11.1306 19.9089 11.1836L20.8613 11.755C20.9473 11.8066 21 11.8996 21 12C21 12.1004 20.9473 12.1934 20.8613 12.245L19.9089 12.8164C19.8206 12.8694 19.7107 12.8708 19.6211 12.8201C19.5316 12.7693 19.4762 12.6744 19.4762 12.5714V11.4286C19.4762 11.3256 19.5316 11.2307 19.6211 11.1799ZM20.0476 11.9332V12.0668L20.159 12L20.0476 11.9332Z" fill="black"/>
<path d="M19.4821 14.2698L20.5276 13.8952L19.705 13.1489L19.4821 14.2698Z" fill="black"/>
<path fill-rule="evenodd" clip-rule="evenodd" d="M19.6155 12.8776C19.7132 12.8453 19.8208 12.8681 19.897 12.9373L20.7196 13.6836C20.7939 13.751 20.8274 13.8525 20.8079 13.9509C20.7883 14.0493 20.7185 14.1303 20.624 14.1641L19.5784 14.5388C19.4815 14.5735 19.3735 14.5534 19.2955 14.4862C19.2175 14.419 19.1818 14.315 19.2018 14.2141L19.4248 13.0932C19.4449 12.9922 19.5177 12.9099 19.6155 12.8776ZM19.8868 13.6996L19.8607 13.8306L19.983 13.7868L19.8868 13.6996Z" fill="black"/>
<path d="M18.8763 15.881L19.9748 15.7175L19.3136 14.8251L18.8763 15.881Z" fill="black"/>
<path fill-rule="evenodd" clip-rule="evenodd" d="M19.2787 14.5415C19.3809 14.529 19.4819 14.5723 19.5432 14.655L20.2044 15.5474C20.2641 15.628 20.2772 15.7341 20.2388 15.8268C20.2004 15.9196 20.1161 15.9853 20.0169 16.0001L18.9183 16.1636C18.8165 16.1787 18.7144 16.1379 18.6511 16.0568C18.5877 15.9757 18.5729 15.8667 18.6123 15.7716L19.0497 14.7158C19.089 14.6207 19.1765 14.5541 19.2787 14.5415ZM19.3845 15.4007L19.3333 15.5241L19.4618 15.505L19.3845 15.4007Z" fill="black"/>
<path d="M17.9678 17.343L19.0771 17.397L18.6027 16.3927L17.9678 17.343Z" fill="black"/>
<path fill-rule="evenodd" clip-rule="evenodd" d="M18.6238 16.1078C18.7265 16.1154 18.8171 16.1776 18.8611 16.2707L19.3355 17.2749C19.3783 17.3657 19.3705 17.4723 19.3147 17.5557C19.2589 17.6391 19.1635 17.6872 19.0632 17.6823L17.9539 17.6284C17.8511 17.6234 17.7589 17.5634 17.7126 17.4715C17.6663 17.3796 17.673 17.2698 17.7302 17.1842L18.3652 16.234C18.4224 16.1484 18.5212 16.1002 18.6238 16.1078ZM18.5599 16.971L18.4857 17.0821L18.6154 17.0884L18.5599 16.971Z" fill="black"/>
<path d="M16.7915 18.5997L17.869 18.869L17.5997 17.7915L16.7915 18.5997Z" fill="black"/>
<path fill-rule="evenodd" clip-rule="evenodd" d="M17.6759 17.5162C17.7751 17.5437 17.8519 17.6224 17.8768 17.7222L18.1462 18.7997C18.1706 18.8971 18.142 19.0001 18.0711 19.0711C18.0001 19.142 17.8971 19.1706 17.7997 19.1462L16.7222 18.8768C16.6224 18.8519 16.5437 18.7751 16.5162 18.6759C16.4887 18.5767 16.5167 18.4704 16.5895 18.3976L17.3976 17.5895C17.4704 17.5167 17.5767 17.4887 17.6759 17.5162ZM17.4449 18.3504L17.3504 18.4449L17.4764 18.4764L17.4449 18.3504Z" fill="black"/>
<path d="M15.3927 19.6027L16.397 20.0771L16.343 18.9678L15.3927 19.6027Z" fill="black"/>
<path fill-rule="evenodd" clip-rule="evenodd" d="M16.4715 18.7126C16.5634 18.7589 16.6234 18.8511 16.6284 18.9539L16.6823 20.0632C16.6872 20.1635 16.6392 20.2589 16.5557 20.3147C16.4723 20.3705 16.3657 20.3783 16.2749 20.3355L15.2707 19.8611C15.1776 19.8171 15.1154 19.7265 15.1078 19.6238C15.1002 19.5212 15.1484 19.4224 15.234 19.3652L16.1842 18.7302C16.2698 18.673 16.3796 18.6663 16.4715 18.7126ZM16.0821 19.4857L15.971 19.5599L16.0884 19.6154L16.0821 19.4857Z" fill="black"/>
<path d="M13.8251 20.3136L14.7175 20.9748L14.881 19.8763L13.8251 20.3136Z" fill="black"/>
<path fill-rule="evenodd" clip-rule="evenodd" d="M15.0568 19.6511C15.1379 19.7144 15.1787 19.8165 15.1636 19.9183L15.0001 21.0169C14.9853 21.1161 14.9196 21.2004 14.8268 21.2388C14.7341 21.2772 14.628 21.2641 14.5474 21.2044L13.655 20.5432C13.5723 20.4819 13.529 20.3809 13.5415 20.2787C13.5541 20.1765 13.6207 20.089 13.7158 20.0497L14.7716 19.6123C14.8667 19.5729 14.9757 19.5877 15.0568 19.6511ZM14.5241 20.3333L14.4007 20.3845L14.505 20.4618L14.5241 20.3333Z" fill="black"/>
<path d="M12.1489 20.705L12.8952 21.5276L13.2698 20.4821L12.1489 20.705Z" fill="black"/>
<path fill-rule="evenodd" clip-rule="evenodd" d="M13.4862 20.2955C13.5534 20.3735 13.5735 20.4815 13.5388 20.5784L13.1641 21.624C13.1303 21.7185 13.0493 21.7883 12.9509 21.8079C12.8525 21.8274 12.751 21.7939 12.6836 21.7196L11.9373 20.897C11.8681 20.8208 11.8453 20.7132 11.8776 20.6155C11.9099 20.5177 11.9922 20.4449 12.0932 20.4248L13.2141 20.2018C13.315 20.1818 13.419 20.2175 13.4862 20.2955ZM12.8306 20.8607L12.6996 20.8868L12.7868 20.983L12.8306 20.8607Z" fill="black"/>
<path d="M10.4286 20.7619L11 21.7143L11.5714 20.7619H10.4286Z" fill="black"/>
<path fill-rule="evenodd" clip-rule="evenodd" d="M11.8201 20.6211C11.8708 20.7107 11.8694 20.8206 11.8164 20.9089L11.245 21.8613C11.1934 21.9473 11.1004 22 11 22C10.8996 22 10.8066 21.9473 10.755 21.8613L10.1836 20.9089C10.1306 20.8206 10.1292 20.7107 10.1799 20.6211C10.2307 20.5316 10.3256 20.4762 10.4286 20.4762H11.5714C11.6744 20.4762 11.7693 20.5316 11.8201 20.6211ZM11.0668 21.0476H10.9332L11 21.159L11.0668 21.0476Z" fill="black"/>
<path d="M8.73019 20.4821L9.10484 21.5276L9.85109 20.705L8.73019 20.4821Z" fill="black"/>
<path fill-rule="evenodd" clip-rule="evenodd" d="M10.1224 20.6155C10.1547 20.7132 10.1319 20.8208 10.0627 20.897L9.31645 21.7196C9.24902 21.7939 9.14753 21.8274 9.0491 21.8079C8.95066 21.7883 8.86972 21.7185 8.83587 21.624L8.46122 20.5784C8.4265 20.4815 8.44658 20.3735 8.5138 20.2955C8.58102 20.2175 8.68497 20.1818 8.78593 20.2018L9.90683 20.4248C10.0078 20.4449 10.0901 20.5177 10.1224 20.6155ZM9.30042 20.8868L9.16938 20.8607L9.21318 20.983L9.30042 20.8868Z" fill="black"/>
<path d="M7.11903 19.8763L7.2825 20.9748L8.1749 20.3136L7.11903 19.8763Z" fill="black"/>
<path fill-rule="evenodd" clip-rule="evenodd" d="M8.45847 20.2787C8.47105 20.3809 8.4277 20.4819 8.34499 20.5432L7.4526 21.2044C7.37196 21.2641 7.26589 21.2772 7.17317 21.2388C7.08044 21.2004 7.01467 21.1161 6.9999 21.0169L6.83643 19.9183C6.82128 19.8165 6.86207 19.7144 6.9432 19.6511C7.02433 19.5877 7.13327 19.5729 7.22837 19.6123L8.28423 20.0497C8.37933 20.089 8.44589 20.1765 8.45847 20.2787ZM7.59934 20.3845L7.47591 20.3333L7.49502 20.4618L7.59934 20.3845Z" fill="black"/>
<path d="M5.65702 18.9678L5.60303 20.0771L6.60727 19.6027L5.65702 18.9678Z" fill="black"/>
<path fill-rule="evenodd" clip-rule="evenodd" d="M6.89221 19.6238C6.88461 19.7265 6.82238 19.8171 6.72931 19.8611L5.72507 20.3355C5.63433 20.3783 5.52775 20.3705 5.4443 20.3147C5.36085 20.2589 5.31278 20.1635 5.31766 20.0632L5.37164 18.9539C5.37665 18.8511 5.43657 18.7589 5.5285 18.7126C5.62044 18.6663 5.73017 18.673 5.81576 18.7302L6.76601 19.3652C6.85159 19.4224 6.8998 19.5212 6.89221 19.6238ZM6.02896 19.5599L5.91787 19.4857L5.91156 19.6154L6.02896 19.5599Z" fill="black"/>
<path d="M4.40034 17.7915L4.13096 18.869L5.20846 18.5997L4.40034 17.7915Z" fill="black"/>
<path fill-rule="evenodd" clip-rule="evenodd" d="M5.48381 18.6759C5.45633 18.7751 5.37762 18.8519 5.27775 18.8768L4.20026 19.1462C4.10289 19.1706 3.9999 19.142 3.92893 19.0711C3.85797 19.0001 3.82944 18.8971 3.85378 18.7997L4.12315 17.7222C4.14812 17.6224 4.22487 17.5437 4.32407 17.5162C4.42327 17.4887 4.52958 17.5167 4.60237 17.5895L5.41049 18.3976C5.48328 18.4704 5.51128 18.5767 5.48381 18.6759ZM4.6496 18.4449L4.55513 18.3504L4.52364 18.4764L4.6496 18.4449Z" fill="black"/>
<path d="M3.39727 16.3927L2.92287 17.397L4.03221 17.343L3.39727 16.3927Z" fill="black"/>
<path fill-rule="evenodd" clip-rule="evenodd" d="M4.28739 17.4715C4.24109 17.5634 4.14891 17.6234 4.0461 17.6284L2.93676 17.6823C2.83651 17.6872 2.74106 17.6392 2.6853 17.5557C2.62955 17.4723 2.62166 17.3657 2.66453 17.2749L3.13894 16.2707C3.1829 16.1776 3.27354 16.1154 3.37619 16.1078C3.47884 16.1002 3.57765 16.1484 3.63484 16.234L4.26977 17.1842C4.32696 17.2698 4.33369 17.3796 4.28739 17.4715ZM3.51429 17.0821L3.44007 16.971L3.38461 17.0884L3.51429 17.0821Z" fill="black"/>
<path d="M2.68638 14.8251L2.02517 15.7175L3.12373 15.881L2.68638 14.8251Z" fill="black"/>
<path fill-rule="evenodd" clip-rule="evenodd" d="M3.34893 16.0568C3.28559 16.1379 3.18349 16.1787 3.08168 16.1636L1.98312 16.0001C1.88385 15.9853 1.79961 15.9196 1.76121 15.8268C1.7228 15.7341 1.73586 15.628 1.7956 15.5474L2.45681 14.655C2.51809 14.5723 2.61913 14.529 2.72129 14.5415C2.82345 14.5541 2.91095 14.6207 2.95035 14.7158L3.3877 15.7716C3.42709 15.8667 3.41228 15.9757 3.34893 16.0568ZM2.66665 15.5241L2.61553 15.4007L2.53823 15.505L2.66665 15.5241Z" fill="black"/>
<path d="M2.29497 13.1489L1.47237 13.8952L2.51793 14.2698L2.29497 13.1489Z" fill="black"/>
<path fill-rule="evenodd" clip-rule="evenodd" d="M2.7045 14.4862C2.62655 14.5534 2.51846 14.5735 2.42156 14.5388L1.37599 14.1641C1.28152 14.1303 1.21173 14.0493 1.19215 13.9509C1.17257 13.8525 1.20607 13.751 1.2804 13.6836L2.103 12.9373C2.17924 12.8681 2.28679 12.8453 2.38453 12.8776C2.48228 12.9099 2.55511 12.9922 2.5752 13.0932L2.79816 14.2141C2.81824 14.315 2.78246 14.419 2.7045 14.4862ZM2.13926 13.8306L2.1132 13.6996L2.01703 13.7868L2.13926 13.8306Z" fill="black"/>
<path d="M2.2381 11.4286L1.28571 12L2.2381 12.5714V11.4286Z" fill="black"/>
<path fill-rule="evenodd" clip-rule="evenodd" d="M2.37887 12.8201C2.28929 12.8708 2.17936 12.8694 2.0911 12.8164L1.13872 12.245C1.05266 12.1934 1 12.1004 1 12C1 11.8996 1.05266 11.8066 1.13872 11.755L2.0911 11.1836C2.17936 11.1306 2.28929 11.1292 2.37887 11.1799C2.46844 11.2307 2.52381 11.3256 2.52381 11.4286V12.5714C2.52381 12.6744 2.46844 12.7693 2.37887 12.8201ZM1.95238 12.0668V11.9332L1.84104 12L1.95238 12.0668Z" fill="black"/>
<path d="M2.51793 9.73019L1.47237 10.1048L2.29497 10.8511L2.51793 9.73019Z" fill="black"/>
<path fill-rule="evenodd" clip-rule="evenodd" d="M2.38453 11.1224C2.28679 11.1547 2.17924 11.1319 2.103 11.0627L1.2804 10.3164C1.20607 10.249 1.17257 10.1475 1.19215 10.0491C1.21173 9.95066 1.28152 9.86972 1.37599 9.83587L2.42156 9.46122C2.51846 9.4265 2.62655 9.44658 2.7045 9.5138C2.78246 9.58102 2.81824 9.68497 2.79816 9.78593L2.5752 10.9068C2.55512 11.0078 2.48228 11.0901 2.38453 11.1224ZM2.1132 10.3004L2.13926 10.1694L2.01703 10.2132L2.1132 10.3004Z" fill="black"/>
<path d="M3.12373 8.11903L2.02517 8.2825L2.68638 9.1749L3.12373 8.11903Z" fill="black"/>
<path fill-rule="evenodd" clip-rule="evenodd" d="M2.72129 9.45847C2.61913 9.47105 2.51809 9.4277 2.45681 9.34499L1.7956 8.4526C1.73586 8.37196 1.7228 8.26589 1.76121 8.17317C1.79961 8.08044 1.88385 8.01467 1.98312 7.9999L3.08168 7.83643C3.18349 7.82128 3.28559 7.86207 3.34893 7.9432C3.41228 8.02433 3.42709 8.13327 3.3877 8.22837L2.95035 9.28423C2.91095 9.37933 2.82345 9.44589 2.72129 9.45847ZM2.61553 8.59934L2.66665 8.47591L2.53823 8.49502L2.61553 8.59934Z" fill="black"/>
<path d="M4.03221 6.65702L2.92287 6.60303L3.39727 7.60727L4.03221 6.65702Z" fill="black"/>
<path fill-rule="evenodd" clip-rule="evenodd" d="M3.37619 7.89221C3.27354 7.88461 3.1829 7.82238 3.13893 7.72931L2.66453 6.72507C2.62166 6.63433 2.62955 6.52775 2.6853 6.4443C2.74106 6.36085 2.83651 6.31278 2.93675 6.31766L4.0461 6.37164C4.14891 6.37665 4.24109 6.43657 4.28739 6.5285C4.33369 6.62044 4.32696 6.73017 4.26977 6.81576L3.63484 7.76601C3.57765 7.85159 3.47884 7.8998 3.37619 7.89221ZM3.44007 7.02896L3.51429 6.91787L3.38461 6.91156L3.44007 7.02896Z" fill="black"/>
<path d="M5.20846 5.40034L4.13096 5.13096L4.40034 6.20846L5.20846 5.40034Z" fill="black"/>
<path fill-rule="evenodd" clip-rule="evenodd" d="M4.32407 6.48381C4.22487 6.45633 4.14812 6.37762 4.12315 6.27775L3.85378 5.20026C3.82944 5.10289 3.85797 4.9999 3.92893 4.92893C3.9999 4.85797 4.10289 4.82944 4.20026 4.85378L5.27775 5.12315C5.37762 5.14812 5.45633 5.22487 5.48381 5.32407C5.51128 5.42327 5.48328 5.52958 5.41049 5.60237L4.60237 6.41049C4.52958 6.48328 4.42327 6.51128 4.32407 6.48381ZM4.55513 5.6496L4.6496 5.55513L4.52364 5.52364L4.55513 5.6496Z" fill="black"/>
<path d="M6.60727 4.39727L5.60303 3.92287L5.65702 5.03221L6.60727 4.39727Z" fill="black"/>
<path fill-rule="evenodd" clip-rule="evenodd" d="M5.5285 5.28739C5.43657 5.24109 5.37665 5.14891 5.37164 5.0461L5.31766 3.93676C5.31278 3.83651 5.36085 3.74106 5.4443 3.6853C5.52774 3.62955 5.63433 3.62166 5.72507 3.66453L6.72931 4.13894C6.82238 4.1829 6.88461 4.27354 6.89221 4.37619C6.8998 4.47884 6.85159 4.57765 6.76601 4.63484L5.81576 5.26977C5.73017 5.32696 5.62044 5.33369 5.5285 5.28739ZM5.91787 4.51429L6.02896 4.44007L5.91156 4.38461L5.91787 4.51429Z" fill="black"/>
<path d="M8.1749 3.68638L7.2825 3.02517L7.11903 4.12373L8.1749 3.68638Z" fill="black"/>
<path fill-rule="evenodd" clip-rule="evenodd" d="M6.9432 4.34893C6.86207 4.28559 6.82128 4.18349 6.83643 4.08168L6.9999 2.98312C7.01467 2.88385 7.08044 2.79961 7.17317 2.76121C7.26589 2.7228 7.37196 2.73586 7.4526 2.7956L8.34499 3.45681C8.4277 3.51809 8.47105 3.61913 8.45847 3.72129C8.44589 3.82345 8.37933 3.91095 8.28423 3.95035L7.22837 4.3877C7.13327 4.42709 7.02433 4.41228 6.9432 4.34893ZM7.47591 3.66665L7.59934 3.61553L7.49502 3.53823L7.47591 3.66665Z" fill="black"/>
<path d="M9.85109 3.29497L9.10484 2.47237L8.73019 3.51793L9.85109 3.29497Z" fill="black"/>
<path fill-rule="evenodd" clip-rule="evenodd" d="M8.5138 3.7045C8.44658 3.62655 8.4265 3.51846 8.46122 3.42156L8.83587 2.37599C8.86972 2.28152 8.95066 2.21173 9.0491 2.19215C9.14753 2.17257 9.24902 2.20607 9.31645 2.2804L10.0627 3.103C10.1319 3.17924 10.1547 3.28679 10.1224 3.38453C10.0901 3.48228 10.0078 3.55511 9.90683 3.5752L8.78593 3.79816C8.68497 3.81824 8.58102 3.78246 8.5138 3.7045ZM9.16938 3.13926L9.30042 3.1132L9.21318 3.01703L9.16938 3.13926Z" fill="black"/>
<path d="M11.5714 3.2381L11 2.28571L10.4286 3.2381H11.5714Z" fill="black"/>
<path fill-rule="evenodd" clip-rule="evenodd" d="M10.1799 3.37887C10.1292 3.28929 10.1306 3.17936 10.1836 3.0911L10.755 2.13872C10.8066 2.05266 10.8996 2 11 2C11.1004 2 11.1934 2.05266 11.245 2.13872L11.8164 3.0911C11.8694 3.17936 11.8708 3.28929 11.8201 3.37887C11.7693 3.46844 11.6744 3.52381 11.5714 3.52381H10.4286C10.3256 3.52381 10.2307 3.46844 10.1799 3.37887ZM10.9332 2.95238H11.0668L11 2.84104L10.9332 2.95238Z" fill="black"/>
<path d="M13.2698 3.51793L12.8952 2.47237L12.1489 3.29497L13.2698 3.51793Z" fill="black"/>
<path fill-rule="evenodd" clip-rule="evenodd" d="M11.8776 3.38453C11.8453 3.28679 11.8681 3.17924 11.9373 3.103L12.6836 2.2804C12.751 2.20607 12.8525 2.17257 12.9509 2.19215C13.0493 2.21173 13.1303 2.28152 13.1641 2.37599L13.5388 3.42156C13.5735 3.51846 13.5534 3.62655 13.4862 3.7045C13.419 3.78246 13.315 3.81824 13.2141 3.79816L12.0932 3.5752C11.9922 3.55512 11.9099 3.48228 11.8776 3.38453ZM12.6996 3.1132L12.8306 3.13926L12.7868 3.01703L12.6996 3.1132Z" fill="black"/>
<path d="M14.881 4.12373L14.7175 3.02517L13.8251 3.68638L14.881 4.12373Z" fill="black"/>
<path fill-rule="evenodd" clip-rule="evenodd" d="M13.5415 3.72129C13.529 3.61913 13.5723 3.51809 13.655 3.45681L14.5474 2.7956C14.628 2.73586 14.7341 2.7228 14.8268 2.76121C14.9196 2.79961 14.9853 2.88385 15.0001 2.98312L15.1636 4.08168C15.1787 4.18349 15.1379 4.28559 15.0568 4.34893C14.9757 4.41228 14.8667 4.42709 14.7716 4.3877L13.7158 3.95035C13.6207 3.91095 13.5541 3.82345 13.5415 3.72129ZM14.4007 3.61553L14.5241 3.66665L14.505 3.53823L14.4007 3.61553Z" fill="black"/>
<path d="M16.343 5.03221L16.397 3.92287L15.3927 4.39727L16.343 5.03221Z" fill="black"/>
<path fill-rule="evenodd" clip-rule="evenodd" d="M15.1078 4.37619C15.1154 4.27354 15.1776 4.1829 15.2707 4.13893L16.2749 3.66453C16.3657 3.62166 16.4723 3.62955 16.5557 3.6853C16.6391 3.74106 16.6872 3.83651 16.6823 3.93675L16.6284 5.0461C16.6234 5.14891 16.5634 5.24109 16.4715 5.28739C16.3796 5.33369 16.2698 5.32696 16.1842 5.26977L15.234 4.63484C15.1484 4.57765 15.1002 4.47884 15.1078 4.37619ZM15.971 4.44007L16.0821 4.51429L16.0884 4.38461L15.971 4.44007Z" fill="black"/>
<path d="M17.5997 6.20846L17.869 5.13096L16.7915 5.40034L17.5997 6.20846Z" fill="black"/>
<path fill-rule="evenodd" clip-rule="evenodd" d="M16.5162 5.32407C16.5437 5.22487 16.6224 5.14812 16.7222 5.12315L17.7997 4.85378C17.8971 4.82944 18.0001 4.85797 18.0711 4.92893C18.142 4.9999 18.1706 5.10289 18.1462 5.20026L17.8768 6.27775C17.8519 6.37762 17.7751 6.45633 17.6759 6.48381C17.5767 6.51128 17.4704 6.48328 17.3976 6.41049L16.5895 5.60237C16.5167 5.52958 16.4887 5.42327 16.5162 5.32407ZM17.3504 5.55513L17.4449 5.6496L17.4764 5.52364L17.3504 5.55513Z" fill="black"/>
<path d="M18.6027 7.60727L19.0771 6.60303L17.9678 6.65702L18.6027 7.60727Z" fill="black"/>
<path fill-rule="evenodd" clip-rule="evenodd" d="M17.7126 6.5285C17.7589 6.43657 17.8511 6.37665 17.9539 6.37164L19.0632 6.31766C19.1635 6.31278 19.2589 6.36085 19.3147 6.4443C19.3705 6.52774 19.3783 6.63433 19.3355 6.72507L18.8611 7.72931C18.8171 7.82238 18.7265 7.88461 18.6238 7.89221C18.5212 7.8998 18.4224 7.85159 18.3652 7.76601L17.7302 6.81576C17.673 6.73017 17.6663 6.62044 17.7126 6.5285ZM18.4857 6.91787L18.5599 7.02896L18.6154 6.91156L18.4857 6.91787Z" fill="black"/>
<path d="M19.3136 9.1749L19.9748 8.2825L18.8763 8.11903L19.3136 9.1749Z" fill="black"/>
<path fill-rule="evenodd" clip-rule="evenodd" d="M18.6511 7.9432C18.7144 7.86207 18.8165 7.82128 18.9183 7.83643L20.0169 7.9999C20.1161 8.01467 20.2004 8.08044 20.2388 8.17317C20.2772 8.26589 20.2641 8.37196 20.2044 8.4526L19.5432 9.34499C19.4819 9.4277 19.3809 9.47105 19.2787 9.45847C19.1765 9.44589 19.089 9.37933 19.0497 9.28423L18.6123 8.22837C18.5729 8.13327 18.5877 8.02433 18.6511 7.9432ZM19.3333 8.47591L19.3845 8.59934L19.4618 8.49502L19.3333 8.47591Z" fill="black"/>
<path d="M19.705 10.8511L20.5276 10.1048L19.4821 9.73019L19.705 10.8511Z" fill="black"/>
<path fill-rule="evenodd" clip-rule="evenodd" d="M19.2955 9.5138C19.3735 9.44658 19.4815 9.4265 19.5784 9.46122L20.624 9.83587C20.7185 9.86972 20.7883 9.95066 20.8079 10.0491C20.8274 10.1475 20.7939 10.249 20.7196 10.3164L19.897 11.0627C19.8208 11.1319 19.7132 11.1547 19.6155 11.1224C19.5177 11.0901 19.4449 11.0078 19.4248 10.9068L19.2018 9.78593C19.1818 9.68497 19.2175 9.58102 19.2955 9.5138ZM19.8607 10.1694L19.8868 10.3004L19.983 10.2132L19.8607 10.1694Z" fill="black"/>
<path d="M9.66667 4L11 5.33333L12.3333 4H9.66667Z" fill="black"/>
<path fill-rule="evenodd" clip-rule="evenodd" d="M9.13873 3.78132C9.22718 3.5678 9.43555 3.42857 9.66667 3.42857H12.3333C12.5645 3.42857 12.7728 3.5678 12.8613 3.78132C12.9497 3.99485 12.9008 4.24063 12.7374 4.40406L11.4041 5.73739C11.1809 5.96055 10.8191 5.96055 10.5959 5.73739L9.26261 4.40406C9.09918 4.24063 9.05029 3.99485 9.13873 3.78132Z" fill="black"/>
<path d="M18.1964 8.25979L17.3404 9.93989L19.0205 10.7959L18.1964 8.25979Z" fill="black"/>
<path fill-rule="evenodd" clip-rule="evenodd" d="M18.2413 7.69012C18.4717 7.70826 18.6685 7.8634 18.7399 8.08321L19.5639 10.6194C19.6354 10.8392 19.5673 11.0804 19.3916 11.2305C19.2158 11.3806 18.967 11.41 18.7611 11.3051L17.081 10.449C16.7998 10.3058 16.688 9.96166 16.8312 9.68046L17.6873 8.00037C17.7922 7.79444 18.0109 7.67199 18.2413 7.69012Z" fill="black"/>
<path d="M16.781 17.6884L14.9186 17.3934L14.6236 19.2559L16.781 17.6884Z" fill="black"/>
<path fill-rule="evenodd" clip-rule="evenodd" d="M17.3366 17.555C17.3906 17.7798 17.3038 18.0149 17.1168 18.1507L14.9595 19.7181C14.7725 19.854 14.5221 19.8638 14.325 19.7431C14.128 19.6223 14.023 19.3947 14.0592 19.1665L14.3542 17.3041C14.4035 16.9923 14.6963 16.7797 15.008 16.8291L16.8704 17.124C17.0986 17.1602 17.2827 17.3303 17.3366 17.555Z" fill="black"/>
<path d="M7.37641 19.2559L7.08143 17.3934L5.21903 17.6884L7.37641 19.2559Z" fill="black"/>
<path fill-rule="evenodd" clip-rule="evenodd" d="M7.67498 19.7431C7.47792 19.8638 7.22751 19.854 7.04053 19.7181L4.88315 18.1507C4.69617 18.0149 4.60944 17.7798 4.66339 17.555C4.71734 17.3303 4.90136 17.1602 5.12964 17.124L6.99204 16.8291C7.30375 16.7797 7.59646 16.9924 7.64583 17.3041L7.9408 19.1665C7.97696 19.3947 7.87204 19.6223 7.67498 19.7431Z" fill="black"/>
<path d="M2.97952 10.7959L4.65962 9.93989L3.80357 8.25979L2.97952 10.7959Z" fill="black"/>
<path fill-rule="evenodd" clip-rule="evenodd" d="M2.60841 11.2305C2.43267 11.0804 2.36464 10.8392 2.43606 10.6194L3.26011 8.08321C3.33153 7.8634 3.52833 7.70825 3.75874 7.69012C3.98915 7.67199 4.20779 7.79443 4.31272 8.00036L5.16877 9.68046C5.31205 9.96166 5.20024 10.3058 4.91905 10.449L3.23895 11.3051C3.03302 11.41 2.78416 11.3806 2.60841 11.2305Z" fill="black"/>
</svg>
