<svg width="31" height="24" viewBox="0 0 31 24" fill="none" xmlns="http://www.w3.org/2000/svg">
<mask id="mask0_127_5153" style="mask-type:luminance" maskUnits="userSpaceOnUse" x="1" y="2" width="29" height="20">
<path d="M1.25879 2.05237H29.7405V21.9477H1.25879V2.05237Z" fill="white"/>
</mask>
<g mask="url(#mask0_127_5153)">
<path fill-rule="evenodd" clip-rule="evenodd" d="M13.0851 4.23043C14.0045 3.27336 15.2841 2.68069 16.6977 2.68069C18.5825 2.68069 20.216 3.72781 21.0956 5.28802C21.8764 4.93899 22.722 4.75879 23.5773 4.75922C26.9699 4.75922 29.7239 7.53409 29.7239 10.9582C29.7239 14.3823 26.9699 17.1571 23.5773 17.1571C23.1626 17.1571 22.7584 17.1155 22.3626 17.0367C21.593 18.4084 20.1218 19.3404 18.4464 19.3404C17.7643 19.3417 17.0909 19.187 16.4778 18.888C15.6977 20.7205 13.8809 22.0084 11.7658 22.0084C9.55633 22.0084 7.68199 20.6158 6.95948 18.6577C6.6379 18.7255 6.31012 18.7596 5.98147 18.7594C3.35319 18.7594 1.22754 16.6024 1.22754 13.9531C1.22754 12.173 2.18461 10.6233 3.6045 9.78561C3.30327 9.09168 3.14822 8.34314 3.14901 7.58666C3.14901 4.52907 5.63068 2.05786 8.68827 2.05786C10.4788 2.05786 12.0809 2.91126 13.0862 4.23587" fill="#00A1E0"/>
</g>
<path fill-rule="evenodd" clip-rule="evenodd" d="M5.37855 12.3979C5.36064 12.4446 5.38493 12.4543 5.39069 12.4626C5.4442 12.5013 5.49855 12.5294 5.553 12.5609C5.8441 12.7148 6.11844 12.7599 6.40535 12.7599C6.98965 12.7599 7.353 12.4489 7.353 11.9483V11.9385C7.353 11.4757 6.94253 11.3071 6.55928 11.1867L6.50912 11.1704C6.21907 11.0764 5.96881 10.9945 5.96881 10.8039V10.7942C5.96881 10.6309 6.1154 10.5104 6.34158 10.5104C6.59289 10.5104 6.89237 10.5941 7.08399 10.7C7.08399 10.7 7.14075 10.7366 7.16137 10.6818C7.17258 10.6522 7.27027 10.3907 7.28075 10.3614C7.29184 10.3307 7.27237 10.3076 7.25237 10.2957C7.03247 10.1616 6.72881 10.0705 6.41467 10.0705L6.35635 10.0707C5.82127 10.0707 5.44745 10.3943 5.44745 10.8571V10.8671C5.44745 11.355 5.86001 11.5142 6.24535 11.6242L6.30734 11.6434C6.58797 11.7297 6.8309 11.8047 6.8309 12.0015V12.0114C6.8309 12.1925 6.67279 12.3276 6.41938 12.3276C6.32085 12.3276 6.00682 12.3259 5.6665 12.1109C5.62535 12.0869 5.6019 12.0696 5.57017 12.0502C5.55342 12.0401 5.51153 12.0217 5.49331 12.0766L5.37813 12.397M13.9331 12.397C13.9152 12.4437 13.9395 12.4535 13.9455 12.4617C13.9988 12.5005 14.0533 12.5286 14.1078 12.5601C14.3989 12.714 14.6732 12.759 14.9601 12.759C15.5444 12.759 15.9078 12.448 15.9078 11.9475V11.9377C15.9078 11.4748 15.4983 11.3062 15.114 11.1858L15.0639 11.1696C14.7738 11.0756 14.5236 10.9937 14.5236 10.8031V10.7934C14.5236 10.63 14.6702 10.5096 14.8963 10.5096C15.1477 10.5096 15.4461 10.5933 15.6388 10.6991C15.6388 10.6991 15.6955 10.7358 15.7162 10.681C15.7273 10.6514 15.8251 10.3899 15.8346 10.3606C15.8458 10.3299 15.8262 10.3068 15.8063 10.2948C15.5864 10.1608 15.2827 10.0697 14.9686 10.0697L14.9102 10.0699C14.3751 10.0699 14.0013 10.3935 14.0013 10.8563V10.8662C14.0013 11.3542 14.4138 11.5134 14.7992 11.6233L14.8611 11.6426C15.1427 11.7289 15.3846 11.8038 15.3846 12.0007V12.0105C15.3846 12.1917 15.2265 12.3268 14.9731 12.3268C14.8744 12.3268 14.5595 12.3251 14.2202 12.11C14.1791 12.086 14.155 12.0695 14.1238 12.0494C14.1132 12.0427 14.0639 12.0234 14.047 12.0758L13.9318 12.3962M19.7748 11.4161C19.7748 11.6988 19.722 11.9218 19.6188 12.08C19.5157 12.236 19.3601 12.3124 19.1434 12.3124C18.9266 12.3124 18.7716 12.2366 18.6701 12.081C18.5678 11.9239 18.5161 11.6999 18.5161 11.4171C18.5161 11.1344 18.5681 10.9124 18.6701 10.7564C18.7714 10.6014 18.9256 10.5271 19.1434 10.5271C19.3612 10.5271 19.5161 10.6022 19.6188 10.7564C19.7226 10.9124 19.7748 11.1344 19.7748 11.4171M20.2627 10.8925C20.2147 10.7302 20.1402 10.5878 20.0407 10.4684C19.9412 10.3491 19.8156 10.2527 19.6659 10.1836C19.5172 10.114 19.3413 10.0789 19.1423 10.0789C18.9434 10.0789 18.7685 10.1142 18.6188 10.1836C18.4701 10.2532 18.3434 10.3491 18.2439 10.4684C18.1446 10.5878 18.0701 10.7302 18.0219 10.8925C17.9743 11.0538 17.9501 11.2297 17.9501 11.4171C17.9501 11.6046 17.9743 11.7805 18.0219 11.9417C18.0697 12.104 18.1444 12.2465 18.2439 12.3658C18.3435 12.4852 18.4701 12.5805 18.6188 12.6486C18.7685 12.7164 18.9444 12.751 19.1423 12.751C19.3402 12.751 19.5161 12.7164 19.6648 12.6486C19.8135 12.5807 19.9402 12.4852 20.0397 12.3658C20.1391 12.2465 20.2135 12.104 20.2617 11.9417C20.3092 11.7805 20.3334 11.6046 20.3334 11.4171C20.3334 11.2307 20.3092 11.0538 20.2617 10.8925M24.2722 12.2328C24.2561 12.1854 24.2099 12.2033 24.2099 12.2033C24.139 12.2304 24.0633 12.2556 23.9826 12.2681C23.9014 12.2809 23.8109 12.2873 23.7156 12.2873C23.48 12.2873 23.2915 12.217 23.1575 12.0779C23.0224 11.9386 22.947 11.7145 22.9481 11.4109C22.9488 11.1344 23.0156 10.9271 23.1355 10.7679C23.2538 10.6109 23.436 10.5292 23.6769 10.5292C23.8779 10.5292 24.0318 10.5525 24.1931 10.603C24.1931 10.603 24.2313 10.6196 24.2496 10.5693C24.2925 10.451 24.3241 10.3661 24.3701 10.2363C24.383 10.1991 24.3512 10.1834 24.3396 10.1789C24.2763 10.1542 24.127 10.1137 24.0139 10.0966C23.9082 10.0805 23.7857 10.0721 23.6474 10.0721C23.4422 10.0721 23.26 10.1072 23.104 10.1767C22.948 10.2461 22.816 10.3422 22.7113 10.4615C22.6066 10.5809 22.527 10.7233 22.4736 10.8856C22.4207 11.0469 22.394 11.2238 22.394 11.4113C22.394 11.8155 22.5029 12.1432 22.7187 12.383C22.9344 12.6238 23.259 12.7453 23.682 12.7453C23.9323 12.7453 24.1888 12.6947 24.3731 12.6217C24.3731 12.6217 24.4083 12.6048 24.393 12.5637L24.2726 12.2328M25.126 11.1438C25.1493 10.9868 25.1924 10.8559 25.26 10.7543C25.3613 10.5993 25.5155 10.5145 25.7323 10.5145C25.949 10.5145 26.0925 10.5998 26.1951 10.7543C26.2632 10.8564 26.2929 10.992 26.304 11.1438L25.1207 11.1436L25.126 11.1438ZM26.77 10.7983C26.7284 10.6423 26.6255 10.4842 26.5584 10.4119C26.4516 10.2978 26.348 10.2171 26.2443 10.1732C26.0946 10.1095 25.9336 10.0769 25.771 10.0771C25.5647 10.0771 25.3773 10.112 25.2255 10.1829C25.0736 10.2543 24.9459 10.3515 24.8454 10.4729C24.7449 10.5944 24.6694 10.7379 24.6213 10.9023C24.5731 11.0646 24.5488 11.2426 24.5488 11.429C24.5488 11.6195 24.574 11.7965 24.6237 11.9567C24.6738 12.118 24.7546 12.2593 24.8635 12.3766C24.9724 12.4949 25.1116 12.5871 25.2792 12.652C25.4457 12.7164 25.6478 12.7498 25.8792 12.7491C26.3567 12.7475 26.608 12.6412 26.7106 12.5836C26.7289 12.5734 26.7462 12.5557 26.7246 12.5047L26.6168 12.2021C26.6002 12.1569 26.5546 12.1733 26.5546 12.1733C26.4362 12.2175 26.2687 12.2968 25.876 12.2958C25.6195 12.2954 25.43 12.2196 25.3106 12.101C25.1891 11.9795 25.1284 11.8026 25.119 11.5513L26.7734 11.5525C26.7734 11.5525 26.817 11.5521 26.8215 11.5096C26.8233 11.492 26.8781 11.1703 26.7722 10.7986L26.77 10.7983ZM11.9009 11.1438C11.9242 10.9868 11.9673 10.8559 12.0349 10.7543C12.1362 10.5993 12.2904 10.5145 12.5071 10.5145C12.7239 10.5145 12.8673 10.5998 12.97 10.7543C13.0379 10.8564 13.0677 10.992 13.0789 11.1438L11.8956 11.1436L11.9009 11.1438ZM13.5448 10.7983C13.5034 10.6423 13.4003 10.4842 13.3333 10.4119C13.2265 10.2978 13.1228 10.2171 13.0192 10.1732C12.8695 10.1095 12.7085 10.0769 12.5459 10.0771C12.3396 10.0771 12.1522 10.112 12.0003 10.1829C11.8485 10.2543 11.7207 10.3515 11.6202 10.4729C11.52 10.5944 11.4443 10.7379 11.3961 10.9023C11.3481 11.0646 11.3239 11.2426 11.3239 11.429C11.3239 11.6195 11.3489 11.7965 11.3989 11.9567C11.4489 12.118 11.5298 12.2593 11.6376 12.3766C11.7465 12.4949 11.8858 12.5871 12.0533 12.652C12.2198 12.7164 12.4208 12.7498 12.6533 12.7491C13.1308 12.7475 13.3821 12.6412 13.4847 12.5836C13.5029 12.5734 13.5203 12.5557 13.4987 12.5047L13.3908 12.2021C13.3741 12.1569 13.3285 12.1733 13.3285 12.1733C13.2102 12.2175 13.0426 12.2968 12.65 12.2958C12.3945 12.2954 12.2039 12.2196 12.0845 12.101C11.963 11.9795 11.9023 11.8026 11.8929 11.5513L13.5473 11.5525C13.5473 11.5525 13.5909 11.5521 13.5954 11.5096C13.5972 11.492 13.6521 11.1703 13.546 10.7986L13.5448 10.7983ZM8.33017 12.2224C8.26535 12.1706 8.25635 12.158 8.23488 12.1244C8.20211 12.0738 8.18535 12.0018 8.18535 11.9097C8.18535 11.7652 8.23352 11.6605 8.333 11.5903C8.33195 11.5905 8.4754 11.4668 8.81258 11.471C8.96265 11.4736 9.11238 11.4864 9.26075 11.5092V12.26H9.26095C9.26095 12.26 9.05153 12.3051 8.81488 12.3193C8.47876 12.3395 8.33006 12.2226 8.33111 12.2229L8.33017 12.2224ZM8.98776 11.0601C8.92074 11.0551 8.83383 11.0527 8.73017 11.0527C8.58881 11.0527 8.45164 11.0703 8.32389 11.1049C8.19509 11.1396 8.07886 11.1935 7.97938 11.2651C7.87963 11.3363 7.79759 11.4294 7.73959 11.5373C7.68106 11.6462 7.65122 11.774 7.65122 11.9185C7.65122 12.0651 7.67666 12.1918 7.72692 12.2955C7.77617 12.3983 7.85032 12.4872 7.94263 12.5541C8.03446 12.6209 8.14787 12.6703 8.27876 12.6996C8.4086 12.7293 8.5552 12.7443 8.71645 12.7443C8.88609 12.7443 9.05467 12.73 9.21802 12.7025C9.35715 12.6785 9.49575 12.6515 9.63373 12.6216C9.68881 12.609 9.74996 12.5923 9.74996 12.5923C9.7908 12.582 9.78766 12.5383 9.78766 12.5383L9.78671 11.0304C9.78671 10.6995 9.69834 10.4535 9.52389 10.3016C9.35006 10.1498 9.09561 10.0734 8.76577 10.0734C8.64221 10.0734 8.44221 10.0901 8.32284 10.1141C8.32284 10.1141 7.96263 10.184 7.81394 10.3005C7.81394 10.3005 7.78127 10.3206 7.79907 10.3661L7.91635 10.6803C7.9309 10.721 7.97059 10.7071 7.97059 10.7071C7.97059 10.7071 7.98305 10.7022 7.99771 10.6935C8.31499 10.5207 8.71708 10.5259 8.71708 10.5259C8.89509 10.5259 9.03331 10.5621 9.12546 10.6327C9.21561 10.702 9.26158 10.8066 9.26158 11.0265V11.0963C9.12022 11.0758 8.98933 11.0639 8.98933 11.0639L8.98776 11.0601ZM22.2862 10.2088C22.2886 10.2032 22.2898 10.1973 22.2899 10.1913C22.2899 10.1853 22.2887 10.1793 22.2864 10.1738C22.2841 10.1682 22.2807 10.1632 22.2764 10.159C22.2721 10.1548 22.267 10.1515 22.2614 10.1493C22.2332 10.1386 22.0928 10.109 21.9849 10.1023C21.7776 10.0893 21.6624 10.1243 21.5588 10.1707C21.4563 10.2169 21.343 10.2912 21.2802 10.377L21.28 10.176C21.28 10.1483 21.2604 10.126 21.2326 10.126H20.8095C20.7821 10.126 20.7622 10.1483 20.7622 10.176V12.6367C20.7622 12.65 20.7675 12.6628 20.7769 12.6722C20.7863 12.6816 20.7991 12.6868 20.8124 12.6869H21.2459C21.2592 12.6868 21.2719 12.6816 21.2813 12.6721C21.2907 12.6627 21.2959 12.65 21.2959 12.6367V11.4011C21.2959 11.2357 21.3141 11.0713 21.3505 10.9676C21.3863 10.8651 21.435 10.7833 21.495 10.7247C21.5522 10.668 21.6223 10.626 21.6992 10.6022C21.7714 10.5814 21.8461 10.5709 21.9212 10.571C22.0076 10.571 22.1023 10.5932 22.1023 10.5932C22.1341 10.5967 22.1518 10.5772 22.1626 10.5486C22.191 10.4731 22.2715 10.247 22.2872 10.202" fill="#FFFFFE"/>
<path fill-rule="evenodd" clip-rule="evenodd" d="M18.2374 9.07305C18.1839 9.05685 18.1293 9.04391 18.0742 9.0343C18 9.02192 17.9249 9.0161 17.8497 9.01692C17.551 9.01692 17.3155 9.10132 17.1501 9.26802C16.9859 9.43347 16.8742 9.68551 16.8182 10.0171L16.798 10.1291H16.423C16.423 10.1291 16.3772 10.1272 16.3676 10.1771L16.306 10.5206C16.3017 10.5535 16.3159 10.574 16.3599 10.5738H16.7249L16.3545 12.6411C16.3255 12.8076 16.2923 12.9446 16.2556 13.0483C16.2193 13.1507 16.1839 13.2275 16.1404 13.2832C16.0982 13.3371 16.0582 13.3768 15.9892 13.4C15.9322 13.4191 15.8667 13.4279 15.7948 13.4279C15.7548 13.4279 15.7016 13.4212 15.6624 13.4134C15.6231 13.4056 15.6027 13.3968 15.5733 13.3845C15.5733 13.3845 15.5304 13.3681 15.5136 13.4111C15.4999 13.4461 15.4026 13.7137 15.3911 13.7468C15.3793 13.7794 15.3958 13.8052 15.4165 13.8126C15.4651 13.83 15.5012 13.8411 15.5674 13.8567C15.6593 13.8784 15.7368 13.8797 15.8094 13.8797C15.9614 13.8797 16.1 13.8584 16.2148 13.8169C16.3304 13.7751 16.4311 13.7024 16.5201 13.6038C16.6163 13.4975 16.6768 13.3862 16.7347 13.2344C16.792 13.0839 16.8408 12.8971 16.8799 12.6794L17.252 10.5738H17.7961C17.7961 10.5738 17.8419 10.5755 17.8515 10.5257L17.913 10.1823C17.9173 10.1494 17.9033 10.1289 17.8591 10.1291H17.3311C17.3337 10.1171 17.3577 9.93137 17.4183 9.7565C17.4441 9.68184 17.4928 9.62163 17.5341 9.58027C17.5726 9.54088 17.6201 9.51135 17.6724 9.4942C17.7298 9.47646 17.7896 9.46783 17.8497 9.46865C17.8994 9.46865 17.9482 9.47462 17.9854 9.48237C18.0366 9.49326 18.0565 9.49902 18.0699 9.50299C18.1237 9.51943 18.131 9.50352 18.1415 9.47744L18.2678 9.13064C18.2808 9.09336 18.2492 9.07765 18.2374 9.07305ZM10.858 12.6455C10.858 12.6732 10.8383 12.6957 10.8106 12.6957H10.3726C10.3449 12.6957 10.3252 12.6732 10.3252 12.6455V9.12006C10.3252 9.09252 10.3449 9.07022 10.3726 9.07022H10.8106C10.8383 9.07022 10.858 9.09252 10.858 9.12006V12.6455Z" fill="#FFFFFE"/>
</svg>
