<svg width="30" height="24" viewBox="0 0 30 24" fill="none" xmlns="http://www.w3.org/2000/svg">
<path d="M23.81 13.42C23.017 13.4211 22.2347 13.6024 21.5221 13.9503C21.299 13.5801 21.1267 13.1815 21.0099 12.7653C20.9427 12.4391 20.9272 12.1044 20.9639 11.7733C21.041 11.4091 21.141 11.05 21.2633 10.6984C21.2588 10.6524 21.2083 10.435 20.7006 10.4278C20.1928 10.4206 19.7555 10.5243 19.7086 10.6587C19.6204 10.9041 19.5496 11.1554 19.4966 11.4108C19.0764 12.4475 18.5592 13.4421 17.9518 14.3814C17.6115 13.8235 17.4716 13.1663 17.555 12.5182C17.6321 12.154 17.7321 11.7949 17.8544 11.4433C17.8499 11.3973 17.7994 11.1799 17.2917 11.1727C16.784 11.1655 16.3466 11.2692 16.2997 11.4036C16.2528 11.538 16.1933 11.8545 16.0878 12.1557C15.9823 12.4569 14.7504 15.2092 14.4275 15.919C14.2616 16.2797 14.1182 16.5737 14.0172 16.7721C14.0124 16.785 14.0064 16.7974 13.9992 16.8091C13.909 16.9795 13.8612 17.0724 13.8612 17.0724V17.0769C13.7918 17.2013 13.7178 17.3168 13.6808 17.3168C13.6164 17.0591 13.6195 16.7892 13.6899 16.5331C13.8702 15.5781 14.3121 14.0937 14.3076 14.0423C14.3076 14.0143 14.3906 13.7564 14.0217 13.623C13.9362 13.5822 13.8401 13.5691 13.7468 13.5852C13.6534 13.6014 13.5674 13.6461 13.5005 13.7131C13.468 13.7131 13.4455 13.7916 13.4455 13.7916C13.4455 13.7916 13.8468 12.1223 12.6798 12.1223C12.2254 12.2137 11.7938 12.3951 11.4105 12.6558C11.0272 12.9164 10.6999 13.2511 10.4478 13.6401C10.134 13.8105 9.46577 14.1749 8.75063 14.5672C8.48009 14.7196 8.19692 14.872 7.93449 15.0181C7.91646 15 7.89752 14.9766 7.87948 14.9585C6.45913 13.4453 3.84838 12.3776 3.96111 10.353C4.00259 9.6153 4.256 7.6782 8.97428 5.32537C12.8575 3.41173 15.948 3.94199 16.4828 5.11796C17.2484 6.79713 14.827 9.9147 10.8149 10.3665C10.371 10.4566 9.91259 10.4457 9.47349 10.3347C9.03439 10.2237 8.62585 10.0155 8.27808 9.72532C8.06616 9.49445 8.03369 9.48093 7.95523 9.52692C7.82628 9.59636 7.90924 9.80378 7.95523 9.92372C8.10829 10.2007 8.31532 10.4442 8.56408 10.6398C8.81283 10.8355 9.09828 10.9793 9.40355 11.0627C10.9819 11.4038 12.6276 11.2407 14.1083 10.5965C16.5432 9.65588 18.437 7.04062 17.8815 4.85012C17.3233 2.62715 13.634 1.89398 10.1421 3.13668C7.95501 3.87262 5.93412 5.03184 4.19468 6.54823C2.27111 8.34735 1.9672 9.91019 2.09165 10.5658C2.54255 12.8907 5.74489 14.403 7.02637 15.5258C6.96144 15.5628 6.90192 15.5952 6.85142 15.6223C6.21023 15.9406 3.76631 17.2185 3.15398 18.5694C2.46229 20.1025 3.26491 21.1982 3.79517 21.3461C4.59418 21.5373 5.43298 21.4743 6.19445 21.1659C6.95593 20.8574 7.60209 20.3189 8.04271 19.6254C8.41792 19.0503 8.64856 18.3929 8.71498 17.7094C8.78139 17.0259 8.68163 16.3365 8.42418 15.6998C8.41983 15.6895 8.41373 15.6801 8.40614 15.6719L8.90845 15.377C9.23581 15.1831 9.55866 15.0036 9.83551 14.8557C9.64778 15.3972 9.53757 15.9625 9.50816 16.5349C9.44441 17.4122 9.71288 18.2813 10.2603 18.9698C10.3436 19.0415 10.4403 19.096 10.5447 19.13C10.6492 19.1641 10.7594 19.177 10.869 19.1682C11.4101 19.1682 11.6581 18.7173 11.9295 18.1816C12.2614 17.5269 12.5608 16.7658 12.5608 16.7658C12.5608 16.7658 12.1874 18.8228 13.202 18.8228C13.5708 18.8228 13.9442 18.343 14.111 18.1014V18.1059C14.111 18.1059 14.12 18.0923 14.139 18.0599L14.1985 17.9634V17.9544C14.3464 17.6964 14.6782 17.1103 15.1715 16.1372C15.8082 14.8828 16.4215 13.3145 16.4215 13.3145C16.4806 13.6592 16.5622 13.9996 16.6658 14.3336C16.8144 14.7384 16.99 15.1328 17.1916 15.5141C17.0437 15.7215 16.9517 15.8369 16.9517 15.8369L16.9562 15.8414C16.8363 15.9983 16.7073 16.1688 16.5639 16.3347C16.1373 16.8037 15.7415 17.2999 15.379 17.82C15.3251 17.9074 15.3066 18.012 15.3272 18.1125C15.3478 18.2131 15.406 18.302 15.4899 18.3611C15.6797 18.4599 15.8961 18.4956 16.1076 18.463C16.4264 18.445 16.7398 18.3733 17.0347 18.2511C17.3197 18.1508 17.5885 18.0095 17.8328 17.8317C18.0846 17.6573 18.2873 17.4209 18.4214 17.1455C18.5555 16.8701 18.6164 16.5648 18.5984 16.259C18.5701 15.8737 18.4717 15.4969 18.308 15.147C18.354 15.0821 18.3982 15.0181 18.4415 14.9531C18.9542 14.1878 19.4163 13.3898 19.8249 12.5642C19.884 12.9089 19.9657 13.2493 20.0693 13.5833C20.1918 13.9331 20.3426 14.2724 20.5202 14.5978C19.9304 15.0516 19.4658 15.6481 19.1702 16.3311C18.8798 17.1707 19.1052 17.5485 19.5309 17.636C19.7638 17.6521 19.9967 17.6044 20.2046 17.498C20.5102 17.3976 20.7981 17.2497 21.0577 17.0598C21.3314 16.8982 21.5607 16.6711 21.7249 16.3989C21.8891 16.1268 21.983 15.818 21.9983 15.5005C21.9778 15.1836 21.9062 14.8721 21.7863 14.578C22.5647 14.2739 23.4086 14.1769 24.2357 14.2966C26.4307 14.5545 26.8644 15.9244 26.7815 16.5015C26.7426 16.7061 26.6603 16.9001 26.5402 17.0702C26.4201 17.2404 26.265 17.3829 26.0853 17.4881C25.9329 17.5846 25.8824 17.6171 25.8959 17.6865C25.9139 17.7884 25.9861 17.783 26.1168 17.765C26.4477 17.6622 26.7395 17.4615 26.954 17.1894C27.1684 16.9173 27.2954 16.5866 27.3181 16.2409C27.3875 14.8882 26.0961 13.4047 23.8127 13.4182L23.81 13.42ZM6.87396 19.1267C6.1453 19.9203 5.13076 20.2197 4.69248 19.9663C4.22173 19.6958 4.4066 18.5234 5.3012 17.6829C5.83187 17.2052 6.40545 16.7774 7.01464 16.405C7.12106 16.3401 7.27797 16.2481 7.46555 16.1345L7.51605 16.1065L7.62697 16.0371C7.7868 16.5726 7.80129 17.141 7.66896 17.6839C7.53663 18.2268 7.26225 18.7248 6.87396 19.1267ZM12.1775 15.5195C11.9241 16.1372 11.3938 17.7199 11.071 17.6315C10.7941 17.5576 10.6201 16.3582 11.016 15.1732C11.2159 14.6027 11.507 14.0685 11.8781 13.5914C12.2749 13.1486 12.7132 13.0007 12.8187 13.1811C12.7224 13.9881 12.5063 14.7762 12.1775 15.5195ZM16.554 17.6135C16.4476 17.6685 16.3466 17.7037 16.3006 17.6784C16.2681 17.6604 16.3466 17.5882 16.3466 17.5882C16.3466 17.5882 16.8958 16.9975 17.1122 16.7306C17.2367 16.5737 17.3828 16.3897 17.5415 16.1814V16.2409C17.5415 16.9461 16.8588 17.4214 16.5549 17.6153L16.554 17.6135ZM19.9304 16.8433C19.8519 16.7883 19.8655 16.6034 20.1288 16.0272C20.3119 15.6571 20.5677 15.3277 20.8809 15.0586C20.9289 15.1951 20.9539 15.3387 20.9549 15.4834C20.9584 15.7914 20.8599 16.0919 20.6748 16.3381C20.4896 16.5842 20.2282 16.7622 19.9313 16.8442L19.9304 16.8433Z" fill="#CD6799"/>
</svg>
