<svg width="23" height="24" viewBox="0 0 23 24" fill="none" xmlns="http://www.w3.org/2000/svg">
<path d="M1.09766 2H21.0977V22H1.09766V2Z" fill="#34BDB2"/>
<path d="M14.2586 8.80003C13.2027 8.18737 12.2654 7.70557 11.0391 7.72682C10.3375 7.73901 9.7352 8.12034 9.60855 8.81823C9.49066 9.46753 10.0679 9.82768 10.6683 10.0488C11.6642 10.4155 12.5311 10.8027 13.5096 11.2104C15.2885 11.9517 16.2006 13.1523 16.0928 14.6927C15.9556 16.6526 14.7761 18.0583 12.9014 18.5217C10.4519 19.1274 8.07324 18.2049 6.06348 16.9171C6.57074 16.1443 7.15926 15.6168 7.66348 14.8488C8.82457 15.343 9.73676 16.0108 10.9514 16.1149C11.8079 16.1884 12.7784 16.1475 12.9708 15.1415C13.1443 14.2343 12.3547 13.748 11.5846 13.4764C10.6679 13.153 9.75277 12.7574 8.85371 12.3903C7.19176 11.7114 6.51551 10.3837 6.62934 8.81956C6.62934 7.90245 7.39027 6.04878 9.25598 5.47221C12.1225 4.58628 13.7019 5.49347 15.7806 6.82932C15.2285 7.55948 14.804 8.07862 14.2586 8.80003Z" fill="white"/>
</svg>
