<svg width="23" height="24" viewBox="0 0 23 24" fill="none" xmlns="http://www.w3.org/2000/svg">
<g clip-path="url(#clip0_127_5151)">
<path d="M11.7377 13.4286C14.8936 13.4286 17.452 10.8702 17.452 7.71429C17.452 4.55837 14.8936 2 11.7377 2C8.58181 2 6.02344 4.55837 6.02344 7.71429C6.02344 10.8702 8.58181 13.4286 11.7377 13.4286Z" fill="#036C70"/>
<path d="M16.4998 18.1904C19.3927 18.1904 21.7379 15.8453 21.7379 12.9523C21.7379 10.0594 19.3927 7.71423 16.4998 7.71423C13.6069 7.71423 11.2617 10.0594 11.2617 12.9523C11.2617 15.8453 13.6069 18.1904 16.4998 18.1904Z" fill="#1A9BA1"/>
<path d="M12.4519 22C14.6873 22 16.4995 20.1878 16.4995 17.9524C16.4995 15.717 14.6873 13.9048 12.4519 13.9048C10.2165 13.9048 8.4043 15.717 8.4043 17.9524C8.4043 20.1878 10.2165 22 12.4519 22Z" fill="#37C6D0"/>
<path opacity="0.1" d="M12.6909 7.1572V17.3191C12.6886 17.6722 12.4746 17.9894 12.1481 18.1239C12.0441 18.1678 11.9324 18.1905 11.8195 18.1905H8.40999C8.40523 18.1096 8.40523 18.0334 8.40523 17.9524C8.40365 17.8729 8.40682 17.7934 8.41476 17.7143C8.50191 16.1922 9.43964 14.8491 10.8386 14.2429V13.3572C7.72519 12.8638 5.60124 9.93997 6.09462 6.82659C6.09804 6.80503 6.10157 6.78347 6.10524 6.76195C6.12894 6.60136 6.16234 6.44233 6.20524 6.28577H11.8195C12.3 6.2876 12.6891 6.67668 12.6909 7.1572Z" fill="black"/>
<path opacity="0.2" d="M11.3425 6.76196H6.10436C5.57521 9.86973 7.66559 12.818 10.7734 13.3472C10.8675 13.3632 10.9619 13.3769 11.0567 13.3882C9.58055 14.0882 8.50483 16.0762 8.4134 17.7143C8.40548 17.7934 8.40229 17.8729 8.40388 17.9524C8.40388 18.0334 8.40388 18.1096 8.40863 18.1905C8.41723 18.3506 8.43793 18.5098 8.47054 18.6667H11.342C11.6951 18.6644 12.0123 18.4504 12.1467 18.1239C12.1907 18.0199 12.2134 17.9082 12.2134 17.7953V7.63339C12.2116 7.15306 11.8228 6.76406 11.3425 6.76196Z" fill="black"/>
<path opacity="0.2" d="M11.3424 6.76196H6.10432C5.57528 9.87002 7.66598 12.8185 10.774 13.3475C10.8376 13.3583 10.9014 13.3681 10.9653 13.3767C9.5367 14.1272 8.50337 16.1105 8.41384 17.7143H11.3424C11.8222 17.7107 12.2102 17.3227 12.2138 16.8429V7.63339C12.212 7.15288 11.8229 6.76379 11.3424 6.76196Z" fill="black"/>
<path opacity="0.2" d="M10.867 6.76196H6.10514C5.60559 9.696 7.44408 12.5215 10.3289 13.2534C9.2366 14.5014 8.56661 16.0628 8.41466 17.7143H10.867C11.3476 17.7125 11.7366 17.3234 11.7385 16.8429V7.63339C11.7382 7.15223 11.3482 6.76223 10.867 6.76196Z" fill="black"/>
<path d="M2.13458 6.76196H10.865C11.3471 6.76196 11.7379 7.15275 11.7379 7.63482V16.3653C11.7379 16.8474 11.3471 17.2381 10.865 17.2381H2.13458C1.65251 17.2381 1.26172 16.8474 1.26172 16.3653V7.63482C1.26172 7.15275 1.65251 6.76196 2.13458 6.76196Z" fill="url(#paint0_linear_127_5151)"/>
<path d="M5.16035 11.8933C4.9558 11.7577 4.78494 11.577 4.66083 11.3652C4.54057 11.1438 4.48063 10.8947 4.48701 10.6429C4.4763 10.3018 4.59138 9.9688 4.81034 9.70714C5.04044 9.44517 5.33785 9.25117 5.67034 9.14619C6.04928 9.02146 6.44619 8.96 6.8451 8.96429C7.3697 8.94512 7.89356 9.01847 8.39272 9.18096V10.2762C8.17583 10.1448 7.9396 10.0484 7.69272 9.99048C7.42483 9.92479 7.14996 9.89185 6.87415 9.89238C6.58329 9.88171 6.2943 9.94288 6.03272 10.0705C5.83076 10.1576 5.69981 10.3563 5.69939 10.5762C5.69857 10.7096 5.74982 10.8381 5.84224 10.9343C5.95141 11.0477 6.08055 11.1401 6.2232 11.2067C6.38193 11.2857 6.62002 11.3908 6.93749 11.5219C6.97244 11.533 7.00651 11.5467 7.03939 11.5629C7.35183 11.685 7.65325 11.8336 7.94034 12.0072C8.15775 12.1412 8.34022 12.325 8.47273 12.5433C8.60858 12.7909 8.67442 13.0707 8.6632 13.3529C8.67871 13.703 8.5716 14.0475 8.36034 14.3272C8.14978 14.5842 7.86826 14.7737 7.55082 14.8719C7.17744 14.989 6.78776 15.0455 6.39653 15.0395C6.04551 15.0411 5.69501 15.0125 5.34892 14.9538C5.05668 14.906 4.7715 14.8222 4.49987 14.7043V13.5495C4.75952 13.735 5.0496 13.8736 5.35701 13.9591C5.66339 14.0545 5.98186 14.1055 6.30273 14.1105C6.5997 14.1293 6.89614 14.0664 7.15987 13.9286C7.34462 13.8243 7.45698 13.6269 7.45226 13.4148C7.45349 13.2672 7.39511 13.1254 7.29035 13.0214C7.16008 12.8936 7.00924 12.7884 6.84417 12.7105C6.65369 12.6153 6.37321 12.4897 6.00274 12.3338C5.70801 12.2153 5.42582 12.0678 5.16035 11.8933Z" fill="white"/>
</g>
<defs>
<linearGradient id="paint0_linear_127_5151" x1="3.08164" y1="6.07993" x2="9.91798" y2="17.9202" gradientUnits="userSpaceOnUse">
<stop stop-color="#058F92"/>
<stop offset="0.5" stop-color="#038489"/>
<stop offset="1" stop-color="#026D71"/>
</linearGradient>
<clipPath id="clip0_127_5151">
<rect width="21" height="20" fill="white" transform="translate(1 2)"/>
</clipPath>
</defs>
</svg>
