<svg width="31" height="24" viewBox="0 0 31 24" fill="none" xmlns="http://www.w3.org/2000/svg">
<path d="M27.6038 6.52242C25.2767 5.20167 22.8113 4.25827 20.1824 3.76771C18.0818 3.37777 15.9937 3.4155 13.8931 3.79286C11.2642 4.25827 8.77359 5.20167 6.23271 5.95638C5.1761 6.27085 4.1195 6.61047 3 6.52242C3 6.61047 3 6.68594 3 6.77399C3.60377 7.89349 4.33333 8.92494 5.26415 9.80544C8.1195 12.5098 11.3648 14.5476 15.2264 15.5036C15.5031 15.5664 15.6415 15.6671 15.7421 15.9941C16.0692 17.1262 16.4465 18.2457 17.1132 19.252C17.9308 20.4847 18.283 20.6608 19.5786 20.4092C19.3774 19.8935 19.1509 19.3903 18.9623 18.862C18.3333 17.0885 18.8491 15.9312 20.6226 15.3526C22.3711 14.7866 24.044 14.0947 25.6415 13.1639C26.3208 12.774 26.3836 12.6356 26.1698 11.7551C19.4151 15.0507 13.4528 13.7803 8.25787 8.535C10.2704 7.74255 12.3711 7.05072 14.5723 6.66079C17.0755 6.13249 19.566 5.95639 21.9937 7.03815C22.3333 7.18909 22.6855 7.31488 23.0126 7.4784C24.8113 8.32117 26.3837 9.49097 27.9811 10.6482L28.1447 7.40293C28.1447 7.27714 28.1447 7.15135 28.1447 7.02557C28.0063 6.79915 27.8302 6.64821 27.6038 6.52242Z" fill="#231F20"/>
<path d="M18.1196 12.2457C20.4215 12.2457 22.2831 10.384 22.2831 8.08216C22.2831 7.75511 22.2454 7.42807 22.1699 7.1136C22.107 7.08844 22.0315 7.06329 21.9686 7.02555C19.541 5.94379 17.0504 6.11989 14.5473 6.64819C14.4215 6.67335 14.3083 6.69851 14.1825 6.72367C14.0315 7.15134 13.9561 7.60417 13.9561 8.08216C13.9561 10.384 15.8303 12.2457 18.1196 12.2457Z" fill="#44B3E3"/>
</svg>
