<svg width="20" height="24" viewBox="0 0 20 24" fill="none" xmlns="http://www.w3.org/2000/svg">
<path d="M2.62028 20.4293L2.00072 3.92089C1.98026 3.37568 2.39831 2.91362 2.94284 2.87959L16.9844 2.00199C17.5387 1.96735 18.0161 2.38859 18.0507 2.94286C18.052 2.96374 18.0527 2.98466 18.0527 3.00558V20.9945C18.0527 21.5498 17.6025 22 17.0471 22C17.0321 22 17.0171 21.9997 17.002 21.999L3.58 21.3962C3.05727 21.3727 2.6399 20.9522 2.62028 20.4293Z" fill="#FF4785"/>
<mask id="mask0_626_220673" style="mask-type:luminance" maskUnits="userSpaceOnUse" x="2" y="2" width="17" height="20">
<path d="M2.62028 20.4293L2.00072 3.92089C1.98026 3.37568 2.39831 2.91362 2.94284 2.87959L16.9844 2.00199C17.5387 1.96735 18.0161 2.38859 18.0507 2.94286C18.052 2.96374 18.0527 2.98466 18.0527 3.00558V20.9945C18.0527 21.5498 17.6025 22 17.0471 22C17.0321 22 17.0171 21.9997 17.002 21.999L3.58 21.3962C3.05727 21.3727 2.6399 20.9522 2.62028 20.4293Z" fill="white"/>
</mask>
<g mask="url(#mask0_626_220673)">
<path d="M13.8535 4.45832L13.9494 2.15151L15.8777 2L15.9608 4.37893C15.9637 4.46172 15.8989 4.53118 15.8161 4.53407C15.7807 4.53531 15.7459 4.52395 15.7181 4.502L14.9744 3.91619L14.094 4.58406C14.028 4.63412 13.9339 4.62121 13.8838 4.5552C13.8628 4.52742 13.852 4.49316 13.8535 4.45832ZM11.3873 9.53827C11.3873 9.92949 14.0225 9.74199 14.3763 9.46719C14.3763 6.80309 12.9468 5.40316 10.3291 5.40316C7.7115 5.40316 6.24488 6.82488 6.24488 8.95746C6.24488 12.6717 11.2574 12.7428 11.2574 14.7687C11.2574 15.3374 10.9789 15.6751 10.3663 15.6751C9.56798 15.6751 9.25237 15.2674 9.2895 13.8812C9.2895 13.5805 6.24488 13.4868 6.15205 13.8812C5.91569 17.2404 8.00853 18.2093 10.4034 18.2093C12.724 18.2093 14.5433 16.9724 14.5433 14.7332C14.5433 10.7524 9.45659 10.859 9.45659 8.88637C9.45659 8.08665 10.0507 7.98002 10.4034 7.98002C10.7747 7.98002 11.443 8.04547 11.3873 9.53827Z" fill="white"/>
</g>
</svg>
