<svg width="22" height="24" viewBox="0 0 22 24" fill="none" xmlns="http://www.w3.org/2000/svg">
<g clip-path="url(#clip0_127_5154)">
<path d="M5.44551 2C5.5627 2 16.3283 2 16.5236 2C17.0627 2 17.5861 2.08594 18.0939 2.26562C18.8283 2.53125 19.4924 3 19.9924 3.60938C20.5002 4.21875 20.8361 4.96875 20.9533 5.75C21.0002 6.03906 21.008 6.32812 21.008 6.61719C21.008 6.88281 21.008 16.2422 21.008 16.6641C21.008 16.9141 21.008 17.1719 21.008 17.4219C21.008 17.7656 20.9924 18.1172 20.9221 18.4531C20.7658 19.2266 20.3986 19.9531 19.8674 20.5391C19.3439 21.125 18.6564 21.5625 17.9143 21.7969C17.4611 21.9375 16.9924 22 16.5158 22C16.3049 22 5.41426 22 5.2502 21.9922C4.45332 21.9531 3.66426 21.6953 3.0002 21.25C2.35176 20.8125 1.82051 20.2031 1.47676 19.5C1.17988 18.8984 1.03145 18.2266 1.03145 17.5547C1.03145 17.3984 1.03145 6.60156 1.03145 6.44531C1.01582 5.78125 1.15645 5.125 1.44551 4.53125C1.78145 3.82813 2.30488 3.21094 2.95332 2.77344C3.61738 2.32031 4.39863 2.05469 5.19551 2.01562C5.27363 2 5.35957 2 5.44551 2Z" fill="url(#paint0_linear_127_5154)"/>
<path d="M17.875 18.3594C17.8047 18.25 17.7266 18.1406 17.6406 18.0391C17.4453 17.8047 17.2187 17.6016 16.9687 17.4297C16.6562 17.2188 16.2891 17.0859 15.9141 17.0703C15.6484 17.0547 15.3828 17.1016 15.1328 17.1953C14.8828 17.2813 14.6406 17.4063 14.4062 17.5313C14.1328 17.6719 13.8594 17.8125 13.5703 17.9297C13.2266 18.0703 12.8672 18.1797 12.5 18.2578C12.0391 18.3438 11.5703 18.375 11.1094 18.3672C10.2734 18.3516 9.4375 18.2266 8.64062 17.9922C7.9375 17.7813 7.26562 17.4922 6.63281 17.125C6.07812 16.8047 5.5625 16.4375 5.07812 16.0234C4.67969 15.6797 4.3125 15.3125 3.96875 14.9219C3.73437 14.6484 3.50781 14.3594 3.29687 14.0625C3.21094 13.9453 3.13281 13.8203 3.0625 13.6953L1 11.4688V6.42969C1 3.98438 2.97656 2 5.42187 2H9.36719L12.2891 4.96875C18.8828 9.45313 16.75 14.3984 16.75 14.3984C16.75 14.3984 18.625 16.5078 17.875 18.3594Z" fill="url(#paint1_linear_127_5154)"/>
<path d="M12.3047 4.96875C18.8984 9.45312 16.7656 14.3984 16.7656 14.3984C16.7656 14.3984 18.6406 16.5156 17.8828 18.3672C17.8828 18.3672 17.1094 17.0703 15.8125 17.0703C14.5625 17.0703 13.8281 18.3672 11.3125 18.3672C5.71094 18.3672 3.0625 13.6875 3.0625 13.6875C8.10938 17.0078 11.5547 14.6562 11.5547 14.6562C9.28125 13.3359 4.44531 7.02344 4.44531 7.02344C8.65625 10.6094 10.4766 11.5547 10.4766 11.5547C9.39062 10.6562 6.34375 6.26562 6.34375 6.26562C8.78125 8.73438 13.625 12.1797 13.625 12.1797C15 8.36719 12.3047 4.96875 12.3047 4.96875Z" fill="white"/>
</g>
<defs>
<linearGradient id="paint0_linear_127_5154" x1="12.8979" y1="1.28634" x2="9.1192" y2="22.7161" gradientUnits="userSpaceOnUse">
<stop stop-color="#FAAE42"/>
<stop offset="1" stop-color="#EF3E31"/>
</linearGradient>
<linearGradient id="paint1_linear_127_5154" x1="11.204" y1="2.32315" x2="8.43851" y2="18.0072" gradientUnits="userSpaceOnUse">
<stop stop-color="#E39F3A"/>
<stop offset="1" stop-color="#D33929"/>
</linearGradient>
<clipPath id="clip0_127_5154">
<rect width="20" height="20" fill="white" transform="translate(1 2)"/>
</clipPath>
</defs>
</svg>
