<svg width="22" height="24" viewBox="0 0 22 24" fill="none" xmlns="http://www.w3.org/2000/svg">
<path d="M11 22.0001C16.5229 22.0001 21.0001 17.5229 21.0001 12C21.0001 6.47716 16.5229 2 11 2C5.47717 2 1 6.47716 1 12C1 17.5229 5.47717 22.0001 11 22.0001Z" fill="#1A171B"/>
<path d="M15.372 5.70004C14.3555 5.73543 13.4693 6.29487 12.8097 7.07042C12.0793 7.91975 11.5929 8.92646 11.242 9.95425C10.6156 9.44073 10.1322 8.77587 9.13374 8.48598C8.73735 8.36393 8.31739 8.33915 7.9094 8.41372C7.5014 8.4883 7.11737 8.66003 6.78978 8.91441C6.43439 9.18021 6.18892 9.58153 6.07297 9.95876C5.77178 10.9399 6.38921 11.8125 6.67081 12.1258L7.28523 12.7839C7.41172 12.9119 7.71667 13.2507 7.56759 13.7326C7.40645 14.2574 6.77322 14.5985 6.12417 14.3974C5.83428 14.3094 5.41789 14.0933 5.51126 13.7891C5.54891 13.6648 5.63926 13.5707 5.6867 13.4638C5.73037 13.3712 5.75145 13.3019 5.76501 13.2605C5.88397 12.8735 5.72133 12.3697 5.30721 12.2417C4.92019 12.1228 4.52413 12.2169 4.37053 12.7161C4.19735 13.2823 4.46691 14.3094 5.91786 14.7491C7.61803 15.2716 9.05543 14.3455 9.25948 13.1378C9.38748 12.3818 9.04639 11.8201 8.42144 11.1048L7.91169 10.5416C7.6105 10.2404 7.49756 9.70728 7.81682 9.30369C8.08637 8.9626 8.47038 8.81728 9.0991 8.98745C10.0177 9.23592 10.4258 9.87368 11.1095 10.3879C10.8279 11.3126 10.6427 12.2402 10.477 13.073L10.3754 13.6934C9.88745 16.2535 9.51473 17.6593 8.54568 18.4657C8.34991 18.6042 8.07131 18.812 7.65116 18.8271C7.43055 18.8346 7.35977 18.6825 7.35751 18.6163C7.35224 18.4619 7.4825 18.3904 7.56834 18.3211C7.69785 18.2503 7.89362 18.1329 7.88006 17.7587C7.865 17.3159 7.49907 16.9304 6.96898 16.9492C6.57142 16.9628 5.96605 17.337 5.98863 18.0214C6.01273 18.7292 6.67157 19.2585 7.66547 19.2247C8.19631 19.2066 9.38221 18.9912 10.5516 17.6005C11.9122 16.0073 12.2924 14.1821 12.5793 12.8449L12.8985 11.0799L13.4723 11.1206C15.1664 11.156 16.0143 10.2788 16.0271 9.64026C16.0346 9.254 15.7733 8.87375 15.4066 8.88203C15.1431 8.88956 14.814 9.06425 14.735 9.42718C14.6574 9.78332 15.2741 10.1048 14.7922 10.4166C14.4496 10.6379 13.836 10.7945 12.9716 10.6673L13.1297 9.79838C13.4504 8.15091 13.845 6.12395 15.3471 6.07576C15.4563 6.07049 15.8569 6.08103 15.8667 6.34532C15.8697 6.43342 15.8479 6.456 15.744 6.65855C15.6385 6.80914 15.5986 6.9507 15.6039 7.10505C15.619 7.52671 15.9382 7.80229 16.4005 7.78573C17.0202 7.7654 17.1987 7.16303 17.1881 6.85206C17.1633 6.1247 16.396 5.66465 15.381 5.69853L15.372 5.70004Z" fill="white"/>
</svg>
