<svg width="34" height="24" viewBox="0 0 34 24" fill="none" xmlns="http://www.w3.org/2000/svg">
<g clip-path="url(#clip0_626_220675)">
<path d="M9.38196 9.26951C10.3963 5.21215 12.9321 3.18347 16.9895 3.18347C23.0755 3.18347 23.8363 7.748 26.8793 8.50875C28.908 9.01592 30.6831 8.25517 32.2046 6.22649C31.1903 10.2838 28.6544 12.3125 24.597 12.3125C18.511 12.3125 17.7503 7.748 14.7072 6.98724C12.6786 6.48007 10.9035 7.24083 9.38196 9.26951ZM1.77441 18.3986C2.78875 14.3412 5.3246 12.3125 9.38196 12.3125C15.468 12.3125 16.2287 16.8771 19.2718 17.6378C21.3004 18.145 23.0755 17.3842 24.597 15.3555C23.5827 19.4129 21.0469 21.4416 16.9895 21.4416C10.9035 21.4416 10.1427 16.8771 7.09969 16.1163C5.07102 15.6091 3.29592 16.3699 1.77441 18.3986Z" fill="#44A8B3"/>
</g>
<defs>
<clipPath id="clip0_626_220675">
<rect width="32" height="19" fill="white" transform="translate(1 2.5)"/>
</clipPath>
</defs>
</svg>
