<svg width="22" height="24" viewBox="0 0 22 24" fill="none" xmlns="http://www.w3.org/2000/svg">
<path d="M20.0629 2H1.93714C1.41957 2 1 2.41957 1 2.93714V21.0629C1 21.5804 1.41957 22 1.93714 22H20.0629C20.5804 22 21 21.5804 21 21.0629V2.93714C21 2.41957 20.5804 2 20.0629 2Z" fill="#3178C6"/>
<path fill-rule="evenodd" clip-rule="evenodd" d="M12.6032 17.5422V19.7336C13.0014 19.9301 13.4257 20.0684 13.8632 20.1443C14.3688 20.2377 14.882 20.2836 15.3961 20.2815C15.8971 20.2838 16.397 20.2333 16.8875 20.1307C17.3278 20.0418 17.748 19.8723 18.1268 19.6308C18.4785 19.4037 18.7683 19.093 18.9704 18.7265C19.3322 17.9674 19.38 17.0962 19.1032 16.3022C18.9864 16.0052 18.8124 15.7341 18.5911 15.5043C18.3535 15.2599 18.0836 15.0492 17.7889 14.8779C17.4497 14.6792 17.0972 14.504 16.7339 14.3536C16.4482 14.235 16.1911 14.1198 15.9625 14.0079C15.7595 13.9107 15.5652 13.7962 15.3818 13.6658C15.2381 13.565 15.1134 13.4398 15.0132 13.2957C14.9267 13.165 14.8816 13.0111 14.8839 12.8543C14.882 12.71 14.9222 12.5683 14.9996 12.4465C15.0837 12.319 15.1959 12.2124 15.3275 12.135C15.4884 12.0403 15.6635 11.972 15.8461 11.9329C16.0702 11.8831 16.2993 11.8591 16.5289 11.8615C16.722 11.8621 16.9149 11.876 17.1061 11.9029C17.3126 11.9308 17.5169 11.9731 17.7175 12.0293C17.9216 12.0859 18.1212 12.1575 18.3146 12.2436C18.5024 12.3273 18.682 12.4282 18.8511 12.545V10.5C18.499 10.3668 18.1339 10.2711 17.7618 10.2143C17.3124 10.1489 16.8587 10.1181 16.4046 10.1222C15.9083 10.1195 15.4134 10.1759 14.9304 10.29C14.4937 10.3898 14.0786 10.5671 13.7046 10.8136C13.3573 11.045 13.0704 11.3563 12.8682 11.7215C12.6539 12.1269 12.5479 12.5809 12.5604 13.0393C12.5445 13.6456 12.7442 14.2378 13.1239 14.7108C13.5898 15.2351 14.1772 15.6371 14.8346 15.8815C15.1346 16.0053 15.4144 16.1265 15.6739 16.245C15.9081 16.3492 16.1331 16.4727 16.3468 16.6143C16.5191 16.7264 16.6704 16.8678 16.7939 17.0322C16.9025 17.1812 16.9601 17.3613 16.9582 17.5458C16.9592 17.6839 16.9237 17.8199 16.8554 17.94C16.7794 18.0691 16.6726 18.1773 16.5446 18.255C16.3845 18.3527 16.2092 18.4232 16.0261 18.4636C15.7875 18.517 15.5434 18.5421 15.2989 18.5386C14.8191 18.5377 14.3432 18.4531 13.8925 18.2886C13.4217 18.1187 12.985 17.8659 12.6032 17.5422ZM8.92179 12.0865H11.7789V10.2815H3.8125V12.0865H6.65679V20.125H8.92179V12.0865Z" fill="white"/>
</svg>
