<svg width="22" height="24" viewBox="0 0 22 24" fill="none" xmlns="http://www.w3.org/2000/svg">
<g clip-path="url(#clip0_214_19549)">
<path d="M17.5819 17.9994L14.0019 12L17.5819 6.00063L19.3337 12L17.5819 17.9994ZM9.665 17.4169L5.16687 12.9994H12.335L15.915 18.9988L9.665 17.4169ZM9.665 6.49813L15.915 4.91625L12.335 10.9156H5.08187C5.08187 11.0006 9.665 6.49813 9.665 6.49813ZM18.8319 2L10.6687 4.08312L9.41875 6.16625H6.99937L1 11.9994L6.99937 17.8325H9.41875L10.5837 19.9156L18.7513 21.9987L20.9156 14.0819L19.7506 11.9987L21.0006 9.91563L18.8319 2Z" fill="black"/>
</g>
<defs>
<clipPath id="clip0_214_19549">
<rect width="20" height="20" fill="white" transform="translate(1 2)"/>
</clipPath>
</defs>
</svg>
