<svg width="28" height="24" viewBox="0 0 28 24" fill="none" xmlns="http://www.w3.org/2000/svg">
<path fill-rule="evenodd" clip-rule="evenodd" d="M9.45154 21.9767H7.53809V20.2206H9.42144V20.6095H8.05007V20.9086H9.3483V21.2754H8.05083V21.5779H9.45154V21.9775V21.9767Z" fill="black"/>
<path fill-rule="evenodd" clip-rule="evenodd" d="M20.4615 21.9767H18.5781V20.2484H20.4321V20.6294H19.0829V20.9234H20.3605V21.2842H19.0829V21.5821H20.4615V21.9756V21.9767Z" fill="black"/>
<path fill-rule="evenodd" clip-rule="evenodd" d="M12.0463 21.9767H11.2723L10.2529 20.6632H10.243V21.9767H9.73633V20.2206H10.523L11.5298 21.5356H11.5397V20.2206H12.0475V21.9767H12.0463Z" fill="black"/>
<path fill-rule="evenodd" clip-rule="evenodd" d="M18.1824 21.9767H17.4083L16.389 20.6632H16.379V21.9767H15.8701V20.2206H16.6568L17.6636 21.5356H17.6735V20.2206H18.1824V21.9767Z" fill="black"/>
<path fill-rule="evenodd" clip-rule="evenodd" d="M13.542 21.9999C13.3797 21.9999 13.2401 21.9959 13.123 21.9877C13.0213 21.9826 12.9204 21.9675 12.8217 21.9428C12.7493 21.9247 12.6811 21.8928 12.6209 21.8487C12.5682 21.8076 12.5268 21.7539 12.5005 21.6925C12.4689 21.6182 12.4487 21.5394 12.4407 21.459C12.43 21.3512 12.4251 21.2428 12.4259 21.1344V21.083C12.4251 20.9739 12.4303 20.8648 12.4415 20.7562C12.449 20.6754 12.4688 20.5963 12.5001 20.5215C12.5268 20.4604 12.5683 20.4068 12.6209 20.3657C12.6812 20.3219 12.7495 20.2906 12.822 20.2735C12.9205 20.249 13.0212 20.2341 13.1226 20.229C13.2407 20.2213 13.3804 20.2175 13.5416 20.2175H13.6178C13.7529 20.2175 13.8713 20.2205 13.9729 20.2263C14.0607 20.2307 14.1482 20.2414 14.2346 20.2583C14.2977 20.2701 14.3587 20.2914 14.4155 20.3215C14.4612 20.3458 14.5004 20.3807 14.5298 20.4232C14.5589 20.4682 14.5785 20.5186 14.5873 20.5714C14.5987 20.638 14.6041 20.7054 14.6033 20.7729V20.8404H14.1081V20.819C14.109 20.7846 14.1027 20.7503 14.0894 20.7185C14.0739 20.6886 14.048 20.6654 14.0167 20.6533C13.9678 20.6344 13.9165 20.6229 13.8643 20.619C13.7988 20.6127 13.7124 20.6094 13.6052 20.6091H13.5618C13.4646 20.6091 13.3815 20.6108 13.3127 20.6141C13.2549 20.6161 13.1974 20.6234 13.1409 20.6358C13.1017 20.6442 13.0647 20.6607 13.0323 20.6842C13.0046 20.7062 12.9837 20.7357 12.9721 20.7691C12.9578 20.8122 12.9493 20.8571 12.947 20.9025C12.9432 20.9554 12.9413 21.019 12.9413 21.0929V21.1242C12.9413 21.1969 12.9432 21.259 12.947 21.3108C12.9494 21.3553 12.9579 21.3993 12.9721 21.4415C12.9837 21.4747 13.0046 21.5039 13.0323 21.5257C13.0647 21.5492 13.1017 21.5657 13.1409 21.574C13.1974 21.5865 13.2549 21.5937 13.3127 21.5958C13.3815 21.5993 13.4646 21.601 13.5618 21.6007H13.6052C13.6845 21.6007 13.7527 21.6007 13.8098 21.5965C13.867 21.5923 13.9153 21.5889 13.9546 21.5828C13.9868 21.5783 14.0184 21.5694 14.0483 21.5565C14.0697 21.547 14.0884 21.5323 14.1028 21.5139C14.1159 21.4962 14.1246 21.4757 14.1283 21.4541C14.1325 21.4273 14.1345 21.4003 14.1344 21.3733V21.3245H13.4605V20.9855H14.6235V21.3756C14.6243 21.4499 14.6188 21.5242 14.6071 21.5977C14.5977 21.6559 14.5776 21.7118 14.5477 21.7626C14.5189 21.809 14.4798 21.8481 14.4334 21.8769C14.3764 21.9109 14.3143 21.9355 14.2494 21.9497C14.1617 21.9695 14.0725 21.9822 13.9828 21.9877C13.8791 21.9954 13.7588 21.9992 13.6209 21.9992L13.542 21.9999Z" fill="black"/>
<path fill-rule="evenodd" clip-rule="evenodd" d="M15.4961 21.981H14.9814V20.2378H15.4961V21.981Z" fill="black"/>
<path fill-rule="evenodd" clip-rule="evenodd" d="M3.59253 19.3007C3.34365 19.3007 3.1255 19.294 2.93808 19.2805C2.77473 19.271 2.61242 19.2482 2.45276 19.2124C2.33395 19.1867 2.21991 19.1425 2.11487 19.0813C2.02876 19.0295 1.95565 18.9586 1.90117 18.8741C1.84496 18.7835 1.8068 18.6828 1.78879 18.5777C1.7653 18.4452 1.75433 18.3108 1.75603 18.1762V16.1953H2.65885V17.8836C2.65885 17.988 2.66253 18.0777 2.6699 18.1526C2.67507 18.218 2.6901 18.2822 2.71447 18.3431C2.73504 18.3935 2.76854 18.4377 2.81161 18.4711C2.86204 18.5073 2.91913 18.5332 2.9796 18.5472C3.06381 18.5686 3.14996 18.5813 3.23673 18.5853C3.33883 18.591 3.45996 18.5941 3.60129 18.5941H3.67748C3.81843 18.5941 3.93982 18.5908 4.04166 18.5842C4.1284 18.5798 4.21458 18.5677 4.29917 18.548C4.35981 18.5344 4.417 18.5085 4.46716 18.4718C4.50967 18.438 4.54295 18.3939 4.56392 18.3438C4.58861 18.283 4.60377 18.2188 4.60887 18.1533C4.61598 18.0772 4.61954 17.9883 4.61954 17.8867V16.1949H5.52274V18.1758C5.52406 18.3099 5.51386 18.4439 5.49227 18.5762C5.47556 18.6815 5.43842 18.7826 5.38294 18.8737C5.32932 18.9581 5.25697 19.029 5.17152 19.0809C5.06678 19.1422 4.95299 19.1864 4.83439 19.212C4.6741 19.2479 4.51116 19.2707 4.34717 19.2802C4.15797 19.2934 3.93766 19.3001 3.68624 19.3004L3.59253 19.3007Z" fill="black"/>
<path fill-rule="evenodd" clip-rule="evenodd" d="M10.1651 19.2629H8.81504L7.03759 16.9659H7.02006V19.2629H6.13477V16.1907H7.50614L9.26188 18.49H9.27903V16.1907H10.1643V19.2614L10.1651 19.2629Z" fill="black"/>
<path fill-rule="evenodd" clip-rule="evenodd" d="M12.8273 17.7418C12.9832 17.7418 13.107 17.7372 13.1995 17.7277C13.2732 17.7234 13.3449 17.703 13.4098 17.6679C13.4562 17.6399 13.4898 17.595 13.5035 17.5426C13.5199 17.4728 13.5273 17.4013 13.5256 17.3296V17.2767C13.5272 17.2059 13.5198 17.1353 13.5035 17.0664C13.4969 17.0405 13.485 17.0162 13.4687 16.995C13.4524 16.9738 13.432 16.9561 13.4087 16.943C13.343 16.9093 13.271 16.8897 13.1972 16.8855C13.1047 16.8759 12.9816 16.8714 12.8273 16.8714H11.7021V17.7418H12.8273ZM14.4349 19.2629H13.5428V19.0138C13.5434 18.9364 13.5398 18.8591 13.5321 18.7822C13.5268 18.7251 13.5112 18.6694 13.486 18.618C13.4634 18.5741 13.4296 18.5369 13.3881 18.5102C13.3368 18.4793 13.2802 18.458 13.2212 18.4473C13.1371 18.4307 13.0517 18.4207 12.966 18.4176C12.8644 18.4123 12.7441 18.4096 12.6049 18.4096H11.7021V19.2629H10.8076V16.1906H13.1896C13.3963 16.1872 13.6029 16.2028 13.8067 16.2371C13.9442 16.2581 14.0747 16.3114 14.1877 16.3925C14.281 16.4659 14.3486 16.567 14.3808 16.6813C14.4195 16.8261 14.4374 16.9756 14.4341 17.1255V17.2333C14.4354 17.3395 14.426 17.4455 14.406 17.5498C14.3899 17.6326 14.3588 17.7118 14.3142 17.7833C14.2721 17.8486 14.2163 17.9038 14.1507 17.9452C14.0747 17.9915 13.9914 18.0243 13.9043 18.0424V18.0599C13.9946 18.0732 14.0833 18.0958 14.169 18.1273C14.2338 18.1511 14.2904 18.1931 14.3317 18.2485C14.3746 18.3114 14.4023 18.3836 14.4124 18.4591C14.4286 18.5692 14.4358 18.6804 14.4341 18.7917V19.2614L14.4349 19.2629Z" fill="black"/>
<path fill-rule="evenodd" clip-rule="evenodd" d="M18.3575 19.2629H15.0205V16.1907H18.305V16.8699H15.9146V17.3922H18.1785V18.0337H15.9146V18.5628H18.3575V19.2614V19.2629Z" fill="black"/>
<path fill-rule="evenodd" clip-rule="evenodd" d="M21.3754 18.073L20.7495 16.8406H20.7274L20.1061 18.073H21.3754ZM22.9555 19.2653H21.9819L21.7003 18.7141H19.7854L19.5084 19.2653H18.542L20.1911 16.1949H21.2992L22.9555 19.2653Z" fill="black"/>
<path fill-rule="evenodd" clip-rule="evenodd" d="M26.2437 19.2653H23.2861V16.1949H24.189V18.5526H26.2437V19.2668V19.2653Z" fill="black"/>
<path fill-rule="evenodd" clip-rule="evenodd" d="M17.6917 9.10529C17.5846 9.62184 17.1081 10.9467 15.5893 11.6644L14.9798 10.9787L13.9513 12.0134C13.3656 12.0055 12.7897 11.8623 12.2686 11.595C11.7475 11.3277 11.2952 10.9435 10.9472 10.4725C11.0566 10.5065 11.1696 10.5277 11.2839 10.5357C11.4523 10.5388 11.6348 10.477 11.6348 10.1929V7.4025C11.6373 7.33069 11.6229 7.2593 11.5928 7.19405C11.5628 7.12881 11.5178 7.07152 11.4616 7.02681C11.4053 6.98209 11.3394 6.95119 11.269 6.93658C11.1987 6.92198 11.1259 6.92407 11.0565 6.94271C10.5803 7.05165 10.1994 8.24056 10.1994 8.24056C10.1941 7.69154 10.3084 7.14795 10.5345 6.64758C10.7605 6.14722 11.0928 5.70209 11.5083 5.34315C12.2176 4.74203 12.9105 4.53404 13.437 4.45251C12.917 4.74888 12.6244 5.23268 12.6244 5.63876C12.6244 6.28978 13.0176 6.21283 13.1341 6.11683V9.88507C13.1538 9.93241 13.1794 9.97708 13.2103 10.018C13.2624 10.09 13.331 10.1485 13.4103 10.1885C13.4897 10.2286 13.5774 10.249 13.6663 10.2481C14.0602 10.2481 14.571 9.7986 14.571 9.7986V6.74728C14.571 6.43682 14.3371 6.0616 14.1029 5.9336C14.1029 5.9336 14.5364 5.85741 14.8716 6.11302C14.9345 6.03603 15.0013 5.96241 15.072 5.89246C15.8514 5.12677 16.587 4.90964 17.1995 4.80069C17.1995 4.80069 16.0845 5.67685 16.0845 6.85014C16.0845 7.72363 16.107 9.85345 16.107 9.85345C16.5218 10.2519 17.1363 9.6767 17.6917 9.10529Z" fill="black"/>
<path fill-rule="evenodd" clip-rule="evenodd" d="M13.9997 2C12.7711 2.00008 11.5701 2.36447 10.5485 3.04711C9.52704 3.72976 8.7309 4.69998 8.2608 5.83509C7.7907 6.97021 7.66776 8.21923 7.90752 9.42422C8.14729 10.6292 8.73899 11.736 9.6078 12.6047C10.4766 13.4734 11.5835 14.065 12.7885 14.3046C13.9935 14.5442 15.2425 14.4211 16.3776 13.9509C17.5127 13.4807 18.4828 12.6844 19.1653 11.6628C19.8478 10.6412 20.2121 9.44018 20.212 8.21157C20.212 7.39579 20.0513 6.588 19.7391 5.83433C19.4269 5.08066 18.9693 4.39587 18.3924 3.81906C17.8155 3.24225 17.1307 2.78473 16.377 2.47261C15.6233 2.16049 14.8154 1.9999 13.9997 2ZM13.9997 14.1752C12.8202 14.1752 11.6671 13.8255 10.6864 13.1703C9.70561 12.5151 8.94119 11.5837 8.48976 10.494C8.03833 9.40431 7.92018 8.20522 8.15024 7.04837C8.3803 5.89152 8.94825 4.82888 9.78226 3.99482C10.6163 3.16076 11.6789 2.59274 12.8357 2.36261C13.9925 2.13247 15.1916 2.25055 16.2814 2.7019C17.3711 3.15326 18.3025 3.91763 18.9578 4.89834C19.6131 5.87906 19.9629 7.03207 19.9629 8.21157C19.9629 9.79315 19.3346 11.3099 18.2163 12.4283C17.098 13.5467 15.5812 14.1751 13.9997 14.1752Z" fill="black"/>
</svg>
