<svg width="22" height="24" viewBox="0 0 22 24" fill="none" xmlns="http://www.w3.org/2000/svg">
<g clip-path="url(#clip0_684_30646)">
<path d="M19.4101 17.329C18.3227 17.3019 17.48 17.4107 16.7731 17.7097C16.5693 17.7912 16.243 17.7913 16.2158 18.0495C16.3246 18.1583 16.3382 18.335 16.4333 18.4845C16.5965 18.7562 16.8819 19.1233 17.1401 19.3136C17.4255 19.5311 17.711 19.7485 18.01 19.9388C18.5401 20.2651 19.1382 20.4553 19.6547 20.7816C19.9538 20.9717 20.2527 21.2165 20.5518 21.4204C20.7013 21.5291 20.7964 21.7058 20.9867 21.7738V21.733C20.8916 21.6107 20.8644 21.434 20.7693 21.2981C20.6334 21.1621 20.4974 21.0398 20.3615 20.9039C19.9673 20.3738 19.478 19.9116 18.9479 19.5311C18.513 19.232 17.5615 18.8243 17.3848 18.3213C17.3848 18.3213 17.3711 18.3078 17.3576 18.2942C17.6566 18.267 18.01 18.1583 18.2955 18.0767C18.7577 17.9543 19.179 17.9815 19.6547 17.8592C19.8721 17.8048 20.0897 17.7369 20.3071 17.6689V17.5466C20.0626 17.3019 19.8858 16.9758 19.6275 16.7447C18.9343 16.1465 18.1731 15.5621 17.3848 15.0728C16.9634 14.801 16.4197 14.6242 15.9712 14.3932C15.8081 14.3115 15.5362 14.2709 15.4411 14.1349C15.1964 13.8359 15.0605 13.4418 14.8838 13.0883C14.4898 12.3407 14.109 11.5117 13.7692 10.7233C13.5247 10.1932 13.3751 9.66307 13.076 9.17379C11.6761 6.86312 10.1537 5.46313 7.81585 4.09027C7.31292 3.80487 6.71491 3.6825 6.07606 3.53302C5.73634 3.51938 5.39645 3.49227 5.05664 3.47862C4.8392 3.38346 4.62168 3.12526 4.43135 3.00289C3.65675 2.51352 1.65859 1.45343 1.0877 2.85341C0.720694 3.73691 1.63139 4.60676 1.94399 5.05537C2.17516 5.36797 2.47412 5.72133 2.63724 6.07478C2.73241 6.3057 2.75952 6.55051 2.85469 6.79515C3.07221 7.39307 3.27601 8.05921 3.5615 8.61655C3.71106 8.90195 3.8741 9.201 4.06443 9.45919C4.17315 9.60867 4.36339 9.67672 4.40423 9.92136C4.21399 10.1932 4.20035 10.601 4.09154 10.9408C3.60226 12.4767 3.79258 14.3796 4.48575 15.5077C4.70319 15.8474 5.21976 16.5952 5.91293 16.3097C6.52458 16.0651 6.38866 15.2903 6.56534 14.6107C6.60619 14.4475 6.57899 14.3388 6.66051 14.2301C6.66058 14.2437 6.66051 14.2573 6.66051 14.2573C6.85083 14.6379 7.04107 15.0049 7.21775 15.3854C7.63916 16.0514 8.37309 16.7447 8.98474 17.2068C9.31107 17.4514 9.56927 17.8728 9.97704 18.0224V17.9815H9.94983C9.86823 17.8592 9.74595 17.8048 9.63723 17.7097C9.39259 17.465 9.12066 17.166 8.93042 16.8941C8.35961 16.1329 7.8566 15.2903 7.40808 14.4204C7.19064 13.999 7.00031 13.5369 6.82363 13.1155C6.74202 12.9523 6.74202 12.7078 6.6061 12.6262C6.40222 12.9252 6.10326 13.1835 5.95369 13.5505C5.69558 14.1349 5.66829 14.8553 5.57313 15.6029C5.51881 15.6165 5.54593 15.6029 5.51872 15.6301C5.08384 15.5213 4.93428 15.0728 4.77115 14.6922C4.36338 13.7272 4.29542 12.1776 4.64887 11.0631C4.74404 10.7777 5.1518 9.8806 4.98868 9.60876C4.90716 9.35047 4.63523 9.20099 4.48575 8.99711C4.30907 8.73882 4.11874 8.41266 3.99646 8.12718C3.67022 7.36605 3.50709 6.52331 3.15373 5.76209C2.99061 5.40865 2.70521 5.04173 2.47412 4.71556C2.21592 4.34856 1.93043 4.09027 1.72655 3.6553C1.65867 3.50582 1.56342 3.26118 1.67214 3.09805C1.69934 2.98933 1.75366 2.94858 1.86247 2.92137C2.03915 2.77181 2.54208 2.96213 2.71876 3.04365C3.22169 3.24745 3.64301 3.43786 4.06442 3.72326C4.25466 3.85918 4.45854 4.11747 4.70318 4.18543H4.98867C5.42364 4.28051 5.91293 4.21263 6.32069 4.33491C7.04115 4.56591 7.69347 4.9058 8.27801 5.27281C10.0586 6.40094 11.5265 8.00489 12.5188 9.92136C12.6819 10.2339 12.7498 10.5195 12.8994 10.8456C13.1848 11.5117 13.5382 12.1913 13.8236 12.8437C14.109 13.4825 14.3809 14.135 14.7886 14.6651C14.9926 14.9504 15.808 15.1 16.175 15.2495C16.4469 15.3718 16.8683 15.4806 17.1129 15.6301C17.575 15.9154 18.0372 16.2417 18.4722 16.5543C18.6897 16.7174 19.3692 17.0573 19.4101 17.329Z" fill="#00546B"/>
<path d="M5.54553 5.51733C5.31444 5.51733 5.15141 5.54462 4.98828 5.58538C4.98828 5.58538 4.98828 5.59903 4.98828 5.61258H5.01548C5.12429 5.83002 5.31444 5.97959 5.45036 6.16983C5.55917 6.38727 5.65425 6.6048 5.76305 6.82232C5.77661 6.80868 5.79017 6.79512 5.79017 6.79512C5.98058 6.65911 6.07566 6.44167 6.07566 6.11551C5.99405 6.02035 5.98049 5.92519 5.91253 5.83002C5.83101 5.69402 5.65425 5.62614 5.54553 5.51733Z" fill="#00546B"/>
</g>
<defs>
<clipPath id="clip0_684_30646">
<rect width="20" height="20" fill="white" transform="translate(1 2)"/>
</clipPath>
</defs>
</svg>
