<svg width="23" height="24" viewBox="0 0 23 24" fill="none" xmlns="http://www.w3.org/2000/svg">
<g clip-path="url(#clip0_626_220659)">
<path d="M21.1313 5.16604L12.0225 21.4542C11.8344 21.7905 11.3512 21.7924 11.1603 21.4578L1.87092 5.16761C1.66296 4.80292 1.97481 4.36118 2.38807 4.43505L11.5066 6.06494C11.5648 6.07534 11.6244 6.07524 11.6825 6.06464L20.6104 4.43739C21.0223 4.36232 21.3356 4.80063 21.1313 5.16604Z" fill="url(#paint0_linear_626_220659)"/>
<path d="M15.8505 2.29714L9.10972 3.61797C8.99893 3.63968 8.9169 3.73357 8.91022 3.84625L8.49556 10.8494C8.48581 11.0143 8.6373 11.1424 8.79829 11.1052L10.675 10.6721C10.8506 10.6316 11.0093 10.7863 10.9732 10.9629L10.4156 13.6932C10.3781 13.877 10.5506 14.0341 10.7301 13.9796L11.8892 13.6274C12.0689 13.5729 12.2416 13.7304 12.2036 13.9143L11.3175 18.2031C11.262 18.4714 11.6189 18.6177 11.7677 18.3877L11.8671 18.234L17.3599 7.27227C17.4519 7.08873 17.2932 6.87945 17.0917 6.91835L15.1599 7.29118C14.9783 7.32618 14.8239 7.15712 14.8751 6.97951L16.136 2.60865C16.1872 2.43074 16.0322 2.26153 15.8505 2.29714Z" fill="url(#paint1_linear_626_220659)"/>
</g>
<defs>
<linearGradient id="paint0_linear_626_220659" x1="1.64411" y1="3.85293" x2="12.9807" y2="19.249" gradientUnits="userSpaceOnUse">
<stop stop-color="#41D1FF"/>
<stop offset="1" stop-color="#BD34FE"/>
</linearGradient>
<linearGradient id="paint1_linear_626_220659" x1="10.9835" y1="2.65574" x2="13.0342" y2="16.7236" gradientUnits="userSpaceOnUse">
<stop stop-color="#FFEA83"/>
<stop offset="0.0833333" stop-color="#FFDD35"/>
<stop offset="1" stop-color="#FFA800"/>
</linearGradient>
<clipPath id="clip0_626_220659">
<rect width="21" height="20" fill="white" transform="translate(1 2)"/>
</clipPath>
</defs>
</svg>
