<svg width="21" height="24" viewBox="0 0 21 24" fill="none" xmlns="http://www.w3.org/2000/svg">
<path d="M10.4999 2L19.3376 6.99917V17.0008L10.4999 22L1.66211 17.0008V6.99917L10.4999 2Z" fill="white"/>
<path d="M17.7605 16.654L10.7937 20.5993V17.5311L15.1359 15.1399L17.7605 16.654ZM18.2374 16.2238V7.97967L15.6895 9.45041V14.7531L18.2374 16.2238ZM3.21323 16.654L10.1801 20.596V17.5278L5.83788 15.1399L3.21323 16.654ZM2.73633 16.2238V7.97967L5.28427 9.45041V14.7531L2.73633 16.2238ZM3.03314 7.44607L10.1801 3.40405V6.3722L5.60109 8.89013L5.56441 8.91014L3.03314 7.44607ZM17.9373 7.44607L10.7937 3.40405V6.3722L15.3693 8.89346L15.406 8.91347L17.9373 7.44607Z" fill="#8ED6FB"/>
<path d="M10.1796 16.8308L5.89746 14.4729V9.80725L10.1796 12.2785V16.8308ZM10.7932 16.8308L15.0754 14.4763V9.80725L10.7932 12.2785V16.8308ZM6.18427 9.26698L10.4864 6.90247L14.7852 9.26698L10.4864 11.7482L6.18427 9.26698Z" fill="#1C78C0"/>
</svg>
