<svg width="22" height="24" viewBox="0 0 22 24" fill="none" xmlns="http://www.w3.org/2000/svg">
<path d="M2.4125 12C2.4125 15.4062 4.36875 18.3406 7.225 19.7175L3.17375 8.52188C2.70312 9.60875 2.4125 10.7688 2.4125 12ZM16.7969 11.565C16.7969 10.515 16.3981 9.7525 16.0719 9.21C15.6369 8.485 15.2387 7.90562 15.2387 7.18125C15.2387 6.38438 15.855 5.65937 16.6887 5.65937H16.7975C15.275 4.24625 13.2463 3.4125 11 3.4125C9.57883 3.42508 8.18228 3.78489 6.93196 4.4606C5.68164 5.1363 4.61546 6.10741 3.82625 7.28938H4.37C5.27625 7.28938 6.6525 7.18062 6.6525 7.18062C7.12375 7.14437 7.16 7.8325 6.725 7.90563C6.725 7.90563 6.25375 7.97812 5.74687 7.97812L8.86313 17.2531L10.7469 11.6369L9.40625 7.9775L8.5 7.90625C8.02875 7.87 8.10125 7.18125 8.53625 7.18125C8.53625 7.18125 9.94875 7.29 10.7825 7.29C11.6888 7.29 13.065 7.18125 13.065 7.18125C13.5363 7.145 13.5725 7.83313 13.1375 7.90625C13.1375 7.90625 12.6662 7.97875 12.1594 7.97875L15.275 17.2188L16.15 14.3563C16.5125 13.1606 16.8019 12.3275 16.8019 11.5662L16.7969 11.565ZM11.145 12.7606L8.5725 20.225C9.33313 20.4425 10.1663 20.5875 11 20.5875C12.0144 20.5875 12.9563 20.4 13.8625 20.1162C13.8263 20.08 13.8263 20.0438 13.79 20.0075L11.145 12.7606ZM18.5363 7.90625L18.6087 8.78125C18.6087 9.65625 18.4638 10.6294 17.9569 11.8612L15.3481 19.4338C17.8844 17.9481 19.6231 15.1944 19.6231 12.0063C19.5869 10.5206 19.1881 9.14375 18.5356 7.9125L18.5363 7.90625ZM11 2C5.4925 2 1 6.4925 1 12C1 17.5075 5.4925 22 11 22C16.5075 22 21 17.5075 21 12C21 6.4925 16.5075 2 11 2ZM11 21.565C5.74625 21.565 1.47125 17.29 1.47125 12C1.47522 9.47404 2.48041 7.05267 4.26654 5.26654C6.05267 3.48041 8.47404 2.47522 11 2.47125C13.526 2.47522 15.9473 3.48041 17.7335 5.26654C19.5196 7.05267 20.5248 9.47404 20.5287 12C20.5287 17.29 16.2537 21.565 11 21.565Z" fill="#00749A"/>
</svg>
