<svg width="22" height="24" viewBox="0 0 22 24" fill="none" xmlns="http://www.w3.org/2000/svg">
<path d="M6.77081 3.10242C6.23065 3.10356 5.7019 3.41018 5.42998 3.87793L1.20076 11.2245C0.933079 11.6935 0.933079 12.3066 1.20076 12.7756L5.42998 20.1222C5.70192 20.5899 6.23065 20.8966 6.77081 20.8977H15.2292C15.7694 20.8965 16.2981 20.5899 16.57 20.1222L20.7992 12.7756C21.0669 12.3066 21.0669 11.6935 20.7992 11.2245L16.57 3.87793C16.2981 3.41018 15.7694 3.10348 15.2292 3.10242H6.77081ZM6.84757 7.40028C6.85919 7.39913 6.87137 7.39913 6.88303 7.40028H8.34198C8.40656 7.40161 8.4692 7.43894 8.50145 7.495L10.9764 11.9053C10.9888 11.9271 10.9969 11.9514 10.9999 11.9764C11.003 11.9514 11.011 11.9271 11.0234 11.9053L13.4924 7.495C13.5257 7.43724 13.5913 7.39971 13.6578 7.40028H15.1168C15.246 7.40142 15.3427 7.56414 15.2822 7.67851L12.8663 12.0001L15.2822 16.3157C15.3484 16.4307 15.2493 16.601 15.1168 16.5998H13.6578C13.5901 16.5993 13.5242 16.5591 13.4924 16.4992L11.0234 12.0889C11.011 12.067 11.003 12.0428 10.9999 12.0178C10.9969 12.0428 10.9888 12.0671 10.9764 12.0889L8.50145 16.4992C8.47067 16.5574 8.40769 16.5972 8.34198 16.5998H6.88303C6.75049 16.601 6.65139 16.4307 6.71766 16.3157L9.13348 12.0001L6.71766 7.67851C6.65975 7.57416 6.7304 7.42255 6.84757 7.40028Z" fill="#3498DB"/>
</svg>
